<svg xmlns="http://www.w3.org/2000/svg" width="29.791" height="36" viewBox="0 0 29.791 36">
  <g id="apple_copy" data-name="apple copy" transform="translate(-0.105 0)">
    <path id="XMLID_229_" d="M1.537,4.7C-1.544,9.979.415,17.994,3.823,22.853c1.7,2.43,3.423,4.61,5.782,4.61l.135,0a7.211,7.211,0,0,0,2.684-.706,7.424,7.424,0,0,1,3.179-.744,6.981,6.981,0,0,1,3.026.72,6.476,6.476,0,0,0,2.9.686c2.657-.049,4.289-2.4,5.728-4.478a19.742,19.742,0,0,0,2.51-5.077l.01-.032a.294.294,0,0,0-.159-.362l-.022-.009a7.534,7.534,0,0,1-4.616-6.888,7.733,7.733,0,0,1,3.7-6.473l.029-.018a.293.293,0,0,0,.085-.414A8.659,8.659,0,0,0,22.016.029C21.823.01,21.624,0,21.425,0a11.942,11.942,0,0,0-4.256,1.05,6.907,6.907,0,0,1-2.039.6,6.735,6.735,0,0,1-2.109-.609A10.323,10.323,0,0,0,9.3.11H9.209A9.132,9.132,0,0,0,1.537,4.7Z" transform="translate(0.105 8.536)" fill="#fff"/>
    <path id="XMLID_230_" d="M7.517,0A8.36,8.36,0,0,0,2.022,2.784,7.643,7.643,0,0,0,.048,8.494a.3.3,0,0,0,.273.255c.127.01.257.015.386.015A7.071,7.071,0,0,0,5.894,6.137,8.053,8.053,0,0,0,7.826.263.3.3,0,0,0,7.517,0Z" transform="translate(14.607 0)" fill="#fff"/>
  </g>
</svg>
