<?xml version="1.0" encoding="UTF-8"?>
<svg width="26px" height="26px" viewBox="0 0 26 26" version="1.1" xmlns="http://www.w3.org/2000/svg" xmlns:xlink="http://www.w3.org/1999/xlink">
    <!-- Generator: Sketch 61 (89581) - https://sketch.com -->
    <title>Path</title>
    <desc>Created with Sketch.</desc>
    <g id="Page-2" stroke="none" stroke-width="1" fill="none" fill-rule="evenodd">
        <g id="Dashboard-help-popup-Copy" transform="translate(-167.000000, -681.000000)" fill="#FFFFFF" fill-rule="nonzero">
            <g id="Help-Popup" transform="translate(0.000000, 540.000000)">
                <g id="Call" transform="translate(145.000000, 119.000000)">
                    <path d="M45.9137086,39.0660208 C44.3218898,39.0660208 42.7589147,38.8170573 41.2777988,38.3275937 C40.552035,38.0800521 39.6598446,38.3071458 39.2168979,38.7620781 L36.2934628,40.9689635 C32.9031122,39.1591875 30.8147218,37.0714688 29.029664,33.7065677 L31.1716115,30.8592969 C31.7281049,30.3035469 31.9277085,29.491724 31.6885633,28.7300052 C31.1970021,27.241099 30.9472944,25.6788646 30.9472944,24.0863646 C30.9473621,22.9359323 30.0114323,22 28.8610707,22 L24.0862914,22 C22.9359299,22 22,22.9359323 22,24.0862969 C22,37.2724948 32.727545,48 45.9137086,48 C47.0640701,48 48,47.0640677 48,45.9137031 L48,41.15225 C48,40.0019531 47.0640024,39.0660208 45.9137086,39.0660208 Z" id="Path"></path>
                </g>
            </g>
        </g>
    </g>
</svg>