<svg id="coupon" xmlns="http://www.w3.org/2000/svg" width="232" height="87" viewBox="0 0 232 87">
  <g id="Coupan">
    <path id="Path_4" data-name="Path 4" d="M.5,0h187V28.618l.5,14.309-1,25.757V87L.5,86.428,20.053,69.257.5,56.664,20.053,40.638,0,28.618,20.053,14.882Z" fill="#f7b500"/>
    <path id="Path_4_Copy" data-name="Path 4 Copy" d="M-.5,0H-180V87H-.5L-20.056,69.715-.5,57.04-20.056,40.907,0,28.808-20.056,14.98Z" transform="translate(232)" fill="#f7b500"/>
  </g>
  <g id="Line" transform="translate(22 12)">
    <g id="Line-2" data-name="Line">
      <rect id="Rectangle" width="6" height="1" fill="#fff"/>
      <rect id="Rectangle_Copy_5" data-name="Rectangle Copy 5" width="6" height="1" transform="translate(8)" fill="#fff"/>
      <rect id="Rectangle_Copy_9" data-name="Rectangle Copy 9" width="6" height="1" transform="translate(16)" fill="#fff"/>
      <rect id="Rectangle_Copy_11" data-name="Rectangle Copy 11" width="6" height="1" transform="translate(24)" fill="#fff"/>
      <rect id="Rectangle_Copy_12" data-name="Rectangle Copy 12" width="6" height="1" transform="translate(32)" fill="#fff"/>
      <rect id="Rectangle_Copy_13" data-name="Rectangle Copy 13" width="6" height="1" transform="translate(40)" fill="#fff"/>
      <rect id="Rectangle_Copy_14" data-name="Rectangle Copy 14" width="6" height="1" transform="translate(48)" fill="#fff"/>
      <rect id="Rectangle_Copy_15" data-name="Rectangle Copy 15" width="6" height="1" transform="translate(56)" fill="#fff"/>
      <rect id="Rectangle_Copy_16" data-name="Rectangle Copy 16" width="6" height="1" transform="translate(64)" fill="#fff"/>
      <rect id="Rectangle_Copy_17" data-name="Rectangle Copy 17" width="6" height="1" transform="translate(72)" fill="#fff"/>
      <rect id="Rectangle_Copy_18" data-name="Rectangle Copy 18" width="6" height="1" transform="translate(80)" fill="#fff"/>
    </g>
    <g id="Line_2" data-name="Line 2" transform="translate(88)">
      <rect id="Rectangle-2" data-name="Rectangle" width="6" height="1" fill="#fff"/>
      <rect id="Rectangle_Copy_5-2" data-name="Rectangle Copy 5" width="6" height="1" transform="translate(8)" fill="#fff"/>
      <rect id="Rectangle_Copy_9-2" data-name="Rectangle Copy 9" width="6" height="1" transform="translate(16)" fill="#fff"/>
      <rect id="Rectangle_Copy_11-2" data-name="Rectangle Copy 11" width="6" height="1" transform="translate(24)" fill="#fff"/>
      <rect id="Rectangle_Copy_12-2" data-name="Rectangle Copy 12" width="6" height="1" transform="translate(32)" fill="#fff"/>
      <rect id="Rectangle_Copy_13-2" data-name="Rectangle Copy 13" width="6" height="1" transform="translate(40)" fill="#fff"/>
      <rect id="Rectangle_Copy_14-2" data-name="Rectangle Copy 14" width="6" height="1" transform="translate(48)" fill="#fff"/>
      <rect id="Rectangle_Copy_15-2" data-name="Rectangle Copy 15" width="6" height="1" transform="translate(56)" fill="#fff"/>
      <rect id="Rectangle_Copy_16-2" data-name="Rectangle Copy 16" width="6" height="1" transform="translate(64)" fill="#fff"/>
      <rect id="Rectangle_Copy_17-2" data-name="Rectangle Copy 17" width="6" height="1" transform="translate(72)" fill="#fff"/>
      <rect id="Rectangle_Copy_18-2" data-name="Rectangle Copy 18" width="6" height="1" transform="translate(80)" fill="#fff"/>
      <rect id="Rectangle_Copy_19" data-name="Rectangle Copy 19" width="6" height="1" transform="translate(88)" fill="#fff"/>
      <rect id="Rectangle_Copy_20" data-name="Rectangle Copy 20" width="4" height="1" transform="translate(96)" fill="#fff"/>
    </g>
  </g>
  <g id="Line_Copy" data-name="Line Copy" transform="translate(22 71)">
    <g id="Line-3" data-name="Line">
      <rect id="Rectangle-3" data-name="Rectangle" width="6" height="1" fill="#fff"/>
      <rect id="Rectangle_Copy_5-3" data-name="Rectangle Copy 5" width="6" height="1" transform="translate(8)" fill="#fff"/>
      <rect id="Rectangle_Copy_9-3" data-name="Rectangle Copy 9" width="6" height="1" transform="translate(16)" fill="#fff"/>
      <rect id="Rectangle_Copy_11-3" data-name="Rectangle Copy 11" width="6" height="1" transform="translate(24)" fill="#fff"/>
      <rect id="Rectangle_Copy_12-3" data-name="Rectangle Copy 12" width="6" height="1" transform="translate(32)" fill="#fff"/>
      <rect id="Rectangle_Copy_13-3" data-name="Rectangle Copy 13" width="6" height="1" transform="translate(40)" fill="#fff"/>
      <rect id="Rectangle_Copy_14-3" data-name="Rectangle Copy 14" width="6" height="1" transform="translate(48)" fill="#fff"/>
      <rect id="Rectangle_Copy_15-3" data-name="Rectangle Copy 15" width="6" height="1" transform="translate(56)" fill="#fff"/>
      <rect id="Rectangle_Copy_16-3" data-name="Rectangle Copy 16" width="6" height="1" transform="translate(64)" fill="#fff"/>
      <rect id="Rectangle_Copy_17-3" data-name="Rectangle Copy 17" width="6" height="1" transform="translate(72)" fill="#fff"/>
      <rect id="Rectangle_Copy_18-3" data-name="Rectangle Copy 18" width="6" height="1" transform="translate(80)" fill="#fff"/>
    </g>
    <g id="Line_2-2" data-name="Line 2" transform="translate(88)">
      <rect id="Rectangle-4" data-name="Rectangle" width="6" height="1" fill="#fff"/>
      <rect id="Rectangle_Copy_5-4" data-name="Rectangle Copy 5" width="6" height="1" transform="translate(8)" fill="#fff"/>
      <rect id="Rectangle_Copy_9-4" data-name="Rectangle Copy 9" width="6" height="1" transform="translate(16)" fill="#fff"/>
      <rect id="Rectangle_Copy_11-4" data-name="Rectangle Copy 11" width="6" height="1" transform="translate(24)" fill="#fff"/>
      <rect id="Rectangle_Copy_12-4" data-name="Rectangle Copy 12" width="6" height="1" transform="translate(32)" fill="#fff"/>
      <rect id="Rectangle_Copy_13-4" data-name="Rectangle Copy 13" width="6" height="1" transform="translate(40)" fill="#fff"/>
      <rect id="Rectangle_Copy_14-4" data-name="Rectangle Copy 14" width="6" height="1" transform="translate(48)" fill="#fff"/>
      <rect id="Rectangle_Copy_15-4" data-name="Rectangle Copy 15" width="6" height="1" transform="translate(56)" fill="#fff"/>
      <rect id="Rectangle_Copy_16-4" data-name="Rectangle Copy 16" width="6" height="1" transform="translate(64)" fill="#fff"/>
      <rect id="Rectangle_Copy_17-4" data-name="Rectangle Copy 17" width="6" height="1" transform="translate(72)" fill="#fff"/>
      <rect id="Rectangle_Copy_18-4" data-name="Rectangle Copy 18" width="6" height="1" transform="translate(80)" fill="#fff"/>
      <rect id="Rectangle_Copy_19-2" data-name="Rectangle Copy 19" width="6" height="1" transform="translate(88)" fill="#fff"/>
      <rect id="Rectangle_Copy_20-2" data-name="Rectangle Copy 20" width="4" height="1" transform="translate(96)" fill="#fff"/>
    </g>
  </g>
  <text id="ABCD1234" transform="translate(116.5 43)" fill="#fff" font-size="24" font-family="SourceSansPro-Bold, Source Sans Pro" font-weight="700" letter-spacing="0.042em"><tspan x="-57.584" y="0">ABCD1234</tspan></text>
  <text id="Tap_to_Copy" data-name="Tap to Copy" transform="translate(116 60)" font-size="12" font-family="SegoeUI, Segoe UI" opacity="0.8"><tspan x="-31.547" y="0">Tap to Copy</tspan></text>
</svg>
