<?xml version="1.0" encoding="UTF-8"?>
<svg width="43px" height="38px" viewBox="0 0 43 38" version="1.1" xmlns="http://www.w3.org/2000/svg" xmlns:xlink="http://www.w3.org/1999/xlink">
    <!-- Generator: Sketch 61 (89581) - https://sketch.com -->
    <title>dashboard</title>
    <desc>Created with Sketch.</desc>
    <defs>
        <filter x="-74.1%" y="-90.9%" width="248.1%" height="281.8%" filterUnits="objectBoundingBox" id="filter-1">
            <feOffset dx="0" dy="2" in="SourceAlpha" result="shadowOffsetOuter1"></feOffset>
            <feGaussianBlur stdDeviation="4" in="shadowOffsetOuter1" result="shadowBlurOuter1"></feGaussianBlur>
            <feColorMatrix values="0 0 0 0 0.176470588   0 0 0 0 0.611764706   0 0 0 0 0.843137255  0 0 0 0.210118007 0" type="matrix" in="shadowBlurOuter1" result="shadowMatrixOuter1"></feColorMatrix>
            <feMerge>
                <feMergeNode in="shadowMatrixOuter1"></feMergeNode>
                <feMergeNode in="SourceGraphic"></feMergeNode>
            </feMerge>
        </filter>
    </defs>
    <g id="Page-2" stroke="none" stroke-width="1" fill="none" fill-rule="evenodd">
        <g id="Dashboard-log-out-screen-Copy" transform="translate(-38.000000, -741.000000)" fill="#7564ab">
            <g id="Tabs" transform="translate(0.000000, 699.000000)">
                <g id="Dashboard-iocn" filter="url(#filter-1)" transform="translate(46.000000, 48.000000)">
                    <g id="dashboard">
                        <path d="M4,0 L13,0 L13,0 L13,13 L0,13 L0,4 C-2.705415e-16,1.790861 1.790861,4.05812251e-16 4,0 Z" id="Rectangle"></path>
                        <path d="M14,0 L23,0 C25.209139,-4.05812251e-16 27,1.790861 27,4 L27,8 L27,8 L14,8 L14,0 Z" id="Rectangle"></path>
                        <path d="M0,14 L9,14 C11.209139,14 13,15.790861 13,18 L13,22 L13,22 L0,22 L0,14 Z" id="Rectangle-Copy-3" transform="translate(6.500000, 18.000000) scale(-1, -1) translate(-6.500000, -18.000000) "></path>
                        <path d="M18,9 L27,9 L27,9 L27,22 L14,22 L14,13 C14,10.790861 15.790861,9 18,9 Z" id="Rectangle-Copy-2" transform="translate(20.500000, 15.500000) scale(-1, -1) translate(-20.500000, -15.500000) "></path>
                    </g>
                </g>
            </g>
        </g>
    </g>
</svg>