<svg width="345" height="245" viewBox="0 0 345 245" fill="none" xmlns="http://www.w3.org/2000/svg">
<path opacity="0.1" d="M200.448 45.9722C178.331 45.2175 157.265 38.1847 137.151 30.4904C117.037 22.7961 97.1096 14.2749 75.5242 10.1978C61.6387 7.57586 45.7596 7.20603 34.573 14.5365C23.8139 21.5784 20.3273 33.7708 18.4588 45.0702C17.0513 53.5703 16.2239 62.5094 20.0769 70.4773C22.7545 76.0038 27.5082 80.6492 30.7964 85.9411C42.2302 104.358 34.1548 127.071 21.7531 145.051C15.9522 153.488 9.1957 161.534 4.7107 170.512C0.225699 179.49 -1.85041 189.783 2.07282 198.941C5.96552 208.022 15.2347 214.841 25.2764 219.637C45.6741 229.379 69.7111 232.169 93.1498 233.748C145.034 237.241 197.196 235.729 249.218 234.214C268.471 233.651 287.806 233.083 306.747 230.151C317.262 228.525 328.119 225.942 335.752 219.703C345.445 211.783 347.848 198.373 341.351 188.433C330.458 171.778 300.333 167.641 292.719 149.766C288.527 139.928 292.831 128.965 298.922 119.842C311.99 100.265 333.893 83.0907 335.047 60.7174C335.84 45.3498 325.31 29.9582 309.031 22.6878C291.964 15.0657 268.303 16.0249 255.712 28.6412C242.758 41.6425 219.975 46.6397 200.448 45.9722Z" fill="#2B60C9"/>
<g opacity="0.9">
<path opacity="0.9" d="M223.453 71.8345H221.826C221.44 71.8345 221.127 72.1427 221.127 72.523V95.7202C221.127 96.1005 221.44 96.4088 221.826 96.4088H223.453C223.839 96.4088 224.152 96.1005 224.152 95.7202V72.523C224.152 72.1427 223.839 71.8345 223.453 71.8345Z" fill="#878787"/>
<path opacity="0.9" d="M121.504 52.582H121.205C120.819 52.582 120.506 52.8903 120.506 53.2706V59.9847C120.506 60.365 120.819 60.6732 121.205 60.6732H121.504C121.89 60.6732 122.203 60.365 122.203 59.9847V53.2706C122.203 52.8903 121.89 52.582 121.504 52.582Z" fill="#9A9A9A"/>
<path opacity="0.9" d="M121.659 67.3936H121.143C120.757 67.3936 120.444 67.7018 120.444 68.0821V80.7887C120.444 81.169 120.757 81.4772 121.143 81.4772H121.659C122.046 81.4772 122.359 81.169 122.359 80.7887V68.0821C122.359 67.7018 122.046 67.3936 121.659 67.3936Z" fill="#9A9A9A"/>
<path opacity="0.9" d="M121.599 86.4021H121.175C120.789 86.4021 120.476 86.7104 120.476 87.0907V99.9175C120.476 100.298 120.789 100.606 121.175 100.606H121.599C121.985 100.606 122.298 100.298 122.298 99.9175V87.0907C122.298 86.7104 121.985 86.4021 121.599 86.4021Z" fill="#9A9A9A"/>
<path opacity="0.9" d="M210.855 25.843H133.371C126.796 25.843 121.467 31.0917 121.467 37.5664V216.857C121.467 223.331 126.796 228.58 133.371 228.58H210.855C217.43 228.58 222.759 223.331 222.759 216.857V37.5664C222.759 31.0917 217.43 25.843 210.855 25.843Z" fill="#A3A3A3"/>
<path opacity="0.9" d="M175.305 31.8987H163.523C162.871 31.8987 162.342 32.4197 162.342 33.0623V33.5644C162.342 34.2071 162.871 34.728 163.523 34.728H175.305C175.958 34.728 176.487 34.2071 176.487 33.5644V33.0623C176.487 32.4197 175.958 31.8987 175.305 31.8987Z" fill="#E6E8EC"/>
<path opacity="0.9" d="M180.254 34.9175C181.155 34.9175 181.885 34.1987 181.885 33.3119C181.885 32.4252 181.155 31.7063 180.254 31.7063C179.354 31.7063 178.624 32.4252 178.624 33.3119C178.624 34.1987 179.354 34.9175 180.254 34.9175Z" fill="#E6E8EC"/>
</g>
<path d="M208.46 31.126H196.858V32.5031C196.858 33.3598 196.687 34.2081 196.354 34.9995C196.021 35.7909 195.533 36.51 194.917 37.1156C194.302 37.7213 193.572 38.2016 192.768 38.5292C191.964 38.8567 191.103 39.0251 190.233 39.0247H153.266C151.509 39.0247 149.825 38.3377 148.582 37.1148C147.34 35.8918 146.641 34.233 146.641 32.5031V31.126H135.769C133.635 31.126 131.589 31.9607 130.08 33.4465C128.571 34.9323 127.724 36.9475 127.724 39.0488V215.377C127.724 217.479 128.571 219.494 130.08 220.98C131.589 222.465 133.635 223.3 135.769 223.3H208.46C210.593 223.3 212.64 222.465 214.148 220.98C215.657 219.494 216.505 217.479 216.505 215.377V39.0488C216.505 36.9475 215.657 34.9323 214.148 33.4465C212.64 31.9607 210.593 31.126 208.46 31.126Z" fill="#C5C5C5"/>
<path d="M216.647 44.6414H127.796V52.7175H216.647V44.6414Z" fill="white"/>
<path d="M138.052 46.3223H130.532V46.9958H138.052V46.3223Z" fill="#3A3768"/>
<path d="M138.052 48.3428H130.532V49.0163H138.052V48.3428Z" fill="#3A3768"/>
<path d="M138.052 50.3633H130.532V51.0368H138.052V50.3633Z" fill="#3A3768"/>
<path d="M210.663 49.4582H210.386L210.279 49.374C210.629 48.9606 210.822 48.4392 210.822 47.9007C210.819 47.4584 210.683 47.0269 210.431 46.6607C210.179 46.2946 209.823 46.0102 209.407 45.8436C208.991 45.6769 208.534 45.6355 208.094 45.7245C207.654 45.8134 207.251 46.0289 206.935 46.3435C206.619 46.6582 206.405 47.0579 206.32 47.4922C206.235 47.9265 206.283 48.3759 206.457 48.7836C206.631 49.1912 206.924 49.5389 207.299 49.7826C207.674 50.0263 208.114 50.1551 208.563 50.1527C209.108 50.1493 209.635 49.959 210.053 49.6145L210.157 49.7017V49.9783L211.909 51.7102L212.434 51.1901L210.663 49.4582ZM208.563 49.4582C208.25 49.4594 207.944 49.369 207.683 49.1986C207.422 49.0282 207.218 48.7854 207.097 48.5009C206.977 48.2164 206.945 47.903 207.005 47.6005C207.065 47.298 207.215 47.0199 207.436 46.8015C207.657 46.5831 207.939 46.4341 208.246 46.3736C208.553 46.313 208.871 46.3435 209.161 46.4612C209.45 46.5789 209.697 46.7785 209.871 47.0348C210.045 47.291 210.138 47.5924 210.138 47.9007C210.14 48.105 210.1 48.3076 210.021 48.4967C209.942 48.6858 209.826 48.8577 209.68 49.0025C209.534 49.1473 209.359 49.2621 209.168 49.3403C208.976 49.4185 208.77 49.4586 208.563 49.4582Z" fill="#3A3768"/>
<path d="M134.291 71.2271C136.366 71.2271 138.049 69.57 138.049 67.5258C138.049 65.4816 136.366 63.8245 134.291 63.8245C132.215 63.8245 130.532 65.4816 130.532 67.5258C130.532 69.57 132.215 71.2271 134.291 71.2271Z" fill="white"/>
<path d="M198.369 71.2273H146.082V73.2479H198.369V71.2273Z" fill="white"/>
<path d="M198.54 75.6021H146.253V77.6226H198.54V75.6021Z" fill="white"/>
<path d="M198.71 79.9797H146.423V82.0003H198.71V79.9797Z" fill="white"/>
<path d="M134.291 96.4688C136.366 96.4688 138.049 94.8117 138.049 92.7675C138.049 90.7233 136.366 89.0662 134.291 89.0662C132.215 89.0662 130.532 90.7233 130.532 92.7675C130.532 94.8117 132.215 96.4688 134.291 96.4688Z" fill="white"/>
<path d="M198.369 96.469H146.082V98.4895H198.369V96.469Z" fill="white"/>
<path d="M198.54 100.844H146.253V102.864H198.54V100.844Z" fill="white"/>
<path d="M198.71 105.219H146.423V107.239H198.71V105.219Z" fill="white"/>
<path d="M134.291 121.711C136.366 121.711 138.049 120.054 138.049 118.009C138.049 115.965 136.366 114.308 134.291 114.308C132.215 114.308 130.532 115.965 130.532 118.009C130.532 120.054 132.215 121.711 134.291 121.711Z" fill="white"/>
<path d="M198.369 121.711H146.082V123.731H198.369V121.711Z" fill="#E6E8EC"/>
<path d="M198.54 126.086H146.253V128.106H198.54V126.086Z" fill="white"/>
<path d="M198.71 130.46H146.423V132.481H198.71V130.46Z" fill="white"/>
<path d="M134.291 146.952C136.366 146.952 138.049 145.295 138.049 143.251C138.049 141.207 136.366 139.55 134.291 139.55C132.215 139.55 130.532 141.207 130.532 143.251C130.532 145.295 132.215 146.952 134.291 146.952Z" fill="white"/>
<path d="M198.369 146.952H146.082V148.973H198.369V146.952Z" fill="#E6E8EC"/>
<path d="M198.54 151.327H146.253V153.348H198.54V151.327Z" fill="white"/>
<path d="M198.71 155.702H146.423V157.723H198.71V155.702Z" fill="white"/>
<path d="M134.291 172.194C136.366 172.194 138.049 170.537 138.049 168.493C138.049 166.449 136.366 164.792 134.291 164.792C132.215 164.792 130.532 166.449 130.532 168.493C130.532 170.537 132.215 172.194 134.291 172.194Z" fill="white"/>
<path d="M198.369 172.194H146.082V174.215H198.369V172.194Z" fill="white"/>
<path d="M198.54 176.569H146.253V178.59H198.54V176.569Z" fill="white"/>
<path d="M198.71 180.944H146.423V182.964H198.71V180.944Z" fill="white"/>
<path d="M134.291 197.436C136.366 197.436 138.049 195.779 138.049 193.735C138.049 191.691 136.366 190.033 134.291 190.033C132.215 190.033 130.532 191.691 130.532 193.735C130.532 195.779 132.215 197.436 134.291 197.436Z" fill="white"/>
<path d="M198.369 197.436H146.082V199.457H198.369V197.436Z" fill="white"/>
<path d="M198.54 201.811H146.253V203.831H198.54V201.811Z" fill="white"/>
<path d="M198.71 206.186H146.423V208.206H198.71V206.186Z" fill="white"/>
<path opacity="0.1" d="M198.537 217.629C203.822 217.629 208.106 213.41 208.106 208.206C208.106 203.002 203.822 198.783 198.537 198.783C193.253 198.783 188.969 203.002 188.969 208.206C188.969 213.41 193.253 217.629 198.537 217.629Z" fill="black"/>
<path d="M198.537 216.619C203.255 216.619 207.079 212.853 207.079 208.206C207.079 203.56 203.255 199.793 198.537 199.793C193.819 199.793 189.994 203.56 189.994 208.206C189.994 212.853 193.819 216.619 198.537 216.619Z" fill="#239BD9"/>
<path d="M186.746 111.575C187.068 112.01 187.455 112.396 187.893 112.717C188.177 112.949 188.471 113.187 188.776 113.397C188.861 113.457 188.95 113.514 189.038 113.571C189.038 113.586 189.02 113.601 189.014 113.62C188.943 113.747 188.915 113.893 188.935 114.037C188.996 114.211 189.11 114.362 189.261 114.47C189.976 115.12 190.459 115.979 190.638 116.921C190.742 117.465 190.37 118.048 190.394 118.602C190.449 119.145 190.595 119.676 190.828 120.171C191.295 121.338 191.789 122.55 192.72 123.401C192.942 125.275 193.675 127.055 194.842 128.551C195.825 129.787 197.132 130.725 198.424 131.642C198.832 131.963 199.275 132.237 199.746 132.46C200.171 132.614 200.609 132.73 201.055 132.806C204.847 133.556 208.697 133.985 212.562 134.087C212.67 136.352 212.717 138.616 212.703 140.879C212.725 141.251 212.671 141.625 212.544 141.976C212.359 142.307 212.136 142.616 211.879 142.896C210.996 144.051 210.963 145.62 211.024 147.067C211.114 148.76 211.318 150.445 211.634 152.112C212.034 154.247 211.668 156.604 212.437 158.637C212.743 159.44 213.048 160.239 213.353 161.042C213.455 161.268 213.516 161.509 213.533 161.755C213.533 162.281 213.179 162.729 212.923 163.186C212.544 163.852 212.359 164.609 212.388 165.372C212.386 165.457 212.408 165.542 212.453 165.615C212.553 165.748 212.758 165.736 212.923 165.712C213.599 165.615 214.28 165.553 214.962 165.525C214.84 165.676 214.73 165.836 214.633 166.003C214.468 166.286 214.323 166.579 214.199 166.881C213.953 167.384 213.758 167.91 213.619 168.451C213.594 168.53 213.575 168.61 213.561 168.691C213.524 168.854 213.491 169.019 213.463 169.181C213.316 170.136 213.256 171.102 213.283 172.068C213.188 173.872 213.097 175.748 212.92 176.295C212.669 177.074 212.981 178.319 213.289 179.507C213.304 180.327 213.453 181.139 213.732 181.912C213.758 182.765 213.86 183.614 214.037 184.45C215.094 190.311 216.213 196.158 217.396 201.991C217.502 202.499 217.603 203.005 217.741 203.495C218.186 205.117 218.964 206.633 220.027 207.948C220.961 209.112 221.762 210.375 222.415 211.712C222.345 212.031 222.271 212.35 222.195 212.665C221.523 215.459 220.635 218.213 220.327 221.066C220.204 222.203 220.168 223.375 219.716 224.425C219.484 224.96 219.142 225.471 219.105 226.051C219.078 226.42 219.166 226.789 219.359 227.107C219.279 227.164 219.203 227.224 219.13 227.284L219.005 227.386C218.137 228.066 216.974 228.204 215.906 228.478C214.837 228.751 213.686 229.308 213.356 230.354C213.335 230.42 213.317 230.487 213.304 230.555C213.109 231.518 213.701 232.54 214.526 233.105C215.414 233.707 216.519 233.893 217.579 234.028C218.638 234.164 219.753 234.269 220.72 234.738C221.557 235.147 222.262 235.817 223.163 236.112L223.319 236.157C223.12 236.274 222.919 236.389 222.708 236.494C221.79 236.954 220.8 237.259 219.78 237.396C218.748 237.537 217.515 237.603 216.983 238.49C216.55 239.224 216.864 240.213 217.49 240.79C218.116 241.368 218.983 241.626 219.823 241.807C221.738 242.174 223.676 242.411 225.624 242.516L227.52 242.658C229.351 242.796 231.22 242.937 233.076 242.958C235.367 242.965 237.654 242.768 239.909 242.372C240.013 242.369 240.115 242.344 240.209 242.299C240.302 242.255 240.385 242.192 240.453 242.113C240.521 241.982 240.55 241.834 240.535 241.687C240.486 239.402 240.195 237.129 239.668 234.903C239.512 234.236 238.587 235.147 238.068 235.724C238.001 235.39 237.922 235.06 237.833 234.738L238.239 234.548C238.549 234.437 238.812 234.225 238.984 233.947C239.069 233.722 239.096 233.479 239.063 233.241C238.99 231.773 238.899 230.252 238.19 228.962C237.722 228.191 237.139 227.493 236.462 226.89C236.251 222.281 235.794 217.665 234.771 213.167C234.246 210.867 233.595 208.543 232.246 206.598C232.078 206.354 231.895 206.111 231.712 205.867C231.566 203.656 231.293 201.454 230.896 199.273C230.818 198.986 230.818 198.683 230.896 198.395C231.025 198.149 231.19 197.924 231.388 197.728C232.2 196.696 231.867 195.229 231.773 193.924C231.638 192.048 232.078 190.19 232.533 188.362C233.086 186.109 233.637 183.854 234.185 181.599C234.321 180.959 234.515 180.332 234.765 179.726C235.149 178.878 235.745 178.145 236.255 177.363C237.793 174.97 238.518 172.157 238.325 169.332C238.63 169.44 238.935 169.551 239.259 169.672C239.488 167.783 238.679 165.64 239.259 163.866C240.253 163.152 241.055 162.211 241.597 161.123C242.049 160.125 242.178 159.001 242.651 158.011C242.919 157.455 243.295 156.941 243.451 156.343C243.686 155.441 243.393 154.502 243.405 153.579C243.435 151.568 244.931 149.701 244.596 147.713C244.443 146.769 243.887 145.909 243.918 144.938C243.963 144.419 244.096 143.91 244.312 143.435C245.435 140.503 246.543 137.382 245.966 134.297C245.82 133.509 245.56 132.724 245.603 131.922C245.652 131.005 246.095 130.118 245.963 129.201C245.91 128.853 245.767 128.525 245.548 128.247C245.951 127.637 246.293 126.991 246.571 126.317C246.757 125.932 246.85 125.51 246.843 125.084C246.803 124.794 246.705 124.514 246.553 124.262C246.401 124.01 246.2 123.791 245.96 123.617C245.482 123.276 244.971 122.983 244.434 122.742C244.262 122.671 244.109 122.563 243.985 122.426C243.887 122.275 243.803 122.116 243.732 121.951C243.426 121.437 242.776 121.275 242.26 120.965C240.398 119.847 240.578 116.963 238.987 115.487C238.448 115.013 237.761 114.735 237.039 114.697C236.318 114.66 235.605 114.865 235.018 115.279C234.867 115.429 234.669 115.525 234.456 115.553C234.249 115.508 234.06 115.403 233.913 115.252C233.518 114.989 233.046 114.86 232.569 114.885C232.27 113.74 232.134 112.559 232.166 111.376H232.31C232.497 111.383 232.685 111.361 232.866 111.313C233.684 111.082 234.151 110.249 234.484 109.473C234.775 108.819 235.015 108.143 235.201 107.453C235.22 107.386 235.235 107.32 235.25 107.257C236.816 108.34 238.636 109.473 239.069 109.236C239.872 108.8 235.482 105.724 235.482 105.724C235.998 105.273 236.285 104.458 236.398 103.739C236.654 102.305 236.777 100.814 236.435 99.3945C236.093 97.9753 235.229 96.6253 233.916 95.9638C233.336 95.6631 232.631 95.4647 232.209 95.0107C232.145 94.9437 232.089 94.8689 232.044 94.7882C232.017 94.7519 231.995 94.7125 231.977 94.6709C231.931 94.5458 231.869 94.4266 231.794 94.3161C231.553 94.0425 231.116 94.1267 230.753 94.1688H230.637H230.536H230.438C229.138 94.1958 227.877 93.4802 226.561 93.4802C225.117 93.4802 223.889 94.3041 222.619 94.8693C222.363 94.9836 222.119 95.0888 221.89 95.1941C221.096 95.5609 220.47 95.9518 220.058 96.8328C219.807 97.1251 219.626 97.4694 219.53 97.84C219.488 98.0095 219.465 98.1829 219.463 98.3572C218.368 99.4247 217.579 100.758 217.177 102.223C216.775 103.687 216.773 105.23 217.171 106.696C217.57 108.161 218.355 109.497 219.447 110.567C220.539 111.637 221.899 112.404 223.389 112.79C223.419 112.874 223.45 112.958 223.477 113.042C223.742 113.817 223.871 114.63 223.859 115.448C223.859 115.505 223.859 115.562 223.859 115.619C223.195 115.774 222.56 116.028 221.975 116.374C221.231 116.808 220.668 117.489 220.388 118.295C220.368 118.355 220.352 118.417 220.339 118.478C219.875 118.329 219.392 118.247 218.904 118.235C218.461 118.235 217.963 118.268 217.683 118.599C217.569 118.734 217.489 118.894 217.451 119.065C217.283 119.218 217.249 119.483 217.145 119.684C216.776 120.319 215.823 120.111 215.106 120.286C214.327 120.475 213.714 121.188 212.911 121.188C212.608 121.14 212.3 121.129 211.995 121.154C211.689 121.227 211.457 121.633 211.689 121.837C211.511 121.819 211.331 121.851 211.169 121.928C211.007 122.005 210.87 122.124 210.773 122.273C210.554 122.556 210.407 122.892 210.163 123.157C210.057 123.012 209.911 122.9 209.741 122.835C209.572 122.771 209.388 122.756 209.21 122.793C208.857 122.872 208.518 123.004 208.206 123.184C208.068 123.259 207.918 123.31 207.763 123.337C207.581 123.347 207.4 123.331 207.223 123.289C206.364 123.152 205.482 123.273 204.695 123.638C203.999 123.963 203.33 123.367 202.558 123.319C202.277 123.333 202 123.249 201.776 123.082C201.629 122.907 201.525 122.701 201.471 122.48C201.299 121.994 201.003 121.56 200.611 121.219C200.22 120.878 199.746 120.641 199.236 120.532C199.436 119.913 199.389 119.242 199.106 118.655C198.822 118.069 198.323 117.61 197.709 117.372C197.76 116.929 197.699 116.48 197.533 116.065C197.367 115.65 197.101 115.281 196.757 114.991C196.587 114.877 196.426 114.753 196.274 114.618C196.073 114.381 195.922 114.107 195.832 113.812L195.154 112.044C194.848 111.984 194.619 111.861 194.336 111.812C194.336 111.755 194.336 111.695 194.336 111.632C194.328 111.029 194.225 110.43 194.03 109.858C193.682 108.927 193.194 108.052 192.583 107.263C191.936 106.361 191.218 105.498 190.257 104.96C189.936 104.789 189.605 104.638 189.264 104.509L187.518 103.799C187.422 103.753 187.319 103.724 187.213 103.715C186.742 103.715 186.657 104.431 186.907 104.813C187.439 105.585 188.635 105.802 188.974 106.677C188.69 106.686 188.417 106.784 188.192 106.955C187.968 107.127 187.805 107.364 187.726 107.633C187.713 107.777 187.655 107.913 187.558 108.021C187.405 108.144 187.164 108.072 186.987 108.165C186.681 108.331 186.813 108.788 186.779 109.133C186.707 109.433 186.605 109.725 186.474 110.005C186.399 110.271 186.384 110.549 186.431 110.82C186.478 111.091 186.586 111.349 186.746 111.575ZM228.61 232.146C228.61 231.969 228.585 231.791 228.57 231.617C228.607 231.71 228.64 231.806 228.677 231.9C228.982 232.693 229.327 233.475 229.687 234.248L229.626 234.215C229.361 234.097 229.081 234.018 228.793 233.98C228.716 233.98 228.637 233.98 228.561 233.959C228.664 233.362 228.68 232.754 228.61 232.152V232.146Z" fill="url(#paint0_linear)"/>
<path d="M223.878 116.139C223.844 117.396 223.414 118.611 223.347 119.865C227.099 120.048 230.802 118.256 234.521 118.803C233.483 118.142 232.927 116.948 232.598 115.772C232.183 114.257 232.059 112.678 232.231 111.118C232.242 111.031 232.258 110.944 232.28 110.859C232.418 110.258 232.775 109.377 232.677 108.893C232.552 108.255 231.941 108.382 231.389 108.418C229.708 108.545 228.036 108.757 226.379 109.055C225.948 109.127 221.738 110.162 221.677 110.054C222.418 111.218 223.032 112.457 223.509 113.749C223.768 114.519 223.893 115.328 223.878 116.139Z" fill="#F7D3BB"/>
<path d="M186.745 112.26C187.069 112.693 187.455 113.076 187.893 113.397C188.177 113.628 188.47 113.863 188.776 114.073C189.32 114.488 189.97 114.748 190.653 114.825C191.548 114.885 193.444 114.368 194.012 113.622C194.247 113.244 194.359 112.803 194.332 112.36C194.325 111.759 194.222 111.164 194.027 110.595C193.679 109.668 193.191 108.798 192.58 108.015C191.933 107.131 191.215 106.259 190.253 105.724C189.932 105.553 189.601 105.403 189.261 105.273L187.515 104.569C187.419 104.522 187.316 104.494 187.209 104.485C186.739 104.485 186.654 105.194 186.904 105.576C187.435 106.346 188.632 106.56 188.971 107.431C188.688 107.439 188.414 107.536 188.19 107.706C187.965 107.877 187.802 108.114 187.722 108.382C187.71 108.524 187.651 108.66 187.554 108.767C187.402 108.89 187.161 108.821 186.983 108.911C186.678 109.076 186.809 109.53 186.776 109.876C186.703 110.174 186.601 110.464 186.471 110.742C186.403 111 186.392 111.269 186.439 111.531C186.487 111.793 186.591 112.042 186.745 112.26Z" fill="#F7D3BB"/>
<path d="M238.501 238.145C238.214 237.844 237.741 237.907 237.338 237.97C235.172 238.308 232.983 238.483 230.789 238.493C230.514 237.173 231.311 235.889 231.568 234.563C231.604 234.222 231.691 233.888 231.827 233.571C232.133 232.988 232.832 232.72 233.485 232.585C234.667 232.341 236.511 231.909 237.17 233.081C237.961 234.491 238.214 236.575 238.501 238.145Z" fill="#65617D"/>
<path d="M214.507 233.15C215.395 233.752 216.501 233.935 217.56 234.07C218.62 234.206 219.734 234.308 220.702 234.777C221.538 235.183 222.244 235.85 223.144 236.142C223.967 236.364 224.834 236.378 225.663 236.181C226.658 235.998 227.718 235.64 228.255 234.795C228.731 234.043 228.683 233.087 228.615 232.203C228.539 231.202 228.466 230.201 228.389 229.196C228.393 228.943 228.328 228.692 228.2 228.472C227.483 227.438 225.733 228.902 224.796 228.902C223.312 228.902 221.721 228.108 220.653 227.14C220.558 227.044 220.449 226.963 220.329 226.899C219.908 226.713 219.484 227.059 219.108 227.359L218.983 227.462C218.116 228.138 216.953 228.276 215.884 228.55C214.815 228.824 213.664 229.374 213.335 230.414C213.313 230.479 213.296 230.545 213.283 230.613C213.081 231.578 213.674 232.594 214.507 233.15Z" fill="#3F3D56"/>
<path opacity="0.05" d="M214.507 233.15C215.395 233.752 216.501 233.935 217.56 234.07C218.62 234.206 219.734 234.308 220.702 234.777C221.538 235.183 222.244 235.85 223.144 236.142C223.967 236.364 224.834 236.378 225.663 236.181C226.658 235.998 227.718 235.64 228.255 234.795C228.731 234.043 228.683 233.087 228.615 232.203C228.539 231.202 228.466 230.201 228.389 229.196C228.393 228.943 228.328 228.692 228.2 228.472C227.483 227.438 225.733 228.902 224.796 228.902C223.312 228.902 221.721 228.108 220.653 227.14C220.558 227.044 220.449 226.963 220.329 226.899C219.908 226.713 219.484 227.059 219.108 227.359L218.983 227.462C218.116 228.138 216.953 228.276 215.884 228.55C214.815 228.824 213.664 229.374 213.335 230.414C213.313 230.479 213.296 230.545 213.283 230.613C213.081 231.578 213.674 232.594 214.507 233.15Z" fill="black"/>
<path d="M214.507 233.493C215.396 234.095 216.501 234.278 217.56 234.413C218.62 234.549 219.734 234.651 220.702 235.12C221.539 235.526 222.244 236.193 223.144 236.485C223.967 236.707 224.834 236.72 225.663 236.524C226.722 236.303 227.652 235.685 228.255 234.801C228.732 234.049 228.683 233.093 228.616 232.209C228.539 231.208 228.466 230.207 228.39 229.203C228.393 228.949 228.328 228.699 228.2 228.478C227.483 227.444 225.733 228.908 224.796 228.908C223.312 228.908 221.722 228.114 220.653 227.146C220.558 227.05 220.449 226.969 220.33 226.905C219.908 226.719 219.484 227.065 219.108 227.365C219.356 228.11 219.707 228.819 220.149 229.47C220.508 230.024 220.987 230.492 221.552 230.84C222.117 231.189 222.754 231.409 223.416 231.485C224.079 231.533 224.76 231.404 225.401 231.572C226.042 231.74 226.622 232.384 226.411 233C226.201 233.616 225.407 233.728 224.76 233.761C223.844 233.812 222.928 233.854 222.064 233.577C221.539 233.403 221.059 233.117 220.537 232.91C218.363 232.008 215.619 232.519 213.82 231.019C213.65 230.865 213.466 230.726 213.271 230.604C212.801 231.59 213.674 232.931 214.507 233.493Z" fill="#E8EAF2"/>
<path opacity="0.05" d="M214.507 233.493C215.396 234.095 216.501 234.278 217.56 234.413C218.62 234.549 219.734 234.651 220.702 235.12C221.539 235.526 222.244 236.193 223.144 236.485C223.967 236.707 224.834 236.72 225.663 236.524C226.722 236.303 227.652 235.685 228.255 234.801C228.732 234.049 228.683 233.093 228.616 232.209C228.539 231.208 228.466 230.207 228.39 229.203C228.393 228.949 228.328 228.699 228.2 228.478C227.483 227.444 225.733 228.908 224.796 228.908C223.312 228.908 221.722 228.114 220.653 227.146C220.558 227.05 220.449 226.969 220.33 226.905C219.908 226.719 219.484 227.065 219.108 227.365C219.356 228.11 219.707 228.819 220.149 229.47C220.508 230.024 220.987 230.492 221.552 230.84C222.117 231.189 222.754 231.409 223.416 231.485C224.079 231.533 224.76 231.404 225.401 231.572C226.042 231.74 226.622 232.384 226.411 233C226.201 233.616 225.407 233.728 224.76 233.761C223.844 233.812 222.928 233.854 222.064 233.577C221.539 233.403 221.059 233.117 220.537 232.91C218.363 232.008 215.619 232.519 213.82 231.019C213.65 230.865 213.466 230.726 213.271 230.604C212.801 231.59 213.674 232.931 214.507 233.493Z" fill="black"/>
<path d="M238.096 167.982C238.789 171.331 238.132 174.813 236.264 177.694C235.754 178.472 235.159 179.197 234.774 180.045C234.524 180.648 234.33 181.272 234.194 181.909L232.542 188.65C232.096 190.454 231.648 192.319 231.782 194.183C231.877 195.482 232.209 196.94 231.397 197.968C231.2 198.163 231.034 198.386 230.906 198.63C230.828 198.916 230.828 199.218 230.906 199.505C231.742 204.388 232.359 209.496 230.851 214.22C229.486 218.502 229.407 223.24 228.243 227.588C228.1 228.126 227.938 228.691 227.523 229.07C227.211 229.328 226.838 229.503 226.439 229.578C224.726 229.978 222.919 229.509 221.322 228.779C220.198 228.268 218.989 227.368 219.087 226.154C219.133 225.576 219.475 225.068 219.698 224.536C220.156 223.493 220.192 222.326 220.308 221.196C220.614 218.357 221.505 215.618 222.177 212.84C222.849 210.062 223.307 207.16 222.739 204.361C221.576 198.57 219.715 192.937 217.197 187.58C217.09 187.295 216.916 187.039 216.69 186.831C216.439 186.689 216.199 186.527 215.973 186.347C215.799 186.081 215.687 185.78 215.646 185.466C215.396 184.582 214.654 183.927 214.156 183.151C212.899 181.185 213.299 178.665 213.344 176.344C213.39 174.086 213.06 171.809 213.436 169.581C213.811 167.353 215.106 165.071 217.286 164.38C218.367 164.034 219.536 164.112 220.666 164.223C226.659 164.792 232.478 165.862 238.096 167.982Z" fill="#599A94"/>
<path opacity="0.05" d="M238.096 167.982C238.789 171.331 238.132 174.813 236.264 177.694C235.754 178.472 235.159 179.197 234.774 180.045C234.524 180.648 234.33 181.272 234.194 181.909L232.542 188.65C232.096 190.454 231.648 192.319 231.782 194.183C231.877 195.482 232.209 196.94 231.397 197.968C231.2 198.163 231.034 198.386 230.906 198.63C230.828 198.916 230.828 199.218 230.906 199.505C231.742 204.388 232.359 209.496 230.851 214.22C229.486 218.502 229.407 223.24 228.243 227.588C228.1 228.126 227.938 228.691 227.523 229.07C227.211 229.328 226.838 229.503 226.439 229.578C224.726 229.978 222.919 229.509 221.322 228.779C220.198 228.268 218.989 227.368 219.087 226.154C219.133 225.576 219.475 225.068 219.698 224.536C220.156 223.493 220.192 222.326 220.308 221.196C220.614 218.357 221.505 215.618 222.177 212.84C222.849 210.062 223.307 207.16 222.739 204.361C221.576 198.57 219.715 192.937 217.197 187.58C217.09 187.295 216.916 187.039 216.69 186.831C216.439 186.689 216.199 186.527 215.973 186.347C215.799 186.081 215.687 185.78 215.646 185.466C215.396 184.582 214.654 183.927 214.156 183.151C212.899 181.185 213.299 178.665 213.344 176.344C213.39 174.086 213.06 171.809 213.436 169.581C213.811 167.353 215.106 165.071 217.286 164.38C218.367 164.034 219.536 164.112 220.666 164.223C226.659 164.792 232.478 165.862 238.096 167.982Z" fill="#599A94"/>
<path d="M213.717 182.138C213.736 183.015 213.838 183.889 214.022 184.747C215.079 190.579 216.198 196.392 217.381 202.187C217.488 202.692 217.588 203.194 217.726 203.69C218.172 205.305 218.95 206.812 220.012 208.119C224.989 214.226 225.419 223.096 228.118 230.459C228.299 230.958 228.482 231.457 228.674 231.963C229.163 233.211 229.719 234.432 230.341 235.622C230.413 235.795 230.531 235.946 230.683 236.058C230.851 236.141 231.039 236.178 231.226 236.163C233.659 236.177 236.062 235.639 238.249 234.59C238.559 234.479 238.822 234.267 238.994 233.989C239.078 233.765 239.105 233.523 239.073 233.286C239 231.827 238.908 230.312 238.2 229.031C237.731 228.263 237.149 227.568 236.472 226.968C236.261 222.383 235.803 217.792 234.78 213.318C234.255 211.029 233.605 208.717 232.255 206.781C231.26 205.353 229.834 203.946 230.008 202.223C230.088 201.465 230.408 200.524 229.782 200.079C229.511 199.883 229.105 199.859 228.921 199.58C228.846 199.449 228.804 199.303 228.799 199.153C228.671 197.97 228.747 196.775 229.022 195.617C229.248 194.861 229.427 194.092 229.556 193.314C229.636 192.526 229.501 191.675 228.967 191.089C228.934 189.516 228.967 187.883 228.946 186.311C228.884 185.416 228.96 184.517 229.172 183.644C229.291 183.232 229.477 182.838 229.569 182.417C229.904 180.914 229.071 179.11 230.063 177.907C230.475 177.408 231.113 177.161 231.654 176.801C232.738 176.091 233.446 174.927 233.84 173.707C234.187 172.47 234.392 171.199 234.451 169.918C234.479 169.645 234.479 169.37 234.451 169.097C234.432 168.956 234.394 168.819 234.338 168.688C234.032 168.006 233.202 167.741 232.463 167.567C227.773 166.459 222.967 165.906 218.144 165.919C216.361 164.716 215.356 165.149 214.602 166.418C214.182 167.191 213.844 168.004 213.592 168.845C213.247 169.87 213.225 175.625 212.89 176.662C212.462 177.988 213.717 180.73 213.717 182.138Z" fill="#599A94"/>
<path d="M245.963 129.781C246.094 130.683 245.658 131.585 245.603 132.487C245.56 133.287 245.819 134.066 245.966 134.85C246.543 137.917 245.435 141.023 244.311 143.94C244.094 144.415 243.961 144.924 243.917 145.443C243.887 146.393 244.443 147.265 244.595 148.206C244.916 150.182 243.435 152.04 243.404 154.039C243.404 154.96 243.685 155.898 243.45 156.788C243.295 157.389 242.919 157.894 242.65 158.45C242.177 159.434 242.04 160.555 241.597 161.544C240.779 163.348 239.02 164.512 237.35 165.588C236.398 165.288 235.369 164.906 234.847 164.064C234.617 163.648 234.469 163.193 234.41 162.723C234.047 160.678 234.059 158.589 234.074 156.514C234.044 154.727 234.14 152.939 234.361 151.165C234.7 148.91 235.442 146.736 235.976 144.517C236.648 141.718 236.993 138.825 238.04 136.14C238.956 133.783 240.394 131.663 241.905 129.637C242.479 128.861 242.934 127.757 244.043 127.935C244.516 128.012 244.954 128.231 245.297 128.561C245.64 128.891 245.873 129.317 245.963 129.781Z" fill="#72BDB6"/>
<path opacity="0.05" d="M245.963 129.781C246.094 130.683 245.658 131.585 245.603 132.487C245.56 133.287 245.819 134.066 245.966 134.85C246.543 137.917 245.435 141.023 244.311 143.94C244.094 144.415 243.961 144.924 243.917 145.443C243.887 146.393 244.443 147.265 244.595 148.206C244.916 150.182 243.435 152.04 243.404 154.039C243.404 154.96 243.685 155.898 243.45 156.788C243.295 157.389 242.919 157.894 242.65 158.45C242.177 159.434 242.04 160.555 241.597 161.544C240.779 163.348 239.02 164.512 237.35 165.588C236.398 165.288 235.369 164.906 234.847 164.064C234.617 163.648 234.469 163.193 234.41 162.723C234.047 160.678 234.059 158.589 234.074 156.514C234.044 154.727 234.14 152.939 234.361 151.165C234.7 148.91 235.442 146.736 235.976 144.517C236.648 141.718 236.993 138.825 238.04 136.14C238.956 133.783 240.394 131.663 241.905 129.637C242.479 128.861 242.934 127.757 244.043 127.935C244.516 128.012 244.954 128.231 245.297 128.561C245.64 128.891 245.873 129.317 245.963 129.781Z" fill="#72BDB6"/>
<path opacity="0.1" d="M221.677 110.054C222.418 111.218 223.032 112.457 223.509 113.749C224.186 113.913 224.881 113.996 225.579 113.995C228.284 113.995 230.201 112.492 231.792 110.565C231.929 109.963 232.787 109.377 232.689 108.893C232.564 108.255 231.953 108.382 231.401 108.418C229.721 108.545 228.048 108.757 226.391 109.055C225.948 109.127 221.738 110.174 221.677 110.054Z" fill="black"/>
<path d="M225.565 113.764C230.354 113.764 234.236 109.941 234.236 105.225C234.236 100.508 230.354 96.6853 225.565 96.6853C220.777 96.6853 216.895 100.508 216.895 105.225C216.895 109.941 220.777 113.764 225.565 113.764Z" fill="#F7D3BB"/>
<path opacity="0.1" d="M214.611 166.4C216.11 166.313 217.622 166.37 219.127 166.43C220.069 166.441 221.008 166.536 221.933 166.713C223.071 166.968 224.137 167.48 225.261 167.798C227.059 168.316 228.955 168.337 230.82 168.52C232.043 168.637 233.258 168.824 234.46 169.079C234.441 168.938 234.403 168.801 234.347 168.67C234.041 167.988 233.211 167.723 232.472 167.549C227.783 166.441 222.976 165.888 218.153 165.901C216.37 164.71 215.365 165.137 214.611 166.4Z" fill="black"/>
<path d="M220.519 119.194C220.898 119.624 221.405 120.096 221.966 119.958C222.169 119.888 222.358 119.786 222.528 119.657C223.526 119.023 224.754 118.872 225.929 118.698C228.305 118.348 230.651 117.829 232.951 117.146C233.618 116.908 234.316 116.768 235.024 116.731C236.493 116.731 237.797 117.703 238.716 118.836C239.635 119.97 240.279 121.299 241.195 122.438C241.839 123.25 242.605 123.966 243.207 124.811C244.733 126.942 245.039 129.724 244.657 132.297C244.275 134.871 243.222 137.301 242.187 139.694C241.635 141.086 240.959 142.427 240.169 143.702C240.517 145.656 240.334 147.894 239.39 149.649C239.085 150.221 238.706 150.777 238.603 151.417C238.557 151.85 238.575 152.286 238.658 152.713L239.1 155.804C239.235 156.745 239.369 157.69 239.543 158.625C239.848 160.335 240.294 162.191 239.488 163.736C238.523 165.588 239.537 167.967 239.283 170.05C236.565 169.013 233.716 168.345 230.814 168.063C228.952 167.885 227.056 167.861 225.257 167.347C224.134 167.026 223.068 166.514 221.93 166.259C221.005 166.08 220.066 165.986 219.124 165.976C217.045 165.895 214.953 165.814 212.899 166.114C212.731 166.139 212.529 166.151 212.428 166.018C212.384 165.946 212.362 165.862 212.364 165.778C212.334 165.018 212.519 164.266 212.899 163.604C213.158 163.147 213.509 162.702 213.509 162.179C213.492 161.934 213.431 161.693 213.329 161.469L212.413 159.064C211.644 157.043 212.01 154.698 211.61 152.575C211.294 150.917 211.09 149.241 211 147.557C210.926 146.117 210.972 144.55 211.854 143.404C212.112 143.131 212.335 142.828 212.52 142.502C212.646 142.153 212.7 141.782 212.679 141.411C212.697 138.53 212.617 135.651 212.438 132.773C213.207 131.41 214.01 130.018 214.779 128.659C215.674 127.075 216.581 125.46 216.944 123.683C217.182 122.504 217.173 121.293 217.344 120.105C217.362 119.804 217.468 119.515 217.649 119.272C217.955 118.944 218.44 118.896 218.87 118.911C219.432 118.92 219.988 119.016 220.519 119.194Z" fill="#72BDB6"/>
<path opacity="0.1" d="M188.776 114.083C189.321 114.497 189.97 114.757 190.654 114.834C191.549 114.894 193.445 114.377 194.012 113.632C194.248 113.253 194.36 112.812 194.333 112.369C194.212 112.331 194.087 112.308 193.961 112.3C192.99 112.194 192.01 112.233 191.051 112.414C190.104 112.642 189.192 113.208 188.792 114.083C188.779 114.083 188.779 114.083 188.776 114.083Z" fill="black"/>
<path d="M217.622 132.541C217.097 133.191 216.545 133.855 215.791 134.24C214.93 134.679 213.916 134.688 212.945 134.67C208.945 134.585 204.961 134.155 201.038 133.383C200.592 133.307 200.153 133.191 199.728 133.037C199.258 132.815 198.814 132.542 198.406 132.222C197.115 131.32 195.808 130.379 194.825 129.149C193.659 127.662 192.925 125.89 192.703 124.023C191.772 123.178 191.277 121.975 190.81 120.812C190.578 120.32 190.432 119.794 190.377 119.254C190.352 118.701 190.725 118.121 190.621 117.576C190.441 116.639 189.958 115.785 189.244 115.141C189.093 115.034 188.979 114.884 188.917 114.711C188.898 114.568 188.926 114.422 188.997 114.296C189.393 113.418 190.306 112.853 191.253 112.624C192.212 112.443 193.194 112.405 194.165 112.51C194.489 112.57 194.807 112.654 195.118 112.76L195.796 114.519C195.886 114.813 196.037 115.086 196.238 115.321C196.39 115.455 196.552 115.579 196.721 115.691C197.065 115.979 197.332 116.345 197.498 116.758C197.664 117.172 197.724 117.619 197.673 118.06C198.286 118.295 198.785 118.751 199.069 119.336C199.352 119.92 199.399 120.588 199.2 121.206C199.709 121.314 200.182 121.548 200.573 121.887C200.964 122.226 201.261 122.658 201.435 123.142C201.488 123.363 201.592 123.569 201.74 123.743C201.964 123.911 202.241 123.995 202.522 123.981C203.288 124.026 203.957 124.621 204.659 124.3C205.447 123.935 206.328 123.813 207.187 123.951C207.364 123.991 207.546 124.006 207.727 123.996C207.883 123.971 208.032 123.92 208.17 123.846C208.483 123.667 208.822 123.535 209.174 123.455C209.352 123.418 209.536 123.433 209.705 123.498C209.874 123.563 210.021 123.674 210.127 123.818C210.371 123.557 210.518 123.217 210.738 122.94C210.835 122.792 210.972 122.673 211.134 122.596C211.295 122.519 211.475 122.488 211.654 122.504C211.422 122.303 211.654 121.903 211.959 121.825C212.264 121.802 212.572 121.813 212.875 121.858C213.678 121.858 214.291 121.136 215.07 120.956C215.787 120.782 216.74 120.989 217.109 120.355C217.238 120.132 217.265 119.831 217.485 119.693C217.636 119.621 217.807 119.602 217.97 119.639C218.479 119.706 218.973 119.853 219.433 120.075C220.184 122.968 219.79 125.971 219.216 128.903C219.014 130.231 218.465 131.485 217.622 132.541Z" fill="#72BDB6"/>
<path opacity="0.1" d="M217.647 142.905L221.381 150.32C220.978 149.635 220.126 149.367 219.454 148.928C218.605 148.32 217.965 147.47 217.622 146.492C217.283 145.517 217.047 144.509 216.917 143.486C216.841 143.014 216.685 142.355 216.917 141.928C217.332 142.018 217.47 142.557 217.647 142.905Z" fill="black"/>
<path opacity="0.1" d="M228.39 149.202C229.233 150.022 230.262 150.627 231.19 151.354C233.354 153.053 234.899 155.381 236.408 157.669C236.831 158.267 237.188 158.908 237.473 159.581C237.296 159.731 237.03 159.581 236.862 159.425L233.932 156.887C233.571 156.597 233.244 156.271 232.955 155.913C232.445 155.236 232.219 154.409 231.758 153.688C231.255 153.005 230.654 152.397 229.975 151.884C229.303 151.315 226.207 148.739 226.961 147.737C227.499 148.023 227.944 148.766 228.39 149.202Z" fill="black"/>
<path d="M221.982 117.062C222.898 116.491 224.009 116.25 225.087 116.055C225.733 115.91 226.399 115.864 227.059 115.917C227.67 115.992 228.256 116.217 228.87 116.256C229.734 116.305 230.561 115.956 231.392 115.736C232.222 115.517 233.187 115.436 233.889 115.92C234.037 116.066 234.227 116.165 234.433 116.205C234.645 116.179 234.843 116.084 234.994 115.935C235.582 115.522 236.295 115.319 237.016 115.356C237.736 115.394 238.423 115.671 238.963 116.142C240.554 117.609 240.374 120.478 242.236 121.59C242.752 121.891 243.409 122.059 243.708 122.574C243.78 122.737 243.865 122.895 243.961 123.046C244.087 123.176 244.24 123.279 244.41 123.346C244.947 123.586 245.458 123.877 245.937 124.215C246.176 124.388 246.377 124.606 246.529 124.857C246.681 125.108 246.779 125.387 246.819 125.677C246.826 126.101 246.733 126.521 246.547 126.903C245.636 129.105 244.054 130.975 242.02 132.256C239.986 133.536 237.599 134.165 235.187 134.056C234.758 134.079 234.336 133.95 233.996 133.693C233.817 133.494 233.675 133.264 233.578 133.016C232.701 131.212 231.059 129.871 230.012 128.151C229.401 127.126 228.992 125.98 228.342 124.973C227.362 123.443 225.866 122.312 224.403 121.215C223.579 120.595 222.66 119.946 221.625 119.991C220.709 120.03 220.031 120.078 220.37 118.963C220.66 118.16 221.231 117.486 221.982 117.062Z" fill="#72BDB6"/>
<path opacity="0.05" d="M221.982 117.062C222.898 116.491 224.009 116.25 225.087 116.055C225.733 115.91 226.399 115.864 227.059 115.917C227.67 115.992 228.256 116.217 228.87 116.256C229.734 116.305 230.561 115.956 231.392 115.736C232.222 115.517 233.187 115.436 233.889 115.92C234.037 116.066 234.227 116.165 234.433 116.205C234.645 116.179 234.843 116.084 234.994 115.935C235.582 115.522 236.295 115.319 237.016 115.356C237.736 115.394 238.423 115.671 238.963 116.142C240.554 117.609 240.374 120.478 242.236 121.59C242.752 121.891 243.409 122.059 243.708 122.574C243.78 122.737 243.865 122.895 243.961 123.046C244.087 123.176 244.24 123.279 244.41 123.346C244.947 123.586 245.458 123.877 245.937 124.215C246.176 124.388 246.377 124.606 246.529 124.857C246.681 125.108 246.779 125.387 246.819 125.677C246.826 126.101 246.733 126.521 246.547 126.903C245.636 129.105 244.054 130.975 242.02 132.256C239.986 133.536 237.599 134.165 235.187 134.056C234.758 134.079 234.336 133.95 233.996 133.693C233.817 133.494 233.675 133.264 233.578 133.016C232.701 131.212 231.059 129.871 230.012 128.151C229.401 127.126 228.992 125.98 228.342 124.973C227.362 123.443 225.866 122.312 224.403 121.215C223.579 120.595 222.66 119.946 221.625 119.991C220.709 120.03 220.031 120.078 220.37 118.963C220.66 118.16 221.231 117.486 221.982 117.062Z" fill="#1B4541"/>
<path d="M217.469 240.824C218.098 241.401 218.962 241.653 219.802 241.834C221.717 242.199 223.655 242.435 225.603 242.537L227.499 242.682C229.331 242.82 231.199 242.958 233.055 242.967C235.346 242.975 237.633 242.78 239.888 242.384C239.992 242.381 240.094 242.356 240.188 242.311C240.281 242.267 240.364 242.204 240.432 242.125C240.501 241.995 240.529 241.848 240.514 241.702C240.472 239.43 240.188 237.168 239.668 234.954C239.455 234.052 237.797 236.085 237.72 236.157C237.263 236.671 236.914 236.909 236.215 236.945C234.307 237.047 232.173 235.904 230.656 234.888C230.332 234.65 229.987 234.44 229.627 234.26C229.361 234.144 229.081 234.065 228.793 234.025C227.812 233.937 226.826 234.135 225.957 234.593C224.815 235.15 223.82 235.95 222.69 236.521C221.772 236.981 220.783 237.286 219.762 237.423C218.73 237.561 217.497 237.63 216.966 238.511C216.529 239.263 216.843 240.249 217.469 240.824Z" fill="#3F3D56"/>
<path d="M217.469 241.16C218.098 241.738 218.962 241.99 219.802 242.167C221.716 242.536 223.654 242.772 225.602 242.874L227.498 243.018C229.33 243.157 231.199 243.295 233.055 243.304C235.346 243.311 237.633 243.116 239.888 242.721C239.992 242.717 240.094 242.693 240.187 242.648C240.281 242.604 240.364 242.54 240.431 242.462C240.609 242.23 240.752 241.974 240.856 241.701C240.816 239.428 240.19 237.161 239.671 234.945C239.457 234.043 237.8 236.076 237.723 236.148C237.265 236.662 236.917 236.9 236.218 236.936C234.31 237.038 232.176 235.895 230.658 234.879C230.334 234.641 229.99 234.431 229.629 234.251C229.364 234.135 229.083 234.056 228.796 234.016C229.04 235.369 231.009 237.002 232.026 237.498C234.081 238.502 236.523 238.003 238.816 238.12C238.984 238.115 239.149 238.154 239.296 238.235C239.57 238.415 239.601 238.797 239.579 239.122C239.561 239.66 239.491 240.294 239.015 240.568C238.778 240.679 238.517 240.733 238.254 240.724C232.604 240.963 226.943 240.762 221.325 240.123C220.383 240.062 219.457 239.859 218.577 239.522C218.001 239.254 217.463 238.914 216.977 238.508C216.242 239.095 216.843 240.586 217.469 241.16Z" fill="#E8EAF2"/>
<path d="M222.193 105.135C222.226 106.016 221.612 107.729 223.289 107.239C224.29 106.954 224.571 105.79 225.838 106.037C227.105 106.283 227.398 107.841 227.828 108.842C228.179 109.642 228.721 110.347 229.41 110.895C230.098 111.443 230.911 111.817 231.779 111.987C232.137 112.07 232.509 112.07 232.866 111.987C233.684 111.755 234.151 110.926 234.484 110.156C234.775 109.505 235.015 108.834 235.202 108.147C235.332 107.664 235.419 107.17 235.461 106.671C235.487 106.332 235.487 105.991 235.461 105.652C235.309 103.643 234.148 101.812 232.662 100.429C231.175 99.0459 229.373 98.0447 227.59 97.0584C227.009 96.7006 226.38 96.4243 225.722 96.2376C225.072 96.1068 224.405 96.0794 223.747 96.1564C222.879 96.1931 222.027 96.3899 221.234 96.7367C220.909 96.8912 220.61 97.0941 220.348 97.3381C219.976 97.6774 219.71 98.1146 219.582 98.5979C219.262 99.8938 220.101 101.063 220.782 102.089C221.396 103.033 222.147 103.998 222.193 105.135Z" fill="#937D71"/>
<path opacity="0.1" d="M193.979 124.086C194.336 123.184 195.841 120.737 195.407 119.877C194.955 120.509 194.571 121.185 194.259 121.894C193.975 122.595 194.207 123.518 193.979 124.086Z" fill="black"/>
<path opacity="0.1" d="M220.739 102.122C220.055 101.096 219.213 99.9268 219.536 98.6308C219.693 98.0594 220.037 97.5545 220.513 97.1936C220.402 97.3815 220.319 97.584 220.266 97.795C219.942 99.0939 220.785 100.261 221.466 101.286C222.076 102.188 222.824 103.165 222.87 104.293C222.904 105.177 222.29 106.89 223.969 106.397C224.968 106.112 225.249 104.945 226.519 105.195C227.789 105.444 228.076 106.999 228.506 108C228.857 108.8 229.4 109.504 230.088 110.051C230.776 110.599 231.589 110.973 232.457 111.142C232.814 111.225 233.186 111.225 233.544 111.142C233.728 111.091 233.902 111.007 234.057 110.895C233.8 111.399 233.356 111.786 232.817 111.975C232.46 112.058 232.088 112.058 231.73 111.975C230.862 111.805 230.048 111.43 229.36 110.882C228.671 110.335 228.128 109.63 227.777 108.83C227.349 107.823 227.068 106.289 225.789 106.024C224.51 105.76 224.238 106.927 223.24 107.227C221.56 107.705 222.174 105.991 222.141 105.122C222.11 103.998 221.35 103.033 220.739 102.122Z" fill="black"/>
<path opacity="0.1" d="M220.379 100.366C220.537 100.617 220.709 100.859 220.895 101.09C221.25 101.528 221.646 101.931 222.08 102.293C222.336 102.513 222.602 102.717 222.88 102.912C223.395 103.268 223.935 103.586 224.498 103.863C226.137 104.677 227.914 105.189 229.688 105.691L233.15 106.683C233.575 106.984 234.353 107.57 235.211 108.162C235.342 107.679 235.428 107.185 235.471 106.686C235.497 106.347 235.497 106.006 235.471 105.667C235.318 103.658 234.158 101.827 232.671 100.444C231.184 99.0608 229.383 98.0596 227.6 97.0733C227.019 96.7155 226.39 96.4392 225.731 96.2525C225.081 96.1217 224.415 96.0943 223.756 96.1713C222.889 96.208 222.036 96.4048 221.243 96.7516C220.919 96.9061 220.62 97.109 220.358 97.353C220.163 97.6365 220.014 97.9478 219.915 98.276C219.692 98.9947 219.991 99.7464 220.379 100.366Z" fill="black"/>
<path d="M220.379 100.137C220.536 100.387 220.709 100.628 220.895 100.859C221.248 101.298 221.645 101.701 222.079 102.062C222.333 102.284 222.599 102.493 222.876 102.687C223.392 103.042 223.933 103.361 224.494 103.64C226.134 104.452 227.911 104.963 229.685 105.468L233.147 106.457C234.368 107.359 238.398 110.309 239.076 109.939C239.879 109.506 235.489 106.445 235.489 106.445L235.287 106.596C235.931 106.199 236.267 105.276 236.411 104.491C236.667 103.063 236.789 101.58 236.447 100.167C236.105 98.7541 235.241 97.4161 233.928 96.7546C233.348 96.4539 232.643 96.2615 232.222 95.8075C232.158 95.741 232.103 95.6673 232.057 95.588C232.031 95.5509 232.009 95.5117 231.99 95.4707C231.944 95.3462 231.883 95.228 231.807 95.1189C231.565 94.8453 231.129 94.9265 230.765 94.9716C230.726 94.9716 230.689 94.9716 230.649 94.9716C230.583 94.9761 230.517 94.9761 230.451 94.9716C229.15 95.0017 227.889 94.2891 226.574 94.2891C225.129 94.2891 223.902 95.1099 222.632 95.6692C222.376 95.7834 222.131 95.8887 221.902 95.9939C220.986 96.4148 220.296 96.8628 219.918 98.0595C219.692 98.7631 219.991 99.5148 220.379 100.137Z" fill="#72BDB6"/>
<path opacity="0.1" d="M230.445 94.9775C230.393 95.0695 230.365 95.173 230.365 95.2782C230.365 95.3658 230.385 95.4524 230.422 95.5318C230.459 95.6113 230.514 95.6817 230.582 95.7382C230.743 95.8496 230.932 95.9151 231.128 95.9277C231.27 95.9463 231.413 95.9573 231.556 95.9607C231.748 95.9768 231.941 95.9447 232.118 95.8675C232.152 95.8493 232.185 95.8282 232.215 95.8044C232.152 95.7379 232.096 95.6642 232.051 95.5849C232.017 95.609 231.983 95.6029 231.855 95.5849C231.617 95.5715 231.382 95.5322 231.153 95.4676C231.058 95.4416 230.969 95.3988 230.89 95.3414C230.772 95.2443 230.686 95.1144 230.643 94.9685L230.445 94.9775Z" fill="black"/>
<path opacity="0.1" d="M235.394 106.412C235.207 106.525 235 106.599 234.783 106.632C234.631 106.671 234.476 106.695 234.319 106.704C233.922 106.692 233.534 106.589 233.184 106.403" fill="black"/>
<defs>
<linearGradient id="paint0_linear" x1="216.614" y1="242.967" x2="216.614" y2="93.5133" gradientUnits="userSpaceOnUse">
<stop stop-color="#808080" stop-opacity="0.25"/>
<stop offset="0.54" stop-color="#808080" stop-opacity="0.12"/>
<stop offset="1" stop-color="#808080" stop-opacity="0.1"/>
</linearGradient>
</defs>
</svg>
