<svg width="14" height="16" viewBox="0 0 14 16" fill="none" xmlns="http://www.w3.org/2000/svg">
<path d="M8.66681 8V14.5667C8.70014 14.8167 8.61681 15.0833 8.42514 15.2583C8.26944 15.4144 8.05807 15.502 7.83764 15.502C7.61722 15.502 7.40585 15.4144 7.25014 15.2583L5.57514 13.5833C5.3909 13.4032 5.30149 13.1473 5.33348 12.8917V8H5.30848L0.508475 1.85C0.226756 1.48834 0.290056 0.967055 0.650142 0.683333C0.808475 0.566667 0.983475 0.5 1.16681 0.5H12.8335C13.0168 0.5 13.1918 0.566667 13.3501 0.683333C13.7102 0.967055 13.7735 1.48834 13.4918 1.85L8.69181 8H8.66681Z" fill="#E02424"/>
</svg>
