<?xml version="1.0" encoding="UTF-8"?>
<svg width="480px" height="478px" viewBox="0 0 480 478" version="1.1" xmlns="http://www.w3.org/2000/svg" xmlns:xlink="http://www.w3.org/1999/xlink">
    <!-- Generator: Sketch 61 (89581) - https://sketch.com -->
    <title>equalizer</title>
    <desc>Created with Sketch.</desc>
    <g id="Page-1" stroke="none" stroke-width="1" fill="none" fill-rule="evenodd">
        <g id="equalizer">
            <path d="M461.8,221.867 L335.31,221.867 C326.055,185.503 289.073,163.527 252.708,172.782 C228.592,178.92 209.761,197.751 203.623,221.867 L17.067,221.867 C7.641,221.867 0,229.508 0,238.934 C0,248.36 7.641,256 17.067,256 L203.624,256 C212.879,292.364 249.861,314.34 286.226,305.085 C310.342,298.947 329.173,280.116 335.311,256 L461.8,256 C471.226,256 478.867,248.359 478.867,238.933 C478.867,229.507 471.226,221.867 461.8,221.867 Z" id="Path" fill="#FFFFFF" fill-rule="nonzero"></path>
            <path d="M477.8,51.2 L478.177,51.2 C468.922,14.836 431.94,-7.14 395.575,2.115 C371.459,8.253 352.628,27.084 346.49,51.2 L17.067,51.2 C7.641,51.2 0,58.841 0,68.267 C0,77.693 7.641,85.334 17.067,85.334 L346.49,85.334 C355.745,121.698 392.727,143.674 429.092,134.419 C453.208,128.281 472.039,109.45 478.177,85.334 L477.8,85.334 C480,70 480,62.5 477.8,51.2 Z" id="Path" fill="#FFFFFF" fill-rule="nonzero"></path>
            <path d="M462.670239,393.0255 L251.920401,393.0255 C215.160724,392.9915 180.903584,392.9915 158.905557,393.0255 L129.03545,393.0255 C128.988183,393 128.988183,427 129.03545,427.1585 L158.906263,427.1585 C199.974569,426.9915 211.275894,428.4915 251.921107,427.1585 L462.670239,427.1585 C469.328132,427.1585 479,419.5175 479,410.0915 C479,400.6655 469.328132,393.0255 462.670239,393.0255 Z" id="Path" fill="#FFFFFF" fill-rule="nonzero"></path>
            <circle id="Oval" stroke="#FFFFFF" stroke-width="30" cx="68" cy="410" r="53"></circle>
        </g>
    </g>
</svg>