<svg width="15" height="15" viewBox="0 0 15 15" fill="none" xmlns="http://www.w3.org/2000/svg">
<path d="M9.37473 8.43629V15.8227C9.41223 16.1039 9.31849 16.4039 9.1029 16.6007C8.92775 16.7762 8.68999 16.8749 8.44205 16.8749C8.19411 16.8749 7.95635 16.7762 7.78121 16.6007L5.8971 14.7166C5.68986 14.514 5.58929 14.2262 5.62527 13.9386V8.43629H5.59715L0.197922 1.51853C-0.118966 1.11173 -0.0477647 0.525362 0.357274 0.20622C0.535374 0.0749893 0.73222 0 0.938441 0H14.0616C14.2678 0 14.4646 0.0749893 14.6427 0.20622C15.0478 0.525362 15.119 1.11173 14.8021 1.51853L9.40285 8.43629H9.37473Z" fill="black"/>
</svg>
