<?xml version="1.0" encoding="UTF-8"?>
<svg width="222px" height="192px" viewBox="0 0 222 192" version="1.1" xmlns="http://www.w3.org/2000/svg" xmlns:xlink="http://www.w3.org/1999/xlink">
    <!-- Generator: Sketch 61 (89581) - https://sketch.com -->
    <title>shape</title>
    <desc>Created with Sketch.</desc>
    <g id="shape" stroke="none" stroke-width="1" fill="none" fill-rule="evenodd">
        <path d="M223,0 L223,192 L0,192 L0,0 L223,0 Z M160.749299,6 C140.103008,6 122.072301,16.5518955 111.999355,32.3213563 C101.927699,16.5518955 83.8892472,6 63.2433862,6 C31.6248937,6 6,30.6655318 6,61.0931174 C6,77.6592289 13.6281775,92.4800791 25.6506569,102.572782 L106.775071,183.917694 C108.160526,185.250966 110.039495,186 111.999355,186 C113.959214,186 115.838184,185.250966 117.223639,183.917694 L198.348052,102.572782 C210.370962,92.4800791 218,77.6592289 218,61.0931174 C218,30.6655318 192.367792,6 160.749299,6 Z" id="Combined-Shape" fill="#FFFFFF"></path>
        <path d="M195.480451,105.597687 L118.24504,182.911705 C116.17581,184.894962 113.392262,186 110.499385,186 C107.606508,186 104.82296,184.894962 102.69164,182.850887 L25.5182813,105.597651 C12.8968263,94.9784306 5.5,79.713487 5.5,63.2825444 C5.5,32.1583027 31.7450868,7 64.0432265,7 C82.5455731,7 99.5548394,15.3491014 110.499446,29.1132266 C121.444606,15.3479814 138.448396,7 156.949804,7 C189.249123,7 215.5,32.1594119 215.5,63.2825444 C215.5,79.7132898 208.102563,94.9782921 195.480451,105.597687 Z" id="Path" stroke="#F7B500" stroke-width="12" fill-rule="nonzero"></path>
        <path d="M39.5,126 C18.0518307,160.106539 29.1913661,138.687773 11.5,193" id="Path-2" stroke="#979797" opacity="0.200000003"></path>
        <path d="M61.5,148 C41.5640641,181.83746 47.6833543,166.322888 39.5,193" id="Path-5" stroke="#979797" opacity="0.200000003"></path>
        <path d="M188.5,117 C193.166667,121.333333 197.833333,125.666667 202.5,130" id="Path-6" stroke="#979797" opacity="0.200000003"></path>
        <path d="M141.5,164 C143.5,166.333333 145.5,168.666667 147.5,171" id="Path-7" stroke="#979797" opacity="0.200000003"></path>
        <path d="M140.233016,174.956545 C161.072461,160.459223 180.330867,143.423385 202.751351,131.464577 C215.423039,124.705656 215.487325,143.433066 213.619248,145.214218 C205.317712,153.129471 195.322051,161.766103 185.023668,166.882884 C182.205359,168.283169 145.463377,198.659403 138.5,177.575602 L140.233016,174.956545 Z" id="Path-8" stroke="#979797" opacity="0.200000003"></path>
    </g>
</svg>