<?xml version="1.0" encoding="UTF-8"?>
<svg width="28px" height="30px" viewBox="0 0 28 30" version="1.1" xmlns="http://www.w3.org/2000/svg" xmlns:xlink="http://www.w3.org/1999/xlink">
    <!-- Generator: Sketch 61 (89581) - https://sketch.com -->
    <title>HELP ICON</title>
    <desc>Created with Sketch.</desc>
    <g id="Page-2" stroke="none" stroke-width="1" fill="none" fill-rule="evenodd">
        <g id="Dashboard-Red-timer" transform="translate(-166.000000, -713.000000)" fill="#FFFFFF" fill-rule="nonzero">
            <g id="Tabs" transform="translate(0.000000, 700.000000)">
                <g id="Help-Button" transform="translate(141.000000, 0.000000)">
                    <g id="text-icon" transform="translate(18.000000, 13.000000)">
                        <g id="HELP-ICON" transform="translate(7.000000, 0.000000)">
                            <path d="M5.04516129,12.716763 C5.4516129,12.8323699 5.8,12.8323699 6.1483871,12.6589595 C6.38064516,12.6011561 6.43870968,12.3699422 6.38064516,12.1387283 C6.38064516,12.0809249 6.32258065,12.0231214 6.32258065,11.9075145 C6.32258065,11.849711 6.26451613,11.7919075 6.26451613,11.734104 C6.26451613,11.734104 6.26451613,11.734104 6.26451613,11.734104 C6.20645161,11.4450867 6.1483871,10.982659 6.1483871,10.5202312 C6.1483871,9.71098266 6.26451613,9.01734104 6.43870968,8.9017341 C6.49677419,8.84393064 6.49677419,8.78612717 6.49677419,8.7283237 C6.49677419,8.55491329 6.49677419,8.43930636 6.49677419,8.26589595 C6.49677419,8.20809249 6.49677419,8.15028902 6.49677419,8.09248555 C6.38064516,7.68786127 6.32258065,7.28323699 6.32258065,6.82080925 C6.32258065,3.58381503 9.34193548,0.924855491 13.0580645,0.924855491 C16.0774194,0.924855491 18.6322581,2.65895954 19.5032258,5.02890173 C19.6774194,5.37572254 19.8516129,5.78034682 19.9096774,6.24277457 C20.0258065,6.93641618 19.9677419,7.6300578 20.0258065,8.32369942 C20.0258065,8.43930636 20.0258065,8.55491329 20.0258065,8.67052023 C20.0258065,8.7283237 20.0258065,8.84393064 20.083871,8.9017341 C20.1419355,8.95953757 20.1419355,9.07514451 20.1419355,9.13294798 C20.1419355,9.36416185 20.2,9.59537572 20.2,9.88439306 C20.2,10.6358382 20.083871,11.3294798 19.8516129,11.9653179 C19.8516129,11.9653179 19.8516129,11.9653179 19.8516129,11.9653179 C19.8516129,12.0231214 19.8516129,12.0231214 19.7935484,12.0809249 C19.7354839,12.3121387 19.8516129,12.4855491 20.0258065,12.6011561 C20.0258065,12.6011561 20.0258065,12.6011561 20.0258065,12.6011561 C20.1419355,12.6589595 20.1419355,12.716763 20.1419355,12.7745665 C20.0258065,13.8150289 19.6774194,14.7398844 19.0967742,15.6069364 C18.516129,16.4739884 17.7032258,17.1098266 16.716129,17.6300578 C16.483871,17.7456647 16.2516129,17.8612717 16.0193548,17.9190751 C15.9612903,17.9190751 15.9032258,17.9190751 15.8451613,17.9190751 C15.5548387,17.8034682 15.3225806,17.8034682 15.0322581,17.9190751 C14.5677419,18.0924855 14.1032258,18.2080925 13.5806452,18.3815029 C13.116129,18.4971098 12.8258065,18.7861272 12.8258065,19.1907514 C12.8258065,19.5375723 13.0580645,19.8265896 13.5225806,20 C13.5225806,20 13.5225806,20 13.5806452,20 L13.8709677,20 C13.9290323,20 13.9870968,20 13.9870968,20 C14.5096774,19.8265896 15.0903226,19.6531792 15.6129032,19.4797688 C15.9032258,19.3641618 16.1935484,19.2485549 16.2516129,19.017341 C16.3096774,18.7283237 16.6,18.6127168 16.8322581,18.4971098 C17.5870968,18.150289 18.283871,17.6878613 18.8645161,17.1676301 C19.5032258,16.5317919 20.0258065,15.8381503 20.3741935,15.0867052 C20.7225806,14.3352601 20.9548387,13.583815 21.0129032,12.7745665 C21.0129032,12.716763 21.0709677,12.6589595 21.1290323,12.6011561 C21.7096774,12.3699422 22,11.9653179 22,11.3872832 C22,10.4046243 22,9.36416185 22,8.38150289 C22,7.86127168 21.7677419,7.4566474 21.2451613,7.22543353 C21.0709677,7.10982659 20.8967742,6.93641618 20.8967742,6.70520231 C20.8387097,6.41618497 20.8387097,6.12716763 20.7806452,5.83815029 C20.6064516,4.97109827 20.2,4.16184971 19.6774194,3.35260116 C19.2129032,2.65895954 18.6322581,2.02312139 17.9354839,1.50289017 C17.2387097,0.98265896 16.483871,0.578034682 15.6129032,0.289017341 C15.0903226,0.173410405 14.3935484,0.0578034682 13.6967742,0 C13.6387097,0 13.6387097,0 13.5806452,0 C13.5225806,0 13.5225806,0 13.4645161,0 L12.7096774,0 C12.6516129,0 12.5354839,0 12.4774194,0 C12.1870968,0.0578034682 11.9548387,0.0578034682 11.6645161,0.115606936 C10.5032258,0.289017341 9.45806452,0.751445087 8.47096774,1.38728324 C7.71612903,1.90751445 7.07741935,2.48554913 6.55483871,3.17919075 C6.09032258,3.8150289 5.68387097,4.56647399 5.4516129,5.31791908 C5.27741935,5.89595376 5.16129032,6.47398844 5.10322581,7.05202312 C5.10322581,7.16763006 5.04516129,7.22543353 4.92903226,7.28323699 C4.3483871,7.4566474 4,7.86127168 4,8.38150289 C4,9.47976879 4,10.5202312 4,11.6184971 C4.11612903,12.0809249 4.52258065,12.5433526 5.04516129,12.716763 Z" id="Path"></path>
                            <path d="M8.3044455,9.86006241 C8.1413497,9.91466773 8.03261916,10.1876943 8.03261916,10.3515103 C7.92388862,11.0613794 8.08698443,11.7712485 8.52190657,12.371907 C8.73936764,12.6449335 8.84809818,12.9725654 9.06555925,13.245592 C9.55484666,14.0646718 9.98976881,14.8837515 10.642152,15.5936206 C12.3274753,17.5048067 14.8282776,17.4502014 16.4592357,15.5390153 C16.9485231,14.9383568 17.32908,14.2284877 17.7640021,13.5732239 C18.0358285,13.1363814 18.3076548,12.6449335 18.5794811,12.208091 C18.960038,11.6074325 19.0687685,11.0067741 18.960038,10.3515103 C18.960038,10.1876943 18.8513075,9.96927304 18.7425769,9.91466773 C18.2532895,9.75085178 18.3620201,9.42321988 18.4163853,9.04098267 C18.4707506,8.65874545 18.4707506,8.27650824 18.5251159,7.89427103 C18.6882117,5.71005838 17.7096368,4.12650421 15.7524872,3.4166351 C14.3389902,2.87058193 12.871128,2.87058193 11.457631,3.36202978 C9.93540354,3.90808294 8.79373291,4.94558395 8.57627184,6.63834875 C8.4675413,7.4574285 8.57627184,8.33111356 8.57627184,9.1501933 C8.63063711,9.42321988 8.68500238,9.69624646 8.3044455,9.86006241 Z M8.90246345,10.0784837 C9.11992452,10.1876943 9.28302032,10.2422996 9.50048139,10.3515103 C9.44611613,9.86006241 9.39175086,9.36861457 9.33738559,8.8225614 C9.22865505,7.73045508 9.93540354,6.58374344 10.9683436,6.31071686 C11.1858047,6.25611154 11.5119963,6.36532217 11.6750921,6.52913812 C13.0342238,7.83966571 14.7195471,8.33111356 16.513601,8.49492951 C16.8941578,8.54953482 17.2747147,8.60414014 17.7096368,8.65874545 C17.6009063,9.25940393 17.546541,9.86006241 17.4378105,10.4061156 C17.6552716,10.2969049 17.8727327,10.2422996 18.0901937,10.133089 C18.1989243,10.4061156 18.3620201,10.6791422 18.3620201,10.8975634 C18.3620201,11.2251953 18.1989243,11.5528272 18.0901937,11.8258538 C17.6552716,12.6449335 17.1659842,13.409408 16.731062,14.1738824 C16.1874093,15.1567781 15.5350261,15.9758578 14.3389902,16.2488844 C12.871128,16.5765163 11.5119963,16.1396738 10.642152,14.8837515 C10.3703257,14.3923037 10.0984993,13.8462505 9.826673,13.3001973 C9.55484666,12.8087495 9.22865505,12.371907 9.01119398,11.8804591 C8.84809818,11.4982219 8.68500238,11.1159847 8.63063711,10.7337475 C8.57627184,10.5153262 8.79373291,10.2969049 8.90246345,10.0784837 Z" id="Shape"></path>
                            <path d="M27.9378582,25.6993093 C27.3678388,23.0045511 25.9427905,20.9147385 23.2066975,19.8148372 C22.0096569,19.3198816 20.7556143,18.824926 19.5015717,18.3299704 C19.273564,18.2199803 19.0455562,18.1099901 18.8175485,18 C18.6465427,18.6599408 18.5325388,19.2648865 18.361533,19.9248273 C17.7345117,22.8395659 16.5374711,25.5343241 14.5994052,27.899112 C14.0863878,28.5040577 13.9723839,28.5040577 13.4593665,27.899112 C11.8063104,25.8642945 10.6662717,23.6094968 10.0392504,21.1897139 C9.75424071,20.1448076 9.52623296,19.0999013 9.24122328,18.0549951 C7.70217102,18.7149359 6.10611682,19.3198816 4.56706455,19.9798224 C4.11104907,20.1998027 3.65503358,20.4197829 3.25602003,20.6947583 C1.14694841,22.2896152 0.120913568,24.3794277 0.00690969681,26.9092008 C-0.0500922389,27.9541071 0.23491744,28.2840775 1.26095228,28.6140479 C1.37495615,28.6690429 1.48896003,28.6690429 1.6029639,28.724038 C4.33905681,29.2189936 7.13215166,29.6039591 9.92524651,29.8239393 C13.003351,30.0989146 16.1384575,30.0439196 19.216562,29.7139492 C21.3826356,29.4939689 23.5487092,29.1639985 25.7147827,28.8340281 C26.2278001,28.7790331 26.7978195,28.5590528 27.253835,28.3940676 C27.5958466,28.2840775 27.8808563,28.0091021 27.8808563,27.5691416 C27.9948601,26.9641959 28.0518621,26.3042551 27.9378582,25.6993093 Z" id="Path"></path>
                            <g id="Group" transform="translate(11.000000, 20.000000)">
                                <path d="M3.4,6.66666667 C3.4,6.61333333 3.46666667,6.61333333 3.4,6.56 C3.33333333,6.34666667 3.33333333,6.18666667 3.26666667,5.97333333 C3.26666667,5.81333333 3.2,5.65333333 3.13333333,5.49333333 C2.4,6.02666667 1.73333333,6.56 1.06666667,7.09333333 C1.33333333,7.36 1.66666667,7.57333333 1.93333333,7.84 C2.46666667,7.41333333 2.93333333,7.04 3.4,6.66666667 Z" id="Path"></path>
                                <g id="Path">
                                    <path d="M3.2,0.746666667 C3.13333333,0.746666667 3.13333333,0.746666667 3.2,0.746666667 C2.4,0.426666667 1.6,0.426666667 0.866666667,0.746666667 C0.533333333,0.906666667 0.466666667,1.01333333 0.733333333,1.22666667 C1,1.44 1.26666667,1.6 1.53333333,1.81333333 C1.6,1.86666667 1.66666667,1.92 1.6,1.97333333 C1.53333333,2.18666667 1.53333333,2.4 1.46666667,2.61333333 C1.8,2.4 2.13333333,2.18666667 2.46666667,1.97333333 C2.46666667,1.97333333 2.46666667,1.92 2.53333333,1.92 C2.6,1.86666667 2.6,1.81333333 2.66666667,1.76 C2.93333333,1.54666667 3.2,1.38666667 3.4,1.17333333 C3.53333333,1.01333333 3.53333333,0.906666667 3.2,0.746666667 Z"></path>
                                    <path d="M0.666666667,6.77333333 C1.53333333,6.24 2.33333333,5.76 3.06666667,5.22666667 C3.06666667,5.22666667 3.13333333,5.17333333 3.13333333,5.17333333 C3.06666667,4.96 3.06666667,4.74666667 3,4.48 C2.93333333,4.53333333 2.86666667,4.53333333 2.86666667,4.58666667 C2.26666667,5.06666667 1.66666667,5.54666667 1,5.97333333 C0.8,6.13333333 0.6,6.29333333 0.6,6.56 C0.6,6.61333333 0.6,6.66666667 0.666666667,6.77333333 Z"></path>
                                    <path d="M1,4.74666667 C0.933333333,4.96 0.933333333,5.17333333 0.866666667,5.38666667 C0.933333333,5.38666667 0.933333333,5.38666667 0.933333333,5.38666667 C1.6,4.96 2.2,4.58666667 2.86666667,4.16 C2.86666667,4.16 2.93333333,4.10666667 2.93333333,4.05333333 C2.86666667,3.84 2.86666667,3.62666667 2.8,3.41333333 C2.73333333,3.41333333 2.73333333,3.46666667 2.73333333,3.46666667 C2.2,3.89333333 1.6,4.32 1.06666667,4.74666667 C1,4.74666667 1,4.74666667 1,4.74666667 Z"></path>
                                    <path d="M2.66666667,2.98666667 C2.6,2.77333333 2.6,2.56 2.53333333,2.34666667 C2.53333333,2.34666667 2.46666667,2.34666667 2.46666667,2.34666667 C2.46666667,2.4 2.4,2.4 2.4,2.45333333 C2.13333333,2.66666667 1.8,2.93333333 1.53333333,3.14666667 C1.33333333,3.25333333 1.26666667,3.41333333 1.26666667,3.57333333 C1.26666667,3.73333333 1.2,3.84 1.2,4 C1.26666667,4 1.26666667,4 1.26666667,4 C1.73333333,3.68 2.2,3.41333333 2.66666667,3.09333333 C2.66666667,3.04 2.66666667,2.98666667 2.66666667,2.98666667 Z"></path>
                                </g>
                            </g>
                        </g>
                    </g>
                </g>
            </g>
        </g>
    </g>
</svg>