<svg xmlns="http://www.w3.org/2000/svg" width="317" height="305.393" viewBox="0 0 317 305.393">
  <g id="Image" transform="translate(-0.5 -1.193)">
    <path id="Path" d="M253.757,126.982c95.361,100.276,104.694,162.407-126.878,126.982C57.1,243.288,0,197.112,0,126.982A126.93,126.93,0,0,1,126.878,0C196.951,0,205.447,76.182,253.757,126.982Z" transform="translate(0.5 31)" fill="#f7b500" opacity="0.2"/>
    <g id="Hospital-10-People-Isometric-AurielAki_copy" data-name="Hospital-10-People-Isometric-AurielAki copy" transform="translate(36.5 0.5)">
      <g id="Group" transform="translate(104 61.5)">
        <path id="Path-2" data-name="Path" d="M45.737.7A4.5,4.5,0,0,1,49.3.137q2.427.484,9.291,1.551,5.81.925,9.234,1.629a131.161,131.161,0,0,1-8.752,24.127q-4.59,9.773-12.249,22.629a13.52,13.52,0,0,1-4.7,3.695q-1.771.937-5.377,2.662-8.286,5.34-12.261,7.43a51.586,51.586,0,0,1-13.238,5.176,5.877,5.877,0,0,1-4.127,1.029Q-3.549,67.578,1.766,57.58a18.24,18.24,0,0,1,5.07-3.368q1.5-.637,5.177-1.788a41.475,41.475,0,0,0,5.107-1.89,13.7,13.7,0,0,0,4.47-3.388q5.222-3.729,5.818-4.14A18.084,18.084,0,0,1,34.031,40.4a25.663,25.663,0,0,1,1.1-9.41,67.743,67.743,0,0,1,3.485-8.936q2.948-6.479,3.775-8.883a32.078,32.078,0,0,0,2.031-9.283A2.919,2.919,0,0,1,45.737.7Z" transform="translate(17.78 8.771)" fill="#e1eaf4"/>
        <path id="Path-3" data-name="Path" d="M4.265,11.835a42.768,42.768,0,0,0,6.6-.919,16.6,16.6,0,0,0,6.051-2.678A40.227,40.227,0,0,1,32.355,0c.237,1.523.433,2.6.592,3.229-.568.821-1.193,1.649-1.875,2.478a4.632,4.632,0,0,1-1.9-.682,11.61,11.61,0,0,0-1.8-.906,15.722,15.722,0,0,0-4.029,1.9q-1.115.723-3.649,2.637a37.994,37.994,0,0,1-3.677,2.56,14.174,14.174,0,0,1-4.135,1.694q-3.267.655-4.527.825a18.66,18.66,0,0,1-4.58.106A3,3,0,0,1,.514,12.268a3.849,3.849,0,0,1-.421-2.78,5.362,5.362,0,0,0,1.757,1.784A3.73,3.73,0,0,0,4.265,11.835Z" transform="translate(69.972 184.838)" fill="#654720"/>
        <path id="Path-4" data-name="Path" d="M29.879,0a31.216,31.216,0,0,1-4.764,8.385q-.907,1.7-2.492,5.262a21.208,21.208,0,0,1-3.1,4.895,10.77,10.77,0,0,1-5.879,2.547,40.16,40.16,0,0,1-6.549.159A18.547,18.547,0,0,1,1.99,20.093q-2.807-1.3-1.655-4A6.414,6.414,0,0,0,4.9,18.926a49.3,49.3,0,0,0,5.618.392,15.54,15.54,0,0,0,6.169-1,8.4,8.4,0,0,0,4.592-4.042q1.471-2.664,3.256-6.532,1.992-4.433,3.007-6.65A25.629,25.629,0,0,0,29.879,0Z" transform="translate(90.768 191.386)" fill="#654720"/>
        <path id="Path-5" data-name="Path" d="M0,23.1a35.466,35.466,0,0,0,9.164,2.237,22.467,22.467,0,0,0,8.1-.6,15.073,15.073,0,0,0,7.032-3.874,20.526,20.526,0,0,0,3.922-5.111A50.985,50.985,0,0,0,30.9,9.879Q33.248,3.621,30.774,0a21.713,21.713,0,0,1,4.772,9.8,42.212,42.212,0,0,1,.723,10.945,48.909,48.909,0,0,0-1.79,7.41q-.257,1.659-1.021,7.581A68.883,68.883,0,0,0,30.3,57.243a39.256,39.256,0,0,1-.47,4.94q-.257,1.617-.895,4.9a25.581,25.581,0,0,0-.212,9.8,21.721,21.721,0,0,1,1.7,7.622q.214,2.639.212,7.879-2.176,9.326-2.942,13.288a87.779,87.779,0,0,0-1.577,13.5,12.008,12.008,0,0,1-.511,6.389,54.629,54.629,0,0,1-2.6,6.005,17.766,17.766,0,0,1-.981,2.813,6.034,6.034,0,0,1-1.834,2.3,19.321,19.321,0,0,1-2.345,1.065,10.63,10.63,0,0,1-5.5.384,39.329,39.329,0,0,1-5.369-1.49,13.2,13.2,0,0,1-2.643-1.192,4.511,4.511,0,0,1-1.875-2.086,31.832,31.832,0,0,1-.6-3.237q-.129-1.065-.212-2.768c-.061-.008-.127-.016-.192-.02.016-.429.02-.89.02-1.384a31.515,31.515,0,0,1,.6-6.177,50.043,50.043,0,0,0,.768-7.92q.086-2.854.384-8.687.3-5.45.3-5.662a66.859,66.859,0,0,0-1.021-7.283q-1.023-5.707-1.021-5.793a16.4,16.4,0,0,0-.637-4.985,11.5,11.5,0,0,1-.637-3.621q0-.894,1.066-8.859a116.15,116.15,0,0,0,1.066-15.5,92.022,92.022,0,0,0-.981-12.692A92.765,92.765,0,0,1,.388,25.944a11.658,11.658,0,0,1,.319-2.556C.47,23.294.233,23.2,0,23.1Z" transform="translate(100.472 54.732)" fill="#686a6a"/>
        <path id="Path-6" data-name="Path" d="M19.749,16.2c.237.1.47.188.7.278a11.658,11.658,0,0,0-.319,2.556,92.718,92.718,0,0,0,.981,12.819,92.022,92.022,0,0,1,.981,12.692,116.2,116.2,0,0,1-1.066,15.5q-1.066,7.967-1.066,8.859a11.5,11.5,0,0,0,.637,3.621,16.4,16.4,0,0,1,.637,4.985q0,.086,1.021,5.793a65.758,65.758,0,0,1,1.021,7.283q0,.214-.3,5.662-.3,5.836-.384,8.687a50.043,50.043,0,0,1-.768,7.92,31.515,31.515,0,0,0-.6,6.177c0,.494-.008.955-.02,1.384l-.789-.106q-1.256-.165-3.2-.339c-1.933-.171-3.35-.327-4.261-.469a13.84,13.84,0,0,1-7.587-3.364,2.761,2.761,0,0,1-.94-3.111A6.194,6.194,0,0,1,6.4,110.179a5.073,5.073,0,0,0,.809-2.641,3.621,3.621,0,0,1,1.152-2.47,5.279,5.279,0,0,0,1.152-4.727,21.957,21.957,0,0,1-.809-5.152q0-3.154.425-7.369.594-4.942.895-7.41a59.951,59.951,0,0,0,.257-14.823A10.171,10.171,0,0,1,8.877,60.6q-.086-1.745-.127-2.641a17.488,17.488,0,0,0-.384-2.556,49.629,49.629,0,0,0-1.491-7.92q-.723-2.725-2.386-7.708-1.747-5.321-2.431-7.752A54.054,54.054,0,0,1,.44,24.106,63.047,63.047,0,0,1,.182,11.925,48.115,48.115,0,0,1,2.7,0,26.942,26.942,0,0,0,13.228,12.778,34.7,34.7,0,0,0,17.7,15.313Z" transform="translate(80.723 61.632)" fill="#3a3a3a"/>
        <path id="Path-7" data-name="Path" d="M6.1,7.585Q8.513,6.1,9.722,5.34A26.17,26.17,0,0,0,16.284,0a13.834,13.834,0,0,0,7.587,3.36q1.367.22,4.265.486c1.871.167,3.269.327,4.188.486q.08,1.708.208,2.756A40.282,40.282,0,0,0,17.1,15.325,16.633,16.633,0,0,1,11.046,18a42.769,42.769,0,0,1-6.6.919,3.681,3.681,0,0,1-2.415-.563A5.362,5.362,0,0,1,.272,16.574a4.756,4.756,0,0,1,.172-3.58A7.4,7.4,0,0,1,2.65,10.083,31.556,31.556,0,0,1,6.1,7.585Z" transform="translate(69.79 177.751)" fill="#979899"/>
        <path id="Path-8" data-name="Path" d="M16.343,3.27a39.543,39.543,0,0,0,5.381,1.494,10.788,10.788,0,0,0,5.487-.355Q26.2,6.626,24.2,11.059q-1.783,3.87-3.256,6.532a8.43,8.43,0,0,1-4.592,4.042,15.468,15.468,0,0,1-6.169,1,50.354,50.354,0,0,1-5.618-.392A6.414,6.414,0,0,1,0,19.4q.38-4.133,3.926-8.949a77.43,77.43,0,0,0,6.01-7.977Q10.96,1.229,11.812,0A4.571,4.571,0,0,0,13.7,2.111,12.607,12.607,0,0,0,16.343,3.27Z" transform="translate(91.099 188.063)" fill="#979899"/>
        <g id="Group-2" data-name="Group" transform="translate(59.243 5.307)">
          <path id="Shape" d="M55.126,155a43.13,43.13,0,0,1-6.649-.52,7.354,7.354,0,0,1-4.184-2.017,1.54,1.54,0,0,1-.465-.784c-.05-.207-.1-.409-.139-.617.036-.533.053-1.1.053-1.718,0-3.182-.643-9.474-1.912-18.7-1.115-8.129-1.972-13.592-2.55-16.24-.439-2.075-1.04-5.081-1.786-8.936-.817-4.192-1.419-7.225-1.741-8.769-.169-.952-.319-2.394-.446-4.287-.121-2.071-.245-3.627-.359-4.5-.452-3.469-1.653-5.94-3.571-7.344a.45.45,0,0,1-.147.253,2.261,2.261,0,0,0-.021.51c0,.845.6,4.817,1.847,12.141a203.554,203.554,0,0,1,1.847,27.6c0,.269.026,2.456.086,7.091.041,4.8.041,8.5,0,11a6.683,6.683,0,0,1,.286,2.025,27.327,27.327,0,0,1-5.491-3.343A2.351,2.351,0,0,1,29,136.719a73.274,73.274,0,0,1-2.635-10.679c-.722-4.4-1.415-8.84-2.059-13.2-.514-3.536-1.171-7.129-1.953-10.679-.941-4.282-1.8-8.681-2.55-13.076A93.527,93.527,0,0,1,18.569,76.9a53.4,53.4,0,0,1,1.169-12.97c.787-3.654,1.538-7.333,2.23-10.933.36.843.739,1.765,1.128,2.74a112.232,112.232,0,0,1,3.7,12.586c.683,2.769,1.34,5.476,1.953,8.046h.01a1.133,1.133,0,0,0,.542-.085c.037.078.079.168.126.253a23.172,23.172,0,0,0,2.059-4.65,23.8,23.8,0,0,0,.193-3.968,32.781,32.781,0,0,0-2.848-12.271l-.545-1.237c-.655-1.485-1.128-2.557-1.408-3.2a8.9,8.9,0,0,1-.891-2.74,7.21,7.21,0,0,1,.319-1.571,7.208,7.208,0,0,0,.319-1.572,7.374,7.374,0,0,0-.192-2.057,2.006,2.006,0,0,0-.764-.89,18.407,18.407,0,0,1-4.229-4.352A17.238,17.238,0,0,0,26.41,32.61a11.261,11.261,0,0,0,1.913-5.539,22.969,22.969,0,0,0-1.316-6.985,29.855,29.855,0,0,0-2.934-6.434c-1.161-1.858-2.133-2.8-2.888-2.8h-.021c-.889.028-1.34,1.371-1.34,3.992a86.713,86.713,0,0,1-.976,10.573c-.321,2.29-.57,4.261-.74,5.858a3.837,3.837,0,0,0-1.348-.224,9.025,9.025,0,0,0-2.909.424A2.668,2.668,0,0,0,12.224,32.7a23.562,23.562,0,0,1-.711-2.516,9.1,9.1,0,0,0-1.128-3.118,3.125,3.125,0,0,0-1.363-.313,5.552,5.552,0,0,0-3.311,1.415c-1.573,1.216-2.337,2.132-2.337,2.8,0,.974.851,1.788,2.529,2.421s2.529,1.407,2.529,2.294a10.656,10.656,0,0,0,.193,2.78c.085.184.44.33,1.083.445,2.1.411,4.733,2.583,7.82,6.454A29.728,29.728,0,0,1,19.3,47.833c-.161-.1-.33-.192-.519-.286A45.334,45.334,0,0,1,8.412,40.289c-.885-.815-1.814-1.6-2.762-2.336a8.749,8.749,0,0,1-2.8-3.5,39.086,39.086,0,0,1-2.4-7.663,21.545,21.545,0,0,1,1.1-12.353A28.07,28.07,0,0,1,8.9,3.841,12.781,12.781,0,0,1,17.667.269,14.4,14.4,0,0,1,20.245.51L19.713,0A46.423,46.423,0,0,1,31.226,4.63c4.755,2.716,9.457,5.644,13.978,8.7,1.477,1.014,2.914,2.108,4.27,3.25a24.257,24.257,0,0,1,2.378,2.27c.674.744,1.4,1.5,2.165,2.249,2.242,2.213,4.416,4.57,6.459,7.006A73.732,73.732,0,0,1,72.5,48a11.043,11.043,0,0,1,2.677,3.119c-.062-.1-.129-.208-.193-.306a31.167,31.167,0,0,1-3.44,5.34,42.3,42.3,0,0,0-3.632,4.585,6.336,6.336,0,0,0,.764,2.8,4.1,4.1,0,0,0,3.866,2.548,7.882,7.882,0,0,0,5.789-2.719c.133.905.247,1.842.352,2.866a97.248,97.248,0,0,1,.491,11.317,66.08,66.08,0,0,1-1.21,11.422c-.691,3.456-1.6,8.01-2.529,12.59a43.835,43.835,0,0,0-.6,13.566c.492,4.294.842,8.673,1.042,13.015.027.583.085,1.184.171,1.784a35.672,35.672,0,0,1-.359,12.758,12.5,12.5,0,0,1-2.484,5.287,17.573,17.573,0,0,1-5.036,4.368,18.142,18.142,0,0,1-6.4,2.148A43.144,43.144,0,0,1,55.126,155ZM29.8,49.736a2.555,2.555,0,0,0-.04.636c0,1.241,1.043,2.592,3.1,4.013a12,12,0,0,0,6.84,2.27c.357,0,.579-.076.678-.232a2.773,2.773,0,0,1,.086-.445,7.893,7.893,0,0,0-3.42-3.968,14.724,14.724,0,0,0-7.2-2.273Z" transform="translate(0.262 0.155)" fill="#fff"/>
          <path id="Shape-2" data-name="Shape" d="M40.312,140.2a14.254,14.254,0,0,1-.219-4.239,1.491,1.491,0,0,0-.51-1.314,16.23,16.23,0,0,0-1.528-1.307,15.553,15.553,0,0,0-3.93-2.11l-.027-.01c-.047-.017-.1-.035-.144-.055-.728-.265-1.418-.546-2.051-.837a6.789,6.789,0,0,0-.286-2.025c.041-2.493.041-6.193,0-11-.06-4.7-.086-6.82-.086-7.091a203.779,203.779,0,0,0-1.847-27.6c-1.225-7.2-1.847-11.282-1.847-12.141a2.864,2.864,0,0,1,.021-.51A.475.475,0,0,0,28,69.711c1.92,1.413,3.121,3.884,3.571,7.344.114.845.231,2.317.359,4.5.125,1.864.274,3.306.445,4.287.313,1.5.9,4.446,1.741,8.769.78,4.041,1.365,6.964,1.786,8.937.578,2.656,1.436,8.12,2.55,16.24,1.268,9.228,1.912,15.519,1.912,18.7,0,.62-.017,1.18-.053,1.712ZM26.047,65.682v0c-.035-.067-.068-.133-.1-.2l-.027-.054a1.146,1.146,0,0,1-.552.086c-.5-2.113-1.106-4.595-1.953-8.047a111.5,111.5,0,0,0-3.7-12.586c-.38-.959-.76-1.884-1.128-2.748.047-.245.094-.491.141-.734l.03-.156a2.062,2.062,0,0,0-.192-1.4,7.061,7.061,0,0,0-2.643-2.853,29.388,29.388,0,0,0-1.774-2.474c-3.086-3.872-5.716-6.044-7.819-6.454-.643-.115-1-.261-1.083-.446a10.656,10.656,0,0,1-.193-2.78c0-.889-.851-1.66-2.529-2.294S0,21.095,0,20.122c0-.663.786-1.6,2.337-2.8a5.534,5.534,0,0,1,3.307-1.415,3.135,3.135,0,0,1,1.367.314,9.123,9.123,0,0,1,1.128,3.119,23.382,23.382,0,0,0,.711,2.515c.078.216.163.426.253.625.032.073.06.132.086.18l.006.01.006.011c.02.039.04.076.066.118C9.91,23.932,11.328,26,13.6,29.124c2.218,3.071,3.819,5.442,4.759,7.046,1.367,2.337,2.983,6.5,4.8,12.378.934,3.018,1.656,5.69,2.145,7.941a61.813,61.813,0,0,0-5.291-18.065c-1.812-3.856-3.092-6.655-3.8-8.32a17.9,17.9,0,0,1-1.72-6.283c0-.718.083-1.857.246-3.385.171-1.624.417-3.6.731-5.87a86.6,86.6,0,0,0,.977-10.574c0-2.621.451-3.964,1.34-3.992H17.8c.763,0,1.737.942,2.9,2.8a30.229,30.229,0,0,1,2.933,6.434,22.968,22.968,0,0,1,1.316,6.985,11.258,11.258,0,0,1-1.912,5.54,17.206,17.206,0,0,1-4.973,5.413,18.354,18.354,0,0,0,4.229,4.352,2,2,0,0,1,.764.89,7.348,7.348,0,0,1,.192,2.057,7.21,7.21,0,0,1-.319,1.571,7.115,7.115,0,0,0-.319,1.572,9.06,9.06,0,0,0,.891,2.739l.234.532q.568,1.292,1.719,3.906A32.744,32.744,0,0,1,28.3,57.064a23.868,23.868,0,0,1-.192,3.968,23.805,23.805,0,0,1-2.058,4.649ZM69.179,55.23a4.1,4.1,0,0,1-3.865-2.547,6.355,6.355,0,0,1-.764-2.8A42.134,42.134,0,0,1,68.182,45.3a30.624,30.624,0,0,0,3.441-5.34l.035.058c.05.084.1.17.153.248l1.03,2.408.023.077c.011.035.021.069.03.1.048.163.093.325.139.491.159.554.308,1.116.457,1.718.2.793.4,1.61.577,2.429.128.579.242,1.166.327,1.613.219,1.123.413,2.27.576,3.408A7.883,7.883,0,0,1,69.179,55.23ZM36.33,45.8a11.987,11.987,0,0,1-6.84-2.27c-2.057-1.422-3.1-2.773-3.1-4.013a2.911,2.911,0,0,1,.04-.637h.041a14.907,14.907,0,0,1,7.2,2.274,7.882,7.882,0,0,1,3.42,3.968,2.652,2.652,0,0,0-.086.445C36.911,45.726,36.683,45.8,36.33,45.8Z" transform="translate(3.636 11.002)" fill="#e1eaf4"/>
          <path id="Path-9" data-name="Path" d="M5.888.229q-.245,2.309-.245,3.384A17.756,17.756,0,0,0,7.362,9.9q1.042,2.443,3.8,8.32A61.522,61.522,0,0,1,16.457,36.28q-.742-3.4-2.145-7.94-2.739-8.855-4.8-12.378-1.4-2.4-4.76-7.046Q1.393,4.311.417,2.588A1.1,1.1,0,0,1,.351,2.47a.089.089,0,0,0-.012-.02C.311,2.392.282,2.335.253,2.27.168,2.09.086,1.882,0,1.645A2.671,2.671,0,0,1,1.626.425,8.993,8.993,0,0,1,4.535,0,4.023,4.023,0,0,1,5.888.229Z" transform="translate(12.482 31.202)" fill="#be2d2a"/>
        </g>
        <path id="Path-10" data-name="Path" d="M19.326.256A18.864,18.864,0,0,0,10.08,3.089,77.849,77.849,0,0,0,2.272,8.914a5.6,5.6,0,0,1-.482,2.752q-.368.955-1.25,2.784-1.416,3.331.878,4.866a7.211,7.211,0,0,0,3.309-2.67,27.572,27.572,0,0,1,2.819-3.339A37.792,37.792,0,0,1,5.1,16.5q-1.312,2.094.674,2.715A12.087,12.087,0,0,0,10.3,15.528a24.209,24.209,0,0,1,4.221-4.213q-.833.992-2.545,2.9a26.9,26.9,0,0,0-2.337,3.033,5.717,5.717,0,0,0,3.616-.649,17.328,17.328,0,0,0,3.171-2.266,35.546,35.546,0,0,1,3.207-2.5,7.978,7.978,0,0,1,3.734-1.368,10.87,10.87,0,0,0,1.7-.886,14.575,14.575,0,0,0,2.4-2.454A43.279,43.279,0,0,0,29.23,2.742,49.557,49.557,0,0,0,24.433.6,8.385,8.385,0,0,0,19.326.256Z" transform="translate(0.269 68.055)" fill="#e49781"/>
        <path id="Path-11" data-name="Path" d="M29.164,5.083A13.711,13.711,0,0,1,33.6,15.815a16.481,16.481,0,0,1-4.122,11.047,4.255,4.255,0,0,0,.658-2.6q-.1-1.629-1.667-1.327a3.7,3.7,0,0,0-2.088,1.588,10.014,10.014,0,0,0-.985,2.429,15.084,15.084,0,0,1-.932,2.507,3.873,3.873,0,0,1-1.875,1.8,4.366,4.366,0,0,0-.641-3.082A7.268,7.268,0,0,0,19.771,26.3c-1.2-.682-2.08-1.221-2.639-1.613a5.925,5.925,0,0,1-2.006-2.258,16.542,16.542,0,0,1-7.338.943A7.989,7.989,0,0,1,1.671,19.71,26.864,26.864,0,0,1,.057,16.848,11.969,11.969,0,0,1,2.839,8.189a22.152,22.152,0,0,1,7.219-5.981A14.923,14.923,0,0,1,20.167.163,13.638,13.638,0,0,1,29.164,5.083Z" transform="translate(50.075 0.384)" fill="#654720"/>
        <path id="Path-12" data-name="Path" d="M42.34,11.872q-.012.459-.433,5.262a12.157,12.157,0,0,1-3.608,5.63,14.5,14.5,0,0,1-5.892,3.229,50.955,50.955,0,0,1-7.771-.408,43.715,43.715,0,0,0-7.783-.3,39.082,39.082,0,0,0-7.036.616,38.917,38.917,0,0,1-7.036.616,3.537,3.537,0,0,1-2.076-.694,1.5,1.5,0,0,1-.564-1.915,27.893,27.893,0,0,1,2.978-5.654q1.391-2.1,3.861-5.115,1.048-1.3,3.15-3.988a12.24,12.24,0,0,1,3.939-3.123,5.866,5.866,0,0,1,3.624-.355c.821.139,2.039.416,3.649.825l3.293.759A4.531,4.531,0,0,1,26.606,2.49a14.326,14.326,0,0,1,2.4-1.364Q29.848.735,31.488,0L32,.433a21.84,21.84,0,0,1,3.2.3A5.846,5.846,0,0,1,38.05,2.111a8.731,8.731,0,0,1,.695.747q1.22,1.525,1.471,1.849a12.414,12.414,0,0,1,1.246,2.009A12.554,12.554,0,0,1,42.34,11.872Z" transform="translate(97.036 26.789)" fill="#e1eaf4"/>
        <path id="Path-13" data-name="Path" d="M15.862,4.98q.84.588,2.639,1.613a7.106,7.106,0,0,1,2.178,1.878,4.35,4.35,0,0,1,.641,3.082,3.874,3.874,0,0,0,1.875-1.8,15.084,15.084,0,0,0,.932-2.507,9.99,9.99,0,0,1,.985-2.429A3.72,3.72,0,0,1,27.2,3.233q1.563-.3,1.667,1.327a4.255,4.255,0,0,1-.658,2.6,8.434,8.434,0,0,1-2.272,2.466,8.418,8.418,0,0,0-2.259,2.454,18.455,18.455,0,0,1-5.344,6.271q-1.1.514-3.007,1.327-2.206.943-3.007,1.3a29.172,29.172,0,0,1-2.795,1.114A4.226,4.226,0,0,1,6.6,22.1,4.062,4.062,0,0,1,4.185,19.84a6.741,6.741,0,0,1-.576-3.348q-2.127.129-1.941-1.719a7.445,7.445,0,0,1,.409-1.653c.331-.988.5-1.506.511-1.547A19.77,19.77,0,0,1,.03,1.392L.4,0A8,8,0,0,0,6.514,3.662a16.661,16.661,0,0,0,7.338-.943A5.885,5.885,0,0,0,15.862,4.98Z" transform="translate(51.34 20.085)" fill="#fcd8c9"/>
        <path id="Path-14" data-name="Path" d="M5.336,4.919A8.359,8.359,0,0,1,7.6,2.466,8.545,8.545,0,0,0,9.867,0q-.055,4.88-.208,6.009a9.155,9.155,0,0,1-2.374,5.34,4.479,4.479,0,0,1-3.624,1.274A6.743,6.743,0,0,1,0,11.194,18.525,18.525,0,0,0,5.336,4.919Z" transform="translate(69.686 27.246)" fill="#e49781"/>
        <path id="Shape-3" data-name="Shape" d="M15.213,11.4a13.279,13.279,0,0,0-1.277-2c-.147-.234-.635-.865-1.451-1.874a2.361,2.361,0,0,1,1.445-.907c.409,0,.711.348.9,1.033a18.318,18.318,0,0,1,.384,3.743ZM0,7.445H0l2.045-4.3C3.246,1.058,4.5,0,5.783,0A2.96,2.96,0,0,1,7.416.548a2.2,2.2,0,0,1,1.4.47,2.113,2.113,0,0,1,.814,1.233,3,3,0,0,1,.911-.165c.768,0,1.264.456,1.475,1.356a7.476,7.476,0,0,1-.212,3.364A6.018,6.018,0,0,0,8.951,5.4a21.135,21.135,0,0,0-3.2-.3,11.107,11.107,0,0,0-3.027.723A14.331,14.331,0,0,0,.343,7.19C.218,7.282.107,7.365,0,7.445Z" transform="translate(123.315 22.113)" fill="#e49781"/>
        <g id="Group-3" data-name="Group" transform="translate(66.189 25.719)">
          <path id="Shape-4" data-name="Shape" d="M11.666,40.429l0,0A46.667,46.667,0,0,1,4.782,25.92c-.135-.576-.261-1.159-.384-1.784a8.575,8.575,0,0,1-.278-1.764c-.07-.7-.119-1.393-.147-2.057a16.971,16.971,0,0,0-.36-2.441v-.041A83.17,83.17,0,0,1,1.574,9.17C.9,5.3.382,2.484,0,.572L.022.552a.1.1,0,0,1,0-.126A.235.235,0,0,1,.128.34L1.169.022A.192.192,0,0,1,1.255,0a.188.188,0,0,1,.086.022h.021a.355.355,0,0,1,.192.106V.107A.662.662,0,0,1,1.68.279c.269.887.6,2.222.977,3.968a.067.067,0,0,0,.005.03.017.017,0,0,0,.015.01,11.028,11.028,0,0,0,1.7,3.588,14.825,14.825,0,0,0,5.7-1.42,25.427,25.427,0,0,0,4.609-3.038.342.342,0,0,1,.193-.041.577.577,0,0,1,.232.086l1,.678a.271.271,0,0,1,.127.126h.024a.616.616,0,0,1,.045.127h-.021a.169.169,0,0,1-.045.126c-2.1,1.764-3.668,3.135-4.653,4.074a10.519,10.519,0,0,0-3.208,4.818H8.352a43.97,43.97,0,0,0-2.21,9,2.752,2.752,0,0,0-.02.616,12.326,12.326,0,0,0,.4,2.568,43.177,43.177,0,0,0,5.14,11.847v2.984ZM3.4,8.852a14.4,14.4,0,0,0,.743,4.226c.431,1.377.744,2.453.957,3.29A46.709,46.709,0,0,1,7.821,9.085c-.934.155-1.564.24-1.871.257h-.1A6.048,6.048,0,0,1,3.4,8.852Z" transform="translate(0.089 13.789)" fill="#00c7b4"/>
          <path id="Path-15" data-name="Path" d="M1.062,18.207.086,16.741A.425.425,0,0,1,0,16.464.75.75,0,0,1,.106,16.1,47.761,47.761,0,0,0,5.671,3.792Q4.611,2.457,4.078,1.775a.357.357,0,0,1-.086-.233.591.591,0,0,1,.065-.278A1.833,1.833,0,0,1,5.246.057h.02A1.914,1.914,0,0,1,6.713.31,2.662,2.662,0,0,1,8.053,3.3a.544.544,0,0,1-.02.086l-.02.041a44.224,44.224,0,0,1-2.59,7.748q-1,2.247-3.379,6.752a1.182,1.182,0,0,1-.319.318.453.453,0,0,1-.36.127H1.32a.366.366,0,0,1-.274-.171h.016Z" transform="translate(14.578 0.38)" fill="#65675b"/>
        </g>
      </g>
      <g id="Group-4" data-name="Group" transform="translate(0 0.5)">
        <g id="Group-5" data-name="Group">
          <path id="Path-16" data-name="Path" d="M11.367,6.088a13.122,13.122,0,0,1,.761,2.769,53.523,53.523,0,0,1,1.343,5.355q.372,1.814,1.115,5.42a47.968,47.968,0,0,0,2.327,6.78q2.374,5.778,2.681,6.634c.151.354.387.88.712,1.572s.553,1.214.7,1.568a45.179,45.179,0,0,0,2.083,4.663q2.118,4.221,2.278,4.565.629,1.393,1.924,4.125a45.015,45.015,0,0,1,1.729,4.207c.171.517.492,1.376.952,2.574.431,1.091.745,1.946.936,2.574q.745,2.266,1.615,5.937,1.166,4.9,1.457,5.97.116.421.6,2.138a19.6,19.6,0,0,1,.533,2.154l-.842-.582q-1.941.647-4.443,1.295-.146.806-.244,1.539-.116-.257-.952-2.525a24.3,24.3,0,0,0-1.05-2.492,68.241,68.241,0,0,0-3.67-6.263q-1.587-2.413-4.154-5.954a50.1,50.1,0,0,1-4.04-7.477q-.677-1.521-3.263-7.863c-.2-.5-.46-1.262-.761-2.3s-.57-1.808-.777-2.313A31.085,31.085,0,0,0,9.118,36.5q-1.55-2.767-1.941-3.575-1-2.022-2.893-5.355-2.215-3.9-2.958-5.306c-.163-.293-.285-.509-.37-.647a1.033,1.033,0,0,0-.277-.3.1.1,0,0,1,.033.008L0,.533C.081.334.159.159.228,0A14.691,14.691,0,0,1,5.35.985,14.1,14.1,0,0,1,9.793,3.722,6.548,6.548,0,0,1,11.367,6.088Z" transform="translate(44.957 39.113)" fill="#e29783"/>
          <g id="Group-6" data-name="Group" transform="translate(74.454 113.614)">
            <path id="Path-17" data-name="Path" d="M14.789,8.857a2.992,2.992,0,0,1,.407,2.1c-.053.476-.142,1.193-.264,2.158-.053.517-.09,1.344-.1,2.484a3.331,3.331,0,0,1-.59,1.609q-.043-1.771-6.489-3.522a7.573,7.573,0,0,0-1.322-1.649,5.489,5.489,0,0,1-.712-1.079,4.289,4.289,0,0,0-.692-1.079L2.95,8.063a8.886,8.886,0,0,1-1.81-2.077A6.423,6.423,0,0,1,0,2.83Q.079,2.1.244,1.3,2.746.65,4.7,0l.834.57Q7.12,2.2,10.11,4.785,13.528,7.674,14.789,8.857Z" transform="translate(0.081 0)" fill="#e29783"/>
            <path id="Path-18" data-name="Path" d="M3.432,4.022A3.739,3.739,0,0,1,1.15,2.67L.068,1.815a2.212,2.212,0,0,1-.057-.8C.047.52.068.255.068.219L.259.333A1.29,1.29,0,0,1,1.325.007c.24.024.622.09,1.139.191q6.457,1.753,6.485,3.51a2.337,2.337,0,0,1-.476.485,1.42,1.42,0,0,1-1.082.533,4.1,4.1,0,0,1-1.253-.191C4.93,4.319,4.03,4.148,3.432,4.022Z" transform="translate(5.372 13.488)" fill="#e29783"/>
          </g>
          <path id="Path-19" data-name="Path" d="M48.038,8.794a52.61,52.61,0,0,1,1.81,14.92,40.819,40.819,0,0,1-1.713,10.213q-1.019,3.494-3.475,9.789-1.422,3.641-3.458,7.9-1.471,3.06-3.861,7.7-.714,1.374-1.745,3.755-1.263,2.834-1.713,3.787a11.6,11.6,0,0,0-.728,2.492,10.01,10.01,0,0,1-.777,2.476c-.354.647-.826,1.413-1.408,2.3q-.5.745-1.5,2.232a50.977,50.977,0,0,0-2.441,6.23q-1.727,5.229-2.148,6.328-.824,2.168-1.713,5.164c-.334,1.156-.826,2.9-1.469,5.229q-.372,1.374-1.2,4.093a39.458,39.458,0,0,0-.968,4.158q-.6,3.805-.647,4.141a16.459,16.459,0,0,0,.016,4.19q.207,1.454.631,4.369.354,2.51.517,4.386a12.851,12.851,0,0,0,.419,2.154c.13.476.321,1.181.582,2.122.346.118.858.3,1.534.533a8.228,8.228,0,0,1,1.469.68,5.93,5.93,0,0,1,.761.876c.387.529.618.843.7.937a14.435,14.435,0,0,0,1.648,1.763,18.241,18.241,0,0,1,1.68,1.747,5.947,5.947,0,0,0,.387,1.959c.151.419.4,1.042.745,1.861a1.576,1.576,0,0,1-.338,1.523,2.106,2.106,0,0,1-1.391.794,5.873,5.873,0,0,1-2.893-.293,8.469,8.469,0,0,1-2.555-1.458,2.386,2.386,0,0,0-1.261-.436,8.02,8.02,0,0,1-1.359-.13,5.3,5.3,0,0,1-2.522-1.067,6.909,6.909,0,0,1-1.827-2.073,30.3,30.3,0,0,1-1.778-3.689,19.755,19.755,0,0,0-1.924-3.608,28.618,28.618,0,0,0-2.343-2.248,10.992,10.992,0,0,0-2.746-1.714,24.275,24.275,0,0,1-3.78-2.122,8.448,8.448,0,0,1-2.828-3.2,3.822,3.822,0,0,1-.354-2.508,4.482,4.482,0,0,1,1.115-2.3,6.925,6.925,0,0,1,2.522-1.7,7.067,7.067,0,0,0,2.506-1.7,6.369,6.369,0,0,0,.936-2.073q.342-1.49.517-2.215a28.976,28.976,0,0,0,.647-5.73q.018-1.228-.1-5.778-.018-.9.179-4.386A22.424,22.424,0,0,0,8.314,86.8a18.139,18.139,0,0,1,.435-7.041,25.292,25.292,0,0,1,2.7-6.54,33.55,33.55,0,0,1,2.148-3.074,15.869,15.869,0,0,0,1.989-3.189,38.456,38.456,0,0,0,.387-4.984q.116-3.848.212-5,.647-6.7,2.051-15.165.4-2.1.9-6.731.47-4.4.952-6.731a27.065,27.065,0,0,1-1.794-2.215,14.676,14.676,0,0,1-1.924-15.812Q20.458.925,30.621.1A18.568,18.568,0,0,1,47.477,7.059,7.211,7.211,0,0,1,48.038,8.794Z" transform="translate(10.564 98.206)" fill="#e29783"/>
          <path id="Path-20" data-name="Path" d="M3.267,14.611a36.64,36.64,0,0,1,3.426-2.378Q9.7,10.309,10.2,9.952a11.979,11.979,0,0,0,2.909-2.96,4.447,4.447,0,0,0,.858-1.812c.045-.171.167-.843.37-2.008L25.229,0a7.92,7.92,0,0,1,3.007,1.442,4.473,4.473,0,0,1,1.729,2.769q.323.031,2.811.081a10.454,10.454,0,0,1,2.779.354,13.018,13.018,0,0,1,3.572,2.863A15.415,15.415,0,0,1,40.4,9.773c.366,1.275.688,2.561.968,3.869a126.163,126.163,0,0,0,4.573,16.036q.7,1.307,2.051,3.575a10.439,10.439,0,0,1,2.246,5.97,8.319,8.319,0,0,1-.728,3.2,9.835,9.835,0,0,1-1.827,2.753,1.434,1.434,0,0,0-.419.843c-.033.216-.065.538-.1.969a24.849,24.849,0,0,1-.712,4.255c-.183.721-.582,2.105-1.2,4.141a40.309,40.309,0,0,0-.875,6.491,2.986,2.986,0,0,0,.26,1.425c.118.3.313.749.582,1.344a20.4,20.4,0,0,1-.793,4.19A36.005,36.005,0,0,1,43,72.871,8.6,8.6,0,0,1,40.685,75.9,19.415,19.415,0,0,1,37.5,78.051a9.8,9.8,0,0,1-3.6,1.067q-.421.049-3.812.2A26.357,26.357,0,0,1,20.66,78.1q-3.442-.971-5.139-1.539a12.487,12.487,0,0,1-4.654-2.574,4.489,4.489,0,0,1-1.31-3.417,10.487,10.487,0,0,0,1.469-4.5,11.661,11.661,0,0,0-.484-4.707Q10.09,59.843,8.91,54.97a62.564,62.564,0,0,0-1.794-6.328q-.568-1.472-2.055-4.756-1.373-3.042-2.006-4.756a3.526,3.526,0,0,1,.138-1.771,36.98,36.98,0,0,0,.574-5.876q.287-5.058-3-13.3C.448,17.816.191,17.5,0,17.25,1.538,15.987,2.62,15.108,3.267,14.611Z" transform="translate(10.668 34.78)" fill="#e29783"/>
          <path id="Path-21" data-name="Path" d="M43.97,1.718a15.11,15.11,0,0,0,.614,1.747c.5,1.165.81,1.938.936,2.313a8.623,8.623,0,0,1,.517,2.427v.016a77.462,77.462,0,0,1-2.86,7.379q-1.648,3.659-3.039,7.362Q36.726,31.991,28.2,35.045c-.11.012-.216.02-.321.024-.053.012-.305.02-.761.033a1.6,1.6,0,0,0-.712.163,5.493,5.493,0,0,0-.419,1.214,52.843,52.843,0,0,0-.858,8.173q-.1,2.736-.163,8.222.031,2.266-.049,6.8t-.065,6.8q.067,6.133,0,7.591a32.652,32.652,0,0,1-1.05,7.477c-.26.66-.561,1.547-.9,2.671-.411,1.36-.688,2.248-.842,2.671A11.442,11.442,0,0,1,20.84,89.2a11.548,11.548,0,0,0-1.212,2.329,35.809,35.809,0,0,0-1.615,8.934,64.451,64.451,0,0,0-.26,10.018q.116,2.089.277,7.09.146,4.532.305,7.073a71.016,71.016,0,0,0,3.023,16.3q.4,1.313,1.017,4.015a14.391,14.391,0,0,0,1.518,3.836,38.538,38.538,0,0,1,2.49,4.63,42.6,42.6,0,0,0,2.409,3.82,10.5,10.5,0,0,1,1.827,4.06,1.229,1.229,0,0,1-1.115,1.376,2.918,2.918,0,0,1-2.006-.228,1.921,1.921,0,0,1-1.343,1.067,1.565,1.565,0,0,1-1.583-.5,7.344,7.344,0,0,1-1,.212,1.326,1.326,0,0,1-.968-.212,3.237,3.237,0,0,1-.5-.566q-.256-.434-.4-.647a1.432,1.432,0,0,1-1.391.436,2.053,2.053,0,0,1-1.261-.827,7.407,7.407,0,0,1-.854.179,1.135,1.135,0,0,1-.826-.13,3.925,3.925,0,0,1-1.066-1.344,5.847,5.847,0,0,0-1-1.442,9.067,9.067,0,0,1-2.181-3.14q-.94-2.413-1.457-3.575-.531-1.246-2.022-5.518a43.044,43.044,0,0,0-2.246-5.42,17.877,17.877,0,0,1-1.18-2.72A7.716,7.716,0,0,1,5.86,135.4q.305-3.482,2.246-4.87c.216-.171.378-.305.484-.4a.709.709,0,0,0,.289-.517,19.055,19.055,0,0,0-.614-4.675q-.824-3.06-1.18-4.6-1.068-4.416-1.648-6.617a45.624,45.624,0,0,0-2.164-6.458,25.111,25.111,0,0,1-1.18-8.075A30.879,30.879,0,0,1,3.3,91.074a20.016,20.016,0,0,1,2.116-4.581,36.443,36.443,0,0,0,2.343-4.5,4.135,4.135,0,0,0,.26-1.262c.033-.57.053-1,.065-1.295a31.191,31.191,0,0,0-.614-5.954q-.824-3.915-1.164-5.888-.323-1.875-1.05-5.664Q4.536,58.173,4.2,56.249q-.177-1-.549-3.983A39.556,39.556,0,0,0,3,48.284q-.146-.764-1.164-5.2a38.944,38.944,0,0,1-.9-5.245Q.127,31,.03,28.1A34.2,34.2,0,0,1,.917,18.41,20.193,20.193,0,0,1,3.1,13.344Q5.038,10.2,5.941,8.6q.97-1.619,1.729-2.688A4.5,4.5,0,0,0,8.98,9.333a12.487,12.487,0,0,0,4.654,2.574q1.7.568,5.139,1.539a22.6,22.6,0,0,0,5.541,1.116,33.426,33.426,0,0,0,3.877.1,9.424,9.424,0,0,1,2.547-.411,17.372,17.372,0,0,0,5.342-1.609,11.311,11.311,0,0,0,5.016-4.4s0-.012.008-.016a36.246,36.246,0,0,0,1.44-4.031A20.4,20.4,0,0,0,43.339,0,14.6,14.6,0,0,1,43.97,1.718Z" transform="translate(12.562 99.442)" fill="#e09785"/>
          <path id="Path-22" data-name="Path" d="M2.1,1.772A18.928,18.928,0,0,1,4.053.461,2.913,2.913,0,0,1,6.3.09a5.453,5.453,0,0,0-.468,2.187,4.182,4.182,0,0,0,.582,2.138A9.557,9.557,0,0,0,9.338,7.424a32.525,32.525,0,0,0,3.686,2.04,11.48,11.48,0,0,1,2.164,1.376c.452.354,1.119.912,2.006,1.666.594-.7.9-1.067.919-1.1a6.771,6.771,0,0,1,1.05-.953,30.625,30.625,0,0,1,2.893-1.6,12.468,12.468,0,0,0,2.763-1.8,1.867,1.867,0,0,0,.566-1.442c-.065-.745-.106-1.291-.13-1.633a3.218,3.218,0,0,1,1.278,2.688q.067,1.051.114,3.156a10.509,10.509,0,0,0,.631,1.991,2.347,2.347,0,0,0,1.469,1.328q3.8,1.6,4.7,2.024A49.631,49.631,0,0,1,38,17.466a9.349,9.349,0,0,1,1.7,1.442,4.146,4.146,0,0,1,1.066,1.91,18.13,18.13,0,0,1-.146,2.736,4.465,4.465,0,0,1-1.131,2.427,6.891,6.891,0,0,1-2.714,1.568,25.643,25.643,0,0,1-3.088.745q-3.961.6-4.366.647a14.856,14.856,0,0,1-3.344-.041q-.58-.171-1.147-.379A23.762,23.762,0,0,1,10.7,15.947a3.5,3.5,0,0,0-.614-.631,8.211,8.211,0,0,0-2.409-1.165,11.285,11.285,0,0,1-2.457-1.083A14.233,14.233,0,0,1,.875,9.008,5.454,5.454,0,0,1,.066,5.14,4.574,4.574,0,0,1,2.1,1.772Z" transform="translate(4.792 213.735)" fill="#e7e2e6"/>
          <path id="Path-23" data-name="Path" d="M47.46,2.663a55.9,55.9,0,0,1,3.23,7.558q1.117,3.14,2.409,7.847a17.348,17.348,0,0,1,.6,5.387,36.665,36.665,0,0,1-.679,5.4A87.5,87.5,0,0,1,47.9,46.288q-1.068,2.718-2.99,7.187-2.313,5.357-3.055,7.151a37.023,37.023,0,0,0-1.7,5.42q-.439,1.863-1.212,5.567-.726,2.846-1.615,7.008-.5,2.346-1.485,7.041a77.028,77.028,0,0,0-1.745,19.66q.018.7.728,9.5a37.462,37.462,0,0,1-.212,9.5,1.929,1.929,0,0,1-.81,1.132,6.61,6.61,0,0,1-1.294.631,44.646,44.646,0,0,1-13.609,2.59,8.791,8.791,0,0,1-6.221-2.2q-.323-.305-1.81-2.073a10.241,10.241,0,0,0-2.006-1.877q-2.874-1.924-4.252-2.977a18.355,18.355,0,0,1-3.719-3.608A4.964,4.964,0,0,1,.1,114.326a2.711,2.711,0,0,1,.049-1.617q1.355-3.286,2.616-6.617,4.717-12.54,9.423-25.019a113.024,113.024,0,0,0,6.449-26.265,67.63,67.63,0,0,0,.387-11.748A64.291,64.291,0,0,0,16.178,27.2a29.436,29.436,0,0,1-2.893-1.812,23.793,23.793,0,0,1-3.735-3.27q-.873-.941-1.7-1.894A9.873,9.873,0,0,1,6.9,18.683q-.873-1.778.517-4.5,1.44-2.7,4.17-6.845a7.788,7.788,0,0,0,.745-1.523,14.776,14.776,0,0,1,.679-1.551,5.162,5.162,0,0,0,1.534,3.624,19.946,19.946,0,0,0,3.186,2.525A21.093,21.093,0,0,0,25.991,13.8a32.784,32.784,0,0,0,8.971.387,10.53,10.53,0,0,0,4.121-1.36q.482-.275,3.7-2.378a7.957,7.957,0,0,0,2.164-2.17,9.871,9.871,0,0,0,1.294-2.8,9.671,9.671,0,0,0,.321-2.72C46.533,1.535,46.529.615,46.549,0c.033.1.171.546.419,1.344A9.643,9.643,0,0,0,47.46,2.663Z" transform="translate(8.571 95.859)" fill="#1485b2"/>
          <path id="Path-24" data-name="Path" d="M19.8,8.4a2.342,2.342,0,0,1,.1.428,27.785,27.785,0,0,0,.985,3.8,59.875,59.875,0,0,0,2.23,5.713,7.655,7.655,0,0,0,.9,1.49c.863,1.12,1.668,2.289,2.425,3.494a22.1,22.1,0,0,1,2.5,5.648l.122.4c0,.379.037.994.114,1.845a1.614,1.614,0,0,1-.81,1.507,12.048,12.048,0,0,1-4.736,1.458,16.854,16.854,0,0,1-3.991-.057q-8.776-.4-11.9-8.828-.806-2.2-1.615-4.467-1.05-2.944-2.014-5.921a7.194,7.194,0,0,0-.541-1.067A17.885,17.885,0,0,0,2.277,12.2a6.03,6.03,0,0,1-1.115-1.747A16.15,16.15,0,0,1,.1,6.878,6.815,6.815,0,0,1,.451,3.221a10.974,10.974,0,0,1,1.294-1.91A4.3,4.3,0,0,1,3.587,0,15.984,15.984,0,0,0,3.36,4.06a8.835,8.835,0,0,0,.517,1.959c.13.334.4.949.826,1.845.248.509.6,1.266,1.05,2.28s.8,1.767,1.033,2.264q.873-.391,2.555-1,1.745-.647,2.555-1c.765-.326,1.924-.782,3.475-1.376a18.41,18.41,0,0,0,3.312-1.682l.305-.2A2.546,2.546,0,0,1,19.8,8.4Z" transform="translate(15.14 232.391)" fill="#fff"/>
          <path id="Path-25" data-name="Path" d="M44.495,2.834a47.435,47.435,0,0,1,3.072,7.3,7.931,7.931,0,0,1-.114,3.706c-.2.819-.537,2.028-1.033,3.624-.065.053-.561.444-1.485,1.165A9.246,9.246,0,0,0,43.559,19.9c-.464.419-1.16.994-2.083,1.714-.968.766-1.668,1.34-2.1,1.714a1.7,1.7,0,0,0-.549.843,9.3,9.3,0,0,0-.212,1.018q-.226,1.619-.517,4.773a19.116,19.116,0,0,1-1.391,4.093,9.372,9.372,0,0,1-2.649,3.368,15.026,15.026,0,0,1-1.294.843,2.4,2.4,0,0,0-1.033,1.067A36.161,36.161,0,0,0,28.29,51.521q-.531,4.709-.6,13.287-.067,9.254-.4,13.287-.244,3.256-1.485,10.229a92.1,92.1,0,0,0-1.375,10.242q-.354,6.084-.1,15.666.354,13.011.354,15.649c0,.668-.045,1.641-.13,2.912-.077,1.315-.118,2.289-.13,2.912q.1,1.374.484,4.386c.236,1.889.382,3.343.435,4.369a18.632,18.632,0,0,1-1.212,7.3q-1.031,2.639-2.779,3.107a7.114,7.114,0,0,1-2.925.2,5.736,5.736,0,0,1-2.7-1.1,50.716,50.716,0,0,1-8.548-7.623q-.665-.745-1.843-2.362T3.5,141.614A23.607,23.607,0,0,1,1.621,139.3a7.772,7.772,0,0,1-1.18-2.541A377.313,377.313,0,0,1,3.48,78.112,92.353,92.353,0,0,0,.95,41.556Q.559,38.863.278,36.344a41.922,41.922,0,0,1-.016-9.5,32.518,32.518,0,0,1,2.409-9.175,46.64,46.64,0,0,1,2.681-5.322q1.214-2.1,3.169-5.033a6.6,6.6,0,0,0,.745-1.539,9.173,9.173,0,0,1,.712-1.551c.077.68.138,1.144.2,1.393a3.512,3.512,0,0,0,.517,1.279,10.345,10.345,0,0,0,2.022,2.073q.714.568,2.36,1.666,6.4,4.337,16.807,3.51a10.53,10.53,0,0,0,4.235-1.425c1.7-1.091,2.97-1.906,3.8-2.443A8.755,8.755,0,0,0,43.1,5.693a8.644,8.644,0,0,0,.387-2.814Q43.433.955,43.482,0c.012.02.167.5.468,1.425A8.912,8.912,0,0,0,44.495,2.834Z" transform="translate(11.651 95.9)" fill="#1c96c6"/>
          <path id="Path-26" data-name="Path" d="M9.268,13.475q1.69-1,3.727-2.04,3.961-3.256,4.8-3.869a21.312,21.312,0,0,1,5.383-2.96A15.406,15.406,0,0,1,20.9,6.919a4.311,4.311,0,0,0-1.615,2.688,9.609,9.609,0,0,0,.244,3.673l.049.2.008.049c.016.049.033.1.049.155a29.005,29.005,0,0,0,5.472,7.273q1.941,1.894,3.967,3.543,1.465,1.185,2.966,2.248,3.595,2.541,5.663,4.007,2.032,1.435,2.942,2.032a.358.358,0,0,1,.041.024l.2.155,2.628,2.008c.191.151.374.3.549.436.077-.163.155-.334.236-.517l.065-.13c.118-.269.525-1.079,1.229-2.427a33.23,33.23,0,0,0,2.116-5.583,30.61,30.61,0,0,0,1.1-8.543,36.849,36.849,0,0,0-.2-4.109,41.81,41.81,0,0,0-1.107-6.1,11.993,11.993,0,0,0-5.082-4.5c-.452-.248-.785-.444-1-.582a1.718,1.718,0,0,1-.745-.827c.138-.485.33-1.042.566-1.666a17.991,17.991,0,0,1,2.181.033A13.839,13.839,0,0,1,48.655.114a9.023,9.023,0,0,1,4.752,2.073,24.659,24.659,0,0,1,3.328,3.156,9.911,9.911,0,0,1,2.148,4.015,24.785,24.785,0,0,0,.968,3.14q.391,1.038,1.164,3.091a19.375,19.375,0,0,0,1.436,3.074q1.471,2.669,1.631,2.977a2.02,2.02,0,0,1,.2,1.23c-.033.277-.094.68-.187,1.214-.114.281-.236.562-.362.843a13.684,13.684,0,0,1-4.622,5.485q.232.6,1.278,3.172c.053.13.106.261.155.387a13.957,13.957,0,0,1,.476,4.516,15.759,15.759,0,0,1-1.229,5.42c-.26.476-.529.949-.81,1.425a23.867,23.867,0,0,1-1.534,2.232,52.346,52.346,0,0,0,.8,7.88q.964,4.661,1.8,9.386.793,4.532,1.424,9.093.47,3.3,1.131,6.54a5.9,5.9,0,0,1-.114,1.91,19.684,19.684,0,0,1-2.681,5.762,11.042,11.042,0,0,1-3.959,3.738q-5.108,2.785-8.422,4.838a32.078,32.078,0,0,1-3.137,1.409,11.675,11.675,0,0,1-3.344.729q-5.541.953-8.34,1.262a27.688,27.688,0,0,1-8.389-.179,35.2,35.2,0,0,1-4.671-1.393,18.181,18.181,0,0,1-4.268-2.3l.049-.277a41.793,41.793,0,0,1-3.588-2.7,12.922,12.922,0,0,1-2.86-3.445A7.314,7.314,0,0,1,8.035,87.5a6.086,6.086,0,0,1,.049-2.46q1.422-5.29,4.073-12.673a35.93,35.93,0,0,1,1.566-3.319,23.69,23.69,0,0,0,1.485-3.335,6.148,6.148,0,0,0-.016-2.912q-.549-2.718-.566-2.912-.275-2.443-.4-6.182c-.069-1.9-.122-3.372-.163-4.4-.045-1.047-.069-1.645-.081-1.8-.431-.012-1.717,0-3.861.016a26.2,26.2,0,0,1-3.877-.179Q3.965,47.028,3.1,46.9q-1.745-.293-3.1-.647.549-3.445,1.115-10.47.568-6.957,1.131-10.453a24.665,24.665,0,0,1,1.18-5.017q.7-1.8,1.1-2.671a5.637,5.637,0,0,1,1.762-2.232C7.173,14.77,8.165,14.131,9.268,13.475Z" transform="translate(0.212 37.582)" fill="#239bd9"/>
          <path id="Path-27" data-name="Path" d="M5.964,0Q4.817,1.277,4.382,1.877A8.388,8.388,0,0,0,3.169,4.015,17.337,17.337,0,0,0,2.343,7.09q-.207,1.228-.387,3.172a16.144,16.144,0,0,0,.37,5.5,8.674,8.674,0,0,0,1.05,2.04,6.062,6.062,0,0,1,.9,2.105c.11.692.317,1.641.631,2.846q.5,1.973.663,2.83a8.741,8.741,0,0,0,.728,2.04q.244.47,1.05,1.894c.053.045.663.619,1.827,1.731a21.164,21.164,0,0,0,1.908,1.633,28.216,28.216,0,0,0,2.441,1.584c.443.261,1.286.733,2.539,1.425a10.877,10.877,0,0,1-2.238-.318l-.171-.057a2.82,2.82,0,0,0-.289-.081l-1.278-.387a18.536,18.536,0,0,1-5.073-2.183A7.613,7.613,0,0,1,5.659,31.49a3.7,3.7,0,0,1-.6-1.894c-.012-.13,0-.8.033-2.024a10.809,10.809,0,0,0-.4-2.17,16.552,16.552,0,0,1-3.279-3.368A7.207,7.207,0,0,1,0,17.649a.981.981,0,0,1,.468-.892,3.837,3.837,0,0,1,1-.387A22.685,22.685,0,0,1,1.294,6.3a10.061,10.061,0,0,1,1.68-3.641A9.079,9.079,0,0,1,5.964,0Z" transform="translate(19.862 9.179)" fill="#e49781"/>
          <path id="Shape-5" data-name="Shape" d="M13.425,38.629a23.012,23.012,0,0,1-4.486-.408,35.43,35.43,0,0,1-4.671-1.392A18.29,18.29,0,0,1,0,34.532l.049-.277c.169-1.165.42-2.646.745-4.4.517-2.816.795-4.339.809-4.418.209-1.195.382-2.583.517-4.126l.048-.634c.114-1.5.2-2.684.257-3.491.563.015,1.151.023,1.747.023a79.7,79.7,0,0,0,10.162-.687c1.534-.2,3.323-.533,5.468-1.018,1.267-.3,3.134-.751,5.4-1.311.173,2.717.341,6.206.5,10.373.128,2.557.2,4.675.211,6.3a59.765,59.765,0,0,1-.244,6.279c-3.779.649-6.507,1.062-8.34,1.262A35.806,35.806,0,0,1,13.425,38.629ZM44.852,26.266v0a16.439,16.439,0,0,1-.516-2.828c-.441-6.324-1-11.992-1.648-16.846a2.27,2.27,0,0,1,.484-1.877A7.621,7.621,0,0,0,44.2,2.965,13.658,13.658,0,0,0,44.2,0a4.855,4.855,0,0,1,.826,1.91c.066.3.168,1,.305,2.089.152,2.256.305,3.992.467,5.306a40.083,40.083,0,0,0,.968,5.245c.133.671.372,1.667.712,2.96a6.927,6.927,0,0,1,.05,2.993,19.779,19.779,0,0,1-2.68,5.76Z" transform="translate(15.481 99.284)" fill="#239bd9"/>
          <path id="Path-28" data-name="Path" d="M6.19,1.613A24.669,24.669,0,0,1,8.208.09c.545-.358,1.424.358,2.636,2.162s2.217,9.105,3.023,21.92q-.354,2.688-.968,10.812a106.674,106.674,0,0,1-1.261,10.8,18.078,18.078,0,0,0-.452,2.928,6.419,6.419,0,0,0,.452,2.879A12.108,12.108,0,0,0,12.7,53.252q.391.531,1.2,1.584,2.148,3.042,6.253,9.9,3.93,6.585,6.318,9.871a12.012,12.012,0,0,0,2.2,2.28,22.835,22.835,0,0,1,2.343,2.154q-1.452.617-2.181.953a6.023,6.023,0,0,0-1.941,1.36,12.209,12.209,0,0,0-1.843,2.785,6.138,6.138,0,0,1-1.485-1.458,21.223,21.223,0,0,0-1.973-2.215c-.948-.916-1.656-1.613-2.116-2.089q-4.3-4.319-10.293-11.052-1.422-1.716-3.169-4.141-1.971-2.846-2.974-4.272-1.129-1.57-1.648-2.394A7.452,7.452,0,0,1,.258,53.883a17.224,17.224,0,0,1-.114-5.294Q.693,43.476.693,43.3q.049-1.539.4-4.691.354-3.091.4-4.691.244-4.63.354-6.943.207-4.129.163-6.959.128-4.367.2-5.664Q2.339,11.158,2.6,8.7A11.415,11.415,0,0,1,4.375,3.486,9.848,9.848,0,0,1,6.19,1.613Z" transform="translate(2.086 52.376)" fill="#fed8c7"/>
          <path id="Shape-6" data-name="Shape" d="M7.634,21.13h0c-.72-.048-1.277-.093-1.656-.134a7.713,7.713,0,0,1-1.6-.305,18.978,18.978,0,0,1-1.521-2.057c-.649-.989-1.148-1.713-1.445-2.093A10.312,10.312,0,0,1,.29,14.754,2.9,2.9,0,0,1,.119,12.7a21.062,21.062,0,0,0,.4-3.787Q.542,7.233.56,6.117L.575,5.1A12.206,12.206,0,0,1,2.418,2.326,5.947,5.947,0,0,1,4.359.953C4.829.729,5.538.417,6.527,0A17.881,17.881,0,0,1,8.98,3.461a11.423,11.423,0,0,0,1.5,1.922,8.859,8.859,0,0,1,1.408,1.962,11.5,11.5,0,0,1,.741,1.829,7.342,7.342,0,0,0,.818,1.787,14.9,14.9,0,0,1,1.408,2.379,6.23,6.23,0,0,1,.61,2.647c0,.542-.428.9-1.274,1.067a2.444,2.444,0,0,1-1.2-.761c-.05-.05-.374-.45-.912-1.124a3.528,3.528,0,0,1-.418,2.476,16.808,16.808,0,0,1-1.559,2.077c-.167.084-.548.294-1.237.684-.518.3-.922.536-1.236.724ZM9.851,10.905h0c-.578.214-1.013.387-1.294.513a2.621,2.621,0,0,0-1.046.9,4.292,4.292,0,0,0,.041.913l.15.876a9.872,9.872,0,0,1,1.75-1.01,2.3,2.3,0,0,1,.786-.152,1.71,1.71,0,0,1,1.1.4c-.75-1.235-1.258-2.068-1.485-2.435Z" transform="translate(26.566 131.413)" fill="#fed8c7"/>
          <path id="Path-29" data-name="Path" d="M9.272,0h10.3a25.233,25.233,0,0,0,1.147,3.3,9.638,9.638,0,0,0,1.5,2.386L16.97,33.872q-3.637.147-6.851.179a26.2,26.2,0,0,1-3.877-.179Q3.965,33.549,3.1,33.42q-1.745-.293-3.1-.647Q.549,29.328,1.115,22.3q.568-6.957,1.131-10.453a24.665,24.665,0,0,1,1.18-5.017q.7-1.8,1.1-2.671A5.637,5.637,0,0,1,6.286,1.93C7.177,1.295,8.17.656,9.272,0Z" transform="translate(0.207 51.057)" fill="#239bd9"/>
          <path id="Path-30" data-name="Path" d="M6.518,12.882c.028.126.061.257.1.387A29.1,29.1,0,0,0,12.1,20.55a57.351,57.351,0,0,0,6.933,5.795q3.595,2.541,5.663,4.007t2.982,2.056q1.605,1.2,2.828,2.162l.549.436.3-.647c.118-.269.525-1.079,1.229-2.427A33.23,33.23,0,0,0,34.7,26.349a30.61,30.61,0,0,0,1.1-8.543,39.8,39.8,0,0,0-1.31-10.213,11.993,11.993,0,0,0-5.082-4.5c-.452-.248-.785-.444-1-.582a1.718,1.718,0,0,1-.745-.827c.138-.485.33-1.042.566-1.666A17.991,17.991,0,0,1,30.4.051a8.712,8.712,0,0,1,5.122,2.476,12.583,12.583,0,0,1,3.137,4.838c.024.073.049.151.073.228a27.628,27.628,0,0,1,1.416,8.617,41.286,41.286,0,0,1-.879,8.674,43.707,43.707,0,0,1-1.916,6.853c-.187.481-.366.933-.533,1.36a17.582,17.582,0,0,1-4.394,7.542,26.71,26.71,0,0,1-7.352,5.306c-.346.171-.688.338-1.033.493-.387.212-.745.415-1.066.607-.659-1.156-1.2-2.154-1.631-2.993a39.054,39.054,0,0,1,3.23-2.3,19.683,19.683,0,0,0,3.137-2.427c-.48-.375-1.261-1.006-2.352-1.894q-3.35-2.608-6.86-5.164-3.637-2.657-7.254-5.31a38.662,38.662,0,0,1-6.579-6.084A23.954,23.954,0,0,1,.277,13.269,11.911,11.911,0,0,1,0,11.037Q3.961,7.782,4.8,7.169a21.312,21.312,0,0,1,5.383-2.96A15.406,15.406,0,0,1,7.905,6.521,4.311,4.311,0,0,0,6.29,9.209,9.271,9.271,0,0,0,6.518,12.882Z" transform="translate(13.219 37.984)" fill="#1485b2"/>
          <path id="Path-31" data-name="Path" d="M24.171,11.7q.372,1.588.919,5.6.031,1.442.354,4.3a13.893,13.893,0,0,1-.2,4.272,37.216,37.216,0,0,1-1.81,6c-.293.668-.7,1.706-1.229,3.107a7.768,7.768,0,0,1-1.859,2.736q-2.166,1.649-6.172.13c-1.249-.692-2.1-1.165-2.539-1.425q-1.4-.825-2.441-1.584a22.471,22.471,0,0,1-1.908-1.633q-1.745-1.668-1.827-1.731-.806-1.423-1.05-1.894a8.931,8.931,0,0,1-.728-2.04c-.106-.57-.33-1.515-.663-2.83-.313-1.209-.521-2.158-.631-2.846a6.062,6.062,0,0,0-.9-2.105,8.6,8.6,0,0,1-1.05-2.04,16.042,16.042,0,0,1-.37-5.5q.177-1.942.387-3.172a17,17,0,0,1,.826-3.074A8.388,8.388,0,0,1,2.494,3.84q.433-.6,1.583-1.877A11.842,11.842,0,0,1,9.313.085a12.671,12.671,0,0,1,5.541.582,14.893,14.893,0,0,1,7.1,5.86A15.3,15.3,0,0,1,24.171,11.7Z" transform="translate(21.701 7.208)" fill="#fdd8c8"/>
          <path id="Path-32" data-name="Path" d="M23.277,12.518a7.959,7.959,0,0,0-3.409.582,18,18,0,0,0-2.942,1.523A12.121,12.121,0,0,1,13.936,16a2.015,2.015,0,0,1-1.664-.419,12.757,12.757,0,0,0-1.424-1.132.766.766,0,0,0-.842-.114,1.021,1.021,0,0,0-.614.615,6.266,6.266,0,0,0-.277,1.279c-.045.293-.1.729-.179,1.311A7.764,7.764,0,0,1,8.37,19.53q-.275.647-.81,1.926a9.891,9.891,0,0,1-1.294,2.508c-.248-.843-.452-1.466-.614-1.877A5.447,5.447,0,0,0,4.7,20.373a2.213,2.213,0,0,0-1.2-.7A14.168,14.168,0,0,1,2.1,19.384l-.305-.322a19.1,19.1,0,0,1-1.762-6.6A10.63,10.63,0,0,1,1.547,5.909q.482-.324,1.485-.969A14.521,14.521,0,0,0,4.468,3.889c.313-.236.785-.6,1.424-1.1a3.793,3.793,0,0,1,1.615-.713c.6-.1,1.44-.187,2.506-.277q1.794-.147,2.522-.244,1.7-.2,3.894-.664C16.7.839,17.988.542,20.291,0A13.88,13.88,0,0,1,24.7,4.223a22.283,22.283,0,0,1,2.49,6.133q-.116.776-.4,2.329Q24.463,12.532,23.277,12.518Z" transform="translate(18.018 6.247)" fill="#2b1706"/>
          <path id="Path-33" data-name="Path" d="M20.883,6.054q-3.46.806-3.861.892-2.2.47-3.894.664-.726.1-2.522.244-1.6.128-2.506.277a3.772,3.772,0,0,0-1.615.713q-.952.745-1.424,1.1a14,14,0,0,1-1.44,1.051q-1,.647-1.485.969A10.213,10.213,0,0,1,1,11.054,2.422,2.422,0,0,1,.26,9.841,7.1,7.1,0,0,1,.081,6.88,5.677,5.677,0,0,1,1.2,4.144a2.044,2.044,0,0,1,.777-.664c.163-.077.48-.2.952-.371A12.654,12.654,0,0,1,5.056,3.4a14.809,14.809,0,0,1,3.78-1.328,35.622,35.622,0,0,1,3.959-.6A20.368,20.368,0,0,1,15.106.3a3.729,3.729,0,0,1,2.539-.13A5.032,5.032,0,0,1,20.2,2.478a6.744,6.744,0,0,1,.9,3.368Z" transform="translate(17.483 0.193)" fill="#190c03"/>
        </g>
        <path id="Path-34" data-name="Path" d="M.068,1.914a2.45,2.45,0,0,1-.057-.839C.047.554.068.277.068.236L.275.35A1.349,1.349,0,0,1,1.4.008c.252.024.651.09,1.2.191Q8.105,1.7,9.157,3.217V4.17a2.886,2.886,0,0,1-.264.236,1.5,1.5,0,0,1-1.123.554,4.573,4.573,0,0,1-1.33-.191q-1.9-.342-2.832-.533a3.91,3.91,0,0,1-2.4-1.429Z" transform="translate(79.618 126.376)" fill="#e29783"/>
        <g id="Group-7" data-name="Group" transform="translate(17.495 99.361)">
          <g id="Group-8" data-name="Group" transform="translate(122.869 138.861)">
            <path id="Shape-7" data-name="Shape" d="M7.872,30.766a6.759,6.759,0,0,1-5.716-3.34A12.92,12.92,0,0,1,0,19.994l.183-2.382a4.651,4.651,0,0,1,1.262-1.731,1.13,1.13,0,0,1,.739-.324,1.26,1.26,0,0,1,.888.467c-.1-.019-.21-.036-.325-.055H2.739l-.155-.025c-.018.01-.026.02-.024.03.009.039.19.069.552.093a2.964,2.964,0,0,0-.956.183,2.967,2.967,0,0,0-.976,2.4q-.025.168-.077.525-.075.511-.207,1.409a10.8,10.8,0,0,0,1,4.581,7.544,7.544,0,0,0,4.8,4.337,7.944,7.944,0,0,0,.753.407,2.734,2.734,0,0,0,1.1.267A2.086,2.086,0,0,0,10.4,28.79c-.023.14-.048.312-.078.511l-.024.161A2.394,2.394,0,0,1,7.872,30.766Zm4.414-1.609h0a.684.684,0,0,1-.345-.366,19.409,19.409,0,0,0-.773-6.21,1.428,1.428,0,0,1-.061-.224l.773-.447L12.8,21.4a6.39,6.39,0,0,1,.671,2.586,15.811,15.811,0,0,1-.305,2.545,5.646,5.646,0,0,1-.874,2.626ZM6.224,17.327l0,0,1.239-1.667-.244-.244L7.1,15.291a7.05,7.05,0,0,0-4.76-1.934H1.383l.021-.59.264-.326a2.905,2.905,0,0,1,1.425-.353,7.414,7.414,0,0,1,3.864,1.494,11.285,11.285,0,0,1,1.322,1l-.183.265.59-.773a13.96,13.96,0,0,0,1.831-3.014,6.357,6.357,0,0,0,.407-3.441l-.9-5.11L11.941,0a29.465,29.465,0,0,1-.285,15.026L9.4,16.126l-3.17,1.2Z" transform="translate(3.357 1.425)" fill="#605c60"/>
            <path id="Shape-8" data-name="Shape" d="M11.712,21.344a10.151,10.151,0,0,1-2.432-.332A9.13,9.13,0,0,1,4.805,18.12a23.129,23.129,0,0,1-3.3-4.663A12.856,12.856,0,0,1,0,7.9a9.495,9.495,0,0,1,1.4-5.334A8.784,8.784,0,0,1,2.812.833,2.285,2.285,0,0,1,3.95.264,6.9,6.9,0,0,1,5.826,0,6.809,6.809,0,0,1,6.555.04,11.528,11.528,0,0,1,11.64,2.055l-.59.774.183-.265a11.394,11.394,0,0,0-1.322-1A7.417,7.417,0,0,0,6.047.073,2.906,2.906,0,0,0,4.622.427L4.357.752l-.02.591h.956a7.05,7.05,0,0,1,4.76,1.934l.366.366L9.178,5.313c-.865-.434-1.775-.838-2.705-1.2-.14-.038-.282-.07-.447-.1a1.26,1.26,0,0,0-.888-.467,1.128,1.128,0,0,0-.739.325A4.644,4.644,0,0,0,3.137,5.6L2.954,7.98A12.92,12.92,0,0,0,5.11,15.412a6.758,6.758,0,0,0,5.716,3.339,2.4,2.4,0,0,0,2.421-1.3l.023-.156c.03-.2.055-.375.079-.516a4.425,4.425,0,0,0,.265-.55,7.771,7.771,0,0,0-.753-5.253l1.669-.936.305-.143-.773.448a1.468,1.468,0,0,0,.061.224,19.436,19.436,0,0,1,.773,6.21.686.686,0,0,0,.346.366,5.643,5.643,0,0,0,.875-2.626,15.833,15.833,0,0,0,.305-2.545,6.391,6.391,0,0,0-.671-2.586l.407-.224a2.574,2.574,0,0,0,.224.855,15.891,15.891,0,0,1,.895,3.055,8.12,8.12,0,0,1-.447,4.336,7.206,7.206,0,0,1-1.4,2.484,4.179,4.179,0,0,1-2.034,1.222A5.779,5.779,0,0,1,11.712,21.344Zm-4.568-9.5a1.119,1.119,0,0,1-1-.774,2.423,2.423,0,0,1-.265-1.038,1.8,1.8,0,0,1,.223-.652,1.269,1.269,0,0,1,1.18-.632c.729,0,1.1.247,1.1.733q0,.016,0,.194v.01q-.005.3-.017,1.018C8.215,11.465,7.8,11.849,7.144,11.849Z" transform="translate(0.403 13.44)" fill="#2d2d2d"/>
            <path id="Shape-9" data-name="Shape" d="M5.814,30.844A7.541,7.541,0,0,1,1.022,26.51a10.8,10.8,0,0,1-1-4.581q.121-.816.193-1.311l0-.01q.062-.425.09-.613a1.582,1.582,0,0,0,.04.366C.516,21.445.7,22.571.92,23.8a5.066,5.066,0,0,0,.549,2.424,1.592,1.592,0,0,0,1.363.957,8.431,8.431,0,0,0,2.984,3.66ZM10.786,16.37v0a29.466,29.466,0,0,0,.285-15.024L13.512,0V14.7l-2.724,1.668Z" transform="translate(4.227 0.081)" fill="#969696"/>
            <path id="Path-35" data-name="Path" d="M3.8,9.04,3.4,9.264l-.915.509-.305.143L0,3.991l2.258-1.1,2.726-1.67L7.506,0c.069,1.059.094,1.975.081,2.749S7.637,4.7,7.73,6.332Q7.5,6.558,5.655,7.859,5.289,8.061,3.8,9.04Z" transform="translate(12.755 13.56)" fill="#b8d9ec"/>
            <path id="Shape-10" data-name="Shape" d="M1.913,9.712h0A1.593,1.593,0,0,1,.549,8.755,5.064,5.064,0,0,1,0,6.332L.468,3.461C1.791,2.773,3.125,2.013,4.434,1.2L7.608,0,9.785,5.925l-1.668.937c-.676.337-1.7.871-3.031,1.588A20.961,20.961,0,0,1,1.913,9.712Zm.63-5.07a1.269,1.269,0,0,0-1.18.631,1.8,1.8,0,0,0-.223.652A2.425,2.425,0,0,0,1.4,6.963a1.119,1.119,0,0,0,1,.774c.66,0,1.071-.384,1.22-1.14q.012-.73.017-1.024V5.566c0-.117,0-.18,0-.19C3.641,4.889,3.272,4.642,2.543,4.642Z" transform="translate(5.147 17.551)" fill="#7aa6bc"/>
          </g>
          <g id="Group-9" data-name="Group" transform="translate(35.396 21.582)">
            <g id="Group-10" data-name="Group">
              <path id="Shape-11" data-name="Shape" d="M87.737,169.545v-3.5l18.451-10.221.223-5.477-11.27-6.23.671-.876,12.43,5.966,1.485,7.33-21.989,13.01ZM96.586,152.3h0l-2.725-.407c-.379-1.522-.857-3.508-1.383-5.742-.188-.781-.413-1.708-.651-2.668-.861-3.669-1.539-6.477-2.014-8.348a4.092,4.092,0,0,0-2.237-2.749c-.691-.379-1.731-.909-3.275-1.669l-10.212-4.989a25.328,25.328,0,0,0-2.909-1.4c-2.377-1.061-5.87-2.752-10.679-5.171l-5.412-2.627a.988.988,0,0,1-.2-.081l-.056-.034-.028-.017c-.686-.415-1.139-.689-1.4-.845-.47-.263-2.693-1.375-6.428-3.217-2.515-1.252-4.74-2.376-6.611-3.339v-.041l2.584-1.4c.644.275,1.239.542,1.769.794l28.154,13.478v-1.344a36.558,36.558,0,0,0,0-5.192c-.174-2.282-.276-4.029-.305-5.192-.126-1.509-.277-4.065-.447-7.594-.173-3.2-.358-5.75-.549-7.574a4.4,4.4,0,0,0-1.79-3.155l-.468-.387L26.933,70.53,22.56,39.215l-.143-4.072L19.61,15.556a18.1,18.1,0,0,0-.346-2.545,4.517,4.517,0,0,0-1.058-2.3,5.1,5.1,0,0,0-1.791-1.426,18.941,18.941,0,0,0-2.054-.937V5.763L0,1.364,2.014,0,15.989,4.479,14.362,5.762h0A22.31,22.31,0,0,1,19.2,9.325a10.512,10.512,0,0,1,2.482,4.561,45.693,45.693,0,0,1,.793,4.541c.183,1.165.368,2.378.549,3.6.495,4.255.851,6.982,1.058,8.1.225,1.48.485,3.624.773,6.373A27.541,27.541,0,0,0,26.3,42.676a15.825,15.825,0,0,0,3.845,2.5c1.913.874,3.27,1.526,4.15,2,9.686,4.885,17.284,8.755,22.58,11.5l.148.075c.253.128.49.248.727.373l4.963,2.4a41.612,41.612,0,0,1,4.821,2.687,9.948,9.948,0,0,1,1.811,1.568,14.05,14.05,0,0,1,1.993,2.892,17.243,17.243,0,0,1,1.668,5.66c.162,1.445.3,4.083.408,8.063a54.8,54.8,0,0,0,.691,8.083A2.771,2.771,0,0,0,75.267,92.4c.864.586,1.508,1.031,1.912,1.323a13.559,13.559,0,0,1,6.489,7.574c.724,2.241,1.538,5.3,2.421,9.1,1.149,4.8,1.894,7.807,2.279,9.183.619,3.009,1.583,7.578,2.786,13.214.367,1.511.8,3.17,1.322,5.07,1.055,4.029,2.438,8.886,4.109,14.435ZM74.392,94.556,76.427,124.1c4.9,2.171,8.749,3.925,11.433,5.213v-1.385c-.458-2.867-1.25-6.557-2.421-11.28-1.461-5.841-2.346-9.518-2.705-11.239-.408-1.862-.734-3.174-1-4.011a10.108,10.108,0,0,0-1.851-3.624,6.19,6.19,0,0,0-1.851-1.344c-.442-.241-1.12-.574-2.075-1.018l-1.567-.855ZM25.957,46.789h0l3.194,22.662c.833.4,1.552.761,2.136,1.079L71.178,89.609v-1.2c-.052-2.045-.182-4.764-.386-8.084-.27-4.652-.4-6.988-.447-8.062a7.4,7.4,0,0,0-1.221-3.889,6.612,6.612,0,0,0-3.072-2.587c-2.165-1.062-5.166-2.56-9.175-4.581C55.2,60.372,53.4,59.46,51.528,58.5c-5.738-2.877-10.666-5.261-14.647-7.086-1.009-.484-2.529-1.265-4.516-2.321a14.285,14.285,0,0,0-4.8-1.486l-1.607-.815ZM64.247,108.4h0a41.087,41.087,0,0,0-.369-12.665l1.668-1.12A58.838,58.838,0,0,1,64.247,108.4ZM62.716,84.11h0l-2.093-.956-.875-.448c-.174-.457-.453-1.489-.854-3.155a64.466,64.466,0,0,0-9.785-15.169,52.575,52.575,0,0,0-5.655-6.108c-3.145-3.052-5.075-4.977-5.9-5.884a29.251,29.251,0,0,1,7.872,5.09,77.863,77.863,0,0,1,6.53,6.781,61.34,61.34,0,0,1,10.76,19.849Z" transform="translate(21.441 0.122)" fill="#605c60"/>
              <path id="Shape-12" data-name="Shape" d="M82.22,147.8c-1.663-5.52-3.044-10.371-4.1-14.42-.53-1.928-.963-3.586-1.322-5.07-1.175-5.5-2.139-10.067-2.787-13.214-.385-1.381-1.131-4.385-2.278-9.183-.88-3.789-1.695-6.851-2.421-9.1a13.565,13.565,0,0,0-6.49-7.574c-.413-.3-1.056-.743-1.912-1.323A2.772,2.772,0,0,1,59.746,86a54.9,54.9,0,0,1-.691-8.083c-.111-3.977-.244-6.614-.407-8.063a17.245,17.245,0,0,0-1.669-5.66,13.977,13.977,0,0,0-1.993-2.892,9.943,9.943,0,0,0-1.81-1.568,41.614,41.614,0,0,0-4.821-2.687l-4.964-2.4c-.244-.129-.489-.253-.747-.384l-.128-.065c-5.3-2.749-12.9-6.619-22.58-11.5-.88-.469-2.237-1.121-4.15-2a15.788,15.788,0,0,1-3.845-2.5A27.487,27.487,0,0,1,10.5,32.027c-.29-2.768-.55-4.912-.773-6.373-.206-1.113-.562-3.839-1.057-8.1-.2-1.345-.379-2.523-.549-3.6a45.656,45.656,0,0,0-.794-4.54A10.5,10.5,0,0,0,4.841,4.846,22.289,22.289,0,0,0,0,1.282L1.627,0A9.167,9.167,0,0,1,6.754,2.973,10.2,10.2,0,0,1,9.317,8.328c.169,1.245.433,3.183.773,5.62.345,2.41.738,5.334,1.2,8.938.817,6.372,1.483,11.134,2.034,14.558,11.854,5.816,21.4,10.532,29.191,14.415C46.848,54,50.68,55.91,53.907,57.54a10.355,10.355,0,0,1,4.353,3.767c.029,0,.041.013.041.041a10.964,10.964,0,0,1,1.851,5.517c.231,2.661.457,5.922.67,9.692.127,2.229.315,5.7.529,9.671,1.995.936,3.333,1.583,4.211,2.036a10.818,10.818,0,0,1,3.621,2.912,15.363,15.363,0,0,1,2.543,5.436c.362,1.3.834,3.253,1.444,5.965.357,1.642,1.22,5.246,2.563,10.71.57,2.282,1.371,5.714,2.381,10.2.884,3.979,1.976,8.974,3.336,15.271l-.671.876,1.442,8.168ZM73.5,124.833h0c-2.689-1.29-6.535-3.044-11.431-5.212L60.031,90.076l1.566.855c.309,4.268.507,7.549.59,9.753.109,1.285.253,4.367.427,9.162.133,3.73.353,6.806.652,9.142l2.848,1.039,1.79.875c2.162,1.036,4.044,1.892,5.594,2.545v1.385Zm-14.992-7.493h0L30.351,103.861c-.535-.254-1.13-.521-1.769-.795l1.851-1.079L42.556,108.1l5.656,2.892c.439.212,3.814,1.855,9.941,4.837l.155.076.2.1v1.344ZM56.817,85.128h0L16.925,66.051c-.589-.321-1.308-.684-2.137-1.079L11.6,42.31l1.607.815,1.912,9.407c.051.4.109.863.163,1.344a3.786,3.786,0,0,1,.1.692c.3,2.367.707,5.491,1.22,9.284,1.751.965,4.653,2.438,8.625,4.378,3.8,1.9,6.6,3.353,8.564,4.439l1.627.977.733.244,9.236,4.337.875.448,10.558,5.253v1.2Z" transform="translate(35.803 4.602)" fill="#969696"/>
              <path id="Shape-13" data-name="Shape" d="M87.737,164.679h0L77.322,161.6l19.264-10.67-1.444-8.185,11.27,6.231-.223,5.477L87.737,164.678Zm-43.5-39.114c-.917,0-1.955-.02-3.083-.06l-.427-.305-.936-3.5c-.848-1.969-2.784-3.969-5.756-5.945a37.4,37.4,0,0,0,6.143,2.749,22.643,22.643,0,0,0,7.154,1.234,18.806,18.806,0,0,0,2.854-.216,10.233,10.233,0,0,0,3.784-2.668l.915-1.771a1.065,1.065,0,0,0,.2.082l5.412,2.626a26.388,26.388,0,0,1-2.624,3.136,12.164,12.164,0,0,1-3.336,2.362,14.315,14.315,0,0,1-6.449,2.1A32.346,32.346,0,0,1,44.235,125.564ZM62.573,114.1h0l-5.654-2.89a22.147,22.147,0,0,0,1.261-6.821c.054-.848.068-3.235.041-6.9l3.255-1.894c1.444-.731,2.229-1.131,2.4-1.222a41.087,41.087,0,0,1,.366,12.686L62.574,114.1Zm-2.828-32.76h0L50.511,77a12.559,12.559,0,0,0-1.993-4.785c-.249-.384-1.274-1.743-3.133-4.154A46.917,46.917,0,0,0,29.476,54.282v1.364l-1.912-9.407,8.93,4.316c.3.131.7.3,1.058.469.824.907,2.754,2.831,5.9,5.884a52.527,52.527,0,0,1,5.655,6.108,64.464,64.464,0,0,1,9.785,15.169c.4,1.663.68,2.695.853,3.154ZM14.362,6.984h0L1.383,2.932,0,0,14.362,4.4V6.983Z" transform="translate(21.441 1.486)" fill="#2d2d2d"/>
              <path id="Shape-14" data-name="Shape" d="M7.506,78.634h0L4.434,58.272l.265.143c-.633-3.8-1.16-7.422-1.566-10.771L43.961,23.659l4.373,31.315-6.021,4.112L26.465,68.453l.224.1L7.507,78.633ZM2.767,43.186h0L0,22.946,41.01,0l2.807,19.587-41.05,23.6Z" transform="translate(0.041 15.678)" fill="#d83f21"/>
              <path id="Path-36" data-name="Path" d="M54.254,38.462l-4.7,2.627-1.546.957-5.37,3.36L17.271,31.8,0,23.659,19.183,13.581l-.224-.1L34.806,4.113,40.827,0,83.2,20.85l.468.387q-3.314,2.2-4.231,2.851l-1.668,1.12q-.262.14-2.4,1.222l-3.255,1.894q-2.887,1.362-6.774,3.645-2.258,1.344-6.652,3.97l-1.851,1.079-2.583,1.4v.041Z" transform="translate(7.547 70.652)" fill="#980747"/>
              <path id="Path-37" data-name="Path" d="M20.77,4.826,19.854,6.6a26.73,26.73,0,0,1-5.025.183A23.645,23.645,0,0,1,10.8,6.006a34.445,34.445,0,0,1-5.411-2.3Q.307,1.1,0,.957L1.546,0a75.253,75.253,0,0,0,8.91,3.706,14.012,14.012,0,0,0,8.829.224C19.557,4.093,20.05,4.39,20.77,4.826Z" transform="translate(55.555 111.74)" fill="#aca99f"/>
              <path id="Path-38" data-name="Path" d="M0,0,10.415,3.074v3.5L.753,4.093Z" transform="translate(98.763 163.09)"/>
            </g>
            <g id="Group-11" data-name="Group" transform="translate(79.743 164.108)">
              <path id="Path-39" data-name="Path" d="M21.38,0V3.319L0,14.538V11.83Z" transform="translate(5.004 3.706)" fill="#605c60"/>
              <path id="Path-40" data-name="Path" d="M26.16,3.36,4.78,15.189l-.285-4.5L0,8.979,15.4,0,26.16,3.331Z" transform="translate(0.224 0.346)" fill="#2d2d2d"/>
            </g>
          </g>
          <g id="Group-12" data-name="Group" transform="translate(42.312)">
            <path id="Path-41" data-name="Path" d="M2.87,4.154Q-.06,2.688,0,0A5.214,5.214,0,0,0,3.765,1.242q.305.1,6.1,1.629a23.218,23.218,0,0,1,5.859,2.28,35.7,35.7,0,0,0,7.425,3.909A18.52,18.52,0,0,0,31.39,10.2a3.455,3.455,0,0,0,2.421-2.179,6.357,6.357,0,0,0,.407-3.36,8.752,8.752,0,0,1,.244,4.052,3.647,3.647,0,0,1-2.339,2.993,18.38,18.38,0,0,1-7.262-.448,20.927,20.927,0,0,1-6.632-2.993,22.856,22.856,0,0,0-6.855-3.339A3.2,3.2,0,0,1,9.928,6.088a2.1,2.1,0,0,1-1.81-.224q-1.666-.47-2.563-.733A15.827,15.827,0,0,1,2.87,4.154Z" transform="translate(94.246 180.906)" fill="#a6ece5"/>
            <path id="Path-42" data-name="Path" d="M16.7,4.166Q18.257,5.6,21.758,8.222a14.8,14.8,0,0,1,4.125,4.931q-.97,3.256-4.927,4.891a19,19,0,0,1-7.189,1.295q-4.376-.324-7.759-5-.873-1.2-2.661-4.15A40.532,40.532,0,0,1,0,2.02a12.327,12.327,0,0,0,6.465-.077Q9.87,1.038,12.779,0a14.572,14.572,0,0,1,2.034,2C15.237,2.48,15.863,3.2,16.7,4.166Z" transform="translate(72.289 185.328)" fill="#4e8dd1"/>
            <path id="Path-43" data-name="Path" d="M0,2.229q.037-3.744,2.8-1.2a41.216,41.216,0,0,0,3.385,8.3q1.788,2.95,2.661,4.15,3.387,4.685,7.759,5a19,19,0,0,0,7.189-1.295q3.955-1.637,4.927-4.891a3.371,3.371,0,0,1,.781,1.543A1.573,1.573,0,0,1,29,15.419a14.154,14.154,0,0,1-6.16,3.828,15.857,15.857,0,0,1-7.262.627,7.472,7.472,0,0,1-4.422-2.407q-1.69-1.912-3.5-4.207T0,2.229Z" transform="translate(69.458 186.182)" fill="#a6ece5"/>
            <path id="Path-44" data-name="Path" d="M62.252,23.609a18.818,18.818,0,0,1,4,9.537,39.162,39.162,0,0,1-.094,10.506,87.616,87.616,0,0,0,.4,13.059q.055.629.667,6.511.421,3.922.59,6.511-.1,1.71-.553,5.176a9.411,9.411,0,0,0,.875,5.045,3.813,3.813,0,0,1,1.351,2.207,3.488,3.488,0,0,0,1.428,2.15,2.333,2.333,0,0,1,1.237,1.5,1.959,1.959,0,0,1-.476,1.885q-1.709,3.537-6.733,4.931-.531.153-4.3.99a22.65,22.65,0,0,0-4.089,1.218A5.254,5.254,0,0,1,52.789,93.6,16.189,16.189,0,0,0,51.5,91.871c-.712-.839-1.18-1.413-1.408-1.731A4.819,4.819,0,0,1,49.042,86.1a6.845,6.845,0,0,0-.724-2.989,6.6,6.6,0,0,1-.684-2.989A18.7,18.7,0,0,0,47.9,72.3q-1.007-5.216-1.351-7.8-.513-6.792-.513-11.288a65.05,65.05,0,0,1,.9-11.268Q46.723,38.519,49,37.341c-1.025-.99-2.575-1.332-4.638-1.026-1.127.191-1.977.322-2.547.4a7.034,7.034,0,0,1-2.474-.077,71.055,71.055,0,0,1-7.816-2.513q-5.438-2.034-7.759-2.684L9.638,15.261q-11.687-2.468-9.2-14.2V1.054A85.589,85.589,0,0,1,20.916.284Q34,4.547,38.447,7.5a86.93,86.93,0,0,0,10.611,5.88q6.164,2.914,8.825,5.766Q61.129,22.6,62.252,23.609Z" transform="translate(41.45 87.313)" fill="#a6b4c9"/>
            <path id="Path-45" data-name="Path" d="M62.545,39.138q4.638,5.387,5.554,10.7a17.813,17.813,0,0,1,.9,7.273c-.077,2.032-.114,3.266-.114,3.714a17.142,17.142,0,0,0,.378,3.673,14.986,14.986,0,0,1,1.009,4.988q.073,1.692-.114,5.119a33.444,33.444,0,0,0,1.257,8.869,75.452,75.452,0,0,1,1.863,8.755c.09.167.411.957.968,2.378a5.819,5.819,0,0,0,1.31,2.15,3.03,3.03,0,0,1,.684,3.14c-.049.228-.224.794-.513,1.694a8.571,8.571,0,0,0-.378,1.674,21.475,21.475,0,0,1-6.392,2.72,14.423,14.423,0,0,1-6.884.114,13.874,13.874,0,0,1-1.672-.8,11.109,11.109,0,0,1-2.319-4.341,19.551,19.551,0,0,0-2.055-4.589,15.025,15.025,0,0,1-.932-4.931,13.79,13.79,0,0,0-.989-4.931,33.152,33.152,0,0,1-1.957-7.118,30.532,30.532,0,0,0-2.034-7.061,16.989,16.989,0,0,1-1.009-9,44.136,44.136,0,0,1,.854-4.569q.72-2.987,1.046-4.435a14.538,14.538,0,0,1-6.6-3.368q-1.9-1.655-2.872-2.476a25.052,25.052,0,0,0-2.986-2.227q-7.244-3.769-15.078-6.91a126.519,126.519,0,0,1-13.328-6.149Q4.658,30.2,2.95,25.956,1.216,21.692,0,12.269A75.2,75.2,0,0,1,30.579,0V.02L53.912,30.4q.8.837,4.337,4.284Q60.983,37.346,62.545,39.138Z" transform="translate(11.302 88.346)" fill="#8998ad"/>
            <path id="Path-46" data-name="Path" d="M27.629,16.1a18.343,18.343,0,0,1-8.251-1.14,35.8,35.8,0,0,1-7.417-3.9A22.9,22.9,0,0,0,6.086,8.776Q.307,7.255,0,7.139A22.649,22.649,0,0,1,4.089,5.921q3.765-.837,4.3-.99Q13.408,3.545,15.119,0q1.33.666,4.431,1.845,3.064,1.179,4.545,1.922,5.1,2.553,6.351,6.8a6.128,6.128,0,0,1-.4,3.368A3.415,3.415,0,0,1,27.629,16.1Z" transform="translate(98.002 175.014)" fill="#4e8dd1"/>
            <path id="Path-47" data-name="Path" d="M13.617,21.143a6.951,6.951,0,0,0,1.123,2.036c.167.2.671.794,1.522,1.771A7.139,7.139,0,0,1,18.3,28.965a28.679,28.679,0,0,1,2.474,8.091,39.836,39.836,0,0,0,2.169,8.222q.97,1.692,3.592,8.071a30.878,30.878,0,0,0,4.223,7.672,1.2,1.2,0,0,1-.305.839c-.138.167-.342.407-.61.725a5.87,5.87,0,0,0-4.87-1.5,22.335,22.335,0,0,0-5.155,1.409,8.917,8.917,0,0,1-.5,4.378l-1.16-.9a50.145,50.145,0,0,0-4.239-10.356q-.891-1.674-5.61-9.688a26.773,26.773,0,0,1-1.672-3.864q-.891-2.682-1.351-4.015A27.271,27.271,0,0,0,0,28.953a40,40,0,0,0,1.273-5.937c.191-1.686.354-2.9.5-3.636a19.5,19.5,0,0,0,.285-2.513q.915-2.743,1.367-4.15A38.211,38.211,0,0,0,4.581,8.49,12.43,12.43,0,0,0,3.629,0a16.8,16.8,0,0,1,4.41,5.921,24.488,24.488,0,0,1,2.014,7.139,10.7,10.7,0,0,0,1.408,4.186Q12.2,18.534,13.617,21.143Z" transform="translate(52.602 26.033)" fill="#d1dced"/>
            <path id="Path-48" data-name="Path" d="M72.233,101.339q-2.209,6.389-4.87,5.6Q48.884,88.3,48.611,121.8L20.164,104.593Q3.192,100.28,3.963,88.109q.153-6.188,1.16-7.823a19.973,19.973,0,0,0,1.77-6.4l-.5-10.6Q-.946,50.665.139,27.022A50.022,50.022,0,0,1,11.872,10.045Q25.2-2.691,42.585.72q8.959,1.808,10.46,9.728a24.622,24.622,0,0,1,0,9.325Q50.666,32.2,55.251,52.436,58.259,65.7,65.158,70.272q17.7,2.914,27.841,15.3-13.481-.886-20.774,15.759h.008Z" transform="translate(5.484 19.653)" fill="#c1cfe5"/>
            <g id="Group-13" data-name="Group" transform="translate(61.841 70.449)">
              <path id="Path-49" data-name="Path" d="M36.073,110.235a1.625,1.625,0,0,1-1.53-1.079L.71,15.044C.7,15,.681,14.967.673,14.926c-2.482-9,2.372-12.7,6.884-14.212C10.673-.324,13.363-.23,15.551,1c2.478,1.385,4.227,4.194,5.2,8.352a1.628,1.628,0,1,1-3.169.745c-.757-3.225-1.973-5.33-3.617-6.251-1.379-.77-3.137-.782-5.379-.037C3.793,5.414,2.313,8.557,3.793,14l33.813,94.051a1.629,1.629,0,0,1-.981,2.085A1.652,1.652,0,0,1,36.073,110.235Z" transform="translate(0.116 0.275)" fill="#964d11"/>
              <path id="Path-50" data-name="Path" d="M4.056,10.013a1.625,1.625,0,0,1-1.53-1.079L.1,2.182a1.628,1.628,0,1,1,3.064-1.1L5.589,7.83a1.629,1.629,0,0,1-.981,2.085A1.652,1.652,0,0,1,4.056,10.013Z" transform="translate(34.563 107.249)" fill="#3a3a3a"/>
            </g>
            <path id="Path-51" data-name="Path" d="M1.2,1.453A8.933,8.933,0,0,1,.7,5.834a8.256,8.256,0,0,0-.273,5.99,24.042,24.042,0,0,0,2.693,5.554A.885.885,0,0,0,4.39,17.9a1.454,1.454,0,0,0,1-1.161,4.256,4.256,0,0,0-.472-2.871,9.637,9.637,0,0,1-.972-2.834c1.021-.717,1.7-1.2,2.018-1.45l.761-.574c.273.692.549,1.336.822,1.934a23.123,23.123,0,0,1,1.359,3.6c.248.823.618,2.056,1.111,3.693a1.6,1.6,0,0,0,1.033,1.124,1.033,1.033,0,0,0,1.371-.338,5.193,5.193,0,0,0,.049-2.545q-.452-1.7-.659-2.521a38.983,38.983,0,0,1-1.135-4.744,6.251,6.251,0,0,1,2.156,2.932q.458,1.148,1.147,3.531a9.544,9.544,0,0,0,.659,2.533,1.839,1.839,0,0,0,2.107,1.075c.081-.639.138-1.112.163-1.409a10.6,10.6,0,0,0-.248-3.131q-.2-.91-.846-3.046a6.545,6.545,0,0,1,1.111,3.131,4.975,4.975,0,0,0,1.257,2.985c.647.257,1.135.024,1.457-.7a8.16,8.16,0,0,1,.712-1.849,10.524,10.524,0,0,0-2.03-8.425,14.9,14.9,0,0,0-7.091-5.29A5.878,5.878,0,0,0,6.351.039,22.656,22.656,0,0,0,1.2,1.453Z" transform="translate(71.239 87.068)" fill="#fdd8c8"/>
            <path id="Path-52" data-name="Path" d="M1.3,18.818a7.615,7.615,0,0,0,5.521,1.743,13.533,13.533,0,0,0,6.79-1.865l14.126-8.161a8.566,8.566,0,0,0,4.089-4.422,3.785,3.785,0,0,0-1-4.353A7.662,7.662,0,0,0,25.3,0a13.705,13.705,0,0,0-6.8,1.881L4.375,10.042A8.557,8.557,0,0,0,.29,14.449,3.808,3.808,0,0,0,1.3,18.818Z" transform="translate(33.795 106.295)" fill="#fff"/>
            <path id="Path-53" data-name="Path" d="M8.052.394A7.792,7.792,0,0,1,5,.02Q3.275-.206,2.018,2.166q0,.012-.96,2.061A8.254,8.254,0,0,1,0,6a9.216,9.216,0,0,0,2.718,4.019,9.721,9.721,0,0,0,4.325,2.17,7.053,7.053,0,0,1,3.34,1.971,11.1,11.1,0,0,0,3.165,2.272.693.693,0,0,0,.936-.338.965.965,0,0,0-.073-1.047,11.09,11.09,0,0,0-1.981-2.321,10.513,10.513,0,0,1-1.969-2.346,11.124,11.124,0,0,1,4,2.72,25.1,25.1,0,0,0,3.715,3.168,1.036,1.036,0,0,0,1.5-.236,1.03,1.03,0,0,0,0-1.511,32.787,32.787,0,0,0-3.039-3.343q-.409-.409-3.291-3.083a12.33,12.33,0,0,1,4.125,2.484q1.019.886,3.413,3.445a1.942,1.942,0,0,0,1.619.7c.749-.008,1.07-.358.972-1.051a8.376,8.376,0,0,0-1.843-3.131q-1.745-1.771-2.567-2.659a4.44,4.44,0,0,1,1.7.961c.374.309.932.794,1.668,1.462a3.715,3.715,0,0,0,1.644.876,1.679,1.679,0,0,0,1.583-.786A20.375,20.375,0,0,0,19.57,3.7,18.993,18.993,0,0,0,11.156.321Q10.7.278,8.052.394Z" transform="translate(36.112 106.822)" fill="#fdd8c8"/>
            <path id="Path-54" data-name="Path" d="M3.578,5.937A13.667,13.667,0,0,1,5.27,0,19.018,19.018,0,0,1,14.4,2.492a17.956,17.956,0,0,1,6.9,6.491,1.953,1.953,0,0,1-.077,2.341c-.151.24-.382.615-.684,1.124a2.688,2.688,0,0,0-.362,1.218,56.206,56.206,0,0,1-.875,13.3A44.747,44.747,0,0,1,14.99,39.553q4.052,2.853,9.7,7.2,6.371,4.929,9.565,7.367A8.7,8.7,0,0,0,36.366,55.3q2.093.935,2.4,1.083,2.7,1.448,2,3.767-1.733-.208-2.986,2.15,0,.018-.968,2.056a8.263,8.263,0,0,1-1.046,1.771A5.424,5.424,0,0,1,34.677,67.4c-.264.228-.7.566-1.294,1.01a49.732,49.732,0,0,0-5.554-2.834,29.946,29.946,0,0,1-5.44-3.026q-.61-.476-5.228-3.75a46.288,46.288,0,0,1-5-4.015,26.4,26.4,0,0,0-4.488-3.368,45.006,45.006,0,0,1-4.658-3.16,10.407,10.407,0,0,1-2.51-3.807,7.3,7.3,0,0,1-.264-4.512,32.965,32.965,0,0,0,.875-8.128q-.1-5.461,0-8.185a36.944,36.944,0,0,1,1.2-5.73,28.034,28.034,0,0,0,1.046-5.73C3.4,9.382,3.48,7.31,3.578,5.937Z" transform="translate(0.344 46.7)" fill="#d1dced"/>
            <path id="Path-55" data-name="Path" d="M6.876.087a13.522,13.522,0,0,1,7.018,1.1q12.468,5.479,7.771,17.246Q4.925,20.509,0,4.506A8.751,8.751,0,0,1,6.876.087Z" transform="translate(25.55 22.819)" fill="#e49781"/>
            <path id="Path-56" data-name="Path" d="M16.457.146l.285-.061,1.139.509q1.813.715,3.987,1.568l.529.326A15.015,15.015,0,0,1,26.567,6.7a12.653,12.653,0,0,1,2.177,5.4l.041.448a3.5,3.5,0,0,1,.142,2.606h.041l.061.407q1.221,1.668,2.319,3.054a2.653,2.653,0,0,1,1.729,2.056c.175.965-.346,1.56-1.566,1.792l-.468.02-.671,3.034a3.281,3.281,0,0,1-.529,2.158L27.177,32.7a5.986,5.986,0,0,0-.631.55,38.568,38.568,0,0,0-5.7-.448q-3.887-.165-5.7-1.731-1.813-1.606-3.173-2.789c-.9-.8-1.538-1.132-1.933-1a1.5,1.5,0,0,1-1.16-.061,5.963,5.963,0,0,1-2.2-2.525q-.446-.9-.732-1.4c.081.314.155.631.224.957l-1.546-.57Q-.306,19.267.02,11.813A12.617,12.617,0,0,1,4.7,3.037,11.916,11.916,0,0,1,14.117.085Z" transform="translate(23.964 1.931)" fill="#fdd8c8"/>
            <path id="Shape-15" data-name="Shape" d="M29.381,35.633a27.563,27.563,0,0,1-5.44-.883L25.71,31.8a3.283,3.283,0,0,1,1.709-1.12c.868-.173,1.525-.323,1.953-.448a2.019,2.019,0,0,0,1.387-.864,2.84,2.84,0,0,0,.078-2.231A11.8,11.8,0,0,1,27.6,28.847c.344-.791.515-1.175.59-1.324.983-2.229,2.318-3.36,3.966-3.36l.244,1.222a4.1,4.1,0,0,1-.162,1.242l-.122.244c.433-.19.68-.683.733-1.466l1.566,3.116a4.034,4.034,0,0,1-.61,4.5,7.6,7.6,0,0,1-4.15,2.606C29.571,35.631,29.478,35.633,29.381,35.633ZM7.321,25.955h0l-2.276-.875a10.5,10.5,0,0,1-3.316-3.4A8.114,8.114,0,0,1,.038,17.648a5.912,5.912,0,0,1,1.078-4.174A13.907,13.907,0,0,0,2.825,14.7l.305.184a4.254,4.254,0,0,1,2.237,1.894,8.377,8.377,0,0,1,4.652-1.281c.312,0,.636.013.963.039.618.04,2.508.406,5.777,1.12a26.2,26.2,0,0,1-4.171,2.911L15.62,18.6a59.236,59.236,0,0,0-.183,6.007,40.838,40.838,0,0,1-4.211-1.4,8.762,8.762,0,0,0-2.9-.564,5.318,5.318,0,0,0-1.469.2,12.668,12.668,0,0,0,.467,3.113ZM8.79,10.809v0c.736-.9,1.7-2.129,2.865-3.641,1.415-1.859,2.353-3.078,2.868-3.726l1.729-1.649L15.214,1.73A24.448,24.448,0,0,1,20.421.04,5.2,5.2,0,0,1,21.043,0a2.361,2.361,0,0,1,1.773.63,3.152,3.152,0,0,1,.657,2.363l-.387-.753A17.551,17.551,0,0,0,22.069.346a18.1,18.1,0,0,0-2.4.428A4.945,4.945,0,0,0,17.586,1.8c1.172-.3,2.393-.658,3.629-1.067L19.933,2.707l-.305.366-.184-.305-1,1.913a17.462,17.462,0,0,1-2.055,2.851c-.642.723-1.483,1.565-2.5,2.5.446-.738,1.035-1.621,1.75-2.626a11.445,11.445,0,0,1,1.831-2.545l1.383-2.423-1.322-.59a8.458,8.458,0,0,0-1.058,1.14,46.876,46.876,0,0,0-3.519,4.255A14.639,14.639,0,0,1,8.79,10.809Z" transform="translate(23.091 0.27)" fill="#fcffff"/>
            <path id="Path-57" data-name="Path" d="M18.927,6.718c.269.293.517.57.745.835q4.638,5.394,5.554,10.71a17.516,17.516,0,0,1,.9,7.269q-.1,3.036-.1,3.706a16.063,16.063,0,0,0,.366,3.665A15.127,15.127,0,0,1,27.4,37.89q.061,1.71-.122,5.131A34.312,34.312,0,0,0,28.541,51.9a74.546,74.546,0,0,1,1.851,8.755q.14.244.976,2.362a5.584,5.584,0,0,0,1.322,2.158,3,3,0,0,1,.671,3.136c-.041.232-.212.8-.509,1.71a8.85,8.85,0,0,0-.387,1.67A21.539,21.539,0,0,1,26.079,74.4a14.4,14.4,0,0,1-6.876.122,15.078,15.078,0,0,1-1.668-.794,11.073,11.073,0,0,1-2.319-4.337,19.714,19.714,0,0,0-2.055-4.6,14.672,14.672,0,0,1-.936-4.927,14.166,14.166,0,0,0-1-4.927,33.5,33.5,0,0,1-1.953-7.126,30.617,30.617,0,0,0-2.034-7.045,17.2,17.2,0,0,1-1.017-9.02q.244-1.875.854-4.561.732-2.993,1.058-4.439a14.487,14.487,0,0,1-6.611-3.36Q.671,18.625,0,18.05,1.184-10.964,18.674,6.656C18.76,6.681,18.845,6.7,18.927,6.718Z" transform="translate(55.698 121.25)" fill="#a6b4c9"/>
          </g>
          <g id="Group-14" data-name="Group" transform="translate(10.171 41.129)">
            <path id="Shape-16" data-name="Shape" d="M105.641,161.8a15,15,0,0,1-1.65-.1c-.918-.093-2.882-1.593-5.838-4.459l-.387-7.982.854.041a28.728,28.728,0,0,1,7.833,5.436,3.045,3.045,0,0,1,.752,1.161,14.3,14.3,0,0,1,.854,5.62h-.081A8.923,8.923,0,0,1,105.641,161.8Zm-90-154.7h0L1.607,2.321,0,0,14.992,4.439,15.643,7.1Z" transform="translate(0.081 1.527)" fill="#2d2d2d"/>
            <path id="Shape-17" data-name="Shape" d="M108.059,163.03h0a14.3,14.3,0,0,0-.854-5.618,3.046,3.046,0,0,0-.752-1.161,28.746,28.746,0,0,0-7.833-5.436l2.482.04c1.56.9,3.1,1.873,4.577,2.891v.041h.041a5.885,5.885,0,0,0,.57.346,9.418,9.418,0,0,0,3.6,1.446v7.207c-.674.092-1.332.179-1.829.245Zm-9.906-4.276h0l-2.745-.306c-1.17-5.117-2.156-9.282-2.929-12.379-.635-2.647-1.107-4.566-1.4-5.7a11.511,11.511,0,0,0-3.357-2.179c-2.037-.932-3.269-1.528-3.661-1.771-.087-.03-1.1-.557-2.767-1.445-1.14-.623-3.782-1.877-7.853-3.726-2.264-1.1-8.445-4.156-18.9-9.346-.763-.389-1.4-.706-1.993-1l-5.614-3.094L18.207,103.7l-1.526-3.116L74.7,129.128v-1.67c-.285-6.175-.573-11.437-.855-15.637-.278-5.1-.476-9.077-.59-11.809-2.055-1.175-4.862-2.635-8.34-4.337-3.483-1.593-6.932-3.285-10.253-5.029l-.069-.034c-.053-.026-.1-.048-.135-.068L32.65,80.731l1.994,26.387L29.8,104.756l-.407-3.909-2.767,2.463-7.669-3.726,3.193-3.237,7.242,4.5-.305-7.371-1.2-17.164v-.021L27.1,67.558c-2.767-22.024-5.06-39.822-6.815-52.9-.04-.273-.081-.542-.122-.814a5.063,5.063,0,0,0-1.4-3.319,6.341,6.341,0,0,0-3.112-1.913l-.652-2.667c3.016,1.247,4.918,2.432,5.656,3.522a13.462,13.462,0,0,1,1.729,4.866c.024.079.046.171.068.269l.013.057c1.05,6.569,1.762,11.371,2.176,14.68.519,4.065.913,6.987,1.139,8.45.026.088.233,1.805.691,5.741a23.459,23.459,0,0,0,1.262,5.558,8.811,8.811,0,0,0,2.2,1.609l.454.244L32.3,51.981c3.771,1.787,9.226,4.52,16.213,8.124,7.387,3.819,12.67,6.483,16.151,8.144,1.794.9,3.088,1.6,3.845,2.076a11.8,11.8,0,0,1,3.173,2.851,16.646,16.646,0,0,1,3.092,9.773c.093,2.791.319,6.8.671,11.931.062.945.12,1.934.181,2.981l.022.379a18.026,18.026,0,0,1,8.442,6.21,56.92,56.92,0,0,1,2.218,6.9c.384,1.521.925,3.719,1.729,7,.722,4.083,1.817,8.919,3.254,14.375.586,2.152,1.417,5.409,2.543,9.957.527,1.8,1.081,3.5,1.648,5.05a100.4,100.4,0,0,1,2.665,11.014ZM76.631,102.843l.549,19.282.549,8.47,11.84,5.66v-1.771c-.738-3.717-1.71-8.053-2.97-13.255-1.509-6.08-2.6-10.52-3.254-13.173a4.24,4.24,0,0,0-2.1-3.034c-.743-.474-1.879-1.1-3.377-1.852l-1.241-.326ZM29.124,54.253h0a.566.566,0,0,0-.46.221c-.472.587-.383,2.372.263,5.305l1.851,15.433c.04,1.014.937,2,2.665,2.932,1.708.929,8.039,3.889,18.817,8.8l12.653,5.9a53.817,53.817,0,0,0,8.015,3.4c-.1-.739-.2-1.637-.305-2.668-.122-1.787-.242-4.038-.366-6.882a91.041,91.041,0,0,0-.854-9.508,5.4,5.4,0,0,0-1.993-3.5,19.354,19.354,0,0,0-3.519-2.138c-2.421-1.149-6.069-2.978-10.843-5.437l-.61-.265c-.424-.206-.855-.4-1.261-.59-.118-.043-.231-.1-.326-.142L29.619,54.383a1.2,1.2,0,0,0-.495-.13ZM14.992,5.946h0L0,1.507,2.705,0,16.538,4.439,14.992,5.945Z" transform="translate(0.081 0.02)" fill="#605c60"/>
            <path id="Shape-18" data-name="Shape" d="M83.157,154.3a101.619,101.619,0,0,0-2.662-11c-.564-1.543-1.118-3.242-1.647-5.05-1.126-4.55-1.958-7.807-2.543-9.956-1.436-5.446-2.531-10.283-3.254-14.375-.794-3.242-1.344-5.481-1.73-7a56.946,56.946,0,0,0-2.217-6.9,18.027,18.027,0,0,0-8.442-6.21l0-.033c-.069-1.171-.134-2.276-.2-3.327-.352-5.1-.578-9.116-.671-11.931a16.659,16.659,0,0,0-3.092-9.773,11.791,11.791,0,0,0-3.173-2.85c-.754-.473-2.048-1.172-3.845-2.077-3.466-1.653-8.749-4.317-16.152-8.144-6.984-3.6-12.439-6.336-16.213-8.124l-.058-.031-.008,0L14.931,46.26a8.849,8.849,0,0,1-2.2-1.608,23.46,23.46,0,0,1-1.261-5.559c-.405-3.472-.662-5.643-.692-5.741-.227-1.477-.621-4.4-1.139-8.45-.415-3.318-1.127-8.119-2.177-14.68-.026-.113-.052-.23-.081-.326A13.462,13.462,0,0,0,5.656,5.029C4.916,3.938,3.013,2.753,0,1.507L1.546,0A9.015,9.015,0,0,1,6.692,2.81,9.881,9.881,0,0,1,8.158,4.784c.852,1.841,1.536,5.149,2.034,9.834l2.93,21.542c.034.247.067.473.1.692a20.928,20.928,0,0,0,.1,2.463,14.837,14.837,0,0,0,1.2,4.072,3.175,3.175,0,0,0,1.546,1.588l1.56.765.06.03c2.988,1.466,6.078,2.982,9.141,4.478,3.331,1.619,6.767,3.331,10.212,5.09,1.188.641,2.454,1.251,3.763,1.812,1.1.576,3.711,1.809,7.771,3.665a62.949,62.949,0,0,1,7.608,3.971A10.816,10.816,0,0,1,59.929,68.9a12.434,12.434,0,0,1,1.464,5.4c.047.68.2,3.161.468,8.083.163,3.238.381,5.937.651,8.023l.143,1.058c1.022.655,2.021,1.251,2.97,1.771,2.972,1.977,4.909,3.977,5.756,5.945l.936,3.5.427.305c.484,2.289,1.339,5.967,2.542,10.934,1.107,4.6,1.935,8.257,2.462,10.872,1.7,6.7,2.538,10.011,2.705,10.75.781,3.2,1.438,6.156,1.953,8.8.141.726.261,1.379.366,2l.385,7.968Zm-8.582-22.487h0l-11.838-5.659-.549-8.47L61.638,98.4l1.24.326,1.343,26.163,10.354,5.152v1.771ZM59.705,124.69,1.688,96.144l2.279-1,7.669,3.726,3.173,1.445,4.841,2.362L59.36,122.491a.324.324,0,0,1,.224.163,1.007,1.007,0,0,1,.122.366v1.67ZM57.936,91.807h0a53.884,53.884,0,0,1-8.014-3.4L37.267,82.5c-10.941-4.982-17.1-7.859-18.816-8.8s-2.625-1.918-2.665-2.932L13.935,55.341c-.646-2.933-.735-4.717-.263-5.3a.565.565,0,0,1,.46-.221,1.2,1.2,0,0,1,.495.13L17.7,70.306,57.631,89.14c.108,1.038.21,1.935.3,2.666Z" transform="translate(15.074 4.459)" fill="#969696"/>
            <path id="Path-58" data-name="Path" d="M6.937,0l.305,7.371L0,2.871Z" transform="translate(22.234 93.497)" fill="#ccc"/>
          </g>
          <g id="Group-15" data-name="Group" transform="translate(0 102.619)">
            <path id="Shape-19" data-name="Shape" d="M39.451,76.365v0a.636.636,0,0,0,.238-.1c1.212-.68,2.444-1.379,3.662-2.076.312-.215.62-.441.915-.672h.081a.356.356,0,0,1,.1-.021l4.618-2.85.11-.149.114-.156c-.221.333-.454.668-.692,1A12.79,12.79,0,0,1,44.565,74.9,12.552,12.552,0,0,1,39.451,76.365ZM34.5,75.227h0a32.753,32.753,0,0,1-10.273-5.334,57.292,57.292,0,0,1-11.88-12.054A65.368,65.368,0,0,1,3.088,40.68,54.569,54.569,0,0,1,0,22.594a28.075,28.075,0,0,1,.9-7c.247-.549.493-1.069.732-1.547L4.394,11.66c-.2.613-.376,1.205-.549,1.812A38.532,38.532,0,0,0,3.3,31.064a57.192,57.192,0,0,0,6.977,18.325A57.469,57.469,0,0,0,22.3,64.6a40.528,40.528,0,0,0,17.128,9.183,10.826,10.826,0,0,0-1.22.529c-.367.122-1.612.431-3.7.916ZM55.249,46.533c-.882-3.011-1.9-5.989-3.03-8.852a68.783,68.783,0,0,0-8.767-15.575,66.882,66.882,0,0,0-7.69-8.552A50.794,50.794,0,0,0,23.781,5.267L20.6,3.66l-.154-.078L15.644,1.154,15.6.706A2.1,2.1,0,0,1,17.2,0a3.327,3.327,0,0,1,.961.156,56.628,56.628,0,0,1,15.42,7.105,59.247,59.247,0,0,1,8.707,6.963l.015.02c.022.029.043.056.066.082l-.021-.041A116.4,116.4,0,0,1,49.6,24.467a58.571,58.571,0,0,1,5.35,10.75,33.621,33.621,0,0,1,.529,8.51c-.05.882-.123,1.8-.224,2.8Z" transform="translate(4.862 1.045)" fill="#605c60"/>
            <path id="Shape-20" data-name="Shape" d="M45.018,80.223a28.376,28.376,0,0,1-10.537-2.036h1.627c.385-.019.779-.036,1.2-.054h.01l.644-.028c.634-.053,1.566-.2,2.848-.448,1.3-.248,2.156-.442,2.624-.59a.625.625,0,0,1-.265.1,12.224,12.224,0,0,0,9.175-5.028c.252-.349.484-.685.692-1A9.966,9.966,0,0,0,54.111,69.6a23.3,23.3,0,0,0,2.95-11.3c.029-1.292.008-2.6-.061-3.889a48.218,48.218,0,0,0-2.034-11.239,48.358,48.358,0,0,0-3.622-8.816c-.936-1.781-1.956-3.528-3.03-5.192-1.527-2.35-3.149-4.665-4.821-6.882a9.343,9.343,0,0,0-1.058-1.262c-2.542-2.61-5.17-5.186-7.811-7.656a25.857,25.857,0,0,0-3.743-2.85A31.456,31.456,0,0,0,22.6,6.883a14.83,14.83,0,0,0-4.265-.659,13.152,13.152,0,0,0-6.943,2.023c-.284.2-.55.406-.814.631-.816.368-1.637.779-2.441,1.222A20.173,20.173,0,0,0,6,11.607a17.09,17.09,0,0,0-2.075,1.975A19.614,19.614,0,0,0,2.3,15.72,17.985,17.985,0,0,0,1.017,18.2C.627,19.1.285,19.983,0,20.831a35.838,35.838,0,0,1,2.889-10,26.143,26.143,0,0,1,2.3-3.889A15.715,15.715,0,0,1,14.24.877,24.935,24.935,0,0,1,20.3,0a11.921,11.921,0,0,1,3.076.368,47.874,47.874,0,0,1,6.286,2.1,57.987,57.987,0,0,1,6.917,3.6c2.708,1.558,5.89,4.573,9.459,8.959a59.2,59.2,0,0,0-8.707-6.964A56.628,56.628,0,0,0,21.909.959,3.323,3.323,0,0,0,20.948.8a2.105,2.105,0,0,0-1.6.706l.04.448Q22.377,3.466,25.413,5l2.111,1.067a50.817,50.817,0,0,1,11.982,8.287,66.882,66.882,0,0,1,7.69,8.552,68.82,68.82,0,0,1,8.767,15.575c1.129,2.865,2.149,5.845,3.031,8.858.1-.994.173-1.913.224-2.81a33.624,33.624,0,0,0-.529-8.511A51.37,51.37,0,0,1,61.842,45.2a49.316,49.316,0,0,1,1.322,10.425q.05,1.88.1,3.722.031,1.109.061,2.2a37.846,37.846,0,0,1-.936,4.215,23.469,23.469,0,0,1-3.722,7.818,13.4,13.4,0,0,1-6.815,5.375A23.3,23.3,0,0,1,45.018,80.223ZM36.759,76.11h0c-.481-.052-.987-.094-1.5-.122l-.29-.053c-.421-.076-.856-.155-1.3-.232q-.443-.124-.887-.244l-.007,0-.734-.2c-.543-.194-1.1-.387-1.708-.59-.831-.384-1.689-.8-2.624-1.263-.567-.276-1.173-.589-1.851-.957-.611-.4-1.247-.839-1.892-1.3-.72-.48-1.452-1.015-2.176-1.589-.381-.314-.745-.625-1.18-1-.373-.345-.758-.725-1.18-1.161-.454-.4-.892-.811-1.3-1.221-.63-.6-1.3-1.295-1.993-2.056-.483-.5-.956-1.01-1.4-1.527-.488-.569-.96-1.165-1.4-1.771-.49-.64-.962-1.3-1.4-1.975-.5-.759-.971-1.54-1.4-2.321-.5-.841-.971-1.7-1.4-2.566-.223-.42-.44-.84-.651-1.247L8.4,52.593a16.4,16.4,0,0,1-.733-1.486c-.218-.436-.444-.9-.712-1.466s-.49-1.073-.691-1.568c-.253-.5-.506-1.036-.773-1.629a27.493,27.493,0,0,1-1.038-2.626c-.283-.734-.6-1.542-1-2.545a26.716,26.716,0,0,1-.976-2.708c-.267-.864-.493-1.737-.692-2.668a17.667,17.667,0,0,1-.447-2.4c-.1-.82-.174-1.573-.224-2.3-.067-.911-.1-1.857-.1-2.81a25.766,25.766,0,0,1,.142-2.667,20.168,20.168,0,0,1,.366-2.5c.171-.793.383-1.608.631-2.423.167-.557.365-1.125.589-1.69.267-.59.519-1.116.773-1.608.277-.468.565-.927.855-1.364.316-.435.651-.867,1-1.282-.227.456-.467.961-.733,1.547a28.119,28.119,0,0,0-.895,7C3.743,35.7,7.9,47.562,16.091,58.64a57.292,57.292,0,0,0,11.88,12.054,32.758,32.758,0,0,0,10.273,5.335l-.717.039Z" transform="translate(1.119 0.243)" fill="#2d2d2d"/>
            <path id="Shape-21" data-name="Shape" d="M37,69.308H35.376c-.764-.23-1.537-.5-2.3-.794a23.17,23.17,0,0,1-2.258-.774c-.685-.316-1.4-.669-2.176-1.079-.75-.34-1.482-.71-2.177-1.1-.71-.442-1.422-.915-2.115-1.4-.707-.458-1.392-.945-2.035-1.446-.71-.531-1.394-1.079-2.034-1.629-.657-.565-1.314-1.161-1.953-1.771-.579-.525-1.168-1.087-1.75-1.67-.608-.609-1.154-1.182-1.668-1.75-.5-.592-1.006-1.2-1.546-1.874-.481-.607-.967-1.253-1.485-1.975-.509-.655-1-1.34-1.464-2.037-.455-.661-.907-1.347-1.383-2.1-.477-.773-.936-1.533-1.363-2.26-.429-.743-.853-1.531-1.261-2.342-.373-.7-.729-1.424-1.057-2.138-.357-.726-.685-1.452-.977-2.158-.288-.648-.574-1.334-.875-2.1-.27-.713-.53-1.439-.773-2.158-.207-.618-.414-1.285-.631-2.037-.226-.677-.425-1.375-.589-2.076-.166-.628-.326-1.281-.489-2Q.909,28.165.8,27.681l0-.009q-.114-.51-.229-1.02c-.179-.932-.316-1.9-.407-2.892C.1,22.917.051,22,.022,20.951c-.029-.636-.029-1.273,0-1.894,0-.569.027-1.165.081-1.771s.1-1.214.184-1.812c.067-.585.149-1.16.244-1.711.106-.533.223-1.109.366-1.812.289-.859.631-1.743,1.017-2.627A17.991,17.991,0,0,1,3.2,6.841,19.513,19.513,0,0,1,4.822,4.7,17.085,17.085,0,0,1,6.9,2.729,20.284,20.284,0,0,1,9.033,1.221C9.849.773,10.67.362,11.474,0c.832.068,1.7.1,2.665.1,1.041.029,2.027.09,2.93.184.812.126,1.606.263,2.36.407.787.225,1.594.451,2.4.672.786.287,1.6.622,2.421,1a18.693,18.693,0,0,1,1.993.937c.73.387,1.4.76,2.034,1.14.72.459,1.425.918,2.1,1.364a24.425,24.425,0,0,1,2.482,1.934A71.265,71.265,0,0,1,42.436,18.2c.891,1.2,1.726,2.429,2.481,3.645.371.566.727,1.162,1.057,1.771.563,1,1.09,1.989,1.567,2.932.459.948.918,1.927,1.363,2.911.42.909.83,1.854,1.22,2.81.366,1,.692,1.912,1,2.789s.584,1.8.854,2.729.483,1.81.692,2.667c.1.422.19.861.265,1.344.151.861.274,1.745.365,2.627.082.84.143,1.7.184,2.545q.026.718.049,1.454v.006q.015.468.031.942.022.611.041,1.222v.011q.02.606.041,1.211c0,.406-.014.817-.041,1.221-.029.478-.07.964-.122,1.446-.069.475-.151.962-.244,1.445-.131.537-.264,1.023-.407,1.486-.164.457-.35.949-.57,1.507-.2.555-.42,1.1-.652,1.609-.395.816-.805,1.637-1.22,2.443q-.369.616-.752,1.246l-.244.4c-.149.268-.308.534-.489.814-.3.234-.607.46-.915.671-1.153.662-2.351,1.341-3.661,2.077-.476.15-1.334.343-2.624.59s-2.213.4-2.848.448l-.449.019H38.4C37.91,69.267,37.448,69.287,37,69.308ZM14.586,2.3c-.468.038-.974.084-1.545.143-.925.216-1.863.442-2.787.671-.372.127-.771.28-1.22.469L6.267,5.966c-.348.419-.683.851-1,1.283-.289.437-.577.9-.854,1.364-.261.507-.514,1.033-.773,1.608-.221.555-.42,1.124-.589,1.69-.249.814-.461,1.629-.631,2.423a19.976,19.976,0,0,0-.366,2.5,25.8,25.8,0,0,0-.142,2.668c0,.952.034,1.9.1,2.81.051.738.124,1.491.223,2.3a17.674,17.674,0,0,0,.448,2.4c.2.917.428,1.814.691,2.668a26.846,26.846,0,0,0,.977,2.707c.329.834.669,1.7,1,2.545a27.848,27.848,0,0,0,1.037,2.627c.276.612.529,1.145.773,1.629.2.5.43,1.012.692,1.568.236.5.475.991.712,1.465A16.3,16.3,0,0,0,9.3,43.715c.222.431.461.891.712,1.364.434.865.906,1.728,1.4,2.565.435.784.907,1.565,1.4,2.321.434.66.893,1.306,1.4,1.975.446.607.918,1.2,1.4,1.771.441.51.913,1.024,1.4,1.527.686.755,1.356,1.447,1.993,2.056.4.4.839.812,1.3,1.221.427.44.813.819,1.18,1.16.418.358.8.68,1.18,1,.728.576,1.46,1.11,2.177,1.589.635.457,1.272.9,1.892,1.3.644.35,1.267.671,1.851.957.912.455,1.77.867,2.624,1.262.666.224,1.209.412,1.709.591l.814.224.814.224c.4.07.8.143,1.191.213l.4.072c.517.029,1.023.07,1.506.122l.683-.038h.013l.789-.044c2.092-.486,3.338-.794,3.7-.916a10.835,10.835,0,0,1,1.22-.529,8.556,8.556,0,0,0,2.3-1.4,17.755,17.755,0,0,0,1.444-1.4,13.921,13.921,0,0,0,1.241-1.813,14.288,14.288,0,0,0,.976-1.812,17.2,17.2,0,0,0,.611-1.853c.194-.634.372-1.305.528-2a21.635,21.635,0,0,0,.326-2.2c.081-.785.142-1.579.183-2.362.027-.744.04-1.5.04-2.321-.029-.849-.076-1.615-.142-2.342-.081-.933-.183-1.857-.305-2.749-.162-1.01-.328-1.916-.508-2.769-.211-.92-.458-1.866-.733-2.81-.244-.855-.51-1.728-.814-2.668-.3-.841-.625-1.677-.976-2.484-.326-.826-.682-1.7-1.058-2.586-.206-.483-.4-.929-.59-1.364s-.388-.879-.631-1.385-.477-.972-.712-1.4a14.769,14.769,0,0,0-.9-1.547c-.259-.471-.545-.971-.875-1.527-.3-.456-.616-.935-.956-1.466-.363-.557-.682-1.03-.977-1.445-.342-.482-.68-.948-1-1.384-.346-.447-.7-.9-1.038-1.324-.331-.44-.687-.878-1.058-1.3-.372-.441-.738-.84-1.119-1.221-1.5-1.463-3.082-2.977-4.7-4.5-.449-.438-.914-.881-1.364-1.31l-.121-.115A20.585,20.585,0,0,0,29.131,7.33,16.82,16.82,0,0,0,26.65,5.742c-.542-.3-1.1-.572-1.669-.814q-.562-.232-1.121-.466l-1.036-.431c-.63-.243-1.2-.45-1.729-.631-.766-.2-1.4-.364-1.994-.509A12.08,12.08,0,0,0,16.539,2.4C15.806,2.346,15.167,2.312,14.586,2.3Z" transform="translate(0.223 9.122)" fill="#aca99f"/>
          </g>
          <g id="Group-16" data-name="Group" transform="translate(76.488 166.552)">
            <path id="Path-59" data-name="Path" d="M3.8,9.04,3.4,9.264l-.915.509-.305.143L0,3.991l2.258-1.1L5,1.222,7.506,0a24.733,24.733,0,0,1,.081,2.749q0,1.142.142,3.584Q7.5,6.558,5.655,7.859,5.289,8.061,3.8,9.04Z" transform="translate(12.612 13.56)" fill="#b8d9ec"/>
            <path id="Shape-22" data-name="Shape" d="M5.814,30.844A7.541,7.541,0,0,1,1.021,26.51a10.8,10.8,0,0,1-1-4.581c.15-1.008.252-1.659.305-1.934a3.6,3.6,0,0,0,.021.366C.516,21.445.7,22.571.92,23.8a5.066,5.066,0,0,0,.549,2.424,1.592,1.592,0,0,0,1.363.957,8.431,8.431,0,0,0,2.984,3.66ZM10.786,16.37v0a29.278,29.278,0,0,0,.3-15.024L13.532,0V14.7l-2.745,1.668Z" transform="translate(4.085 0.081)" fill="#969696"/>
            <path id="Shape-23" data-name="Shape" d="M7.893,30.766a6.815,6.815,0,0,1-5.737-3.34A12.92,12.92,0,0,1,0,19.994l.183-2.382a4.651,4.651,0,0,1,1.262-1.731,1.13,1.13,0,0,1,.739-.324,1.26,1.26,0,0,1,.888.467L2.8,15.977H2.8l-.2-.034c-.023.011-.034.022-.032.032.007.038.184.067.54.09a2.964,2.964,0,0,0-.956.183,2.913,2.913,0,0,0-.956,2.4c-.054.275-.156.926-.305,1.934a10.8,10.8,0,0,0,1,4.581,7.544,7.544,0,0,0,4.8,4.337c.243.143.5.28.753.407a2.734,2.734,0,0,0,1.1.267A2.086,2.086,0,0,0,10.4,28.79c-.023.14-.048.312-.078.511l-.024.161A2.375,2.375,0,0,1,7.893,30.766Zm4.394-1.609h0a.607.607,0,0,1-.325-.366,19.931,19.931,0,0,0-.793-6.21.963.963,0,0,0-.061-.224l.773-.447L12.8,21.4a6.39,6.39,0,0,1,.671,2.586,16.729,16.729,0,0,1-.284,2.545,5.731,5.731,0,0,1-.895,2.626ZM6.224,17.327l0,0,1.26-1.667c-.107-.107-.234-.228-.387-.366a7.05,7.05,0,0,0-4.76-1.934H1.383l.021-.59.264-.326A2.946,2.946,0,0,1,3.1,12.087a7.342,7.342,0,0,1,3.855,1.494,12.748,12.748,0,0,1,1.343,1l-.183.265.59-.773a14.276,14.276,0,0,0,1.811-3.014,6.357,6.357,0,0,0,.407-3.441l-.9-5.11L11.961,0a29.277,29.277,0,0,1-.305,15.026L9.4,16.126l-3.17,1.2Z" transform="translate(3.214 1.425)" fill="#605c60"/>
            <path id="Shape-24" data-name="Shape" d="M11.712,21.344a10.151,10.151,0,0,1-2.432-.332A9.13,9.13,0,0,1,4.805,18.12,22.338,22.338,0,0,1,1.53,13.457,12.711,12.711,0,0,1,0,7.9a9.495,9.495,0,0,1,1.4-5.334A8.784,8.784,0,0,1,2.812.833,2.285,2.285,0,0,1,3.95.264,6.9,6.9,0,0,1,5.826,0,6.809,6.809,0,0,1,6.555.04,11.657,11.657,0,0,1,11.66,2.055l-.59.774.184-.265a12.986,12.986,0,0,0-1.343-1A7.345,7.345,0,0,0,6.055.073,2.945,2.945,0,0,0,4.622.427L4.357.752l-.02.591h.956a7.05,7.05,0,0,1,4.76,1.934c.117.107.255.234.387.366L9.178,5.313c-.865-.434-1.775-.838-2.705-1.2-.14-.038-.282-.07-.447-.1a1.26,1.26,0,0,0-.888-.467,1.128,1.128,0,0,0-.739.325A4.644,4.644,0,0,0,3.137,5.6L2.954,7.98A12.92,12.92,0,0,0,5.11,15.412a6.814,6.814,0,0,0,5.737,3.339,2.376,2.376,0,0,0,2.4-1.3l.023-.156c.03-.2.055-.375.079-.516a4.425,4.425,0,0,0,.265-.55,7.847,7.847,0,0,0-.733-5.253l1.648-.936.305-.143-.773.448a.958.958,0,0,1,.061.224,19.959,19.959,0,0,1,.793,6.21.608.608,0,0,0,.326.366,5.728,5.728,0,0,0,.9-2.626,16.752,16.752,0,0,0,.284-2.545,6.391,6.391,0,0,0-.671-2.586l.407-.224a2.574,2.574,0,0,0,.224.855,15.891,15.891,0,0,1,.895,3.055,8.12,8.12,0,0,1-.447,4.336,7.206,7.206,0,0,1-1.4,2.484,4.179,4.179,0,0,1-2.034,1.222A5.779,5.779,0,0,1,11.712,21.344Zm-4.568-9.5a1.119,1.119,0,0,1-1-.774,2.423,2.423,0,0,1-.265-1.038,1.8,1.8,0,0,1,.223-.652,1.269,1.269,0,0,1,1.18-.632c.742,0,1.119.247,1.119.733,0,.032-.012.456-.04,1.221C8.215,11.465,7.8,11.849,7.144,11.849Z" transform="translate(0.26 13.44)" fill="#2d2d2d"/>
            <path id="Shape-25" data-name="Shape" d="M1.913,9.712h0A1.593,1.593,0,0,1,.549,8.755,5.064,5.064,0,0,1,0,6.332L.468,3.461C1.791,2.773,3.125,2.013,4.434,1.2L7.608,0,9.785,5.925l-1.648.937c-.688.337-1.679.856-3.031,1.588A21.578,21.578,0,0,1,1.913,9.712Zm.63-5.07a1.269,1.269,0,0,0-1.18.631,1.8,1.8,0,0,0-.223.652A2.425,2.425,0,0,0,1.4,6.963a1.119,1.119,0,0,0,1,.774c.66,0,1.071-.384,1.22-1.14.029-.793.041-1.2.041-1.221C3.662,4.889,3.285,4.642,2.543,4.642Z" transform="translate(5.004 17.551)" fill="#7aa6bc"/>
          </g>
        </g>
        <path id="Path-60" data-name="Path" d="M8.989,3.461a11.44,11.44,0,0,0,1.5,1.922A8.844,8.844,0,0,1,11.9,7.346a11.534,11.534,0,0,1,.74,1.828,7.31,7.31,0,0,0,.818,1.788c.366.521.671,1.006.924,1.446l-4.516-1.5q-.873.324-1.294.513a2.608,2.608,0,0,0-1.046.9,4,4,0,0,0,.037.912l.151.876,5.021,2.056a5.2,5.2,0,0,0-1.066,1.486,16.765,16.765,0,0,1-1.558,2.077c-.179.09-.59.318-1.237.684-.509.293-.919.533-1.237.725C6.9,21.082,6.348,21.037,5.978,21a7.648,7.648,0,0,1-1.6-.305,19.012,19.012,0,0,1-1.522-2.056C2.174,17.592,1.69,16.9,1.413,16.541A10.407,10.407,0,0,1,.29,14.753,2.877,2.877,0,0,1,.119,12.7a21.1,21.1,0,0,0,.4-3.787C.542,7.208.563,5.941.575,5.1A12.17,12.17,0,0,1,2.418,2.325,5.938,5.938,0,0,1,4.359.953Q5.079.611,6.527,0A17.544,17.544,0,0,1,8.989,3.461Z" transform="translate(26.558 131.413)" fill="#fed8c7"/>
      </g>
      <path id="Path-61" data-name="Path" d="M11,10.106q0,2.585-1.622,3.5-1.607.942-3.878-.343A10.689,10.689,0,0,1,1.605,9.217,10.449,10.449,0,0,1,0,3.9Q0,1.318,1.605.378,3.225-.533,5.5.75A10.62,10.62,0,0,1,9.378,4.763,10.551,10.551,0,0,1,11,10.106Z" transform="translate(43 238.5)" fill="#404040"/>
      <path id="Path-62" data-name="Path" d="M1.044,2.8,8.168.162A1.442,1.442,0,0,1,10.234.91l1.592,3.446q.6,1.294-.873,1.84L3.829,8.838A1.442,1.442,0,0,1,1.763,8.09L.171,4.644Q-.421,3.35,1.044,2.8Z" transform="translate(23 72.5)" fill="#fff"/>
    </g>
  </g>
</svg>
