<svg width="26" height="26" viewBox="0 0 26 26" fill="none" xmlns="http://www.w3.org/2000/svg">
<path d="M25.5549 4.65045C25.3182 2.43314 23.5671 0.68158 21.3495 0.445129C15.7886 -0.148376 10.2114 -0.148376 4.65065 0.445129C2.43314 0.681778 0.681778 2.43314 0.445129 4.65045C-0.148376 10.2112 -0.148376 15.7886 0.445129 21.3493C0.681778 23.5669 2.43314 25.3182 4.65045 25.5549C10.2112 26.1484 15.7886 26.1484 21.3495 25.5549C23.5671 25.3182 25.3182 23.5669 25.5549 21.3493C26.1484 15.7886 26.1484 10.2114 25.5549 4.65045Z" fill="url(#paint0_radial)"/>
<path d="M24.1404 5.5909C23.9305 3.62333 22.3765 2.06915 20.4087 1.85908C15.4742 1.33262 10.525 1.33262 5.59054 1.85908C3.62296 2.06915 2.06878 3.62333 1.85871 5.5909C1.33225 10.5254 1.33225 15.4746 1.85871 20.4089C2.06878 22.3767 3.62296 23.9309 5.59054 24.1407C10.525 24.6674 15.4742 24.6674 20.4085 24.1407C22.3763 23.9309 23.9305 22.3767 24.1404 20.4089C24.667 15.4746 24.667 10.5254 24.1404 5.5909Z" fill="url(#paint1_linear)"/>
<path d="M0.389648 20.8104C0.407501 20.9901 0.425949 21.1699 0.44519 21.3496C0.681839 23.5669 2.4332 25.3183 4.65071 25.5549C10.2115 26.1484 15.7889 26.1484 21.3496 25.5549C23.5671 25.3183 25.3183 23.5669 25.5549 21.3496C25.5742 21.1699 25.5926 20.9901 25.6107 20.8104H0.389648Z" fill="url(#paint2_linear)"/>
<path d="M25.5552 21.3494C25.8742 18.3614 26.0213 15.3687 25.9975 12.3764L20.0546 6.43336C19.3121 5.58575 18.2276 5.05671 16.9533 5.01089C14.3327 4.91647 11.7038 4.92123 9.08282 5.01129C6.90598 5.08627 5.38373 6.5494 4.99335 8.69987C4.92451 9.07954 4.88325 9.46417 4.8291 9.84661V16.151C4.85905 16.3553 4.90309 16.5587 4.91678 16.7642C5.00406 18.0722 5.54163 19.1925 6.40233 19.9505L12.4501 25.998C15.418 26.0189 18.3861 25.8713 21.3499 25.5549C23.5674 25.3182 25.3185 23.5669 25.5552 21.3494Z" fill="url(#paint3_linear)"/>
<path d="M25.5547 21.3495C25.3182 23.5666 23.5665 25.3184 21.3493 25.5548C18.386 25.871 15.4173 26.0188 12.4497 25.998L6.41113 19.9594C7.11116 20.5721 8.02364 20.9452 9.0825 20.9851C11.7029 21.0835 14.3324 21.0809 16.9528 20.9865C19.3229 20.9008 21.0379 19.1467 21.1119 16.7766C21.1909 14.2601 21.1909 11.7372 21.1119 9.2207C21.0782 8.12732 20.6944 7.16525 20.058 6.43726L25.9972 12.3765C26.0206 15.3684 25.8734 18.3615 25.5547 21.3495Z" fill="url(#paint4_linear)"/>
<path d="M16.0683 10.1846C15.307 9.35568 14.2146 8.83557 13.0004 8.83557C10.7006 8.83557 8.83594 10.7002 8.83594 13C8.83594 14.2142 9.35605 15.3066 10.185 16.0679L19.8202 25.7031C20.3302 25.6586 20.8401 25.6093 21.3497 25.5549C23.5673 25.3183 25.3186 23.5669 25.5553 21.3494C25.6096 20.8398 25.659 20.3298 25.7034 19.8198L16.0683 10.1846Z" fill="url(#paint5_linear)"/>
<path d="M25.9498 15.8007L18.1953 8.04648C18.0144 7.80904 17.7294 7.65491 17.4078 7.65491C16.8607 7.65491 16.417 8.09845 16.417 8.64574C16.417 8.96729 16.5711 9.25233 16.8086 9.43324L25.8111 18.436C25.8722 17.5578 25.9184 16.6793 25.9498 15.8007Z" fill="url(#paint6_linear)"/>
<path d="M4.8291 9.84661C4.88325 9.46417 4.92451 9.07954 4.99335 8.69987C5.38353 6.5494 6.90598 5.08627 9.08282 5.01129C11.7038 4.92123 14.3327 4.91647 16.9533 5.01089C19.3226 5.09619 21.0384 6.85052 21.1124 9.22058C21.1912 11.7372 21.1912 14.26 21.1124 16.7767C21.0384 19.1467 19.3232 20.9009 16.9535 20.9864C14.3329 21.081 11.7034 21.0834 9.08302 20.985C6.71336 20.8959 5.07527 19.1376 4.91678 16.764C4.90309 16.5587 4.85905 16.3551 4.8291 16.1508C4.8291 14.0494 4.8291 11.9479 4.8291 9.84661ZM13.0025 19.5817C14.2018 19.5817 15.4023 19.6176 16.6 19.5734C18.478 19.5038 19.633 18.383 19.6769 16.5069C19.7312 14.1692 19.7312 11.8283 19.6769 9.49035C19.633 7.61462 18.4772 6.46768 16.6 6.42781C14.2175 6.37742 11.8324 6.37782 9.4498 6.42781C7.58696 6.46688 6.42851 7.59062 6.37793 9.44572C6.31366 11.813 6.31366 14.1844 6.37793 16.5517C6.42851 18.4066 7.58696 19.5044 9.45 19.5734C10.6326 19.6174 11.8183 19.5817 13.0025 19.5817Z" fill="url(#paint7_linear)"/>
<path d="M4.8291 9.84661C4.88325 9.46417 4.92451 9.07954 4.99335 8.69987C5.38353 6.5494 6.90598 5.08627 9.08282 5.01129C11.7038 4.92123 14.3327 4.91647 16.9533 5.01089C19.3226 5.09619 21.0384 6.85052 21.1124 9.22058C21.1912 11.7372 21.1912 14.26 21.1124 16.7767C21.0384 19.1467 19.3232 20.9009 16.9535 20.9864C14.3329 21.081 11.7034 21.0834 9.08302 20.985C6.71336 20.8959 5.07527 19.1376 4.91678 16.764C4.90309 16.5587 4.85905 16.3551 4.8291 16.1508C4.8291 14.0494 4.8291 11.9479 4.8291 9.84661ZM13.0025 19.5817C14.2018 19.5817 15.4023 19.6176 16.6 19.5734C18.478 19.5038 19.633 18.383 19.6769 16.5069C19.7312 14.1692 19.7312 11.8283 19.6769 9.49035C19.633 7.61462 18.4772 6.46768 16.6 6.42781C14.2175 6.37742 11.8324 6.37782 9.4498 6.42781C7.58696 6.46688 6.42851 7.59062 6.37793 9.44572C6.31366 11.813 6.31366 14.1844 6.37793 16.5517C6.42851 18.4066 7.58696 19.5044 9.45 19.5734C10.6326 19.6174 11.8183 19.5817 13.0025 19.5817Z" fill="white"/>
<path d="M13.0004 8.83582C10.7006 8.83582 8.83594 10.7002 8.83594 13.0001C8.83594 15.3001 10.7006 17.1645 13.0004 17.1645C15.3004 17.1645 17.1649 15.3001 17.1649 13.0001C17.1649 10.7002 15.3004 8.83582 13.0004 8.83582ZM13.0004 15.7308C11.4922 15.7308 10.2697 14.5082 10.2697 13.0001C10.2697 11.4919 11.4922 10.2694 13.0004 10.2694C14.5086 10.2694 15.7311 11.4919 15.7311 13.0001C15.7311 14.5082 14.5086 15.7308 13.0004 15.7308Z" fill="white"/>
<path d="M18.3985 8.64574C18.3985 9.19283 17.9549 9.63637 17.4078 9.63637C16.8607 9.63637 16.417 9.19283 16.417 8.64574C16.417 8.09845 16.8607 7.65491 17.4078 7.65491C17.9549 7.65491 18.3985 8.09845 18.3985 8.64574Z" fill="white"/>
<defs>
<radialGradient id="paint0_radial" cx="0" cy="0" r="1" gradientUnits="userSpaceOnUse" gradientTransform="translate(5.32985 22.7219) scale(28.6734)">
<stop stop-color="#FAE100"/>
<stop offset="0.0544" stop-color="#FADC04"/>
<stop offset="0.1167" stop-color="#FBCE0E"/>
<stop offset="0.1829" stop-color="#FCB720"/>
<stop offset="0.2514" stop-color="#FE9838"/>
<stop offset="0.3054" stop-color="#FF7950"/>
<stop offset="0.4922" stop-color="#FF1C74"/>
<stop offset="1" stop-color="#6C1CD1"/>
</radialGradient>
<linearGradient id="paint1_linear" x1="9.97169" y1="11.2968" x2="-34.0754" y2="-13.4797" gradientUnits="userSpaceOnUse">
<stop stop-color="#A1B5D8" stop-opacity="0"/>
<stop offset="0.3094" stop-color="#90A2BD" stop-opacity="0.309804"/>
<stop offset="0.7554" stop-color="#7C8B9C" stop-opacity="0.756863"/>
<stop offset="1" stop-color="#748290"/>
</linearGradient>
<linearGradient id="paint2_linear" x1="13.0001" y1="22.9514" x2="13.0001" y2="27.0042" gradientUnits="userSpaceOnUse">
<stop stop-color="#FAE100" stop-opacity="0"/>
<stop offset="0.3068" stop-color="#FCA800" stop-opacity="0.305882"/>
<stop offset="0.6275" stop-color="#FE7300" stop-opacity="0.627451"/>
<stop offset="0.8685" stop-color="#FF5200" stop-opacity="0.866667"/>
<stop offset="1" stop-color="#FF4500"/>
</linearGradient>
<linearGradient id="paint3_linear" x1="11.5212" y1="11.4841" x2="5.08661" y2="5.0495" gradientUnits="userSpaceOnUse">
<stop stop-color="#833AB4" stop-opacity="0"/>
<stop offset="1" stop-color="#833AB4"/>
</linearGradient>
<linearGradient id="paint4_linear" x1="17.8189" y1="23.7802" x2="14.6073" y2="8.63974" gradientUnits="userSpaceOnUse">
<stop stop-color="#833AB4" stop-opacity="0"/>
<stop offset="1" stop-color="#833AB4"/>
</linearGradient>
<linearGradient id="paint5_linear" x1="19.0416" y1="19.0412" x2="6.14194" y2="6.14156" gradientUnits="userSpaceOnUse">
<stop stop-color="#833AB4" stop-opacity="0"/>
<stop offset="1" stop-color="#833AB4"/>
</linearGradient>
<linearGradient id="paint6_linear" x1="19.9982" y1="11.236" x2="15.7325" y2="6.97038" gradientUnits="userSpaceOnUse">
<stop stop-color="#833AB4" stop-opacity="0"/>
<stop offset="1" stop-color="#833AB4"/>
</linearGradient>
<linearGradient id="paint7_linear" x1="18.1627" y1="7.87362" x2="7.64506" y2="18.3912" gradientUnits="userSpaceOnUse">
<stop stop-color="#833AB4"/>
<stop offset="0.0922" stop-color="#9C3495"/>
<stop offset="0.2927" stop-color="#DC2546"/>
<stop offset="0.392" stop-color="#FD1D1D"/>
<stop offset="0.5589" stop-color="#FC6831"/>
<stop offset="0.6887" stop-color="#FC9B40"/>
<stop offset="0.7521" stop-color="#FCAF45"/>
<stop offset="0.7806" stop-color="#FDB750"/>
<stop offset="0.8656" stop-color="#FECB6A"/>
<stop offset="0.9415" stop-color="#FFD87A"/>
<stop offset="1" stop-color="#FFDC80"/>
</linearGradient>
</defs>
</svg>
