<?xml version="1.0" encoding="UTF-8"?>
<svg width="303px" height="268px" viewBox="0 0 303 268" version="1.1" xmlns="http://www.w3.org/2000/svg" xmlns:xlink="http://www.w3.org/1999/xlink">
    <!-- Generator: Sketch 63.1 (92452) - https://sketch.com -->
    <title>Image</title>
    <desc>Created with Sketch.</desc>
    <g id="Page-2" stroke="none" stroke-width="1" fill="none" fill-rule="evenodd">
        <g id="Splash-Screen-1" transform="translate(-29.000000, -185.000000)">
            <g id="Image" transform="translate(29.276281, 185.000000)">
                <g>
                    <path d="M241.915318,137.26608 C332.826511,232.804473 341.723719,292 120.957659,258.248323 C54.4316945,248.077544 2.84217094e-14,204.08273 2.84217094e-14,137.26608 C2.84217094e-14,70.4494304 54.15459,16.2838376 120.957659,16.2838376 C187.760728,16.2838376 195.859975,88.8666168 241.915318,137.26608 Z" id="Path" fill="#F7B500" fill-rule="nonzero" opacity="0.200000003"></path>
                    <g id="Group" transform="translate(52.723719, 33.000000)">
                        <path d="M146.065341,0 L50.935423,0 C45.4481723,0 41,4.46175002 41,9.96575014 L41,204.035016 C41,209.53825 45.4481723,214 50.935423,214 L146.065341,214 C151.551828,214 156,209.53825 156,204.035016 L156,9.96575014 C156,4.46175002 151.551828,0 146.065341,0" id="Fill-31" fill="#51437E"></path>
                        <polygon id="Fill-32" fill="#FFFFFF" points="50 185 147 185 147 19 50 19"></polygon>
                        <g id="lines" opacity="0.600000024" transform="translate(57.000000, 36.000000)">
                            <rect id="Rectangle-Copy-2" fill="#8C52FF" x="0" y="2" width="80" height="10"></rect>
                            <rect id="Rectangle-Copy-3" fill="#F52EBF" x="2" y="21" width="72" height="5"></rect>
                            <rect id="Rectangle-Copy-4" fill="#646464" x="2" y="30" width="64" height="3"></rect>
                            <rect id="Rectangle-Copy-6" fill="#F7B500" x="3" y="43" width="58" height="3"></rect>
                            <rect id="Rectangle-Copy-7" fill="#239BD9" x="3" y="51" width="64" height="5"></rect>
                            <rect id="Rectangle-Copy-8" fill="#646464" x="3" y="66" width="18" height="5"></rect>
                        </g>
                        <path d="M107,199 C107,203.970378 103.194416,208 98.4996197,208 C93.8055841,208 90,203.970378 90,199 C90,194.028817 93.8055841,190 98.4996197,190 C103.194416,190 107,194.028817 107,199" id="Fill-33" fill="#F1F2F2"></path>
                        <path d="M98.7080651,9 L75.2911776,9 C74.5778114,9 74,8.55249267 74,8 C74,7.44750733 74.5778114,7 75.2911776,7 L98.7080651,7 C99.4214313,7 100,7.44750733 100,8 C100,8.55249267 99.4214313,9 98.7080651,9" id="Fill-34" fill="#F1F2F2"></path>
                        <path d="M119.329124,125 L78.6697077,125 C72.7774113,125 68,129.029571 68,134.000493 C68,138.970429 72.7774113,143 78.6697077,143 L119.329124,143 C125.222589,143 130,138.970429 130,134.000493 C130,129.029571 125.222589,125 119.329124,125" id="Fill-38" fill="#B5B5B5"></path>
                        <path d="M118.829124,147 L78.1697077,147 C72.2774113,147 67.5,151.029571 67.5,156.000493 C67.5,160.970429 72.2774113,165 78.1697077,165 L118.829124,165 C124.722589,165 129.5,160.970429 129.5,156.000493 C129.5,151.029571 124.722589,147 118.829124,147" id="Fill-42" fill="#E02424"></path>
                        <text id="CANCEL" font-family="SourceSansPro-Bold, Source Sans Pro" font-size="9" font-weight="bold" fill="#FFFFFF">
                            <tspan x="82.394" y="159">CANCEL</tspan>
                        </text>
                        <text id="subscribe" font-family="SourceSansPro-Bold, Source Sans Pro" font-size="9" font-weight="bold" fill="#FFFFFF">
                            <tspan x="76.9415" y="137">SUBSCRIBE</tspan>
                        </text>
                    </g>
                    <g id="Group-2" transform="translate(45.723719, 0.000000)">
                        <path d="M74,19.5 C74,21.985021 71.985021,24 69.5,24 C67.014979,24 65,21.985021 65,19.5 C65,17.014979 67.014979,15 69.5,15 C71.985021,15 74,17.014979 74,19.5" id="Fill-67" fill="#CDE600"></path>
                        <path d="M64,5.49996284 C64,8.53717478 61.5372247,11 58.5,11 C55.4627753,11 53,8.53717478 53,5.49996284 C53,2.46245364 55.4627753,0 58.5,0 C61.5372247,0 64,2.46245364 64,5.49996284" id="Fill-68" fill="#7564AB"></path>
                        <path d="M81,12 C81,13.6567402 79.8812816,15 78.5,15 C77.1193831,15 76,13.6567402 76,12 C76,10.3432598 77.1193831,9 78.5,9 C79.8812816,9 81,10.3432598 81,12" id="Fill-69" fill="#043D4F"></path>
                        <path d="M167.424657,80.9539507 C166.345389,81.188517 165.279957,80.503926 165.046049,79.4246573 C164.811483,78.3453886 165.496074,77.2799568 166.575343,77.0460493 C167.654611,76.811483 168.719384,77.496074 168.953951,78.5753427 C169.188517,79.6546114 168.503926,80.7193843 167.424657,80.9539507" id="Fill-70" fill="#F7B500"></path>
                        <path d="M179.060811,69.885068 C176.363298,70.4709758 173.70084,68.7591568 173.114932,66.0616439 C172.529024,63.3632964 174.240843,60.7016725 176.938356,60.1149301 C179.636704,59.5290223 182.298327,61.2408412 182.88507,63.9391887 C183.470978,66.6367016 181.759159,69.2991602 179.060811,69.885068" id="Fill-71" fill="#E02424"></path>
                        <path d="M186.636487,220.931041 C185.017979,221.282585 183.420504,220.255494 183.068959,218.636986 C182.717415,217.017978 183.744506,215.421004 185.363014,215.068958 C186.982022,214.717413 188.578996,215.744505 188.931042,217.363513 C189.282587,218.982021 188.255495,220.579496 186.636487,220.931041" id="Fill-71-Copy" fill="#E02424"></path>
                        <path d="M190,160 C190,161.65674 188.880617,163 187.5,163 C186.119383,163 185,161.65674 185,160 C185,158.34326 186.119383,157 187.5,157 C188.880617,157 190,158.34326 190,160" id="Fill-72" fill="#7564AB"></path>
                        <path d="M203,152.000266 C203,152.552247 202.552247,153 201.999734,153 C201.447221,153 201,152.552247 201,152.000266 C201,151.447753 201.447221,151 201.999734,151 C202.552247,151 203,151.447753 203,152.000266" id="Fill-73" fill="#F7B500"></path>
                        <path d="M217.455143,173.896535 C215.02721,174.423976 212.630905,172.882987 212.103465,170.455143 C211.576024,168.0273 213.117013,165.630905 215.544857,165.103465 C217.9727,164.576024 220.369095,166.117013 220.896535,168.544857 C221.423976,170.9727 219.882987,173.369095 217.455143,173.896535" id="Fill-74" fill="#7564AB"></path>
                        <path d="M38,81 C38,82.6567402 36.8806169,84 35.5,84 C34.1193831,84 33,82.6567402 33,81 C33,79.3432598 34.1193831,78 35.5,78 C36.8806169,78 38,79.3432598 38,81" id="Fill-72" fill="#E02424"></path>
                        <path d="M5.4551435,124.896535 C3.02721006,125.423976 0.630905074,123.882987 0.10346459,121.455143 C-0.423975893,119.0273 1.11701291,116.630905 3.5448565,116.103465 C5.97270009,115.576024 8.36909493,117.117013 8.89653541,119.544857 C9.42397589,121.9727 7.88298709,124.369095 5.4551435,124.896535" id="Fill-74" fill="#239BD9"></path>
                        <path d="M205.455143,114.896535 C203.02721,115.423976 200.630905,113.882987 200.103465,111.455143 C199.576024,109.0273 201.117013,106.630905 203.544857,106.103465 C205.9727,105.576024 208.369095,107.117013 208.896535,109.544857 C209.423976,111.9727 207.882987,114.369095 205.455143,114.896535" id="Fill-74" fill="#CDE600"></path>
                        <path d="M15.7735247,66.3620472 C12.5362801,67.0653012 9.34120677,65.0106494 8.63795279,61.7735247 C7.93469881,58.5363999 9.98935055,55.3412068 13.2264753,54.6379528 C16.4636001,53.9346988 19.6587932,55.9893506 20.3620472,59.2264753 C21.0653012,62.4636001 19.0106494,65.6587932 15.7735247,66.3620472" id="Fill-74-Copy" fill="#F7B500"></path>
                    </g>
                </g>
            </g>
        </g>
    </g>
</svg>