<svg height="268" viewBox="0 0 303 268" width="303" xmlns="http://www.w3.org/2000/svg"><g fill="none" fill-rule="evenodd" transform="translate(.276281)"><path d="m241.915318 137.26608c90.911193 95.538393 99.808401 154.73392-120.957659 120.982243-66.5259645-10.170779-120.957659-54.165593-120.957659-120.982243 0-66.8166496 54.15459-120.9822424 120.957659-120.9822424s74.902316 72.5827792 120.957659 120.9822424z" fill="#f7b500" fill-rule="nonzero" opacity=".2"/><g transform="translate(52.723719 33)"><path d="m146.065341 0h-95.129918c-5.4872507 0-9.935423 4.46175002-9.935423 9.96575014v194.06926586c0 5.503234 4.4481723 9.964984 9.935423 9.964984h95.129918c5.486487 0 9.934659-4.46175 9.934659-9.964984v-194.06926586c0-5.50400012-4.448172-9.96575014-9.934659-9.96575014" fill="#51437e"/><path d="m50 185h97v-166h-97z" fill="#fff"/><g opacity=".6"><path d="m57 38h80v10h-80z" fill="#8c52ff"/><path d="m59 57h72v5h-72z" fill="#f52ebf"/><path d="m59 66h64v3h-64z" fill="#646464"/><path d="m60 79h58v3h-58z" fill="#f7b500"/><path d="m60 87h64v5h-64z" fill="#239bd9"/><path d="m60 102h18v5h-18z" fill="#646464"/></g><path d="m107 199c0 4.970378-3.805584 9-8.5003803 9-4.6940356 0-8.4996197-4.029622-8.4996197-9 0-4.971183 3.8055841-9 8.4996197-9 4.6947963 0 8.5003803 4.028817 8.5003803 9" fill="#f1f2f2"/><path d="m98.7080651 9h-23.4168875c-.7133662 0-1.2911776-.44750733-1.2911776-1s.5778114-1 1.2911776-1h23.4168875c.7133662 0 1.2919349.44750733 1.2919349 1s-.5785687 1-1.2919349 1" fill="#f1f2f2"/><path d="m115.878122 127h-34.7572429c-5.036963 0-9.1208791 3.134111-9.1208791 7.000383 0 3.865506 4.0839161 6.999617 9.1208791 6.999617h34.7572429c5.037962 0 9.121878-3.134111 9.121878-6.999617 0-3.866272-4.083916-7.000383-9.121878-7.000383" fill="#b5b5b5"/><path d="m115.878122 149h-34.7572429c-5.036963 0-9.1208791 3.134111-9.1208791 7.000383 0 3.865506 4.0839161 6.999617 9.1208791 6.999617h34.7572429c5.037962 0 9.121878-3.134111 9.121878-6.999617 0-3.866272-4.083916-7.000383-9.121878-7.000383" fill="#e02424"/><g fill="#fff" font-family="SourceSansPro-Bold, Source Sans Pro" font-size="9" font-weight="bold"><text><tspan x="82.394" y="159">CANCEL</tspan></text><text><tspan x="84.1585" y="137">RENEW</tspan></text></g></g><g transform="translate(45.723719)"><path d="m74 19.5c0 2.485021-2.014979 4.5-4.5 4.5s-4.5-2.014979-4.5-4.5 2.014979-4.5 4.5-4.5 4.5 2.014979 4.5 4.5" fill="#cde600"/><path d="m64 5.49996284c0 3.03721194-2.4627753 5.50003716-5.5 5.50003716s-5.5-2.46282522-5.5-5.50003716c0-3.0375092 2.4627753-5.49996284 5.5-5.49996284s5.5 2.46245364 5.5 5.49996284" fill="#7564ab"/><path d="m81 12c0 1.6567402-1.1187184 3-2.5 3-1.3806169 0-2.5-1.3432598-2.5-3s1.1193831-3 2.5-3c1.3812816 0 2.5 1.3432598 2.5 3" fill="#043d4f"/><path d="m167.424657 80.9539507c-1.079268.2345663-2.1447-.4500247-2.378608-1.5292934-.234566-1.0792687.450025-2.1447005 1.529294-2.378608 1.079268-.2345663 2.144041.4500247 2.378608 1.5292934.234566 1.0792687-.450025 2.1440416-1.529294 2.378608" fill="#f7b500"/><path d="m179.060811 69.885068c-2.697513.5859078-5.359971-1.1259112-5.945879-3.8234241-.585908-2.6983475 1.125911-5.3599714 3.823424-5.9467138 2.698348-.5859078 5.359971 1.1259111 5.946714 3.8242586.585908 2.6975129-1.125911 5.3599715-3.824259 5.9458793" fill="#e02424"/><path d="m186.636487 220.931041c-1.618508.351544-3.215983-.675547-3.567528-2.294055-.351544-1.619008.675547-3.215982 2.294055-3.568028 1.619008-.351545 3.215982.675547 3.568028 2.294555.351545 1.618508-.675547 3.215983-2.294555 3.567528" fill="#e02424"/><path d="m190 160c0 1.65674-1.119383 3-2.5 3s-2.5-1.34326-2.5-3 1.119383-3 2.5-3 2.5 1.34326 2.5 3" fill="#7564ab"/><path d="m203 152.000266c0 .551981-.447753.999734-1.000266.999734s-.999734-.447753-.999734-.999734c0-.552513.447221-1.000266.999734-1.000266s1.000266.447753 1.000266 1.000266" fill="#f7b500"/><path d="m217.455143 173.896535c-2.427933.527441-4.824238-1.013548-5.351678-3.441392-.527441-2.427843 1.013548-4.824238 3.441392-5.351678 2.427843-.527441 4.824238 1.013548 5.351678 3.441392.527441 2.427843-1.013548 4.824238-3.441392 5.351678" fill="#7564ab"/><path d="m38 81c0 1.6567402-1.1193831 3-2.5 3s-2.5-1.3432598-2.5-3 1.1193831-3 2.5-3 2.5 1.3432598 2.5 3" fill="#e02424"/><path d="m5.4551435 124.896535c-2.42793344.527441-4.82423843-1.013548-5.35167891-3.441392-.52744048-2.427843 1.01354832-4.824238 3.44139191-5.351678 2.42784359-.527441 4.82423843 1.013548 5.35167891 3.441392.52744048 2.427843-1.01354832 4.824238-3.44139191 5.351678" fill="#239bd9"/><path d="m205.455143 114.896535c-2.427933.527441-4.824238-1.013548-5.351678-3.441392-.527441-2.427843 1.013548-4.824238 3.441392-5.351678 2.427843-.527441 4.824238 1.013548 5.351678 3.441392.527441 2.427843-1.013548 4.824238-3.441392 5.351678" fill="#cde600"/><path d="m15.7735247 66.3620472c-3.2372446.703254-6.43231793-1.3513978-7.13557191-4.5885225-.70325398-3.2371248 1.35139776-6.4323179 4.58852251-7.1355719 3.2371248-.703254 6.4323179 1.3513978 7.1355719 4.5885225.703254 3.2371248-1.3513978 6.4323179-4.5885225 7.1355719" fill="#f7b500"/></g></g></svg>