<svg width="26" height="26" viewBox="0 0 26 26" fill="none" xmlns="http://www.w3.org/2000/svg">
<path d="M26 0H0V26H26V0Z" fill="#0084B1"/>
<path d="M6.11993 3.94885C7.31076 3.94982 8.2929 4.93338 8.29033 6.13015C8.28748 7.38327 7.24755 8.32775 6.10527 8.30054C4.94668 8.32399 3.92848 7.35629 3.92871 6.12187C3.92871 4.92466 4.91467 3.94794 6.11993 3.94885Z" fill="white"/>
<path d="M7.38531 22.0485H4.83393C4.5028 22.0485 4.23438 21.7801 4.23438 21.449V10.5646C4.23438 10.2335 4.5028 9.96509 4.83393 9.96509H7.38531C7.71643 9.96509 7.98486 10.2335 7.98486 10.5646V21.4491C7.9848 21.7801 7.71643 22.0485 7.38531 22.0485Z" fill="white"/>
<path d="M22.0722 13.7883C22.0722 11.5064 20.2224 9.65662 17.9405 9.65662H17.2862C16.0378 9.65662 14.9349 10.2795 14.2715 11.2316C14.1991 11.3353 14.1321 11.4431 14.0706 11.5544C14.0494 11.5512 14.0368 11.5495 14.0365 11.5501V10.2141C14.0365 10.0766 13.925 9.96515 13.7876 9.96515H10.6044C10.4669 9.96515 10.3555 10.0766 10.3555 10.2141V21.7998C10.3555 21.9373 10.4668 22.0487 10.6043 22.0488L13.8568 22.0496C13.9943 22.0496 14.1058 21.9381 14.1058 21.8006V15.1072C14.1058 13.9502 15.0286 12.9895 16.1855 12.9765C16.7761 12.9698 17.3116 13.2065 17.6974 13.5926C18.0783 13.9732 18.3137 14.4994 18.3137 15.0804V21.8015C18.3137 21.9389 18.4251 22.0504 18.5625 22.0504L21.8231 22.0512C21.9606 22.0513 22.0721 21.9398 22.0721 21.8023V13.7883H22.0722Z" fill="white"/>
</svg>
