<svg width="20" height="20" viewBox="0 0 20 20" fill="none" xmlns="http://www.w3.org/2000/svg">
<path d="M7.86111 1H1V18.5H7.86111" stroke="white" stroke-width="1.5" stroke-linecap="round" stroke-linejoin="round"/>
<path d="M16.5594 8.71308L17.613 9.59627H16.2382L6.01912 9.59627C5.92979 9.59627 5.84336 9.63079 5.78366 9.68083C5.75491 9.70493 5.73819 9.72777 5.72972 9.74384C5.72563 9.75161 5.72377 9.75716 5.72295 9.7603L5.72229 9.76348L5.72223 9.76408L5.72222 9.7642L5.72222 9.76424V10.2358L5.72222 10.2358L5.72223 10.2359L5.72229 10.2365L5.72295 10.2397C5.72377 10.2428 5.72563 10.2484 5.72972 10.2562C5.73819 10.2722 5.75491 10.2951 5.78366 10.3192C5.84336 10.3692 5.92979 10.4037 6.01912 10.4037L16.2382 10.4037H17.613L16.5594 11.2869L13.4186 13.9195C13.3814 13.9508 13.3646 13.9759 13.3576 13.9896C13.3541 13.9965 13.3526 14.0011 13.352 14.0036C13.3514 14.006 13.3514 14.0073 13.3514 14.0079C13.3514 14.0084 13.3514 14.0097 13.352 14.0121C13.3526 14.0146 13.3541 14.0192 13.3576 14.0261C13.3646 14.0398 13.3814 14.065 13.4186 14.0962L13.7937 14.4105C13.936 14.5298 14.134 14.5298 14.2763 14.4105L19.4327 10.0883C19.47 10.0571 19.4867 10.0319 19.4938 10.0183C19.4973 10.0114 19.4988 10.0067 19.4994 10.0043C19.5 10.0019 19.5 10.0006 19.5 10C19.5 9.99942 19.5 9.99813 19.4994 9.99573C19.4988 9.99329 19.4973 9.98862 19.4938 9.98173C19.4867 9.96806 19.47 9.9429 19.4327 9.91168L14.2763 5.58948C14.134 5.47018 13.936 5.47018 13.7937 5.58948L13.4186 5.90382C13.3814 5.93504 13.3646 5.9602 13.3576 5.97388C13.3541 5.98076 13.3526 5.98543 13.352 5.98787C13.3514 5.99027 13.3514 5.99156 13.3514 5.99214C13.3514 5.99247 13.3514 5.99301 13.3515 5.99385C13.3516 5.99451 13.3517 5.99535 13.352 5.99641C13.3526 5.99886 13.3541 6.00353 13.3576 6.01041C13.3646 6.02408 13.3814 6.04924 13.4186 6.08047L16.5594 8.71308Z" fill="#F5F5F5" stroke="white"/>
</svg>
