<svg width="58" height="60" viewBox="0 0 58 60" fill="none" xmlns="http://www.w3.org/2000/svg">
<path d="M55.0108 30.7772C54.7694 30.2832 54.7694 29.7167 55.0108 29.2229L57.2486 24.645C58.4945 22.0961 57.5073 19.058 55.0012 17.7283L50.5 15.34C50.0144 15.0824 49.6815 14.624 49.5865 14.0827L48.7061 9.06371C48.216 6.26927 45.631 4.39147 42.8224 4.78885L37.7772 5.50252C37.2326 5.57939 36.6941 5.40431 36.2991 5.02217L32.6369 1.47937C30.5977 -0.493351 27.4032 -0.493468 25.3642 1.47937L21.7018 5.02252C21.3067 5.40478 20.7682 5.57951 20.2238 5.50287L15.1785 4.7892C12.369 4.39159 9.785 6.26962 9.29481 9.06406L8.4145 14.0828C8.31947 14.6242 7.98654 15.0825 7.50103 15.3402L2.99989 17.7285C0.49373 19.0581 -0.493452 22.0964 0.752478 24.6453L2.99016 29.2231C3.23157 29.7171 3.23157 30.2836 2.99016 30.7774L0.752361 35.3552C-0.49357 37.9041 0.493612 40.9422 2.99977 42.2719L7.50092 44.6602C7.98654 44.9177 8.31947 45.3762 8.4145 45.9175L9.29481 50.9365C9.74106 53.4804 11.9224 55.2644 14.4294 55.2642C14.6763 55.2642 14.9268 55.2468 15.1786 55.2112L20.2239 54.4975C20.768 54.4203 21.3068 54.5957 21.702 54.9779L25.3642 58.5207C26.3839 59.5072 27.692 60.0003 29.0005 60.0002C30.3086 60.0001 31.6175 59.5069 32.6368 58.5207L36.2991 54.9779C36.6943 54.5957 37.2328 54.4211 37.7772 54.4975L42.8224 55.2112C45.6323 55.6087 48.216 53.7308 48.7061 50.9363L49.5866 45.9176C49.6816 45.3762 50.0145 44.9179 50.5 44.6602L55.0012 42.2719C57.5073 40.9423 58.4945 37.904 57.2486 35.3551L55.0108 30.7772ZM22.0793 14.4276C25.5776 14.4276 28.4237 17.2737 28.4237 20.772C28.4237 24.2702 25.5776 27.1164 22.0793 27.1164C18.581 27.1164 15.7349 24.2702 15.7349 20.772C15.7349 17.2737 18.581 14.4276 22.0793 14.4276ZM18.8046 42.6427C18.4668 42.9805 18.0239 43.1495 17.5812 43.1495C17.1385 43.1495 16.6955 42.9806 16.3578 42.6427C15.6821 41.967 15.6821 40.8714 16.3578 40.1957L39.1962 17.3573C39.8718 16.6816 40.9675 16.6816 41.6432 17.3573C42.3189 18.033 42.3189 19.1285 41.6432 19.8042L18.8046 42.6427ZM35.9214 45.5726C32.4232 45.5726 29.577 42.7265 29.577 39.2282C29.577 35.7299 32.4232 32.8838 35.9214 32.8838C39.4197 32.8838 42.2658 35.7299 42.2658 39.2282C42.2658 42.7265 39.4197 45.5726 35.9214 45.5726Z" fill="#F6B401"/>
<path d="M28.6543 12C17.8173 12 9 20.8165 9 31.6535C9 42.4906 17.8165 51.3071 28.6543 51.3071C39.4914 51.3071 48.3079 42.4906 48.3079 31.6535C48.3079 20.8165 39.4914 12 28.6543 12Z" fill="#F6B401"/>
</svg>
