<svg id="play-store_copy" data-name="play-store copy" xmlns="http://www.w3.org/2000/svg" width="29.853" height="32.669" viewBox="0 0 29.853 32.669">
  <path id="Shape" d="M3.637,32.669a3.671,3.671,0,0,1-1.825-.485A3.593,3.593,0,0,1,0,29.078V3.591A3.593,3.593,0,0,1,1.812.485,3.678,3.678,0,0,1,5.442.473L28.021,13.217a3.569,3.569,0,0,1,0,6.236L5.442,32.2A3.682,3.682,0,0,1,3.637,32.669ZM3.493,2.187a1.447,1.447,0,0,0-.574.182,1.415,1.415,0,0,0-.713,1.222V29.078A1.415,1.415,0,0,0,2.919,30.3a1.438,1.438,0,0,0,.576.178L13.779,16.334ZM15.137,18.2,7.721,28.4l10.516-5.935Zm5.025-6.912-3.667,5.044,3.667,5.045,6.764-3.818a1.4,1.4,0,0,0,0-2.453ZM7.722,4.269h0l7.416,10.2,3.1-4.263Z" transform="translate(0 0)" fill="#fff"/>
</svg>
