<?xml version="1.0" encoding="UTF-8"?>
<svg width="28px" height="22px" viewBox="0 0 28 22" version="1.1" xmlns="http://www.w3.org/2000/svg" xmlns:xlink="http://www.w3.org/1999/xlink">
    <!-- Generator: Sketch 61 (89581) - https://sketch.com -->
    <title>noun_people_2196504</title>
    <desc>Created with Sketch.</desc>
    <g id="Page-2" stroke="none" stroke-width="1" fill="none" fill-rule="evenodd">
        <g id="Dashboard-Red-timer" transform="translate(-279.000000, -750.000000)" fill="#F7B500" fill-rule="nonzero">
            <g id="Tabs" transform="translate(0.000000, 700.000000)">
                <g id="Refer-a-Friend" transform="translate(254.000000, 47.000000)">
                    <g id="noun_people_2196504" transform="translate(25.000000, 1.000000)">
                        <path d="M13.49844,13 C8.81007976,13 5,17.1043811 5,22.169362 C4.99934975,22.7837662 5.05587093,23.3968082 5.16878661,24 L21.831219,24 C21.9426036,23.3965808 21.9991109,22.78369 22,22.169362 C22,17.1043811 18.1930515,13 13.49844,13 Z" id="Path"></path>
                        <ellipse id="Oval" transform="translate(13.919030, 7.038656) rotate(-29.970000) translate(-13.919030, -7.038656) " cx="13.9190298" cy="7.03865561" rx="4.88987607" ry="4.9927781"></ellipse>
                        <path d="M19.6880455,9.23562878 C21.4315898,10.5105784 23.8672505,10.1550782 25.1789455,8.43419699 C26.4906405,6.71331575 26.2004435,4.25406994 24.5247318,2.89012723 C22.84902,1.52618452 20.3983522,1.75450806 19,3.40485481 C20.2346544,5.0967868 20.4958803,7.31674898 19.6880455,9.25203501 L19.6880455,9.23562878 Z" id="Path"></path>
                        <path d="M21.3863508,10 C19.7582689,10.0034952 18.1915267,10.6750741 17,11.8801947 C17.1954315,11.9576937 17.3877609,12.0385623 17.5769882,12.1295395 C18.6846831,12.6658535 19.6848372,13.4328443 20.5208686,14.3871209 C21.6656454,15.6761194 22.4832675,17.2654319 22.893965,19 L27.857304,19 C27.948521,18.5050939 27.9963005,18.0019029 28,17.4971921 C28,13.3627855 25.0375071,10 21.3863508,10 Z" id="Path"></path>
                        <path d="M10.3021807,12.1362785 C10.5327103,12.0250842 10.7632399,11.9239985 11,11.8363909 C9.80866197,10.6576534 8.25322696,10.0027247 6.63862928,10 C2.97507788,10 0,13.3627855 0,17.4971921 C0.000636447137,18.0015816 0.0454893127,18.5047696 0.133956386,19 L4.95950156,19 C5.37277334,17.264803 6.19372063,15.6746165 7.34267913,14.3837514 C8.18449747,13.4333425 9.18981288,12.6698967 10.3021807,12.1362785 L10.3021807,12.1362785 Z" id="Path"></path>
                        <path d="M6.45603402,9.99015603 C7.13520612,9.99432539 7.80027306,9.76599392 8.36755361,9.33389115 C7.60826273,7.33675531 7.85073364,5.01949561 9,3.28969164 C7.92867356,1.94441972 6.20507956,1.61142257 4.81409572,2.48097787 C3.42311187,3.35053316 2.71921166,5.20104646 3.10461023,6.97511717 C3.49000881,8.74918789 4.86649255,9.99471801 6.44752578,10 L6.45603402,9.99015603 Z" id="Path"></path>
                    </g>
                </g>
            </g>
        </g>
    </g>
</svg>