<svg xmlns="http://www.w3.org/2000/svg" width="283" height="179" viewBox="0 0 283 179">
  <g id="Illustrator" transform="translate(-0.726 -0.163)">
    <path id="Fill_4" data-name="Fill 4" d="M11.185.189A132.326,132.326,0,0,1,.216,11.159a.6.6,0,0,0-.19.638L7.779,37.569a.6.6,0,0,0,1.148.019l7.041-20.952a.609.609,0,0,0,.015-.336L12.21.466A.6.6,0,0,0,11.185.189" transform="translate(94.726 16.163)" fill="#ecb544"/>
    <path id="Fill_5" data-name="Fill 5" d="M10.982,18.257,6.751.456a.584.584,0,0,0-.873-.37A32.011,32.011,0,0,1,.391,2.739a.6.6,0,0,0-.368.725L1.649,9.241a.606.606,0,0,0,.127.235l8.2,9.322a.589.589,0,0,0,1.01-.541" transform="translate(83.726 30.163)" fill="#ecb544"/>
    <path id="Fill_9" data-name="Fill 9" d="M55.916,40.319,49.561,25.894a.608.608,0,0,0-.632-.356c-9.643,1.17-19.354.5-27.247-4.732C14.04,15.737,9.04,6.948,2.917.2A.612.612,0,0,0,1.858.564L0,26.933a.575.575,0,0,0,.024.213L1.572,32.3a.613.613,0,0,0,1.157.041l2.777-7.264a.61.61,0,0,1,1.161.37L3.3,37.735a.6.6,0,0,0,0,.329L6.655,49.222a.614.614,0,0,0,1.038.233l4.759-5.18a.6.6,0,0,0,.151-.308l1.573-9.514a.611.611,0,0,1,1.213.12l-.381,10.034a.6.6,0,0,1-.083.281L8.717,55.418a.6.6,0,0,0-.057.475l4.51,15.017a.6.6,0,0,1,.017.271L9.817,91.138a.6.6,0,0,0,0,.2l6.57,39.156a.615.615,0,0,0,.864.452c2.848-1.317,5.619-2.81,8.276-4.364,9.617-5.626,19.038-12.282,29.81-14.887a.6.6,0,0,0,.464-.573L56,95a.6.6,0,0,0-.027-.185L48.186,69.891a.594.594,0,0,1-.006-.333l2.886-10.717a.6.6,0,0,0-.123-.543L39.759,45.173a.607.607,0,0,1,.885-.828l10.721,9.922a.614.614,0,0,0,1.008-.285l3.573-13.267a.6.6,0,0,0-.03-.4" transform="translate(147.726 10.163)" fill="#ecb544"/>
    <path id="Fill_10" data-name="Fill 10" d="M37.493.767A.61.61,0,0,0,36.905,0C27.08-.014,17.069,2.92,7.377,5.28,5.127,5.828,2.826,6.337.5,6.767a.6.6,0,0,0-.436.856L5.3,18.08a.615.615,0,0,0,.987.151l7.643-7.846a.608.608,0,0,1,.954.745L7.571,22.365a.607.607,0,0,0-.09.232L3.147,49.565a.6.6,0,0,0,.034.312L13.269,75.659a.589.589,0,0,1,.04.179l1.048,16.27a.6.6,0,0,0,.583.561C23.561,93,32.31,94.8,40.8,95a.612.612,0,0,0,.624-.56l3.171-39.157A.592.592,0,0,0,44.55,55l-8.5-20.02a.61.61,0,0,1,1.1-.528l7.009,12.423a.612.612,0,0,0,1.142-.246L46,37.96a.6.6,0,0,0-.021-.212L36.514,4.659a.591.591,0,0,1,0-.322L37.493.767" transform="translate(200.726 27.163)" fill="#ecb544"/>
    <path id="Fill_12" data-name="Fill 12" d="M75.627,19.225h0a.607.607,0,0,0,.643-1l-1.83-1.808a.605.605,0,0,1-.17-.319l-1.227-6.43A.6.6,0,0,0,72.3,9.2a19.829,19.829,0,0,1-11.991-.556C56.884,7.3,53.977,4.9,50.725,3.176,40.66-2.175,27.709-.47,18.376,6.081S3.175,23.417,1.045,34.646s-.8,22.889,2.123,33.938c3.815,14.441,10.6,28.512,21.784,38.374S52.2,121.838,66.4,117.333c7.644-2.427,14.644-7.438,22.171-9.677A.6.6,0,0,0,89,107.08V66.138a.61.61,0,0,0-.184-.436l-7.638-7.437a.607.607,0,0,1,.758-.941l6.122,4.107A.605.605,0,0,0,89,60.927V36.345a.609.609,0,0,0-.122-.365L78.435,22.061a.6.6,0,0,0-.213-.178l-3.084-1.549a.607.607,0,0,1,.488-1.11" transform="translate(9.726 25.163)" fill="#ecb544"/>
    <path id="Fill_13" data-name="Fill 13" d="M44.893,64.679,31.471,57.436a.613.613,0,0,1-.237-.229L26.822,49.66a.611.611,0,0,1,1.014-.676L32.7,55.243a.611.611,0,0,0,.261.194l9.748,3.8a.611.611,0,0,0,.818-.714L38.168,37.476a.611.611,0,0,1-.012-.238L42.784,6.072a.611.611,0,0,0-.208-.555A22.449,22.449,0,0,0,32.809.452C24.094-1.468,15.154,2.994,8.427,8.819c-1.328,1.15-2.6,2.358-3.848,3.6a.607.607,0,0,0-.158.591l5.089,18.6a.6.6,0,0,1,0,.324L.023,65.24A.6.6,0,0,0,0,65.454l.7,8.729a.613.613,0,0,0,1.144.248l7.025-12.5a.611.611,0,0,1,1.1.531L1.454,82.608a.6.6,0,0,0-.046.283l3.9,48.369a.6.6,0,0,0,.462.535c10.045,2.478,18.527,10.87,28.847,13.389a31.293,31.293,0,0,0,12.579.339.613.613,0,0,0,.511-.623L46.128,96.722a.63.63,0,0,1,.009-.123l2.854-16.412a.6.6,0,0,0-.01-.253l-3.787-14.87a.61.61,0,0,0-.3-.385" transform="translate(104.726 0.163)" fill="#ecb544"/>
    <path id="Fill_14" data-name="Fill 14" d="M107.548,34.421c-2.207-.7-4.581-.141-6.853.289s-4.77.69-6.764-.5c-5.825-3.469-1.968-15.033-8.1-17.9-4.3-2.008-9.649,2.58-13.866.4-5.043-2.606-2.674-11.343-6.9-15.171-2.8-2.537-7.356-1.667-10.361.61s-5.016,5.627-7.56,8.424-6.123,5.179-9.814,4.513c-4.568-.824-8.109-6.079-12.654-5.133-3.838.8-5.393,5.46-5.932,9.4S17.6,27.908,14.2,29.887C12.288,31,9.956,30.945,7.75,30.982s-4.6.274-6.225,1.787S-.756,40.027,1.232,41H8.243a3.792,3.792,0,0,1,1.6-3.267c1.728-1.117,3.951-.913,5.981-.636s4.224.56,6.02-.442c4.076-2.274,3.146-9.146,6.883-11.957,2.95-2.219,7.181-.719,10.207,1.39s5.947,4.873,9.607,5.142c3.774.277,7.133-2.183,10.319-4.258s7.167-3.912,10.626-2.356c3.493,1.571,4.865,5.891,7.8,8.373,3.233,2.733,7.8,2.853,11.872,3.914A12.5,12.5,0,0,1,95.777,41h16.047c.935-2.148-2.07-5.881-4.277-6.579" transform="translate(98.726 113.163)" fill="#dd6451"/>
    <path id="Fill_15" data-name="Fill 15" d="M81.349,13.762c-4.1-1.1-8.685-1.221-11.935-4.049-2.952-2.568-4.331-7.038-7.842-8.663-3.478-1.61-7.481.29-10.682,2.437S44.311,8.179,40.517,7.893c-3.679-.277-6.616-3.137-9.657-5.32S23.565-1.161,20.6,1.134c-3.757,2.908-2.822,10.018-6.919,12.371-1.805,1.037-4.01.745-6.051.457s-4.275-.5-6.013.658A3.964,3.964,0,0,0,.005,18H88a12.519,12.519,0,0,0-6.651-4.238" transform="translate(106.726 136.163)" fill="#bf5044"/>
    <path id="Fill_16" data-name="Fill 16" d="M61.512,11.735c-3.179.287-6.108,1.833-9.164,2.787s-6.643,1.223-9.187-.779c-3.794-2.984-3.536-9.531-7.377-12.451C31.76-1.767,26.014,1.1,22.5,4.775s-6.575,8.4-11.395,9.723c-2.608.717-5.4.31-8.029.928A7.445,7.445,0,0,0,0,17H74c-3.354-3.328-7.873-5.682-12.488-5.265" transform="translate(44.726 137.163)" fill="#a78c40"/>
    <path id="Fill_17" data-name="Fill 17" d="M103.642,27.125c-2.955-.1-6.171.64-8.7-.888-4.045-2.447-3.85-9.25-8.166-11.185-4.738-2.125-9.723,3.667-14.881,3.029-3.388-.419-5.783-3.495-7.283-6.545s-2.591-6.443-5.085-8.762C55.2-1.252,48.03-.528,43,2.6s-8.54,8.094-12.365,12.6-8.459,8.856-14.291,9.917c-3.27.595-6.72.106-9.885,1.117S-1.19,31.041.292,34H11.751a7.627,7.627,0,0,1,3.1-1.517c2.651-.6,5.462-.2,8.089-.895,4.856-1.279,7.942-5.83,11.48-9.377s9.326-6.31,13.38-3.359c3.87,2.816,3.609,9.13,7.432,12.008,2.563,1.93,6.176,1.67,9.255.751s6.03-2.41,9.233-2.688c4.65-.4,9.2,1.868,12.582,5.078h23.641c.567-2.885-3.347-6.776-6.3-6.875" transform="translate(32.726 119.163)" fill="#c1a64c"/>
    <path id="Fill_18" data-name="Fill 18" d="M75.628,21.069a8.143,8.143,0,0,0-4.8-.283,10.718,10.718,0,0,1-4.843.067c-3.506-1.107-4.464-5.454-4.428-9.032s.275-7.683-2.409-10.135c-3.226-2.946-8.5-1.549-12.385.52S38.724,6.95,34.4,6C29.966,5.029,26.266.341,21.9,1.57,19,2.386,17.533,5.477,16.714,8.3s-1.512,5.951-3.891,7.752c-1.663,1.259-3.843,1.611-5.907,2.033S2.67,19.117,1.326,20.694-.744,26.087,1.145,27H12.272a3.963,3.963,0,0,1,.75-.951c1.616-1.486,3.981-1.852,6.2-2.07s4.558-.4,6.38-1.638c2.092-1.426,3.031-3.92,4.174-6.14s2.951-4.5,5.5-4.692c2.973-.22,5.238,2.466,6.746,4.963s3.2,5.369,6.116,5.955c1.752.351,3.542-.236,5.322-.4A11.456,11.456,0,0,1,63.595,27H76.467c.943-1.292.618-5.221-.839-5.931" transform="translate(201.726 126.163)" fill="#929038"/>
    <path id="Fill_19" data-name="Fill 19" d="M40.925,10.865c-1.77.173-3.548.779-5.289.416-2.9-.6-4.579-3.569-6.078-6.146S25.809-.214,22.854.013c-2.533.194-4.329,2.552-5.465,4.842s-2.069,4.865-4.148,6.336c-1.811,1.281-4.14,1.467-6.34,1.691s-4.551.6-6.157,2.136A4.071,4.071,0,0,0,0,16H51a11.246,11.246,0,0,0-10.075-5.135" transform="translate(213.726 138.163)" fill="#7a7634"/>
    <path id="Fill_20" data-name="Fill 20" d="M73.931,99.338,54.16,4.546,57.635,2.11,51.858.263A3.226,3.226,0,0,0,51.3.085L51.235.064h0a3.209,3.209,0,0,0-1.3,0L2.562,10A3.229,3.229,0,0,0,.069,13.826L20.252,110.6a3.218,3.218,0,0,0,2.044,2.362l-.006.006L28.482,115l-.087-2.594-.314-.153,43.357-9.093a3.229,3.229,0,0,0,2.493-3.822" transform="translate(0.726 35.163)" fill="#776969"/>
    <path id="Fill_21" data-name="Fill 21" d="M71.438,103.01l-47.373,9.921a3.222,3.222,0,0,1-3.812-2.5L.069,13.807A3.225,3.225,0,0,1,2.562,9.99L49.936.069a3.221,3.221,0,0,1,3.812,2.5L73.931,99.193a3.225,3.225,0,0,1-2.494,3.817" transform="translate(6.726 37.163)" fill="#463d3c"/>
    <path id="Fill_22" data-name="Fill 22" d="M18.9,95a1.978,1.978,0,0,1-1.926-1.568L.042,12.233A1.974,1.974,0,0,1,1.568,9.9L48.69.043A2.028,2.028,0,0,1,49.1,0a1.977,1.977,0,0,1,1.926,1.569l16.935,81.2A1.971,1.971,0,0,1,66.432,85.1L19.31,94.957A1.968,1.968,0,0,1,18.9,95" transform="translate(9.726 45.163)" fill="#c9cbdc"/>
    <path id="Fill_23" data-name="Fill 23" d="M.085,6.4l.022.1A3.259,3.259,0,0,0,3.986,8.923L15.445,6.4A3.24,3.24,0,1,0,14.064.071L2.583,2.5a3.239,3.239,0,0,0-2.5,3.9" transform="translate(43.726 136.163)" fill="#fffffe"/>
    <path id="Fill_24" data-name="Fill 24" d="M2.689,8a2.662,2.662,0,0,1-2.6-2.089l-.022-.1A2.7,2.7,0,0,1,.419,3.754a2.641,2.641,0,0,1,1.7-1.19L13.776.059a2.658,2.658,0,0,1,3.151,2.016,2.706,2.706,0,0,1-.335,2.057,2.649,2.649,0,0,1-1.684,1.2L3.268,7.936A2.651,2.651,0,0,1,2.689,8" transform="translate(44.726 137.163)" fill="#322d2c"/>
    <path id="Fill_25" data-name="Fill 25" d="M14.953,1.061A1.592,1.592,0,0,0,13.106.029L1.28,2.183A1.421,1.421,0,0,0,.07,3.992a1.629,1.629,0,0,0,1.858.977l11.817-2.2a1.407,1.407,0,0,0,1.207-1.711" transform="translate(26.726 44.163)" fill="#322d2c"/>
    <path id="Fill_26" data-name="Fill 26" d="M2.527,7.366c.168-.584.687-.95.677-1.581-.008-.526-.39-.877-.513-1.373a1.951,1.951,0,0,1,.444-1.637c.337-.4.753-.63,1.1-1A2.6,2.6,0,0,0,4.99,0L0,2.693V10l3.006-.741a3.577,3.577,0,0,1-.267-.418,2.09,2.09,0,0,1-.213-1.475" transform="translate(49.726 126.163)" fill="#6a4561"/>
    <path id="Fill_27" data-name="Fill 27" d="M22.735,0,1.844.415l-.6,3.145A70.631,70.631,0,0,0,.2,22.113L.27,23l13.565-2.884V13.076l5.581-2.594a2.346,2.346,0,0,1-.842,1.707c-.391.359-.856.585-1.233.966a1.7,1.7,0,0,0-.5,1.577c.138.478.565.816.574,1.323.01.608-.57.961-.758,1.523A1.772,1.772,0,0,0,16.9,19a3.429,3.429,0,0,0,.3.4L29,16.892,22.735,0" transform="translate(35.726 116.163)" fill="#7f5770"/>
    <path id="Fill_28" data-name="Fill 28" d="M19.831,19,24,13.462C23.005,8.43,21.677,3.6,19.937.57,10.443-1.352,3.165,1.866,0,6.044c0,0,.323.945.756,2.538l1.908-.239L19.831,19" transform="translate(33.726 84.163)" fill="#db624e"/>
    <path id="Fill_29" data-name="Fill 29" d="M11.038,14.575a13.793,13.793,0,0,0,11.59,4.344L25,18.66c-.407-3.815-1.033-8.7-1.936-13.416l-4.137,5.673L1.893,0,0,.245C.243,1.167.521,2.3.8,3.6l10.242,10.98" transform="translate(34.726 92.163)" fill="#c34c3f"/>
    <path id="Fill_30" data-name="Fill 30" d="M24.523,14.438l-2.4.249a14.425,14.425,0,0,1-11.743-4.163L0,0C1.129,5.03,2.22,12.591.744,19.35A2.389,2.389,0,0,0,2.22,22.084a28.815,28.815,0,0,0,20.844-.049,2.912,2.912,0,0,0,1.925-2.964c-.1-1.17-.256-2.77-.466-4.634" transform="translate(35.726 95.163)" fill="#db624e"/>
    <path id="Fill_31" data-name="Fill 31" d="M3.463,3.918A3.465,3.465,0,0,0,5.524,2.434,6.883,6.883,0,0,1,6,0,13.883,13.883,0,0,1,0,1.215,6.7,6.7,0,0,1,.536,3.194a3.43,3.43,0,0,0,2.927.725" transform="translate(40.726 80.163)" fill="#a05b45"/>
    <path id="Fill_32" data-name="Fill 32" d="M5.667.033c0-.011,0-.021,0-.033a3.868,3.868,0,0,1-2.3,1.629A3.881,3.881,0,0,1,.1.834,7.247,7.247,0,0,1,0,3.1,7.177,7.177,0,0,0,3.939,4.97a3.614,3.614,0,0,0,1.953-.258A1.892,1.892,0,0,0,7,3.164,1.388,1.388,0,0,0,6.529,2.1,2.687,2.687,0,0,1,5.667.033" transform="translate(40.726 82.163)" fill="#f8d4b9"/>
    <path id="Fill_33" data-name="Fill 33" d="M14.646,1.943a4.613,4.613,0,0,1,1.1,4.407,5.276,5.276,0,0,1,1.259,1.084A8.2,8.2,0,0,0,18,3.642,3.839,3.839,0,0,0,16.948.881a3.682,3.682,0,0,0-3.233-.8,5.933,5.933,0,0,0-2.936,1.7A16.038,16.038,0,0,0,8.651,4.3,7.276,7.276,0,0,0,1.314,7.14a7.723,7.723,0,0,0-.541,7.691,10.138,10.138,0,0,0,6.2,5.1c1.347.413,2.8-1.173,3.6-2.291a40.905,40.905,0,0,0,1.979-3.584c.987-1.731,2.328-3.253,3.445-4.91.069-.1.134-.208.2-.312L14.433,6.422a9.693,9.693,0,0,0,.213-4.479" transform="translate(28.726 59.163)" fill="#452c25"/>
    <path id="Fill_34" data-name="Fill 34" d="M1.532,4.475A4.267,4.267,0,0,0,.249,0,8.619,8.619,0,0,1,0,4.549L2.057,7A14.972,14.972,0,0,0,3,5.576a6,6,0,0,0-1.468-1.1" transform="translate(42.726 61.163)" fill="#2a1f1b"/>
    <path id="Fill_35" data-name="Fill 35" d="M11.566,6.4A11.18,11.18,0,0,0,7.362,0,11.394,11.394,0,0,1,1.237,6.564a6.137,6.137,0,0,1-.109,4.472,2.438,2.438,0,0,1,.31,1.543A2.552,2.552,0,0,1,.8,14.067a2.924,2.924,0,0,1-.8.594c1.917,2.565,4.666,3.88,7.233,3.128,3.753-1.1,5.692-6.2,4.332-11.387" transform="translate(35.726 65.163)" fill="#f8d4b9"/>
    <path id="Fill_36" data-name="Fill 36" d="M3.755,1.689A2.829,2.829,0,0,0,2.56.194,1.848,1.848,0,0,0,.822.242,1.664,1.664,0,0,0,0,1.7a2.233,2.233,0,0,0,.6,1.35A2.6,2.6,0,0,0,2.351,4a1.561,1.561,0,0,0,1.6-.986,2.03,2.03,0,0,0-.2-1.322" transform="translate(33.726 76.163)" fill="#f8d4b9"/>
    <path id="Fill_37" data-name="Fill 37" d="M1.475,2a1.72,1.72,0,0,1-1.08-.6A1.293,1.293,0,0,1,0,.644.65.65,0,0,1,.332.089.778.778,0,0,1,.7,0a.772.772,0,0,1,.33.07,1.971,1.971,0,0,1,.781,1.02c.19.423.2.608.176.69A.57.57,0,0,1,1.508,2H1.475" transform="translate(33.726 78.163)" fill="#ed9b78"/>
    <path id="Fill_38" data-name="Fill 38" d="M2,1A1,1,0,1,1,1,0,1,1,0,0,1,2,1" transform="translate(39.726 71.163)" fill="#2a1f1b"/>
    <path id="Fill_39" data-name="Fill 39" d="M.9.657A1.379,1.379,0,0,1,.8,1.939c-.221.189-.535-.078-.7-.6A1.381,1.381,0,0,1,.2.06c.222-.189.535.079.7.6" transform="translate(44.726 70.163)" fill="#2a1f1b"/>
    <path id="Fill_40" data-name="Fill 40" d="M1.99,0A7.382,7.382,0,0,1,0,.7,1.506,1.506,0,0,0,1.329.937.906.906,0,0,0,1.99,0" transform="translate(43.726 73.163)" fill="#ed9b78"/>
    <path id="Fill_41" data-name="Fill 41" d="M.622,1.786A1.765,1.765,0,0,1,2.611.667C3,.74,3.168.119,2.776.046A2.4,2.4,0,0,0,.025,1.615c-.152.384.447.55.6.171" transform="translate(38.726 70.163)" fill="#2a1f1b"/>
    <path id="Fill_42" data-name="Fill 42" d="M.581,1.63c0-.691.525-1.087.983-.746.327.243.62-.418.294-.661C1.017-.4.008.356,0,1.63c0,.494.578.493.581,0" transform="translate(43.726 68.163)" fill="#2a1f1b"/>
    <path id="Fill_43" data-name="Fill 43" d="M5.49,3.5A3.6,3.6,0,0,0,5.6,0,10.483,10.483,0,0,1,0,2.653a3.79,3.79,0,0,0,.291.633,4.406,4.406,0,0,1,2.847-.3A4.47,4.47,0,0,1,5.058,4a3.086,3.086,0,0,0,.432-.5" transform="translate(41.726 75.163)" fill="#b64b3a"/>
    <path id="Fill_44" data-name="Fill 44" d="M0,.4A2.619,2.619,0,0,0,1.816,1.973,2.439,2.439,0,0,0,4,1.108a3.6,3.6,0,0,0-1.611-1A3.2,3.2,0,0,0,0,.4" transform="translate(41.726 78.163)" fill="#de6b50"/>
    <path id="Fill_45" data-name="Fill 45" d="M10.134,0C7.2,0,4.4,1.162,1.62,2.181c-.534.2-1.076.384-1.62.563A8.423,8.423,0,0,0,1.327,4.833L7.19,3.648a12,12,0,0,1,7.593.941C17.973,6.118,22.77,7.865,26,6.518L23.932.79a14.76,14.76,0,0,1-5.424.534C15.693,1.065,12.959,0,10.134,0" transform="translate(52.726 71.163)" fill="#c9cbdc"/>
    <path id="Fill_46" data-name="Fill 46" d="M17.728,0c-3.337,1.285-5.862,5.832-7.3,9.114a13.167,13.167,0,0,1-5.181,5.912L0,18.246A9.421,9.421,0,0,0,.75,21.841,12.691,12.691,0,0,0,1.273,23c.562-.17,1.122-.35,1.674-.537,2.867-.972,5.768-2.075,8.8-2.079,2.919,0,5.743,1.015,8.651,1.262a16.47,16.47,0,0,0,5.6-.509L17.728,0" transform="translate(50.726 50.163)" fill="#fef5eb"/>
    <path id="Fill_47" data-name="Fill 47" d="M0,1.077A2.787,2.787,0,0,0,3.115,2.939L6,2.278A9.408,9.408,0,0,1,4.722,0,15.3,15.3,0,0,1,0,1.077" transform="translate(47.726 73.163)" fill="#c34c3f"/>
    <path id="Fill_48" data-name="Fill 48" d="M4.518,3.156A7.932,7.932,0,0,1,3.831,0L1.363,1.444A2.644,2.644,0,0,0,.2,4.741,2.6,2.6,0,0,0,.331,5,18.867,18.867,0,0,0,5,4.173a10.89,10.89,0,0,1-.482-1.018" transform="translate(47.726 69.163)" fill="#db624e"/>
    <path id="Fill_49" data-name="Fill 49" d="M12.886,26.861C10.4,27.788,5.878,24.092,2.38,15.414S-.369,1.067,2.113.139,9.122,2.908,12.62,11.587s2.749,14.347.266,15.274" transform="translate(66.726 50.163)" fill="#db624e"/>
    <path id="Fill_50" data-name="Fill 50" d="M11.65,11.275c2.89,7.115,3.15,13.656.581,14.609S5.239,21.841,2.35,14.726-.8,1.07,1.768.116,8.761,4.159,11.65,11.275" transform="translate(66.726 51.163)" fill="#c34c3f"/>
    <path id="Fill_51" data-name="Fill 51" d="M6.692,2.867A4.535,4.535,0,0,0,.838.305L0,.629a38,38,0,0,0,1.393,4.28A37.979,37.979,0,0,0,3.273,9l.838-.323a4.48,4.48,0,0,0,2.581-5.81" transform="translate(67.726 60.163)" fill="#e57364"/>
    <path id="Fill_52" data-name="Fill 52" d="M3.976,7.342,2.647,0,0,.611,1.329,7.953A1.172,1.172,0,0,0,2.7,8.973l.374-.086a1.314,1.314,0,0,0,.9-1.545" transform="translate(57.726 76.163)" fill="#fef5eb"/>
    <path id="Fill_53" data-name="Fill 53" d="M0,0,1.569,14.317C2.247,15.581,6.365,19.365,11,23A27.363,27.363,0,0,1,5.4,7.1,48.756,48.756,0,0,1,0,0" transform="translate(53.726 85.163)" fill="#c34c3f"/>
    <path id="Fill_54" data-name="Fill 54" d="M23,18.9h0a3.514,3.514,0,0,0-1.709-2.418A112,112,0,0,1,0,0,25.938,25.938,0,0,0,6.069,15.853a80.865,80.865,0,0,0,10.24,6.453,6.669,6.669,0,0,0,5.531.181l-.463-.165a1.157,1.157,0,0,1-.629-1.644l.706-1.3A1.157,1.157,0,0,1,23,18.9" transform="translate(59.726 92.163)" fill="#e57364"/>
    <path id="Fill_55" data-name="Fill 55" d="M2.756.134h0A1.407,1.407,0,0,0,.976.627L.162,1.975A1.163,1.163,0,0,0,.887,3.682l.738.262a.953.953,0,0,0,1.141-.392L3.9,1.533A.788.788,0,0,0,3.457.412l-.7-.278" transform="translate(79.726 110.163)" fill="#e57364"/>
    <path id="Fill_56" data-name="Fill 56" d="M13.852,4.433c-4.209-.254-6.731-1.4-5.481-1.8C10.591,1.814,11.4,1.3,11.564.454A.382.382,0,0,0,11.1.011L6.381,1.157l-2.8,1.661a1.753,1.753,0,0,1-1.592.1,2,2,0,0,0-1.584.928l-.291.527a.946.946,0,0,0,.523,1.35l1.088.421a33.114,33.114,0,0,0,8.566,3.78,2.509,2.509,0,0,0,2.312-.59,7.849,7.849,0,0,0,2.36-3.475,1.182,1.182,0,0,0-1.115-1.427" transform="translate(80.726 108.163)" fill="#f8d4b9"/>
    <path id="Fill_57" data-name="Fill 57" d="M1.105,3.883h0a4.06,4.06,0,0,1,5.506-.161L18.038,13.8V4.176A5.553,5.553,0,0,1,19.89.058L19.954,0l5,.812a5.493,5.493,0,0,1,1.03,3.6l-.8,11.233c-.326,4.558-5.8,6.94-9.577,4.17L1.553,9.528a3.694,3.694,0,0,1-.448-5.645" transform="translate(32.726 85.163)" fill="#e57364"/>
    <path id="Fill_58" data-name="Fill 58" d="M4,1.059,0,0V2.941L4,4V1.059" transform="translate(52.726 83.163)" fill="#e57364"/>
    <path id="Fill_59" data-name="Fill 59" d="M0,10.355.228,6.707a5.926,5.926,0,0,1,.65-2.355L2.772.7A1.266,1.266,0,0,1,3.892,0h2.4A1.353,1.353,0,0,1,7.616,1.278L8,6.484a1.323,1.323,0,0,1-.97,1.39l-3.288.835L3.673,11,0,10.355" transform="translate(53.726 73.163)" fill="#f8d4b9"/>
    <path id="Fill_79" data-name="Fill 79" d="M24.422,21.6A8.8,8.8,0,0,1,18.677,24c-3.738.118-7.082-2.087-10.075-4.251a33.879,33.879,0,0,1-5.387-4.535A11.878,11.878,0,0,1,.083,9.1,8.187,8.187,0,0,1,3.541,1.175a7.4,7.4,0,0,1,8.683.482c2.808,2.524,2.872,7,5.614,9.588,1.411,1.333,3.346,1.984,5.034,2.972s3.267,2.611,3.12,4.511A4.651,4.651,0,0,1,24.422,21.6" transform="translate(204.726 63.163)" fill="#452c25"/>
    <path id="Fill_80" data-name="Fill 80" d="M7.677,7.153,10.1,2.769l.321-.99L11,1.308,10.207,0A3.3,3.3,0,0,0,7.76,2.25L5.321,10.643,0,20.374,3.258,22,8.989,11.924l-.627-.592a3.418,3.418,0,0,1-.685-4.179" transform="translate(196.726 79.163)" fill="#c9cbdc"/>
    <path id="Fill_81" data-name="Fill 81" d="M3.094.488,2.781,1.514.419,6.056a3.7,3.7,0,0,0,.669,4.33L1.7,11l.711-1.327L4,.593,3.661,0,3.094.488" transform="translate(203.726 81.163)" fill="#9096ba"/>
    <path id="Fill_82" data-name="Fill 82" d="M3.167,2.072,0,3.562.432,4.888.931,6,3.688,4.6A4.177,4.177,0,0,0,5.695,2.39L6,1.6,4.11,0,3.167,2.072" transform="translate(192.726 102.163)" fill="#f8d4b9"/>
    <path id="Fill_83" data-name="Fill 83" d="M.387,0,0,.881,2.408,3,3,1.414.387,0" transform="translate(196.726 100.163)" fill="#a05b45"/>
    <path id="Fill_84" data-name="Fill 84" d="M4,3.305V0H0V3.059A3.068,3.068,0,0,0,2,4a2.988,2.988,0,0,0,2-.692" transform="translate(210.726 75.163)" fill="#a05b45"/>
    <path id="Fill_85" data-name="Fill 85" d="M8.991,1.91H8.364A2.235,2.235,0,0,1,6.6.955a2.1,2.1,0,0,0-3.52,0l-.016.02a2.235,2.235,0,0,1-1.759.955H0L.068,3H11A2.555,2.555,0,0,0,8.991,1.91" transform="translate(207.726 90.163)" fill="#9096ba"/>
    <path id="Fill_86" data-name="Fill 86" d="M14.911,3.793,13.5.206,10.023,0A2.921,2.921,0,0,1,7.638,1.539,2.913,2.913,0,0,1,5.043.1L1.811,1.08l.255,2.3a2.539,2.539,0,0,1-.189,1.192L.259,8.424a3.3,3.3,0,0,0,1.319,4.093l1.305.792H4.168a2.432,2.432,0,0,0,1.727-.721l.015-.015a2.431,2.431,0,0,1,3.455,0,2.432,2.432,0,0,0,1.727.721h.616a2.78,2.78,0,0,1,1.972.823H2.95L3.271,18H15.44l-.266-2.323A10.3,10.3,0,0,1,16,10.325a14.916,14.916,0,0,1-1.089-6.532" transform="translate(204.726 78.163)" fill="#c9cbdc"/>
    <path id="Fill_87" data-name="Fill 87" d="M2,4.452,0,0A12.206,12.206,0,0,0,1.142,6c.062-.122.12-.245.188-.365L2,4.452" transform="translate(219.726 83.163)" fill="#9096ba"/>
    <path id="Fill_88" data-name="Fill 88" d="M19,18.042,3.647,1.582A4.987,4.987,0,0,0,0,0L1.429,3.581A25.726,25.726,0,0,1,6.45,11.464L16.131,21,19,18.042" transform="translate(218.726 79.163)" fill="#c9cbdc"/>
    <path id="Fill_89" data-name="Fill 89" d="M1.924,4.911,5,8A26.146,26.146,0,0,0,0,0L1.924,4.911" transform="translate(219.726 82.163)" fill="#9096ba"/>
    <path id="Fill_94" data-name="Fill 94" d="M1,.984c.466.154.978.188,1.425.381s.833.633.689,1.06C2.86,3.172,1.359,3.113,1.2,3.88c-.115.551.6.951.766,1.49.187.6-.313,1.163-.679,1.687a4.609,4.609,0,0,0-.705,3.78c.014.055.036.107.052.162L6,0H0C0,.446.533.831,1,.984" transform="translate(208.726 108.163)" fill="#403b52"/>
    <path id="Fill_95" data-name="Fill 95" d="M26.632,26,24.587,11.646A22.482,22.482,0,0,0,19.246,0H7.165L.621,22.448a15.534,15.534,0,0,0,.25,9.476L7.894,52h5.974L6.455,27.717l2.341-5.4c-.015-.058-.036-.114-.049-.172a5.405,5.405,0,0,1,.667-4.019c.346-.556.818-1.161.642-1.793-.161-.574-.833-1-.724-1.584.151-.816,1.57-.753,1.809-1.547a1.04,1.04,0,0,0-.651-1.126c-.423-.205-.906-.242-1.346-.405S8.194,11.1,8.2,10.625h5.67L19.346,25.1a14.529,14.529,0,0,0,6.3,7.436l14.6,8.46L42,34.853,26.632,26" transform="translate(200.726 97.163)" fill="#585271"/>
    <path id="Fill_96" data-name="Fill 96" d="M1.217,3H2.291a2,2,0,0,0,1.4-.573,2,2,0,0,1,1.4-.573H7L6.534,0H1.456L.466,1.5A3.55,3.55,0,0,1,0,2.07,1.254,1.254,0,0,0,1.217,3" transform="translate(206.726 149.163)" fill="#f8d4b9"/>
    <path id="Fill_97" data-name="Fill 97" d="M8.609,0A1.711,1.711,0,0,0,7.347.572a1.711,1.711,0,0,1-1.261.571H5.12A1.154,1.154,0,0,1,4.026.216a3.136,3.136,0,0,1-1.814,1A2.965,2.965,0,0,0,0,3H11l-.681-3H8.609" transform="translate(202.726 151.163)" fill="#fffffe"/>
    <path id="Fill_98" data-name="Fill 98" d="M2.606,3A2.964,2.964,0,0,0,5,1.092l-.224-.017A.788.788,0,0,1,4.135.234,2.466,2.466,0,0,1,2.39.894,2.583,2.583,0,0,1,.65,0V.338a.845.845,0,0,1-.484.809L0,1.21A2.856,2.856,0,0,0,2.606,3" transform="translate(209.726 77.163)" fill="#f8d4b9"/>
    <path id="Fill_99" data-name="Fill 99" d="M0,4.341A5.348,5.348,0,0,0,4.758,8C7.376,8,9.55,5.643,10,2.538A11.426,11.426,0,0,1,3.329,0,14.013,14.013,0,0,1,0,4.341" transform="translate(207.726 70.163)" fill="#f8d4b9"/>
    <path id="Fill_100" data-name="Fill 100" d="M12.015,1.306a7.932,7.932,0,0,1,2.6,5.329,34.073,34.073,0,0,1-.149,6.054,14.408,14.408,0,0,0,.588,5.992c.43,1.147,1.127,2.3.906,3.5a3.668,3.668,0,0,1-2.766,2.555A8.408,8.408,0,0,1,5.7,22.857a15.7,15.7,0,0,1-4.334-6.6A17.211,17.211,0,0,1,.091,8.124,9.641,9.641,0,0,1,4.155,1.148a6.9,6.9,0,0,1,7.86.158" transform="translate(166.726 62.163)" fill="#452c25"/>
    <path id="Fill_101" data-name="Fill 101" d="M.963,3.279A9.871,9.871,0,0,0,1.975.1L1.291,0A4.441,4.441,0,0,1,1.1.978C.687,2.26-.07,3.2.005,4.57A8.128,8.128,0,0,0,1.646,9,7.292,7.292,0,0,0,1.9,7.745L2,6.776c-.125-.09-.306-.229-.522-.417A2.531,2.531,0,0,1,.963,3.279" transform="translate(165.726 85.163)" fill="#c65736"/>
    <path id="Fill_102" data-name="Fill 102" d="M7.448,1.227a4.4,4.4,0,0,0,.19-.981L5.867,0,4.983,9.089,0,17.006,1.592,19l5.395-7.591A7.071,7.071,0,0,0,8,9.274,8.085,8.085,0,0,1,6.331,4.831c-.077-1.378.693-2.318,1.117-3.6" transform="translate(159.726 84.163)" fill="#ed9c79"/>
    <path id="Fill_103" data-name="Fill 103" d="M1,0A3.757,3.757,0,0,0,0,2.881L.783,3,1,0" transform="translate(167.726 83.163)" fill="#6a4561"/>
    <path id="Fill_104" data-name="Fill 104" d="M9.115,1.264H8.226A2.321,2.321,0,0,1,6.643.632,2.3,2.3,0,0,0,3.583.539L3.36.725a2.315,2.315,0,0,1-1.478.539H0L.06,2H11a2.8,2.8,0,0,0-1.885-.736" transform="translate(167.726 91.163)" fill="#6a4561"/>
    <path id="Fill_105" data-name="Fill 105" d="M14.995,11.929,16,7.283,15.228.915,11.54,0A3.1,3.1,0,0,1,8.607,1.736,3.1,3.1,0,0,1,6.027.127l-2.3.31A4.016,4.016,0,0,0,.372,3.405L0,4.851l.423.056L2.2,5.141A2.7,2.7,0,0,1,3.087,2.9L2.894,5.233A9,9,0,0,1,1.863,8.269a2.306,2.306,0,0,0,.524,2.937c.22.179.4.312.532.4.1.069.167.111.167.111h1.8a2.291,2.291,0,0,0,1.41-.485l.213-.167a2.291,2.291,0,0,1,2.919.083,2.289,2.289,0,0,0,1.511.569h.848a2.766,2.766,0,0,1,1.8.662H3.144L3.707,19h11.83l-.5-2.108a11.26,11.26,0,0,1-.045-4.963" transform="translate(164.726 80.163)" fill="#7f5770"/>
    <path id="Fill_106" data-name="Fill 106" d="M3.245,0,0,2.363,1.1,4,4,1.17,3.245,0" transform="translate(180.726 84.163)" fill="#c65736"/>
    <path id="Fill_107" data-name="Fill 107" d="M13.856,20.3,11.87,17.39,8.554,8.315A7.972,7.972,0,0,0,7.415,6.232L2.681,0,0,2.224,4.717,8.179l5.137,9.886v1.586a.645.645,0,0,0,.651.638h.357l.5,1.124a1,1,0,0,0,1.344.489l.805-.379a.831.831,0,0,0,.341-1.222" transform="translate(182.726 86.163)" fill="#ed9c79"/>
    <path id="Fill_108" data-name="Fill 108" d="M1.553,3.638,2.182,5,4,3.772,2.634,1.655A3.577,3.577,0,0,0,.221.036L0,0,.287,2.568a1.905,1.905,0,0,1,1.265,1.07" transform="translate(180.726 80.163)" fill="#7f5770"/>
    <path id="Fill_109" data-name="Fill 109" d="M1.336,1.24A2.073,2.073,0,0,0,0,0L.408,4,2,2.819,1.336,1.24" transform="translate(180.726 84.163)" fill="#6a4561"/>
    <path id="Fill_110" data-name="Fill 110" d="M8.361.734a3.584,3.584,0,0,1-2.18.734H4.948a.787.787,0,0,1-.742-.5A8.258,8.258,0,0,1,1.881,2.3L0,3H7.462L9.316,1.658V3h.866l.692-1.5a1.367,1.367,0,0,0,.1-.867L10.83,0h-.29a3.581,3.581,0,0,0-2.18.734" transform="translate(187.726 151.163)" fill="#7f5770"/>
    <path id="Fill_111" data-name="Fill 111" d="M6.9,3.067,5.572.884,0,0,3.239,7A18.056,18.056,0,0,0,8,5.022C7.653,4.359,7.292,3.7,6.9,3.067" transform="translate(182.726 125.163)" fill="#c65736"/>
    <path id="Fill_112" data-name="Fill 112" d="M11.83,18.765c-.051-.238-4.918-14.2-4.918-14.2A31.275,31.275,0,0,0,4.8,0,18.983,18.983,0,0,1,0,1.85L8.184,18.275,5.873,20.338c-.068.06-.141.114-.211.172a.753.753,0,0,0,.71.491H7.39a3.6,3.6,0,0,0,2.242-.716,3.373,3.373,0,0,1,2.09-.723H12l-.17-.8" transform="translate(185.726 131.163)" fill="#ed9c79"/>
    <path id="Fill_113" data-name="Fill 113" d="M8.36.734a3.581,3.581,0,0,1-2.18.734H4.948a.787.787,0,0,1-.742-.5A8.258,8.258,0,0,1,1.881,2.3L0,3H7.462L9.316,1.658V3h.866l.692-1.5a1.363,1.363,0,0,0,.095-.867L10.83,0h-.29A3.584,3.584,0,0,0,8.36.734" transform="translate(147.726 151.163)" fill="#7f5770"/>
    <path id="Fill_114" data-name="Fill 114" d="M2.643,18.381a2.5,2.5,0,0,1-.8,1.484L.21,21.335c-.067.061-.141.114-.21.172A.75.75,0,0,0,.707,22H1.88a3.335,3.335,0,0,0,2.074-.723,3.338,3.338,0,0,1,2.075-.723H6.3l-.17-.8a1.389,1.389,0,0,1,.039-.72l3.534-10.8A28.744,28.744,0,0,0,11,2.048,9.563,9.563,0,0,1,5.424,0L2.643,18.381" transform="translate(151.726 130.163)" fill="#ed9c79"/>
    <path id="Fill_115" data-name="Fill 115" d="M5.8,1.1,5.766.854.823,0,0,5.015A10.577,10.577,0,0,0,5.86,7,25.691,25.691,0,0,0,5.8,1.1" transform="translate(157.726 124.163)" fill="#c65736"/>
    <path id="Fill_116" data-name="Fill 116" d="M10.293,26.641a6.375,6.375,0,0,0,3.832-3.1c.821-1.631.953-3.832,2.546-4.713,1.519-.839,3.366.09,5.1.165a6.434,6.434,0,0,0,5.371-2.984,12.155,12.155,0,0,0,1.819-6.094,21.878,21.878,0,0,0-.207-4.62A18,18,0,0,0,24.11,0H12.371C9.747,1.622,8.325,4.732,7.3,7.651s-1.572,6-2.687,8.881A24.067,24.067,0,0,1,0,24a12.905,12.905,0,0,0,5.3,2.694,9.544,9.544,0,0,0,4.993-.054" transform="translate(155.726 99.163)" fill="#463d3c"/>
    <path id="Fill_117" data-name="Fill 117" d="M33.457,13.7c-.531-3.163-.626-6.415-1.524-9.49A19.5,19.5,0,0,0,30.124,0a22.9,22.9,0,0,1,.209,4.753A12.666,12.666,0,0,1,28.5,11.022a6.477,6.477,0,0,1-5.429,3.069c-1.75-.077-3.617-1.033-5.152-.17-1.61.906-1.743,3.171-2.573,4.848a6.468,6.468,0,0,1-3.873,3.186,9.484,9.484,0,0,1-5.046.056,12.961,12.961,0,0,1-5.358-2.772C.721,19.626.368,20,0,20.368a11.662,11.662,0,0,0,10.841,4.9c2.068-.267,4.055-1.12,6.14-1.159,2.392-.044,4.663.984,7,1.505A16.982,16.982,0,0,0,37,23.143c-2.371-2.1-3.013-6.277-3.543-9.44" transform="translate(154.726 104.163)" fill="#322d2c"/>
    <path id="Fill_118" data-name="Fill 118" d="M2.077,2.873A4.4,4.4,0,0,0,4,1.6L3.929,0,0,.5A10.144,10.144,0,0,1,.314,2.872a3.113,3.113,0,0,0,1.763,0" transform="translate(171.726 76.163)" fill="#c65736"/>
    <path id="Fill_119" data-name="Fill 119" d="M2.34,4A2.817,2.817,0,0,0,5,2.445l-.238-.058a1.193,1.193,0,0,1-.919-1.1L3.793,0a3.449,3.449,0,0,1-1.5,1.127,2.167,2.167,0,0,1-1.379,0c0,.213,0,.425-.011.636a.823.823,0,0,1-.717.773L0,2.559A2.816,2.816,0,0,0,2.34,4" transform="translate(170.726 77.163)" fill="#ed9c79"/>
    <path id="Fill_120" data-name="Fill 120" d="M.018,2.27A1.4,1.4,0,0,1,.364,1.237,3.3,3.3,0,0,1,1.27.227,1.247,1.247,0,0,1,2.6.165.986.986,0,0,1,3,.9a1.748,1.748,0,0,1-.164.824A2.155,2.155,0,0,1,1.778,2.867a1.417,1.417,0,0,1-1.531-.2A.832.832,0,0,1,.018,2.27" transform="translate(175.726 72.163)" fill="#ed9c79"/>
    <path id="Fill_121" data-name="Fill 121" d="M9,3.333A8.018,8.018,0,0,1,2.221,0,4.383,4.383,0,0,1,0,2.557,13.835,13.835,0,0,0,.531,7,4.234,4.234,0,0,0,3.466,9.958a3.978,3.978,0,0,0,3.765-2A15.089,15.089,0,0,0,9,3.333" transform="translate(168.726 68.163)" fill="#ed9c79"/>
    <path id="Fill_122" data-name="Fill 122" d="M10.3.092,10.226,0l-.82,4.034L0,13.54,2.793,16l7.143-5.288,1.041-8.353A2.931,2.931,0,0,0,10.3.092" transform="translate(117.726 88.163)" fill="#929038"/>
    <path id="Fill_123" data-name="Fill 123" d="M6.429.07A3.242,3.242,0,0,0,2.585,2.53L.31,13.144l.084.094a2.867,2.867,0,0,1,.718,2.3L0,24l2.51-1.763A9.461,9.461,0,0,0,6.355,16.4L8.935,3.814A3.186,3.186,0,0,0,6.429.07" transform="translate(128.726 75.163)" fill="#7a7634"/>
    <path id="Fill_124" data-name="Fill 124" d="M3,2.051.665,0,0,.716,2.036,3,3,2.051" transform="translate(117.726 102.163)" fill="#a05b45"/>
    <path id="Fill_125" data-name="Fill 125" d="M5,1.979,3.44,0,2.694.908.363,3.829A1.761,1.761,0,0,0,.506,6.135l.728.681A.666.666,0,0,0,2.316,6.56L2.7,5.721l.644-.153a1.031,1.031,0,0,0,.724-1.036V3.013L5,1.979" transform="translate(114.726 102.163)" fill="#f8d4b9"/>
    <path id="Fill_126" data-name="Fill 126" d="M4,1.913A6.109,6.109,0,0,1,3.77,0,6.065,6.065,0,0,0,0,3.319L1.358,5a3.859,3.859,0,0,0,1.329-.989A9.365,9.365,0,0,0,4,1.913" transform="translate(125.726 70.163)" fill="#a05b45"/>
    <path id="Fill_127" data-name="Fill 127" d="M4,1.941A5.737,5.737,0,0,1,2.955,0,9.3,9.3,0,0,1,1.486,2.1,4.315,4.315,0,0,1,0,3.094L.817,4,4,1.941" transform="translate(126.726 72.163)" fill="#f8d4b9"/>
    <path id="Fill_128" data-name="Fill 128" d="M12.534,8.993a17.683,17.683,0,0,0,1.137-3,6.4,6.4,0,0,0,.281-2.672A2.85,2.85,0,0,0,12.5,1.161a2.247,2.247,0,0,0-2.67.563A3.317,3.317,0,0,0,6.676.012,3.316,3.316,0,0,0,3.945,2.34a2.9,2.9,0,0,0-3.4.577A2.768,2.768,0,0,0,.4,6.008a4.073,4.073,0,0,0,2.653,1.8,7.882,7.882,0,0,0,3.276-.077,13.357,13.357,0,0,0,6.207,1.258" transform="translate(117.726 60.163)" fill="#452c25"/>
    <path id="Fill_129" data-name="Fill 129" d="M10.8,2.75a1.447,1.447,0,0,0-1.649.932A3.808,3.808,0,0,0,6.4,0,5.53,5.53,0,0,1,2.726,2.246,5.26,5.26,0,0,1,0,1.879,11.135,11.135,0,0,0,.461,4.773C.952,6.6,1.7,8.511,3.247,9.456a3.793,3.793,0,0,0,3.885.018,4.323,4.323,0,0,0,2-3.551,1.743,1.743,0,0,0,1.857.136A1.915,1.915,0,0,0,12,4.314,1.69,1.69,0,0,0,10.8,2.75" transform="translate(119.726 64.163)" fill="#f8d4b9"/>
    <path id="Fill_130" data-name="Fill 130" d="M2.75,3.2,12,10A29.055,29.055,0,0,0,8.559.585L0,0A9.495,9.495,0,0,0,2.75,3.2" transform="translate(132.726 80.163)" fill="#7a7634"/>
    <path id="Fill_131" data-name="Fill 131" d="M8.835,8.95A9.325,9.325,0,0,1,5.957,5.915l8.955.555c-.2-.309-.4-.616-.611-.918L11.224,1.143A2.739,2.739,0,0,0,8.79.007L4.765.283.433,2.328.167,3.559a7.4,7.4,0,0,0,1,5.547l2.12,3.338a5.7,5.7,0,0,1,.885,3.44L3.7,22.922A1.038,1.038,0,0,0,4.771,24H17.932A1.041,1.041,0,0,0,19,22.987V20.361a25.508,25.508,0,0,0-.487-4.954L8.835,8.95" transform="translate(126.726 74.163)" fill="#929038"/>
    <path id="Fill_132" data-name="Fill 132" d="M0,5.83l.8-.641L3.94,3.247,11.06.06A.661.661,0,0,1,12,.683L11.76,4.667A1.457,1.457,0,0,1,9.574,5.8l-.95-.542a6.658,6.658,0,0,0-5.43-.516L0,5.83" transform="translate(127.726 71.163)" fill="#7a7634"/>
    <path id="Fill_133" data-name="Fill 133" d="M0,0V2H13l-.328-2H0" transform="translate(131.726 98.163)" fill="#7a7634"/>
    <path id="Fill_134" data-name="Fill 134" d="M11,7.013,9.643,0,0,11.586,3.417,19l3.27-3.608A18.632,18.632,0,0,0,11,7.013" transform="translate(133.726 99.163)" fill="#403b52"/>
    <path id="Fill_135" data-name="Fill 135" d="M11.8,16.306,8.28,0A17.629,17.629,0,0,1,3.57,8.191L0,11.718l1.706,3.316a26.5,26.5,0,0,0,4.119,5.875L19.8,36,24,31.918,11.8,16.306" transform="translate(137.726 107.163)" fill="#585271"/>
    <path id="Fill_136" data-name="Fill 136" d="M4.1,0,0,4.114,1.9,6,6,1.885,4.1,0" transform="translate(156.726 139.163)" fill="#6d688a"/>
    <path id="Fill_137" data-name="Fill 137" d="M6.456,6.087,9,1.907,6.706,0,6.017.609a1.043,1.043,0,0,1-.692.264,1.048,1.048,0,0,0-.729.3L3.371,2.359a1.425,1.425,0,0,1,.262,1.395L2.887,5.865a1.349,1.349,0,0,1-.906.861l-.34.093A3,3,0,0,0,0,8H3.121A3.915,3.915,0,0,0,6.456,6.087" transform="translate(156.726 143.163)" fill="#463d3c"/>
    <path id="Fill_138" data-name="Fill 138" d="M2.759,2.466a.872.872,0,0,0,.621-.273L4,1.564,2.364,0,0,2.818.947,3.912C.97,3.938.983,3.972,1,4L2.1,2.774a.883.883,0,0,1,.655-.309" transform="translate(159.726 142.163)" fill="#a05b45"/>
    <path id="Fill_139" data-name="Fill 139" d="M7.56,4.212A4.319,4.319,0,0,1,3.943,6.14H.558a3.2,3.2,0,0,0-.2.272L0,7H4.405A4.319,4.319,0,0,0,8.022,5.071L11,.526,10.319,0,7.56,4.212" transform="translate(156.726 145.163)" fill="#fffffe"/>
    <path id="Fill_140" data-name="Fill 140" d="M13.587,0,2.676,15.206A14.324,14.324,0,0,0,0,23.869L.468,45H6.742L8.164,22.085,21.842,10.562a11.766,11.766,0,0,0,4.131-9.8L25.92,0H13.587" transform="translate(117.726 100.163)" fill="#585271"/>
    <path id="Fill_141" data-name="Fill 141" d="M0,3H7V0H0Z" transform="translate(116.726 145.163)" fill="#6d688a"/>
    <path id="Fill_142" data-name="Fill 142" d="M.558,0A3.494,3.494,0,0,0,0,1H12l-.176-1H.558" transform="translate(110.726 153.163)" fill="#fffffe"/>
    <path id="Fill_143" data-name="Fill 143" d="M1.742,2.589A.942.942,0,0,0,2.486,3H3.974L3.9,2.489,4,0H0V2.177H1a.94.94,0,0,1,.745.412" transform="translate(118.726 146.163)" fill="#a05b45"/>
    <path id="Fill_144" data-name="Fill 144" d="M10.425.726h-1.6a1.089,1.089,0,0,1-.8-.363A1.088,1.088,0,0,0,7.215,0H6.14L3.574,2.133a3.11,3.11,0,0,1-1.331.653L1.729,2.9A3.027,3.027,0,0,0,0,4H11L10.425.726" transform="translate(111.726 149.163)" fill="#463d3c"/>
    <path id="Fill_145" data-name="Fill 145" d="M.635,45H0V36.912L.558,23.484A8.218,8.218,0,0,1,2.58,18.437L14.609,4.658A7.083,7.083,0,0,0,16.365,0H17a7.7,7.7,0,0,1-1.909,5.063L3.063,18.841a7.605,7.605,0,0,0-1.871,4.668L.634,36.925V45" transform="translate(120.726 100.163)" fill="#403b52"/>
    <path id="Fill_146" data-name="Fill 146" d="M2.021,6.141l13.433,4.922L23.3,22,26,19.435,20.524,8.729A9.1,9.1,0,0,0,15.5,4.269L3.989.169A2.984,2.984,0,0,0,.171,2.113a3.2,3.2,0,0,0,1.85,4.028" transform="translate(132.726 76.163)" fill="#929038"/>
    <path id="Fill_147" data-name="Fill 147" d="M2.227,0,0,2.2.591,3,3,1.147,2.227,0" transform="translate(156.726 95.163)" fill="#a05b45"/>
    <path id="Fill_148" data-name="Fill 148" d="M5.642,3.467,3,1.449,1.99,0,0,1.486l.714.939V4.3l1.047-.469L3.113,5.517A1.245,1.245,0,0,0,5,5.618l.74-.753a.947.947,0,0,0-.093-1.4" transform="translate(156.726 96.163)" fill="#f8d4b9"/>
    <path id="Fill_149" data-name="Fill 149" d="M1.65.058.345.615a.571.571,0,0,0-.233.864L1.7,3.633A.9.9,0,0,0,3.19,3.588L3.9,2.5a.63.63,0,0,0-.062-.768L2.475.238A.729.729,0,0,0,1.65.058" transform="translate(157.726 99.163)" fill="#ed9c79"/>
    <path id="Fill_151" data-name="Fill 151" d="M263,2.426h0A2.418,2.418,0,0,0,260.59,0H2.411a2.426,2.426,0,0,0,0,4.853H57.873a2.9,2.9,0,0,1,0,5.795H34.83a2.7,2.7,0,0,0,0,5.394H86.44a2.7,2.7,0,0,1,0,5.394h-7.5a2.282,2.282,0,0,0,0,4.565h94.208a2.075,2.075,0,0,0,0-4.149H149.461a3.212,3.212,0,0,1,0-6.424h76.584a2.8,2.8,0,0,0,0-5.608H186.052a2.483,2.483,0,0,1,0-4.965H260.59A2.419,2.419,0,0,0,263,2.426" transform="translate(20.726 153.163)" fill="#df834f"/>
    <path id="Fill_6" data-name="Fill 6" d="M2.837.6C2.707.476,2.575.349,2.444.222A.942.942,0,0,0,1.292.173L.237.972c-.6.455.038,1.218.825.984L2.5,1.529c.485-.144.657-.61.336-.924" transform="translate(265.726 42.163)" fill="#ecb544"/>
    <path id="Fill_7" data-name="Fill 7" d="M8.121,1.173A38.673,38.673,0,0,0,1.584,0,.623.623,0,0,0,.921.472l-.9,3.706a.6.6,0,0,0,.015.338L7.278,25.585a.623.623,0,0,0,1.181-.019L14.973,4.409a.611.611,0,0,0-.311-.726,35.328,35.328,0,0,0-6.541-2.51" transform="translate(240.726 28.163)" fill="#ecb544"/>
    <path id="Fill_8" data-name="Fill 8" d="M3.517.477.02,14.234a.647.647,0,0,0,1.114.558l8.7-9.252A.6.6,0,0,0,9.825,4.7,43.472,43.472,0,0,0,4.542.126.662.662,0,0,0,3.517.477" transform="translate(256.726 34.163)" fill="#ecb544"/>
    <path id="Fill_11" data-name="Fill 11" d="M26.382,27.415A62.055,62.055,0,0,0,16.145.258a.6.6,0,0,0-.769-.192L10.763,2.4a.6.6,0,0,0-.213.179L.121,16.588A.615.615,0,0,0,0,16.956V41.7a.6.6,0,0,0,.94.508L7.054,38.07a.609.609,0,0,1,.757.947L.184,46.5A.614.614,0,0,0,0,46.941V77.386a.605.605,0,0,0,.758.593c.945-.26,1.884-.561,2.816-.916,9.117-3.479,16.161-11.444,19.844-20.569s4.238-19.309,2.966-29.079" transform="translate(253.726 44.163)" fill="#ecb544"/>
    <path id="Fill_60" data-name="Fill 60" d="M6.968,1.577,0,10.9,1.9,15,9.994,4.633a4.235,4.235,0,0,0,.821-1.841L11,1.777A6.25,6.25,0,0,1,7.293,0L6.968,1.577" transform="translate(238.726 89.163)" fill="#714136"/>
    <path id="Fill_61" data-name="Fill 61" d="M.442,0,0,2.242A5.821,5.821,0,0,0,3.512,4L4,1.217.442,0" transform="translate(245.726 88.163)" fill="#492924"/>
    <path id="Fill_62" data-name="Fill 62" d="M3.392,0h0A1.538,1.538,0,0,0,2.249,1.121L0,9.488c1.6,1.743,5,1.5,5,1.5C5.088,1.84,3.392,0,3.392,0" transform="translate(245.726 78.163)" fill="#bf5044"/>
    <path id="Fill_63" data-name="Fill 63" d="M3.181,3.993A3.391,3.391,0,0,0,6,1.755,1.436,1.436,0,0,1,4.837.323V0A3.946,3.946,0,0,1,3.079.967,2.9,2.9,0,0,1,1.116.711,1.427,1.427,0,0,1,0,1.966,3.36,3.36,0,0,0,3.181,3.993" transform="translate(254.726 75.163)" fill="#714136"/>
    <path id="Fill_64" data-name="Fill 64" d="M2.111,2.926A4.26,4.26,0,0,0,4,1.9V0H.016V2.468A1.558,1.558,0,0,1,0,2.654a3.153,3.153,0,0,0,2.111.272" transform="translate(255.726 73.163)" fill="#492924"/>
    <path id="Fill_65" data-name="Fill 65" d="M16.251.31,10.831.023c-.051,0-.1-.015-.148-.023A3.222,3.222,0,0,1,7.99,2.074,3.217,3.217,0,0,1,4.952.195L4.931.2,0,1.071C1.638,6.3,1.384,15.523,1.173,19.582A4.37,4.37,0,0,0,2.542,23H18.495l.127-.119A4.4,4.4,0,0,0,20,19.648C19.944,11.226,18.614,4.411,16.251.31" transform="translate(249.726 77.163)" fill="#dd6451"/>
    <path id="Fill_66" data-name="Fill 66" d="M19,9a9.26,9.26,0,0,1-9.5,9A9.261,9.261,0,0,1,0,9,9.26,9.26,0,0,1,9.5,0,9.26,9.26,0,0,1,19,9" transform="translate(247.726 55.163)" fill="#452c25"/>
    <path id="Fill_67" data-name="Fill 67" d="M6.984,0A3.018,3.018,0,0,1,4.822,1.057,2.788,2.788,0,0,1,2.7.141,4.508,4.508,0,0,1,.038,2.62C.015,2.866,0,3.115,0,3.368,0,7.031,2.463,10,5.5,10S11,7.031,11,3.368c0-.135-.01-.267-.017-.4A5.614,5.614,0,0,1,6.984,0" transform="translate(251.726 64.163)" fill="#714136"/>
    <path id="Fill_68" data-name="Fill 68" d="M5.2,1.653,1.7,0,0,5.044l.634.344A5.836,5.836,0,0,1,3.392,8.614l.277.81a5.562,5.562,0,0,1,.3,1.827A5.511,5.511,0,0,0,4.253,13L8,1.879,5.2,1.653" transform="translate(268.726 132.163)" fill="#452c25"/>
    <path id="Fill_69" data-name="Fill 69" d="M0,10.607a5.843,5.843,0,0,0,.426,1.114L.569,12,4,.089,3.055,0,0,10.607" transform="translate(273.726 135.163)" fill="#fffffe"/>
    <path id="Fill_70" data-name="Fill 70" d="M6.445,4.413,8.516,5.719l5.8,4.131L19,0H5.969L.343,18.35A7.87,7.87,0,0,0,.116,22L6.445,6.67V4.413" transform="translate(245.726 100.163)" fill="#463d3c"/>
    <path id="Fill_71" data-name="Fill 71" d="M12.753,18.348,9.462,16.273,15,5.372,8.871,1.29,6.683,0V2.23L0,17.377a7.528,7.528,0,0,0,3.541,5.069L9.43,26l-.365-5.472,3.688-2.18" transform="translate(245.726 104.163)" fill="#322d2c"/>
    <path id="Fill_72" data-name="Fill 72" d="M19,10.183,3.662,0,0,2.279.362,8l14.159,9L19,10.183" transform="translate(254.726 123.163)" fill="#463d3c"/>
    <path id="Fill_73" data-name="Fill 73" d="M13.155,0,2.707,20.411a14.142,14.142,0,0,0-1.533,5.618L0,46H8.321l.9-21.747,11-9.728A13.973,13.973,0,0,0,24.629.828L24.433,0H13.155" transform="translate(244.726 101.163)" fill="#463d3c"/>
    <path id="Fill_74" data-name="Fill 74" d="M10.43,3.515,10.943,0H5.954L5.822.649A5.492,5.492,0,0,1,3.692,3.976l-.649.476a5.408,5.408,0,0,1-1.555.792A5.4,5.4,0,0,0,0,6H11l-.57-2.485" transform="translate(239.726 147.163)" fill="#452c25"/>
    <path id="Fill_75" data-name="Fill 75" d="M1.174,0A5.572,5.572,0,0,0,.225.769L0,1H13l-.249-1H1.174" transform="translate(237.726 153.163)" fill="#fffffe"/>
    <path id="Fill_76" data-name="Fill 76" d="M5,2.259,3.458,0,0,1.749,1.674,4A4.738,4.738,0,0,0,3.4,3.534,5.213,5.213,0,0,0,5,2.259" transform="translate(268.726 85.163)" fill="#492924"/>
    <path id="Fill_77" data-name="Fill 77" d="M9.266,16.176,6.658,5.093A8.006,8.006,0,0,0,5.2,2.033L3.63,0a5.634,5.634,0,0,1-1.75,1.231A5.709,5.709,0,0,1,0,1.68L2.924,5.158,5.337,16.926,4.79,18.465a.833.833,0,0,0,.575,1.081l.512.139.219.617a1.064,1.064,0,0,0,1.477.585L10.5,19.428a.89.89,0,0,0,.3-1.361l-1.535-1.89" transform="translate(270.726 88.163)" fill="#714136"/>
    <path id="Fill_78" data-name="Fill 78" d="M.009,0h0A2.833,2.833,0,0,1,2.38,1.3L7,8.388C6.409,11.05,1.831,11,1.831,11A32.131,32.131,0,0,1,.009,0" transform="translate(265.726 77.163)" fill="#bf5044"/>
    <path id="Fill_90" data-name="Fill 90" d="M2.4,0,0,2.1.993,3,3,.384,2.4,0" transform="translate(233.726 97.163)" fill="#a05b45"/>
    <path id="Fill_91" data-name="Fill 91" d="M5.894,4.457l-.56-1.407a1.878,1.878,0,0,0-.646-.824L1.624,0,0,2.385l.077.079A1.778,1.778,0,0,1,.589,3.6,1.751,1.751,0,0,0,2.225,5.2l.2.017.9,1.415a.825.825,0,0,0,1.158.219l.842-.587a1.515,1.515,0,0,0,.566-1.809" transform="translate(235.726 98.163)" fill="#f8d4b9"/>
    <path id="Fill_92" data-name="Fill 92" d="M3.468,5.2l.35-.9A1.321,1.321,0,0,0,3.6,2.973a1.319,1.319,0,0,1-.22-1.319L4,.051,1.656,0,0,4.278,1.453,5.471A3.377,3.377,0,0,1,1.972,6a1.544,1.544,0,0,0,1.5-.8" transform="translate(240.726 133.163)" fill="#f8d4b9"/>
    <path id="Fill_93" data-name="Fill 93" d="M.966,1.7a2.024,2.024,0,0,0,.151,1.4,2.027,2.027,0,0,1,.15,1.4l-.24.958A1.063,1.063,0,0,1,0,6.3,3.647,3.647,0,0,1,.364,8.353,3.213,3.213,0,0,0,1.263,11L4,.087,1.391,0,.966,1.7" transform="translate(243.726 133.163)" fill="#fffffe"/>
    <path id="Fill_150" data-name="Fill 150" d="M.289.909,1.1.185a.8.8,0,0,1,1.11.079L3.824,2.392A.818.818,0,0,1,3.7,3.531l-.279.254a.938.938,0,0,1-1.18.012L.3,2.129A.776.776,0,0,1,.289.909" transform="translate(235.726 100.163)" fill="#714136"/>
  </g>
</svg>
