<?xml version="1.0" encoding="UTF-8"?>
<svg width="2014px" height="1896px" viewBox="0 0 2014 1896" version="1.1" xmlns="http://www.w3.org/2000/svg" xmlns:xlink="http://www.w3.org/1999/xlink">
    <!-- Generator: Sketch 63.1 (92452) - https://sketch.com -->
    <title>15889-NQH0GR</title>
    <desc>Created with Sketch.</desc>
    <defs>
        <path d="M305.868103,154.304701 C305.868103,239.104274 237.426983,307.847436 153,307.847436 C68.5730172,307.847436 0.131896552,239.104274 0.131896552,154.304701 C0.131896552,69.5051282 68.5730172,0.764615385 153,0.764615385 C237.426983,0.764615385 305.868103,69.5051282 305.868103,154.304701" id="path-1"></path>
    </defs>
    <g id="Page-2" stroke="none" stroke-width="1" fill="none" fill-rule="evenodd">
        <g id="15889-NQH0GR">
            <path d="M1988.46507,883.36992 C2042.86661,1324.46464 2112.99915,1852.60007 1006.73915,1766.73984 C-99.5208492,1680.87961 -28.1060386,1287.33012 25.0132321,883.36992 C78.1325027,479.409722 464.546909,0 1006.73915,0 C1548.93139,0 1932.0085,425.612741 1988.46507,883.36992 Z" id="Path" fill="#7564AB" fill-rule="nonzero" opacity="0.200000003" transform="translate(1007.000000, 888.000000) scale(-1, 1) translate(-1007.000000, -888.000000) "></path>
            <path d="M304.182733,1147 L1617.81727,1147 C1619.59436,1141.36284 1621.32105,1135.69723 1623,1130 L299,1130 C300.678951,1135.69723 302.402992,1141.36284 304.182733,1147" id="Fill-6" fill="#54B258"></path>
            <path d="M905.091643,460.760863 C902.042184,460.760863 899.100507,461.227567 896.329706,462.081874 C892.891178,450.277154 882.073485,441.649716 869.239469,441.649716 C865.595892,441.649716 862.125818,442.366912 858.929143,443.63255 C852.370178,431.353217 839.496729,423 824.680565,423 C803.379043,423 786.10228,440.257513 785.836767,461.644174 C772.737238,464.847822 763,476.705276 763,490.880432 C763,507.513036 776.391331,521 792.908357,521 L905.091643,521 C921.608669,521 935,507.513036 935,490.880432 C935,474.245191 921.608669,460.760863 905.091643,460.760863" id="Fill-9" fill="#FFFFFF"></path>
            <path d="M717.696783,580.817274 C715.73057,580.817274 713.831978,581.137849 712.04262,581.720962 C709.824129,573.648573 702.843553,567.751114 694.562572,567.751114 C692.211439,567.751114 689.96954,568.243029 687.907097,569.108027 C683.675578,560.7123 675.365988,555 665.805408,555 C652.057522,555 640.910448,566.800445 640.736193,581.422496 C632.283559,583.611244 626,591.716796 626,601.408637 C626,612.780729 634.639893,622 645.300616,622 L717.696783,622 C728.357506,622 737,612.780729 737,601.408637 C737,590.036545 728.357506,580.817274 717.696783,580.817274" id="Fill-10" fill="#FFFFFF"></path>
            <path d="M1363,711 C1363,719.285058 1357.05303,726 1349.71816,726 L1211.28449,726 C1203.94963,726 1198,719.285058 1198,711 C1198,702.717938 1203.94963,696 1211.28449,696 L1349.71816,696 C1357.05303,696 1363,702.717938 1363,711" id="Fill-11" fill="#5F8896"></path>
            <path d="M495.5,1026 C495.5,1026 473,1057.20271 473,1083.17443 C473,1109.14615 495.5,1113 495.5,1113 C495.5,1113 518,1109.14615 518,1083.17443 C518,1057.20271 495.5,1026 495.5,1026" id="Fill-23" fill="#53B370"></path>
            <path d="M498,1152.00844 C498,1153.10818 497.104126,1154 495.99869,1154 C494.893255,1154 494,1153.10818 494,1152.00844 L494,1085.99156 C494,1084.89182 494.893255,1084 495.99869,1084 C497.104126,1084 498,1084.89182 498,1085.99156 L498,1152.00844" id="Fill-24" fill="#874F2C"></path>
            <path d="M438.498624,1026 C438.498624,1026 416,1057.20271 416,1083.17443 C416,1109.14615 438.498624,1113 438.498624,1113 C438.498624,1113 461,1109.14615 461,1083.17443 C461,1057.20271 438.498624,1026 438.498624,1026" id="Fill-25" fill="#53B370"></path>
            <path d="M440,1152.00844 C440,1153.10818 439.104126,1154 437.99869,1154 C436.893255,1154 436,1153.10818 436,1152.00844 L436,1085.99156 C436,1084.89182 436.893255,1084 437.99869,1084 C439.104126,1084 440,1084.89182 440,1085.99156 L440,1152.00844" id="Fill-26" fill="#874F2C"></path>
            <path d="M1493.50138,1026 C1493.50138,1026 1471,1057.20271 1471,1083.17443 C1471,1109.14615 1493.50138,1113 1493.50138,1113 C1493.50138,1113 1516,1109.14615 1516,1083.17443 C1516,1057.20271 1493.50138,1026 1493.50138,1026" id="Fill-27" fill="#53B370"></path>
            <path d="M1495,1152.00844 C1495,1153.10818 1494.10413,1154 1493.00131,1154 C1491.89587,1154 1491,1153.10818 1491,1152.00844 L1491,1085.99156 C1491,1084.89182 1491.89587,1084 1493.00131,1084 C1494.10413,1084 1495,1084.89182 1495,1085.99156 L1495,1152.00844" id="Fill-28" fill="#874F2C"></path>
            <path d="M1432.5,1026 C1432.5,1026 1410,1057.20271 1410,1083.17443 C1410,1109.14615 1432.5,1113 1432.5,1113 C1432.5,1113 1455,1109.14615 1455,1083.17443 C1455,1057.20271 1432.5,1026 1432.5,1026" id="Fill-29" fill="#53B370"></path>
            <path d="M1434,1152.00844 C1434,1153.10818 1433.10413,1154 1432.00131,1154 C1430.89587,1154 1430,1153.10818 1430,1152.00844 L1430,1085.99156 C1430,1084.89182 1430.89587,1084 1432.00131,1084 C1433.10413,1084 1434,1084.89182 1434,1085.99156 L1434,1152.00844" id="Fill-30" fill="#874F2C"></path>
            <path d="M313.892337,1163 L1613.10766,1163 C1615.12736,1157.366 1617.09148,1151.69934 1619,1146 L308,1146 C309.908524,1151.69934 311.86999,1157.366 313.892337,1163" id="Fill-32" fill="#5F8896"></path>
            <polygon id="Fill-33" fill="#70C8E3" points="774 1143 1154 1143 1154 676 774 676"></polygon>
            <polygon id="Fill-34" fill="#75A5AC" points="757 675 1174 675 1174 642 757 642"></polygon>
            <polygon id="Fill-35" fill="#5F8896" points="764 688 1165 688 1165 675 764 675"></polygon>
            <polygon id="Fill-36" fill="#2E8EC1" points="774 989 1154 989 1154 952 774 952"></polygon>
            <polygon id="Fill-37" fill="#4BBBDF" points="774 951 1154 951 1154 944 774 944"></polygon>
            <polygon id="Fill-38" fill="#5F8896" points="820 1042 1117 1042 1117 1022 820 1022"></polygon>
            <polygon id="Fill-39" fill="#4BBBDF" points="774 996 1154 996 1154 989 774 989"></polygon>
            <polygon id="Fill-40" fill="#2E8EC1" points="774 991.014 1154 991.014 1154 990.986 774 990.986"></polygon>
            <polygon id="Fill-41" fill="#14B1DB" points="857 1026 1067 1026 1067 588 857 588"></polygon>
            <path d="M1009,585.5 C1009,609.524448 989.525054,629 965.498647,629 C941.474946,629 922,609.524448 922,585.5 C922,561.475552 941.474946,542 965.498647,542 C989.525054,542 1009,561.475552 1009,585.5" id="Fill-42" fill="#FFFFFE"></path>
            <path d="M1000,586 C1000,605.329617 984.329617,621 965,621 C945.670383,621 930,605.329617 930,586 C930,566.670383 945.670383,551 965,551 C984.329617,551 1000,566.670383 1000,586" id="Fill-43" fill="#E02424"></path>
            <polyline id="Fill-44" fill="#FFFFFE" points="987 578.424535 972.247635 578.424535 972.247635 564 956.749508 564 956.749508 578.424535 942 578.424535 942 593.578259 956.749508 593.578259 956.749508 608 972.247635 608 972.247635 593.578259 987 593.578259 987 578.424535"></polyline>
            <polyline id="Fill-45" fill="#FFFFFE" points="882 675 882 642 888.983994 642 888.983994 655.534414 895.016006 655.534414 895.016006 642 902 642 902 675 895.016006 675 895.016006 660.331253 888.983994 660.331253 888.983994 675 882 675"></polyline>
            <path d="M914.644417,670.44196 C915.012498,670.623232 915.451998,670.713868 915.971158,670.713868 C916.484824,670.713868 916.932564,670.623232 917.306139,670.44196 C917.679714,670.260687 917.970883,670.032635 918.182393,669.754879 C918.391155,669.480047 918.558714,669.117503 918.682324,668.67017 C918.803186,668.219913 918.880099,667.787199 918.915808,667.374951 C918.951518,666.962702 918.967999,666.465666 918.967999,665.88384 L918.967999,649.005057 C918.967999,648.423232 918.951518,647.929119 918.915808,647.513947 C918.880099,647.101699 918.803186,646.677756 918.682324,646.242118 C918.558714,645.809403 918.391155,645.45563 918.182393,645.186646 C917.970883,644.920585 917.679714,644.69838 917.306139,644.522955 C916.932564,644.350454 916.484824,644.262742 915.971158,644.262742 C915.451998,644.262742 915.012498,644.350454 914.644417,644.522955 C914.279083,644.69838 913.993407,644.920585 913.787392,645.186646 C913.584123,645.45563 913.424804,645.812327 913.309436,646.253813 C913.194067,646.695298 913.119901,647.119241 913.084192,647.525642 C913.051229,647.932043 913.034748,648.423232 913.034748,649.005057 L913.034748,665.88384 C913.034748,666.465666 913.051229,666.962702 913.084192,667.374951 C913.119901,667.787199 913.194067,668.219913 913.309436,668.67017 C913.424804,669.117503 913.584123,669.480047 913.787392,669.754879 C913.993407,670.032635 914.279083,670.260687 914.644417,670.44196 Z M915.971158,676 C914.133498,676 912.570526,675.733939 911.282241,675.204741 C909.988463,674.675543 908.961132,673.886132 908.192007,672.833584 C907.422881,671.781035 906.868013,670.547215 906.519159,669.126274 C906.173053,667.70241 906,666.030028 906,664.100356 L906,650.788542 C906,648.85887 906.173053,647.189411 906.519159,645.774318 C906.868013,644.362149 907.422881,643.140024 908.192007,642.107942 C908.961132,641.081707 909.988463,640.303991 911.282241,639.783564 C912.570526,639.260213 914.133498,639 915.971158,639 C919.544843,639 922.110424,639.99115 923.665156,641.979297 C925.222634,643.967444 926,646.902884 926,650.788542 L926,664.100356 C926,667.986013 925.222634,670.94192 923.665156,672.962228 C922.110424,674.98546 919.544843,676 915.971158,676 L915.971158,676 Z" id="Fill-46" fill="#FFFFFE"></path>
            <path d="M940.478771,676 C937.037037,676 934.468534,675.07902 932.77025,673.23706 C931.071966,671.395101 930.147546,668.567839 930,664.752351 L936.525143,663.620861 C936.552243,665.869222 936.862391,667.56207 937.452575,668.699407 C938.039747,669.839668 938.946101,670.409798 940.168624,670.409798 C941.044866,670.409798 941.683228,670.132043 942.077687,669.582379 C942.472147,669.032714 942.670882,668.31932 942.670882,667.450968 C942.670882,666.030028 942.354712,664.837139 941.719362,663.872303 C941.087022,662.907467 940.069256,661.831529 938.669076,660.641565 L934.691358,657.290952 C933.676603,656.437218 932.860584,655.636112 932.2433,654.887633 C931.626016,654.142078 931.102078,653.191861 930.680518,652.039905 C930.255947,650.885026 930.042156,649.607349 930.042156,648.201027 C930.042156,645.286053 930.930443,643.025998 932.700994,641.423785 C934.474556,639.821573 936.910569,639.014619 940.009033,639 C941.053899,639 942.008431,639.102331 942.872629,639.30407 C943.736826,639.505808 944.477567,639.783564 945.094851,640.13149 C945.712135,640.479415 946.260163,640.91213 946.738934,641.43548 C947.214694,641.955907 947.603132,642.4968 947.898223,643.055235 C948.196326,643.61367 948.452273,644.2452 948.660042,644.949822 C948.867811,645.651521 949.015357,646.318135 949.105691,646.949664 C949.196025,647.578269 949.26227,648.26535 949.307438,649.005057 L942.827462,650.004978 C942.794339,649.265271 942.758205,648.651284 942.713038,648.157171 C942.670882,647.663058 942.583559,647.151403 942.457091,646.622205 C942.330623,646.093007 942.165011,645.680759 941.954231,645.382537 C941.746462,645.087238 941.463415,644.844567 941.105089,644.654524 C940.746763,644.467404 940.322192,644.388463 939.831376,644.414777 C938.99729,644.458633 938.352906,644.771474 937.898223,645.350375 C937.443541,645.932201 937.217706,646.6339 937.217706,647.46132 C937.217706,648.113315 937.295995,648.703911 937.452575,649.233109 C937.609154,649.762307 937.865101,650.265192 938.223427,650.744686 C938.578741,651.22418 938.903945,651.607191 939.196025,651.896642 C939.485095,652.189016 939.906655,652.580798 940.457693,653.071987 L944.369166,656.378744 C945.203252,657.103832 945.928937,657.808455 946.549232,658.489688 C947.166516,659.170921 947.750678,659.945713 948.301716,660.816989 C948.852755,661.685342 949.274315,662.64433 949.566396,663.688107 C949.855465,664.731885 950,665.839984 950,667.01533 C950,669.640853 949.123758,671.79273 947.374285,673.476808 C945.624812,675.157961 943.327311,676 940.478771,676" id="Fill-47" fill="#FFFFFE"></path>
            <path d="M963.095859,655.933036 L965.367555,655.933036 C966.938741,655.933036 967.990925,655.595946 968.526943,654.927118 C969.057289,654.255614 969.32388,653.078476 969.32388,651.393028 C969.32388,650.531577 969.287011,649.852047 969.210437,649.354439 C969.131027,648.85683 968.963698,648.385975 968.702779,647.941873 C968.444697,647.495095 968.04481,647.182084 967.50312,646.994812 C966.964265,646.810215 966.252411,646.716579 965.367555,646.716579 L963.095859,646.716579 L963.095859,655.933036 Z M956,675 L956,642 L966.904708,642 C972.9654,642 976,645.159546 976,651.473287 C976,653.185488 975.758934,654.648885 975.282473,655.863478 C974.806012,657.075395 974.116846,658.025132 973.217811,658.707337 C972.321611,659.392217 971.30346,659.8818 970.16903,660.181435 C969.031764,660.48107 967.72717,660.628212 966.252411,660.628212 L963.095859,660.628212 L963.095859,675 L956,675 L956,675 Z" id="Fill-48" fill="#FFFFFE"></path>
            <polygon id="Fill-49" fill="#FFFFFE" points="980 675 987 675 987 642 980 642"></polygon>
            <polyline id="Fill-50" fill="#FFFFFE" points="997.21995 675 997.21995 646.954682 992 646.954682 992 642 1009 642 1009 646.954682 1003.85701 646.954682 1003.85701 675 997.21995 675"></polyline>
            <path d="M1016.10016,663.536279 L1019.97668,663.536279 L1018.02915,650.400486 L1016.10016,663.536279 Z M1008,675 L1014.3699,642 L1021.64865,642 L1028,675 L1021.84473,675 L1020.64441,667.693717 L1015.47218,667.693717 L1014.27186,675 L1008,675 L1008,675 Z" id="Fill-51" fill="#FFFFFE"></path>
            <polyline id="Fill-52" fill="#FFFFFE" points="1030 675 1030 642 1037.91161 642 1037.91161 670.422537 1047 670.422537 1047 675 1030 675"></polyline>
            <polygon id="Fill-53" fill="#3A819F" points="878 1026 1047 1026 1047 700 878 700"></polygon>
            <polygon id="Fill-54" fill="#75A5AC" points="840 1144 857 1144 857 1046 840 1046"></polygon>
            <polygon id="Fill-55" fill="#75A5AC" points="1070 1144 1087 1144 1087 1046 1070 1046"></polygon>
            <polygon id="Fill-56" fill="#9BB5B5" points="889 1163 1037 1163 1037 1146 889 1146"></polygon>
            <polygon id="Fill-57" fill="#AECFCE" points="889 1150 1037 1150 1037 1143 889 1143"></polygon>
            <polygon id="Fill-58" fill="#9BB5B5" points="835 1174 1091 1174 1091 1157 835 1157"></polygon>
            <polygon id="Fill-59" fill="#9BB5B5" points="774 1191 1154 1191 1154 1174 774 1174"></polygon>
            <polygon id="Fill-60" fill="#AECFCE" points="835 1165 1091 1165 1091 1158 835 1158"></polygon>
            <polygon id="Fill-61" fill="#AECFCE" points="774 1181 1154 1181 1154 1174 774 1174"></polygon>
            <polygon id="Fill-62" fill="#75A5AC" points="1158 746 1397 746 1397 713 1158 713"></polygon>
            <polygon id="Fill-63" fill="#14B1DB" points="1158 1141 1373 1141 1373 741 1158 741"></polygon>
            <polygon id="Fill-64" fill="#3A819F" points="1178 848 1223 848 1223 774 1178 774"></polygon>
            <polygon id="Fill-65" fill="#FFFFFE" points="1186 840 1219 840 1219 783 1186 783"></polygon>
            <polygon id="Fill-66" fill="#3A819F" points="1182 814 1219 814 1219 807 1182 807"></polygon>
            <polygon id="Fill-67" fill="#3A819F" points="1241 848 1286 848 1286 774 1241 774"></polygon>
            <polygon id="Fill-68" fill="#FFFFFE" points="1243 840 1276 840 1276 783 1243 783"></polygon>
            <polygon id="Fill-69" fill="#3A819F" points="1245 814 1282 814 1282 807 1245 807"></polygon>
            <polygon id="Fill-70" fill="#3A819F" points="1302 848 1347 848 1347 774 1302 774"></polygon>
            <polygon id="Fill-71" fill="#FFFFFE" points="1310 840 1343 840 1343 783 1310 783"></polygon>
            <polygon id="Fill-72" fill="#3A819F" points="1306 814 1343 814 1343 807 1306 807"></polygon>
            <polygon id="Fill-73" fill="#3A819F" points="1178 952 1223 952 1223 878 1178 878"></polygon>
            <polygon id="Fill-74" fill="#FFFFFE" points="1186 942 1219 942 1219 885 1186 885"></polygon>
            <polygon id="Fill-75" fill="#3A819F" points="1182 918 1219 918 1219 911 1182 911"></polygon>
            <polygon id="Fill-76" fill="#3A819F" points="1241 952 1286 952 1286 878 1241 878"></polygon>
            <polygon id="Fill-77" fill="#FFFFFE" points="1243 942 1276 942 1276 885 1243 885"></polygon>
            <polygon id="Fill-78" fill="#3A819F" points="1245 918 1282 918 1282 911 1245 911"></polygon>
            <polygon id="Fill-79" fill="#3A819F" points="1302 952 1347 952 1347 878 1302 878"></polygon>
            <polygon id="Fill-80" fill="#FFFFFE" points="1310 942 1343 942 1343 885 1310 885"></polygon>
            <polygon id="Fill-81" fill="#3A819F" points="1306 918 1343 918 1343 911 1306 911"></polygon>
            <polygon id="Fill-82" fill="#3A819F" points="1178 1059 1223 1059 1223 985 1178 985"></polygon>
            <polygon id="Fill-83" fill="#FFFFFE" points="1186 1050 1219 1050 1219 993 1186 993"></polygon>
            <polygon id="Fill-84" fill="#3A819F" points="1182 1022 1219 1022 1219 1015 1182 1015"></polygon>
            <polygon id="Fill-85" fill="#3A819F" points="1241 1059 1286 1059 1286 985 1241 985"></polygon>
            <polygon id="Fill-86" fill="#FFFFFE" points="1243 1050 1276 1050 1276 993 1243 993"></polygon>
            <polygon id="Fill-87" fill="#3A819F" points="1245 1022 1282 1022 1282 1015 1245 1015"></polygon>
            <polygon id="Fill-88" fill="#3A819F" points="1302 1059 1347 1059 1347 985 1302 985"></polygon>
            <polygon id="Fill-89" fill="#FFFFFE" points="1310 1050 1343 1050 1343 993 1310 993"></polygon>
            <polygon id="Fill-90" fill="#3A819F" points="1306 1022 1343 1022 1343 1015 1306 1015"></polygon>
            <polygon id="Fill-91" fill="#5F8896" points="1158 753 1390 753 1390 740 1158 740"></polygon>
            <polygon id="Fill-92" fill="#2E8EC1" points="1158 1146 1373 1146 1373 1096 1158 1096"></polygon>
            <polyline id="Fill-93" fill="#D7EDED" points="1186 781 1219 781 1186 811 1186 781"></polyline>
            <polyline id="Fill-94" fill="#D7EDED" points="1243 781 1276 781 1243 811 1243 781"></polyline>
            <polyline id="Fill-95" fill="#D7EDED" points="1310 781 1343 781 1310 811 1310 781"></polyline>
            <polyline id="Fill-96" fill="#D7EDED" points="1186 807 1219 807 1186 837 1186 807"></polyline>
            <polyline id="Fill-97" fill="#D7EDED" points="1243 807 1276 807 1243 837 1243 807"></polyline>
            <polyline id="Fill-98" fill="#D7EDED" points="1310 807 1343 807 1310 837 1310 807"></polyline>
            <polyline id="Fill-99" fill="#D7EDED" points="1186 885 1219 885 1186 915 1186 885"></polyline>
            <polyline id="Fill-100" fill="#D7EDED" points="1243 885 1276 885 1243 915 1243 885"></polyline>
            <polyline id="Fill-101" fill="#D7EDED" points="1310 885 1343 885 1310 915 1310 885"></polyline>
            <polyline id="Fill-102" fill="#D7EDED" points="1186 914 1219 914 1186 944 1186 914"></polyline>
            <polyline id="Fill-103" fill="#D7EDED" points="1243 914 1276 914 1243 944 1243 914"></polyline>
            <polyline id="Fill-104" fill="#D7EDED" points="1310 914 1343 914 1310 944 1310 914"></polyline>
            <polyline id="Fill-105" fill="#D7EDED" points="1186 996 1219 996 1186 1026 1186 996"></polyline>
            <polyline id="Fill-106" fill="#D7EDED" points="1243 996 1276 996 1243 1026 1243 996"></polyline>
            <polyline id="Fill-107" fill="#D7EDED" points="1310 996 1343 996 1310 1026 1310 996"></polyline>
            <polyline id="Fill-108" fill="#D7EDED" points="1186 1022 1219 1022 1186 1052 1186 1022"></polyline>
            <polyline id="Fill-109" fill="#D7EDED" points="1243 1022 1276 1022 1243 1052 1243 1022"></polyline>
            <polyline id="Fill-110" fill="#D7EDED" points="1310 1022 1343 1022 1310 1052 1310 1022"></polyline>
            <polygon id="Fill-111" fill="#75A5AC" points="535 746 774 746 774 713 535 713"></polygon>
            <polygon id="Fill-112" fill="#14B1DB" points="559 1141 774 1141 774 741 559 741"></polygon>
            <polygon id="Fill-113" fill="#3A819F" points="584 848 629 848 629 774 584 774"></polygon>
            <polygon id="Fill-114" fill="#FFFFFE" points="589 840 622 840 622 783 589 783"></polygon>
            <polygon id="Fill-115" fill="#3A819F" points="588 814 625 814 625 807 588 807"></polygon>
            <polygon id="Fill-116" fill="#3A819F" points="642 848 687 848 687 774 642 774"></polygon>
            <polygon id="Fill-117" fill="#FFFFFE" points="650 840 683 840 683 783 650 783"></polygon>
            <polygon id="Fill-118" fill="#3A819F" points="646 814 683 814 683 807 646 807"></polygon>
            <polygon id="Fill-119" fill="#3A819F" points="712 848 757 848 757 774 712 774"></polygon>
            <polygon id="Fill-120" fill="#FFFFFE" points="716 840 749 840 749 783 716 783"></polygon>
            <polygon id="Fill-121" fill="#3A819F" points="716 814 753 814 753 807 716 807"></polygon>
            <polygon id="Fill-122" fill="#3A819F" points="584 952 629 952 629 878 584 878"></polygon>
            <polygon id="Fill-123" fill="#FFFFFE" points="589 942 622 942 622 885 589 885"></polygon>
            <polygon id="Fill-124" fill="#3A819F" points="588 918 625 918 625 911 588 911"></polygon>
            <polygon id="Fill-125" fill="#3A819F" points="642 952 687 952 687 878 642 878"></polygon>
            <polygon id="Fill-126" fill="#FFFFFE" points="650 942 683 942 683 885 650 885"></polygon>
            <polygon id="Fill-127" fill="#3A819F" points="646 918 683 918 683 911 646 911"></polygon>
            <polygon id="Fill-128" fill="#3A819F" points="712 952 757 952 757 878 712 878"></polygon>
            <polygon id="Fill-129" fill="#FFFFFE" points="716 942 749 942 749 885 716 885"></polygon>
            <polygon id="Fill-130" fill="#3A819F" points="716 918 753 918 753 911 716 911"></polygon>
            <polygon id="Fill-131" fill="#3A819F" points="584 1059 629 1059 629 985 584 985"></polygon>
            <polygon id="Fill-132" fill="#FFFFFE" points="589 1050 622 1050 622 993 589 993"></polygon>
            <polygon id="Fill-133" fill="#3A819F" points="588 1022 625 1022 625 1015 588 1015"></polygon>
            <polygon id="Fill-134" fill="#3A819F" points="642 1059 687 1059 687 985 642 985"></polygon>
            <polygon id="Fill-135" fill="#FFFFFE" points="650 1050 683 1050 683 993 650 993"></polygon>
            <polygon id="Fill-136" fill="#3A819F" points="646 1022 683 1022 683 1015 646 1015"></polygon>
            <polygon id="Fill-137" fill="#3A819F" points="712 1059 757 1059 757 985 712 985"></polygon>
            <polygon id="Fill-138" fill="#FFFFFE" points="716 1050 749 1050 749 993 716 993"></polygon>
            <polygon id="Fill-139" fill="#3A819F" points="716 1022 753 1022 753 1015 716 1015"></polygon>
            <polygon id="Fill-140" fill="#2E8EC1" points="559 1146 774 1146 774 1096 559 1096"></polygon>
            <polygon id="Fill-141" fill="#5F8896" points="542 753 774 753 774 740 542 740"></polygon>
            <polyline id="Fill-142" fill="#D7EDED" points="589 781 622 781 589 811 589 781"></polyline>
            <polyline id="Fill-143" fill="#D7EDED" points="650 781 683 781 650 811 650 781"></polyline>
            <polyline id="Fill-144" fill="#D7EDED" points="716 781 749 781 716 811 716 781"></polyline>
            <polyline id="Fill-145" fill="#D7EDED" points="589 807 622 807 589 837 589 807"></polyline>
            <polyline id="Fill-146" fill="#D7EDED" points="650 807 683 807 650 837 650 807"></polyline>
            <polyline id="Fill-147" fill="#D7EDED" points="716 807 749 807 716 837 716 807"></polyline>
            <polyline id="Fill-148" fill="#D7EDED" points="589 885 622 885 589 915 589 885"></polyline>
            <polyline id="Fill-149" fill="#D7EDED" points="650 885 683 885 650 915 650 885"></polyline>
            <polyline id="Fill-150" fill="#D7EDED" points="716 885 749 885 716 915 716 885"></polyline>
            <polyline id="Fill-151" fill="#D7EDED" points="589 914 622 914 589 944 589 914"></polyline>
            <polyline id="Fill-152" fill="#D7EDED" points="650 914 683 914 650 944 650 914"></polyline>
            <polyline id="Fill-153" fill="#D7EDED" points="716 914 749 914 716 944 716 914"></polyline>
            <polyline id="Fill-154" fill="#D7EDED" points="589 996 622 996 589 1026 589 996"></polyline>
            <polyline id="Fill-155" fill="#D7EDED" points="650 996 683 996 650 1026 650 996"></polyline>
            <polyline id="Fill-156" fill="#D7EDED" points="716 996 749 996 716 1026 716 996"></polyline>
            <polyline id="Fill-157" fill="#D7EDED" points="589 1022 622 1022 589 1052 589 1022"></polyline>
            <polyline id="Fill-158" fill="#D7EDED" points="650 1022 683 1022 650 1052 650 1022"></polyline>
            <polyline id="Fill-159" fill="#D7EDED" points="716 1022 749 1022 716 1052 716 1022"></polyline>
            <polygon id="Fill-160" fill="#3A819F" points="918 1141 1013 1141 1013 1043 918 1043"></polygon>
            <polygon id="Fill-161" fill="#FFFFFE" points="927 1141 1009 1141 1009 1050 927 1050"></polygon>
            <polygon id="Fill-162" fill="#3A819F" points="959 1145 966 1145 966 1050 959 1050"></polygon>
            <polyline id="Fill-163" fill="#D7EDED" points="963 1050 922 1141 922 1050 963 1050"></polyline>
            <polyline id="Fill-164" fill="#D7EDED" points="1009 1050 968 1141 968 1050 1009 1050"></polyline>
            <polygon id="Fill-165" fill="#FFFFFE" points="892 742 922 742 922 712 892 712"></polygon>
            <polyline id="Fill-166" fill="#D7EDED" points="892 742 892 712 922 712 892 742"></polyline>
            <polygon id="Fill-167" fill="#FFFFFE" points="929 742 959 742 959 712 929 712"></polygon>
            <polyline id="Fill-168" fill="#D7EDED" points="929 742 929 712 959 712 929 742"></polyline>
            <polygon id="Fill-169" fill="#FFFFFE" points="972 742 1002 742 1002 712 972 712"></polygon>
            <polyline id="Fill-170" fill="#D7EDED" points="972 742 972 712 1002 712 972 742"></polyline>
            <polygon id="Fill-171" fill="#FFFFFE" points="1013 742 1043 742 1043 712 1013 712"></polygon>
            <polyline id="Fill-172" fill="#D7EDED" points="1013 742 1013 712 1043 712 1013 742"></polyline>
            <polygon id="Fill-173" fill="#FFFFFE" points="892 783 922 783 922 753 892 753"></polygon>
            <polyline id="Fill-174" fill="#D7EDED" points="892 783 892 753 922 753 892 783"></polyline>
            <polygon id="Fill-175" fill="#FFFFFE" points="929 783 959 783 959 753 929 753"></polygon>
            <polyline id="Fill-176" fill="#D7EDED" points="929 783 929 753 959 753 929 783"></polyline>
            <polygon id="Fill-177" fill="#FFFFFE" points="972 783 1002 783 1002 753 972 753"></polygon>
            <polyline id="Fill-178" fill="#D7EDED" points="972 783 972 753 1002 753 972 783"></polyline>
            <polygon id="Fill-179" fill="#FFFFFE" points="1013 783 1043 783 1043 753 1013 753"></polygon>
            <polyline id="Fill-180" fill="#D7EDED" points="1013 783 1013 753 1043 753 1013 783"></polyline>
            <polygon id="Fill-181" fill="#FFFFFE" points="892 824 922 824 922 794 892 794"></polygon>
            <polyline id="Fill-182" fill="#D7EDED" points="892 824 892 794 922 794 892 824"></polyline>
            <polygon id="Fill-183" fill="#FFFFFE" points="929 824 959 824 959 794 929 794"></polygon>
            <polyline id="Fill-184" fill="#D7EDED" points="929 824 929 794 959 794 929 824"></polyline>
            <polygon id="Fill-185" fill="#FFFFFE" points="972 824 1002 824 1002 794 972 794"></polygon>
            <polyline id="Fill-186" fill="#D7EDED" points="972 824 972 794 1002 794 972 824"></polyline>
            <polygon id="Fill-187" fill="#FFFFFE" points="1013 824 1043 824 1043 794 1013 794"></polygon>
            <polyline id="Fill-188" fill="#D7EDED" points="1013 824 1013 794 1043 794 1013 824"></polyline>
            <polygon id="Fill-189" fill="#FFFFFE" points="892 857 922 857 922 827 892 827"></polygon>
            <polyline id="Fill-190" fill="#D7EDED" points="892 857 892 827 922 827 892 857"></polyline>
            <polygon id="Fill-191" fill="#FFFFFE" points="929 857 959 857 959 827 929 827"></polygon>
            <polyline id="Fill-192" fill="#D7EDED" points="929 857 929 827 959 827 929 857"></polyline>
            <polygon id="Fill-193" fill="#FFFFFE" points="972 857 1002 857 1002 827 972 827"></polygon>
            <polyline id="Fill-194" fill="#D7EDED" points="972 857 972 827 1002 827 972 857"></polyline>
            <polygon id="Fill-195" fill="#FFFFFE" points="1013 857 1043 857 1043 827 1013 827"></polygon>
            <polyline id="Fill-196" fill="#D7EDED" points="1013 857 1013 827 1043 827 1013 857"></polyline>
            <polygon id="Fill-197" fill="#FFFFFE" points="892 898 922 898 922 868 892 868"></polygon>
            <polyline id="Fill-198" fill="#D7EDED" points="892 898 892 868 922 868 892 898"></polyline>
            <polygon id="Fill-199" fill="#FFFFFE" points="929 898 959 898 959 868 929 868"></polygon>
            <polyline id="Fill-200" fill="#D7EDED" points="929 898 929 868 959 868 929 898"></polyline>
            <polygon id="Fill-201" fill="#FFFFFE" points="972 898 1002 898 1002 868 972 868"></polygon>
            <polyline id="Fill-202" fill="#D7EDED" points="972 898 972 868 1002 868 972 898"></polyline>
            <polygon id="Fill-203" fill="#FFFFFE" points="1013 898 1043 898 1043 868 1013 868"></polygon>
            <polyline id="Fill-204" fill="#D7EDED" points="1013 898 1013 868 1043 868 1013 898"></polyline>
            <polygon id="Fill-205" fill="#FFFFFE" points="892 931 922 931 922 901 892 901"></polygon>
            <polyline id="Fill-206" fill="#D7EDED" points="892 931 892 901 922 901 892 931"></polyline>
            <polygon id="Fill-207" fill="#FFFFFE" points="929 931 959 931 959 901 929 901"></polygon>
            <polyline id="Fill-208" fill="#D7EDED" points="929 931 929 901 959 901 929 931"></polyline>
            <polygon id="Fill-209" fill="#FFFFFE" points="972 931 1002 931 1002 901 972 901"></polygon>
            <polyline id="Fill-210" fill="#D7EDED" points="972 931 972 901 1002 901 972 931"></polyline>
            <polygon id="Fill-211" fill="#FFFFFE" points="1013 931 1043 931 1043 901 1013 901"></polygon>
            <polyline id="Fill-212" fill="#D7EDED" points="1013 931 1013 901 1043 901 1013 931"></polyline>
            <polygon id="Fill-213" fill="#FFFFFE" points="892 972 922 972 922 942 892 942"></polygon>
            <polyline id="Fill-214" fill="#D7EDED" points="892 972 892 942 922 942 892 972"></polyline>
            <polygon id="Fill-215" fill="#FFFFFE" points="929 972 959 972 959 942 929 942"></polygon>
            <polyline id="Fill-216" fill="#D7EDED" points="929 972 929 942 959 942 929 972"></polyline>
            <polygon id="Fill-217" fill="#FFFFFE" points="972 972 1002 972 1002 942 972 942"></polygon>
            <polyline id="Fill-218" fill="#D7EDED" points="972 972 972 942 1002 942 972 972"></polyline>
            <polygon id="Fill-219" fill="#FFFFFE" points="1013 972 1043 972 1043 942 1013 942"></polygon>
            <polyline id="Fill-220" fill="#D7EDED" points="1013 972 1013 942 1043 942 1013 972"></polyline>
            <polygon id="Fill-221" fill="#FFFFFE" points="892 1015 922 1015 922 985 892 985"></polygon>
            <polyline id="Fill-222" fill="#D7EDED" points="892 1015 892 985 922 985 892 1015"></polyline>
            <polygon id="Fill-223" fill="#FFFFFE" points="929 1015 959 1015 959 985 929 985"></polygon>
            <polyline id="Fill-224" fill="#D7EDED" points="929 1015 929 985 959 985 929 1015"></polyline>
            <polygon id="Fill-225" fill="#FFFFFE" points="972 1015 1002 1015 1002 985 972 985"></polygon>
            <polyline id="Fill-226" fill="#D7EDED" points="972 1015 972 985 1002 985 972 1015"></polyline>
            <polygon id="Fill-227" fill="#FFFFFE" points="1013 1015 1043 1015 1043 985 1013 985"></polygon>
            <polyline id="Fill-228" fill="#D7EDED" points="1013 1015 1013 985 1043 985 1013 1015"></polyline>
            <polygon id="Fill-254" fill="#70C8E3" points="774.888 1109 777.112 1109 777.112 1092 774.888 1092"></polygon>
            <polygon id="Fill-255" fill="#89CFE0" points="559.298 1109 560.702 1109 560.702 1092 559.298 1092"></polygon>
            <polygon id="Fill-256" fill="#4BBBDF" points="559 1109 774 1109 774 1092 559 1092"></polygon>
            <polygon id="Fill-257" fill="#89CFE0" points="1373.324 1109 1376.676 1109 1376.676 1092 1373.324 1092"></polygon>
            <polygon id="Fill-258" fill="#4BBBDF" points="1158 1109 1373 1109 1373 1092 1158 1092"></polygon>
            <path d="M1094.51727,475.982554 C1097.01672,475.982554 1099.42916,476.375983 1101.70186,477.100003 C1104.5177,467.103065 1113.38705,459.794562 1123.90688,459.794562 C1126.89409,459.794562 1129.73893,460.403832 1132.35966,461.474835 C1137.73822,451.073538 1148.28968,444 1160.43626,444 C1177.89813,444 1192.05903,458.617005 1192.27787,476.728431 C1203.01653,479.444188 1211,489.484842 1211,501.489911 C1211,515.579611 1200.02141,527 1186.48009,527 L1094.51727,527 C1080.97595,527 1070,515.579611 1070,501.489911 C1070,487.402943 1080.97595,475.982554 1094.51727,475.982554" id="Fill-259" fill="#FFFFFF"></path>
            <path d="M638,1377.00132 C638,1461.50188 569.499827,1530 485,1530 C400.500173,1530 332,1461.50188 332,1377.00132 C332,1292.50076 400.500173,1224 485,1224 C569.499827,1224 638,1292.50076 638,1377.00132" id="Fill-260" fill="#5CE1E6"></path>
            <path d="M632.801465,1378.00133 L623.602929,1378.00133 C623.597673,1417.91477 607.600106,1453.96339 581.689146,1480.13114 C555.762417,1506.28032 520.045818,1522.42925 480.5,1522.43191 C440.954183,1522.42925 405.237584,1506.28032 379.310855,1480.13114 C353.399895,1453.96339 337.402328,1417.91477 337.397072,1378.00133 C337.402328,1338.08789 353.399895,1302.03926 379.310855,1275.87151 C405.237584,1249.71968 440.954183,1233.5734 480.5,1233.56809 C520.045818,1233.5734 555.762417,1249.71968 581.689146,1275.87151 C607.600106,1302.03926 623.597673,1338.08789 623.602929,1378.00133 L642,1378.00133 C642,1333.0188 623.907795,1292.20878 594.695875,1262.74122 C565.499724,1233.26039 525.068218,1214.9947 480.5,1215 C435.931783,1214.9947 395.497649,1233.26039 366.301498,1262.74122 C337.092206,1292.20878 318.994745,1333.0188 319,1378.00133 C318.994745,1422.98386 337.092206,1463.79122 366.301498,1493.25878 C395.497649,1522.74226 435.931783,1541.0053 480.5,1541 C525.068218,1541.0053 565.499724,1522.74226 594.695875,1493.25878 C623.907795,1463.79122 642,1422.98386 642,1378.00133 L632.801465,1378.00133" id="Fill-261" fill="#4CD0D5"></path>
            <path d="M436,1379 C436,1393.91184 423.911261,1406 408.998703,1406 C394.088739,1406 382,1393.91184 382,1379 C382,1364.08816 394.088739,1352 408.998703,1352 C423.911261,1352 436,1364.08816 436,1379" id="Fill-262" fill="#FFFFFE"></path>
            <path d="M403,1405.76404 C404.146396,1405.91443 405.313494,1406 406.498706,1406 C407.686506,1406 408.853604,1405.91443 410,1405.76404 L410,1352.23336 C408.853604,1352.08557 407.686506,1352 406.498706,1352 C405.313494,1352 404.146396,1352.08557 403,1352.23336 L403,1405.76404" id="Fill-263" fill="#B1CECE"></path>
            <path d="M538,1376 L538,1403.15634 C538,1415.77286 548.075537,1426 560.498547,1426 C572.924463,1426 583,1415.77286 583,1403.15634 L583,1376 L538,1376" id="Fill-264" fill="#FAD499"></path>
            <path d="M583,1376 L583,1347.20018 C583,1335.49135 572.924463,1326 560.498547,1326 C548.075537,1326 538,1335.49135 538,1347.20018 L538,1376 L583,1376" id="Fill-265" fill="#E02424"></path>
            <path d="M575,1407.98639 C575,1410.75404 572.088968,1413 568.501779,1413 C564.911032,1413 562,1410.75404 562,1407.98639 L562,1351.01635 C562,1348.24596 564.911032,1346 568.501779,1346 C572.088968,1346 575,1348.24596 575,1351.01635 L575,1407.98639" id="Fill-266" fill="#FFFFFE"></path>
            <polyline id="Fill-267" fill="#B1CECE" points="485 1328 481 1328 481 1284.49948 485 1274 485 1328"></polyline>
            <polygon id="Fill-268" fill="#FFFFFE" points="473 1328 490 1328 490 1311 473 1311"></polygon>
            <polygon id="Fill-269" fill="#6B7C7B" points="460 1474 501 1474 501 1430 460 1430"></polygon>
            <path d="M527,1473.5 C527,1477.09051 524.711294,1480 521.886877,1480 L445.113123,1480 C442.288706,1480 440,1477.09051 440,1473.5 C440,1469.90949 442.288706,1467 445.113123,1467 L521.886877,1467 C524.711294,1467 527,1469.90949 527,1473.5" id="Fill-270" fill="#4A5554"></path>
            <path d="M527,1429.5 C527,1433.09051 524.711294,1436 521.886877,1436 L445.113123,1436 C442.288706,1436 440,1433.09051 440,1429.5 C440,1425.90949 442.288706,1423 445.113123,1423 L521.886877,1423 C524.711294,1423 527,1425.90949 527,1429.5" id="Fill-271" fill="#B1CECE"></path>
            <polyline id="Fill-272" fill="#B1CECE" points="495.670252 1319 475.329748 1319 457 1349 514 1349 495.670252 1319"></polyline>
            <polygon id="Fill-273" fill="#FFFFFE" points="457 1426 514 1426 514 1348 457 1348"></polygon>
            <path d="M514,1365 L486.522411,1365 C485.128284,1365 484,1365.89461 484,1367 C484,1368.10539 485.128284,1369 486.522411,1369 L514,1369 L514,1365" id="Fill-274" fill="#B1CECE"></path>
            <path d="M514,1376 L499.446992,1376 C498.094549,1376 497,1376.89406 497,1377.99878 C497,1379.10349 498.094549,1380 499.446992,1380 L514,1380 L514,1376" id="Fill-275" fill="#B1CECE"></path>
            <path d="M514,1385 L486.522411,1385 C485.128284,1385 484,1385.89651 484,1387.00122 C484,1388.10349 485.128284,1389 486.522411,1389 L514,1389 L514,1385" id="Fill-276" fill="#B1CECE"></path>
            <path d="M514,1397 L499.446992,1397 C498.094549,1397 497,1397.89651 497,1399.00122 C497,1400.10594 498.094549,1401 499.446992,1401 L514,1401 L514,1397" id="Fill-277" fill="#B1CECE"></path>
            <path d="M514,1406 L486.522411,1406 C485.128284,1406 484,1406.89406 484,1407.99878 C484,1409.10349 485.128284,1410 486.522411,1410 L514,1410 L514,1406" id="Fill-278" fill="#B1CECE"></path>
            <path d="M485,568 C400.500173,568 332,499.499236 332,414.99868 C332,330.500764 400.500173,262 485,262 C569.499827,262 638,330.500764 638,414.99868 C638,499.499236 569.499827,568 485,568 Z" id="Fill-279" fill="#5CE1E6"></path>
            <path d="M632.801465,411.998674 L623.602929,411.998674 C623.597673,451.912115 607.600106,487.963392 581.689146,514.128487 C555.762417,540.280319 520.045818,556.426601 480.5,556.431906 C440.954183,556.426601 405.237584,540.280319 379.310855,514.128487 C353.399895,487.963392 337.402328,451.914767 337.397072,411.998674 C337.402328,372.087885 353.399895,336.036608 379.310855,309.871513 C405.237584,283.719681 440.954183,267.573399 480.5,267.568094 C520.045818,267.573399 555.762417,283.719681 581.689146,309.871513 C607.600106,336.036608 623.597673,372.085233 623.602929,411.998674 L642,411.998674 C642,367.018796 623.907795,326.208782 594.695875,296.741219 C565.499724,267.257741 525.068218,248.994696 480.5,249 C435.931783,248.994696 395.497649,267.257741 366.301498,296.741219 C337.092206,326.208782 318.994745,367.018796 319,411.998674 C318.994745,456.981204 337.092206,497.791218 366.301498,527.258781 C395.497649,556.742259 435.931783,575.005304 480.5,575 C525.068218,575.005304 565.499724,556.742259 594.695875,527.258781 C623.907795,497.791218 642,456.981204 642,411.998674 L632.801465,411.998674" id="Fill-280" fill="#4CD0D5"></path>
            <polygon id="Fill-281" fill="#648087" points="448 497 518 497 518 464 448 464"></polygon>
            <path d="M548,497.5 C548,499.432959 545.946719,501 543.413978,501 L431.586022,501 C429.053281,501 427,499.432959 427,497.5 C427,495.567041 429.053281,494 431.586022,494 L543.413978,494 C545.946719,494 548,495.567041 548,497.5" id="Fill-282" fill="#46595E"></path>
            <path d="M571,456.259343 C571,465.507067 563.601701,473 554.47661,473 L415.52339,473 C406.395687,473 399,465.507067 399,456.259343 L399,348.740657 C399,339.495579 406.395687,332 415.52339,332 L554.47661,332 C563.601701,332 571,339.495579 571,348.740657 L571,456.259343" id="Fill-283" fill="#46595E"></path>
            <polygon id="Fill-284" fill="#AFDCE1" points="410 457 558 457 558 346 410 346"></polygon>
            <polygon id="Fill-285" fill="#7FCBDB" points="410 366 558 366 558 362 410 362"></polygon>
            <polygon id="Fill-286" fill="#7FCBDB" points="410 383 558 383 558 379 410 379"></polygon>
            <polygon id="Fill-287" fill="#7FCBDB" points="410 397 558 397 558 393 410 393"></polygon>
            <polygon id="Fill-288" fill="#7FCBDB" points="410 420 558 420 558 416 410 416"></polygon>
            <polygon id="Fill-289" fill="#7FCBDB" points="410 431 558 431 558 427 410 427"></polygon>
            <polygon id="Fill-290" fill="#7FCBDB" points="410 444 558 444 558 440 410 440"></polygon>
            <path d="M440.235024,398.667443 C443.40219,425.135208 483.5,447 483.5,447 C483.5,447 523.59781,425.135208 526.764976,398.667443 C529.929466,372.199678 500.384415,358.967136 483.5,377.955405 C466.615585,358.967136 437.070534,372.199678 440.235024,398.667443 Z" id="Fill-291" fill="#E02424"></path>
            <polyline id="Fill-292" fill="#FFFFFE" points="410 425.545342 433.807006 425.545342 435.860737 414.088118 446.247578 444 462.320261 406.926376 470.732157 434.66574 480.328495 412.734533 491.518969 438.888195 501.627427 401.039976 509.750435 424.8203 516.413245 409.380564 525.135039 425.545342 558 425.545342 558 420.329215 528.278667 420.329215 515.885367 397.362606 510.320332 410.254265 501.010257 383 490.366043 422.856428 480.383646 399.522083 471.627711 419.531147 463.194804 391.721365 446.788586 429.559152 434.235085 393.403566 429.408028 420.329215 410 420.329215 410 425.545342"></polyline>
            <path d="M1797,893.00132 C1797,977.499236 1728.49924,1046 1643.99868,1046 C1559.50076,1046 1491,977.499236 1491,893.00132 C1491,808.500764 1559.50076,740 1643.99868,740 C1728.49924,740 1797,808.500764 1797,893.00132" id="Fill-293" fill="#5CE1E6"></path>
            <path d="M1795.80139,892.001326 L1786.60278,892.001326 C1786.59752,931.914767 1770.59982,967.963392 1744.68865,994.128487 C1718.76434,1020.28032 1683.04483,1036.42925 1643.49869,1036.43191 C1603.95255,1036.42925 1568.23566,1020.28032 1542.31135,994.128487 C1516.40018,967.963392 1500.39985,931.914767 1500.39722,892.001326 C1500.39985,852.087885 1516.40018,816.036608 1542.31135,789.871513 C1568.23566,763.719681 1603.95255,747.573399 1643.49869,747.568094 C1683.04483,747.573399 1718.76434,763.719681 1744.68865,789.871513 C1770.59982,816.036608 1786.59752,852.087885 1786.60278,892.001326 L1805,892.001326 C1805.00526,847.018796 1786.91027,806.208782 1757.69812,776.741219 C1728.50173,747.257741 1688.06727,728.994696 1643.49869,729 C1598.93011,728.994696 1558.49827,747.257741 1529.30188,776.741219 C1500.08973,806.208782 1481.99474,847.018796 1482,892.001326 C1481.99474,936.981204 1500.08973,977.791218 1529.30188,1007.25878 C1558.49827,1036.74226 1598.93011,1055.0053 1643.49869,1055 C1688.06727,1055.0053 1728.50173,1036.74226 1757.69812,1007.25878 C1786.91027,977.791218 1805.00526,936.981204 1805,892.001326 L1795.80139,892.001326" id="Fill-294" fill="#4CD0D5"></path>
            <path d="M1724.25503,840.06038 C1718.43121,840.06038 1653.87758,840.06038 1652.09483,840.06038 C1644.9718,839.650448 1643.81873,837.700008 1642.67362,833.449248 C1641.37176,828.616229 1639.74311,827 1630.29799,827 C1620.85021,827 1588.27982,827 1578.83469,827 C1569.38691,827 1568.73333,831.937461 1569.06278,835.485853 C1569.4002,839.151741 1570.36464,853.290477 1570.36464,853.290477 L1570.4098,853.290477 C1571.34767,870.860109 1573.61929,915.239813 1573.86372,921.973664 C1574.15863,930.096583 1576.81548,931 1580.94955,931 C1585.08362,931 1652.01247,931 1652.01247,931 C1652.01247,931 1718.94132,931 1723.07539,931 C1727.2068,931 1729.86366,930.096583 1730.15857,921.973664 C1730.45348,913.850744 1734.104,850.898772 1733.99772,846.379077 C1733.88614,841.726218 1730.15857,840.06038 1724.25503,840.06038" id="Fill-295" fill="#FFFFFF"></path>
            <polyline id="Fill-296" fill="#F0F0F0" points="1727 961 1563.79662 961 1558 857 1727 857 1727 961"></polyline>
            <path d="M1727.76695,861 C1721.57526,861 1651.99345,861 1651.99345,861 C1651.99345,861 1582.41163,861 1576.21994,861 C1570.0256,861 1565.87841,863.055734 1566.00272,868.226858 C1566.12967,873.554282 1569.71615,945.388405 1570.0256,954.678944 C1570.33505,963.969484 1573.12277,965 1577.45775,965 C1581.79272,965 1651.99345,965 1651.99345,965 C1651.99345,965 1722.19417,965 1726.52915,965 C1730.86412,965 1733.65184,963.969484 1733.96129,954.678944 C1734.27074,945.388405 1737.66679,873.387386 1737.98417,868.226858 C1738.29627,863.1617 1733.96129,861 1727.76695,861" id="Fill-297" fill="#FFFFFE"></path>
            <path d="M1683,914.5 C1683,933.000198 1668.00285,948 1649.5,948 C1630.99715,948 1616,933.000198 1616,914.5 C1616,895.997155 1630.99715,881 1649.5,881 C1668.00285,881 1683,895.997155 1683,914.5" id="Fill-298" fill="#E02424"></path>
            <polyline id="Fill-299" fill="#FFFFFE" points="1673 908.741587 1657.92434 908.741587 1657.92434 894 1643.07566 894 1643.07566 908.741587 1628 908.741587 1628 923.258413 1643.07566 923.258413 1643.07566 938 1657.92434 938 1657.92434 923.258413 1673 923.258413 1673 908.741587"></polyline>
            <path d="M436,893.00132 C436,977.499236 367.499236,1046 283.00132,1046 C198.500764,1046 130,977.499236 130,893.00132 C130,808.500764 198.500764,740 283.00132,740 C367.499236,740 436,808.500764 436,893.00132" id="Fill-300" fill="#5CE1E6"></path>
            <path d="M434.801389,892.001326 L425.602779,892.001326 C425.60015,931.914767 409.599825,967.963392 383.688654,994.128487 C357.764343,1020.28032 322.047453,1036.42925 282.501314,1036.43191 C242.955175,1036.42925 207.235657,1020.28032 181.311346,994.128487 C155.400175,967.963392 139.402478,931.914767 139.397221,892.001326 C139.402478,852.087885 155.400175,816.036608 181.311346,789.871513 C207.235657,763.719681 242.955175,747.573399 282.501314,747.568094 C322.047453,747.573399 357.764343,763.719681 383.688654,789.871513 C409.599825,816.036608 425.60015,852.087885 425.602779,892.001326 L444,892.001326 C444.005255,847.018796 425.910275,806.208782 396.698117,776.741219 C367.501728,747.257741 327.067266,728.994696 282.501314,729 C237.932734,728.994696 197.498272,747.257741 168.301883,776.741219 C139.089725,806.208782 120.994745,847.018796 121,892.001326 C120.994745,936.981204 139.089725,977.791218 168.301883,1007.25878 C197.498272,1036.74226 237.932734,1055.0053 282.501314,1055 C327.067266,1055.0053 367.501728,1036.74226 396.698117,1007.25878 C425.910275,977.791218 444.005255,936.981204 444,892.001326 L434.801389,892.001326" id="Fill-301" fill="#4CD0D5"></path>
            <path d="M351.895813,872.893827 C350.423565,874.368724 348.035132,874.368724 346.562884,872.893827 L284.106173,810.437116 C282.631276,808.964868 282.631276,806.576435 284.106173,805.104187 C285.578421,803.631938 287.966854,803.631938 289.439102,805.104187 L351.895813,867.560898 C353.368062,869.033146 353.368062,871.421579 351.895813,872.893827" id="Fill-302" fill="#B1CECE"></path>
            <path d="M290.508383,824 L200.420897,914.084897 C187.859701,926.648681 187.859701,947.015319 200.420897,959.579103 C212.984681,972.140299 233.351319,972.140299 245.915103,959.579103 L336,869.494206 L290.508383,824" id="Fill-303" fill="#FFFFFE"></path>
            <path d="M198.827298,915.113954 C188.390901,925.152928 188.390901,941.429241 198.827298,951.470769 C209.261043,961.509744 226.177401,961.509744 236.611145,951.470769 L323,868.350511 L255.06656,861 L198.827298,915.113954 Z" id="Fill-304" fill="#E02424"></path>
            <path d="M316,881.392921 L296.353514,861.746435 C295.358268,860.751188 293.741681,860.751188 292.746435,861.746435 C291.751188,862.74443 291.751188,864.358268 292.746435,865.353514 L312.392921,885 L316,881.392921" id="Fill-305" fill="#B1CECE"></path>
            <path d="M308,890.214689 L295.570792,877.785481 C294.523484,876.738173 292.829904,876.738173 291.785481,877.785481 C290.738173,878.829904 290.738173,880.523484 291.785481,881.570792 L304.214689,894 L308,890.214689" id="Fill-306" fill="#B1CECE"></path>
            <path d="M299,898.214849 L286.568434,885.783284 C285.524056,884.738905 283.827662,884.738905 282.783284,885.783284 C281.738905,886.830547 281.738905,888.524056 282.783284,889.568434 L295.214849,902 L299,898.214849" id="Fill-307" fill="#B1CECE"></path>
            <path d="M295,911.392507 L275.355701,891.74652 C274.357677,890.75116 272.743792,890.75116 271.748518,891.74652 C270.750494,892.74188 270.750494,894.358653 271.748518,895.354013 L291.392817,915 L295,911.392507" id="Fill-308" fill="#B1CECE"></path>
            <path d="M288,918.214849 L275.568434,905.783284 C274.524056,904.738905 272.827662,904.738905 271.783284,905.783284 C270.738905,906.830547 270.738905,908.524056 271.783284,909.568434 L284.214849,922 L288,918.214849" id="Fill-309" fill="#B1CECE"></path>
            <path d="M279,924.214689 L266.568434,911.785481 C265.524056,910.738173 263.830547,910.738173 262.783284,911.785481 C261.738905,912.829904 261.738905,914.523484 262.783284,915.570792 L275.214849,928 L279,924.214689" id="Fill-310" fill="#B1CECE"></path>
            <path d="M269,931.392921 L249.353514,911.746435 C248.358268,910.751188 246.741681,910.751188 245.746435,911.746435 C244.751188,912.74443 244.751188,914.358268 245.746435,915.353514 L265.392921,935 L269,931.392921" id="Fill-311" fill="#B1CECE"></path>
            <path d="M258,939.214689 L245.570792,926.785481 C244.523484,925.738173 242.829904,925.738173 241.785481,926.785481 C240.738173,927.829904 240.738173,929.523484 241.785481,930.570792 L254.214689,943 L258,939.214689" id="Fill-312" fill="#B1CECE"></path>
            <path d="M255,948.214849 L242.568434,935.783284 C241.524056,934.738905 239.827662,934.738905 238.783284,935.783284 C237.738905,936.830547 237.738905,938.524056 238.783284,939.568434 L251.214849,952 L255,948.214849" id="Fill-313" fill="#B1CECE"></path>
            <path d="M386,912.22071 C386,924.156795 377.717062,931 367.498562,931 C357.282938,931 349,924.156795 349,912.22071 C349,900.287448 367.498562,881 367.498562,881 C367.498562,881 386,900.287448 386,912.22071" id="Fill-314" fill="#E02424"></path>
            <path d="M372.617999,894 C372.617999,894 381.525742,902.840902 381.986107,910.896639 C382.443319,918.955211 371.476547,919.751714 369.597249,915.324177 C367.717952,910.896639 370.704017,900.272817 372.617999,894" id="Fill-315" fill="#FFFFFE"></path>
            <path d="M346,947.600055 C346,957.386988 339.284258,963 331,963 C322.715742,963 316,957.386988 316,947.600055 C316,937.815932 331,922 331,922 C331,922 346,937.815932 346,947.600055" id="Fill-316" fill="#E02424"></path>
            <path d="M334.948741,935 C334.948741,935 339.747064,942.365829 339.992445,949.080551 C340.239887,955.795273 334.334259,956.460722 333.321806,952.769202 C332.309354,949.080551 333.91773,940.226067 334.948741,935" id="Fill-317" fill="#FFFFFE"></path>
            <path d="M1121,1579 C1121,1663.49983 1052.49983,1732 968,1732 C883.500173,1732 815,1663.49983 815,1579 C815,1494.50017 883.500173,1426 968,1426 C1052.49983,1426 1121,1494.50017 1121,1579" id="Fill-318" fill="#5CE1E6"></path>
            <path d="M955.5,1513.99883 C951.909541,1513.99883 948.998282,1511.08757 948.998282,1507.49993 C948.998282,1503.90947 951.909541,1500.99821 955.5,1500.99821 C959.087641,1500.99821 961.9989,1503.90947 961.9989,1507.49993 C961.9989,1511.08757 959.087641,1513.99883 955.5,1513.99883 Z M955.5,1493 C944.176244,1493 935,1502.17624 935,1513.5 C935,1524.82094 944.176244,1534 955.5,1534 C966.820938,1534 976,1524.82094 976,1513.5 C976,1502.17624 966.820938,1493 955.5,1493 L955.5,1493 Z" id="Fill-319" fill="#CADDDC"></path>
            <polygon id="Fill-320" fill="#FFFFFE" points="952 1695 959 1695 959 1658 952 1658"></polygon>
            <polygon id="Fill-321" fill="#CADDDC" points="946 1673 966 1673 966 1653 946 1653"></polygon>
            <path d="M976,1659.00134 C976,1664.52347 971.509787,1669 965.970784,1669 L949.029216,1669 C943.490213,1669 939,1664.52347 939,1659.00134 C939,1653.47653 943.490213,1649 949.029216,1649 L965.970784,1649 C971.509787,1649 976,1653.47653 976,1659.00134" id="Fill-322" fill="#FFFFFE"></path>
            <path d="M1010,1637.30303 C1010,1645.41954 1003.28946,1652 995.009842,1652 L916.990158,1652 C908.713204,1652 902,1645.41954 902,1637.30303 L902,1531.69958 C902,1523.58046 908.713204,1517 916.990158,1517 L995.009842,1517 C1003.28946,1517 1010,1523.58046 1010,1531.69958 L1010,1637.30303" id="Fill-323" fill="#CADDDC"></path>
            <path d="M1004,1632.47908 C1004,1639.3957 998.095732,1645 990.815094,1645 L922.184906,1645 C914.901498,1645 909,1639.3957 909,1632.47908 L909,1542.52355 C909,1535.60693 914.901498,1530 922.184906,1530 L990.815094,1530 C998.095732,1530 1004,1535.60693 1004,1542.52355 L1004,1632.47908" id="Fill-324" fill="#FFFFFE"></path>
            <path d="M1042.55554,1712 C1040.09975,1712 1038.10835,1710.06128 1038.10835,1707.67046 L1038.10835,1500.30453 C1038.10835,1492.22786 1031.35834,1485.65643 1023.05946,1485.65643 L960.891653,1485.65643 L960.891653,1505.58083 C960.891653,1507.97165 958.902982,1509.91037 956.447192,1509.91037 C953.991402,1509.91037 952,1507.97165 952,1505.58083 L952,1481.32688 C952,1478.93872 953.991402,1477 956.447192,1477 L1023.05946,1477 C1036.26172,1477 1047,1487.4542 1047,1500.30453 L1047,1707.67046 C1047,1710.06128 1045.0086,1712 1042.55554,1712" id="Fill-325" fill="#6E7E7E"></path>
            <path d="M1006,1547 L971.817042,1547 C970.260555,1547 969,1547.89696 969,1549 C969,1550.10539 970.260555,1551 971.817042,1551 L1006,1551 L1006,1547" id="Fill-326" fill="#B1CECE"></path>
            <path d="M1004,1554 L986.640502,1554 C985.182753,1554 984,1554.89643 984,1555.99883 C984,1557.10357 985.182753,1558 986.640502,1558 L1004,1558 L1004,1554" id="Fill-327" fill="#B1CECE"></path>
            <path d="M1004,1567 L986.640502,1567 C985.182753,1567 984,1567.89643 984,1568.99883 C984,1570.10357 985.182753,1571 986.640502,1571 L1004,1571 L1004,1567" id="Fill-328" fill="#B1CECE"></path>
            <path d="M1006,1575 L971.817042,1575 C970.260555,1575 969,1575.89643 969,1576.99883 C969,1578.10357 970.260555,1579 971.817042,1579 L1006,1579 L1006,1575" id="Fill-329" fill="#B1CECE"></path>
            <path d="M1004,1584 L986.640502,1584 C985.182753,1584 984,1584.89643 984,1585.99883 C984,1587.10357 985.182753,1588 986.640502,1588 L1004,1588 L1004,1584" id="Fill-330" fill="#B1CECE"></path>
            <path d="M1004,1595 L986.640502,1595 C985.182753,1595 984,1595.89643 984,1596.99883 C984,1598.10357 985.182753,1599 986.640502,1599 L1004,1599 L1004,1595" id="Fill-331" fill="#B1CECE"></path>
            <path d="M1006,1604 L971.817042,1604 C970.260555,1604 969,1604.89643 969,1605.99883 C969,1607.10357 970.260555,1608 971.817042,1608 L1006,1608 L1006,1604" id="Fill-332" fill="#B1CECE"></path>
            <path d="M1004,1612 L986.640502,1612 C985.182753,1612 984,1612.89643 984,1613.99883 C984,1615.10357 985.182753,1616 986.640502,1616 L1004,1616 L1004,1612" id="Fill-333" fill="#B1CECE"></path>
            <path d="M1004,1625 L986.640502,1625 C985.182753,1625 984,1625.89643 984,1626.99883 C984,1628.10357 985.182753,1629 986.640502,1629 L1004,1629 L1004,1625" id="Fill-334" fill="#B1CECE"></path>
            <path d="M1114.80146,1577 L1105.60293,1577 C1105.59767,1616.91312 1089.60011,1652.96145 1063.68915,1679.12898 C1037.76242,1705.2806 1002.04582,1721.42675 962.5,1721.43206 C922.954183,1721.42675 887.237584,1705.2806 861.310855,1679.12898 C835.399895,1652.96145 819.402328,1616.91312 819.397072,1577 C819.402328,1537.08688 835.399895,1501.03855 861.310855,1474.87102 C887.237584,1448.7194 922.954183,1432.57325 962.5,1432.56794 C1002.04582,1432.57325 1037.76242,1448.7194 1063.68915,1474.87102 C1089.60011,1501.03855 1105.59767,1537.08688 1105.60293,1577 L1124,1577 C1124,1532.01784 1105.9078,1491.21081 1076.69587,1461.74083 C1047.49972,1432.26024 1007.06822,1414 962.5,1414 C917.931783,1414 877.500278,1432.26024 848.301498,1461.74083 C819.092206,1491.21081 800.994745,1532.01784 801,1577 C800.994745,1621.98216 819.092206,1662.78919 848.301498,1692.25917 C877.500278,1721.73975 917.931783,1740.0053 962.5,1740 C1007.06822,1740.0053 1047.49972,1721.73975 1076.69587,1692.25917 C1105.9078,1662.78919 1124,1621.98216 1124,1577 L1114.80146,1577" id="Fill-335" fill="#4CD0D5"></path>
            <path d="M1595,414.99868 C1595,499.499236 1526.49983,568 1442,568 C1357.50017,568 1289,499.499236 1289,414.99868 C1289,330.500764 1357.50017,262 1442,262 C1526.49983,262 1595,330.500764 1595,414.99868" id="Fill-336" fill="#5CE1E6"></path>
            <path d="M1598.80146,411.998674 L1589.60293,411.998674 C1589.59767,451.912115 1573.60011,487.963392 1547.68915,514.128487 C1521.76242,540.280319 1486.04582,556.426601 1446.5,556.431906 C1406.95418,556.426601 1371.23758,540.280319 1345.31085,514.128487 C1319.39989,487.963392 1303.40233,451.914767 1303.39707,411.998674 C1303.40233,372.087885 1319.39989,336.036608 1345.31085,309.871513 C1371.23758,283.719681 1406.95418,267.573399 1446.5,267.568094 C1486.04582,267.573399 1521.76242,283.719681 1547.68915,309.871513 C1573.60011,336.036608 1589.59767,372.085233 1589.60293,411.998674 L1608,411.998674 C1608,367.018796 1589.90779,326.208782 1560.6985,296.741219 C1531.49972,267.257741 1491.06822,248.994696 1446.5,249 C1401.93178,248.994696 1361.50028,267.257741 1332.30413,296.741219 C1303.09221,326.208782 1285,367.018796 1285,411.998674 C1285,456.981204 1303.09221,497.791218 1332.30413,527.258781 C1361.50028,556.742259 1401.93178,575.005304 1446.5,575 C1491.06822,575.005304 1531.49972,556.742259 1560.6985,527.258781 C1589.90779,497.791218 1608,456.981204 1608,411.998674 L1598.80146,411.998674" id="Fill-337" fill="#4CD0D5"></path>
            <path d="M1451.21014,468 C1429.70509,468 1410.3062,455.189045 1401.7934,435.36331 C1399.67688,430.43682 1401.94125,424.721364 1406.84609,422.599224 C1411.75871,420.477084 1417.44947,422.747643 1419.56081,427.671529 C1425.01553,440.370519 1437.43716,448.575259 1451.21014,448.575259 C1470.20182,448.575259 1485.65038,433.064108 1485.65038,413.998698 C1485.65038,394.933288 1470.20182,379.424741 1451.21014,379.424741 C1445.86695,379.424741 1441.53533,375.076307 1441.53533,369.712371 C1441.53533,364.348434 1445.86695,360 1451.21014,360 C1480.87004,360 1505,384.223642 1505,413.998698 C1505,443.773754 1480.87004,468 1451.21014,468" id="Fill-338" fill="#666B68"></path>
            <path d="M1492,487.129546 C1492,494.791498 1485.62357,501 1477.75438,501 L1411.24562,501 C1403.37643,501 1397,494.791498 1397,487.129546 L1397,481.870454 C1397,474.211169 1403.37643,468 1411.24562,468 L1477.75438,468 C1485.62357,468 1492,474.211169 1492,481.870454 L1492,487.129546" id="Fill-339" fill="#FFFFFE"></path>
            <path d="M1501.98774,494 L1387.01226,494 C1381.48349,494 1377,501.6117 1377,511 L1512,511 C1512,501.6117 1507.51651,494 1501.98774,494" id="Fill-340" fill="#666B68"></path>
            <path d="M1462,464.998532 C1462,478.808336 1451.92691,490 1439.5,490 C1427.07309,490 1417,478.808336 1417,464.998532 C1417,451.194599 1427.07309,440 1439.5,440 C1451.92691,440 1462,451.194599 1462,464.998532" id="Fill-341" fill="#91D0D0"></path>
            <path d="M1454,466.998714 C1454,472.521543 1449.52354,477 1444,477 C1438.47646,477 1434,472.521543 1434,466.998714 C1434,461.478457 1438.47646,457 1444,457 C1449.52354,457 1454,461.478457 1454,466.998714" id="Fill-342" fill="#666B68"></path>
            <polygon id="Fill-343" fill="#FFFFFE" points="1384 436 1441 436 1441 423 1384 423"></polygon>
            <path d="M1412.69803,394.610109 C1413.85135,392.84005 1416.04265,392.472857 1417.59139,393.790986 L1423.58865,398.894029 C1425.14013,400.212158 1425.46141,402.713465 1424.3081,404.486662 L1413.2994,421.386961 C1412.14609,423.160158 1409.95478,423.527351 1408.40604,422.209222 L1402.40879,417.106179 C1400.86005,415.78805 1400.53877,413.283605 1401.69209,411.513546 L1412.69803,394.610109" id="Fill-344" fill="#91D0D0"></path>
            <polyline id="Fill-345" fill="#FFFFFE" points="1423.53673 419 1406 406.990152 1412.46327 399 1430 411.01244 1423.53673 419"></polyline>
            <path d="M1466.08453,312.573276 C1470.27527,306.777721 1479.37295,306.445743 1486.40398,311.833358 L1491.91781,316.407907 C1498.94884,321.795523 1501.04284,330.345372 1496.84937,336.140927 L1490.85715,344.426319 C1486.66641,350.221874 1477.56872,350.553852 1470.5377,345.169051 L1465.23436,341.106536 C1458.20333,335.718921 1455.90157,326.654223 1460.09231,320.858668 L1466.08453,312.573276" id="Fill-346" fill="#91D0D0"></path>
            <path d="M1411.21581,400.073897 L1426.35513,411.421951 C1432.08908,415.718461 1440.19734,414.521716 1444.46719,408.748194 L1451,399.908538 L1415.09598,373 L1408.56038,381.839655 C1404.29332,387.613178 1405.48186,395.777387 1411.21581,400.073897" id="Fill-347" fill="#666B68"></path>
            <polyline id="Fill-348" fill="#FFFFFE" points="1465.40307 308 1414 376.660949 1449.59417 403 1501 334.339051 1465.40307 308"></polyline>
            <polyline id="Fill-349" fill="#666B68" points="1463.8174 303 1458 311.50353 1493.1826 340 1499 331.49647 1463.8174 303"></polyline>
            <path d="M1488,376.501346 C1488,387.8219 1478.8219,397 1467.50135,397 C1456.1781,397 1447,387.8219 1447,376.501346 C1447,365.1781 1456.1781,356 1467.50135,356 C1478.8219,356 1488,365.1781 1488,376.501346" id="Fill-350" fill="#91D0D0"></path>
            <path d="M1475,380.00128 C1475,385.523992 1470.52399,390 1465.00128,390 C1459.47857,390 1455,385.523992 1455,380.00128 C1455,374.476008 1459.47857,370 1465.00128,370 C1470.52399,370 1475,374.476008 1475,380.00128" id="Fill-351" fill="#666B68"></path>
            <path d="M1121,212.99868 C1121,297.499236 1052.49983,366 968,366 C883.500173,366 815,297.499236 815,212.99868 C815,128.500764 883.500173,60 968,60 C1052.49983,60 1121,128.500764 1121,212.99868" id="Fill-352" fill="#14B1DB"></path>
            <g id="Group-379" transform="translate(815.000000, 61.000000)">
                <mask id="mask-2" fill="white">
                    <use xlink:href="#path-1"></use>
                </mask>
                <use id="Clip-354" fill="#5CE1E6" xlink:href="#path-1"></use>
                <polyline id="Fill-353" fill="#FFFFFE" mask="url(#mask-2)" points="246.293069 217.351282 184.246293 190.150769 121.753707 190.150769 59.706931 217.351282 46.3036034 307.071111 259.696397 307.071111 246.293069 217.351282"></polyline>
                <polyline id="Fill-355" fill="#4F5250" mask="url(#mask-2)" points="157.37369 201.048462 148.62631 201.048462 137.375534 242.138034 153 279.134017 168.624466 242.138034 157.37369 201.048462"></polyline>
                <polyline id="Fill-356" fill="#E3E3DD" mask="url(#mask-2)" points="121.753707 190.150769 153 279.134017 112.249241 240.990769 125.001 224.873419 99.3814138 224.335556 99.3814138 199.956838 121.753707 190.150769"></polyline>
                <polyline id="Fill-357" fill="#E3E3DD" mask="url(#mask-2)" points="184.246293 190.150769 153 279.134017 193.750759 240.990769 180.999 224.873419 206.618586 224.335556 206.618586 199.956838 184.246293 190.150769"></polyline>
                <polyline id="Fill-358" fill="#FFFFFE" mask="url(#mask-2)" points="121.685121 190.150769 133.460845 180.026752 153 180.026752 130.371828 214.887179 121.685121 190.150769"></polyline>
                <polyline id="Fill-359" fill="#FFFFFE" mask="url(#mask-2)" points="184.314879 190.150769 172.539155 180.026752 153 180.026752 175.628172 214.887179 184.314879 190.150769"></polyline>
                <polyline id="Fill-360" fill="#4F5250" mask="url(#mask-2)" points="153 180.026752 140.129534 199.853504 153 211.816325 165.870466 199.853504 153 180.026752"></polyline>
                <path d="M117.008069,132.429829 C117.008069,139.747949 113.061724,145.682991 108.194741,145.682991 C103.327759,145.682991 99.3814138,139.747949 99.3814138,132.429829 C99.3814138,125.10906 103.327759,119.174017 108.194741,119.174017 C113.061724,119.174017 117.008069,125.10906 117.008069,132.429829" id="Fill-361" fill="#F1CAA6" mask="url(#mask-2)"></path>
                <path d="M207.995586,132.429829 C207.995586,139.747949 204.049241,145.682991 199.182259,145.682991 C194.315276,145.682991 190.368931,139.747949 190.368931,132.429829 C190.368931,125.10906 194.315276,119.174017 199.182259,119.174017 C204.049241,119.174017 207.995586,125.10906 207.995586,132.429829" id="Fill-362" fill="#F1CAA6" mask="url(#mask-2)"></path>
                <path d="M199.182259,120.427265 C199.182259,152.479145 178.506155,190.150769 153,190.150769 C127.493845,190.150769 106.817741,152.479145 106.817741,120.427265 C106.817741,88.3753846 127.493845,74.0809402 153,74.0809402 C178.506155,74.0809402 199.182259,88.3753846 199.182259,120.427265" id="Fill-363" fill="#F1CAA6" mask="url(#mask-2)"></path>
                <polyline id="Fill-364" fill="#3A3D3C" mask="url(#mask-2)" points="195.29131 135.755043 181.927552 138.669573 181.927552 133.884444 195.29131 130.972564 195.29131 135.755043"></polyline>
                <polyline id="Fill-365" fill="#3A3D3C" mask="url(#mask-2)" points="110.70869 135.755043 124.072448 138.669573 124.072448 133.884444 110.70869 130.972564 110.70869 135.755043"></polyline>
                <path d="M196.966397,142.678376 L193.333966,142.678376 C193.333966,142.678376 193.333966,126.296068 193.333966,121.895128 C193.333966,117.494188 195.148862,113.315812 195.148862,104.270171 C195.148862,95.2218803 185.647034,86.3325641 180.561103,86.5763248 L182.434034,68.1035043 C182.434034,68.1035043 221.921224,80.5723932 206.658155,125.318376 C206.658155,125.318376 196.966397,125.318376 196.966397,142.678376" id="Fill-366" fill="#6D5143" mask="url(#mask-2)"></path>
                <path d="M99.3814138,82.135641 C105.467121,69.4971795 120.843621,55.8810256 145.590052,54.4979487 C180.181241,52.5611111 182.658259,68.1035043 182.658259,68.1035043 L180.962069,86.6876068 C180.962069,86.6876068 179.856776,100.86812 154.84919,101.355641 C129.862707,101.845812 109.513707,99.0717094 110.808931,108.944017 L110.811569,108.973162 C111.333879,112.870684 111.668897,115.385128 111.885207,117.022564 C111.980172,117.663761 112.067224,118.278462 112.141086,118.869316 L112.141086,118.871966 C112.188569,119.240256 112.228138,119.597949 112.259793,119.950342 L112.259793,119.952991 L112.259793,119.950342 C112.323103,120.623333 112.362672,121.269829 112.362672,121.895128 C112.362672,126.296068 112.362672,142.678376 112.362672,142.678376 L108.727603,142.678376 C108.727603,125.318376 100.724121,125.318376 100.724121,125.318376 C98.1837931,117.870427 91.4913621,98.5179487 99.3814138,82.135641" id="Fill-367" fill="#6D5143" mask="url(#mask-2)"></path>
                <polygon id="Fill-368" fill="#3A3D3C" mask="url(#mask-2)" points="141.493345 139.440598 163.72319 139.440598 163.72319 134.984017 141.493345 134.984017"></polygon>
                <path d="M147.919345,136.841368 C147.919345,145.253761 141.131948,152.073761 132.756517,152.073761 C124.378448,152.073761 117.591052,145.253761 117.591052,136.841368 C117.591052,128.428974 124.378448,121.608974 132.756517,121.608974 C141.131948,121.608974 147.919345,128.428974 147.919345,136.841368" id="Fill-369" fill="#FFFFFE" mask="url(#mask-2)"></path>
                <path d="M188.408948,136.841368 C188.408948,145.253761 181.618914,152.073761 173.243483,152.073761 C164.868052,152.073761 158.078017,145.253761 158.078017,136.841368 C158.078017,128.428974 164.868052,121.608974 173.243483,121.608974 C181.618914,121.608974 188.408948,128.428974 188.408948,136.841368" id="Fill-370" fill="#FFFFFE" mask="url(#mask-2)"></path>
                <path d="M188.408948,136.841368 C188.408948,145.253761 181.618914,152.073761 173.243483,152.073761 C164.868052,152.073761 158.078017,145.253761 158.078017,136.841368 C158.078017,128.428974 164.868052,121.608974 173.243483,121.608974 C181.618914,121.608974 188.408948,128.428974 188.408948,136.841368" id="Fill-371" fill="#FFFFFE" mask="url(#mask-2)"></path>
                <polygon id="Fill-372" fill="#BCD1CF" mask="url(#mask-2)" points="190.730328 274.664188 222.055759 274.664188 222.055759 258.729658 190.730328 258.729658"></polygon>
                <polygon id="Fill-373" fill="#709DA4" mask="url(#mask-2)" points="190.730328 263.501538 222.055759 263.501538 222.055759 258.729658 190.730328 258.729658"></polygon>
                <polyline id="Fill-374" fill="#E15D5B" mask="url(#mask-2)" points="112.505121 263.822137 105.237621 263.822137 105.237621 256.525214 99.107069 256.525214 99.107069 263.822137 91.839569 263.822137 91.839569 269.982393 99.107069 269.982393 99.107069 277.279316 105.237621 277.279316 105.237621 269.982393 112.505121 269.982393 112.505121 263.822137"></polyline>
                <path d="M132.753879,121.608974 C124.378448,121.608974 117.591052,128.428974 117.591052,136.841368 C117.591052,141.006496 119.258224,144.779487 121.956828,147.527094 L143.514,126.107949 C140.765276,123.331197 136.961379,121.608974 132.753879,121.608974" id="Fill-375" fill="#D7EDED" mask="url(#mask-2)"></path>
                <path d="M173.243483,121.608974 C164.868052,121.608974 158.078017,128.428974 158.078017,136.841368 C158.078017,141.017094 159.755741,144.798034 162.464897,147.55094 L184.022069,126.131795 C181.273345,123.339145 177.461534,121.608974 173.243483,121.608974" id="Fill-376" fill="#D7EDED" mask="url(#mask-2)"></path>
                <path d="M132.756517,122.742991 C125.01419,122.742991 118.717448,129.067521 118.717448,136.841368 C118.717448,144.615214 125.01419,150.939744 132.756517,150.939744 C140.496207,150.939744 146.792948,144.615214 146.792948,136.841368 C146.792948,129.067521 140.496207,122.742991 132.756517,122.742991 Z M132.756517,153.205128 C123.771724,153.205128 116.462017,145.863162 116.462017,136.841368 C116.462017,127.816923 123.771724,120.477607 132.756517,120.477607 C141.738672,120.477607 149.048379,127.816923 149.048379,136.841368 C149.048379,145.863162 141.738672,153.205128 132.756517,153.205128 L132.756517,153.205128 Z" id="Fill-377" fill="#3A3D3C" mask="url(#mask-2)"></path>
                <path d="M173.246121,122.742991 C165.503793,122.742991 159.207052,129.067521 159.207052,136.841368 C159.207052,144.615214 165.503793,150.939744 173.246121,150.939744 C180.98581,150.939744 187.279914,144.615214 187.279914,136.841368 C187.279914,129.067521 180.98581,122.742991 173.246121,122.742991 Z M173.246121,153.205128 C164.261328,153.205128 156.951621,145.863162 156.951621,136.841368 C156.951621,127.816923 164.261328,120.477607 173.246121,120.477607 C182.228276,120.477607 189.537983,127.816923 189.537983,136.841368 C189.537983,145.863162 182.228276,153.205128 173.246121,153.205128 L173.246121,153.205128 Z" id="Fill-378" fill="#3A3D3C" mask="url(#mask-2)"></path>
            </g>
            <path d="M1114.80146,213.998674 L1105.60293,213.998674 C1105.59767,253.912115 1089.60011,289.963392 1063.68915,316.128487 C1037.76242,342.280319 1002.04582,358.426601 962.5,358.431906 C922.954183,358.426601 887.237584,342.280319 861.310855,316.128487 C835.399895,289.963392 819.402328,253.912115 819.397072,213.998674 C819.402328,174.085233 835.399895,138.036608 861.310855,111.871513 C887.237584,85.7196813 922.954183,69.5707461 962.5,69.5680935 C1002.04582,69.5707461 1037.76242,85.7196813 1063.68915,111.871513 C1089.60011,138.036608 1105.59767,174.085233 1105.60293,213.998674 L1124,213.998674 C1124,169.016144 1105.9078,128.208782 1076.69587,98.7412192 C1047.49972,69.2577411 1007.06822,50.994696 962.5,51 C917.931783,50.994696 877.500278,69.2577411 848.301498,98.7412192 C819.092206,128.208782 800.994745,169.016144 801,213.998674 C800.994745,258.981204 819.092206,299.791218 848.301498,329.258781 C877.500278,358.742259 917.931783,377.005304 962.5,377 C1007.06822,377.005304 1047.49972,358.742259 1076.69587,329.258781 C1105.9078,299.791218 1124,258.981204 1124,213.998674 L1114.80146,213.998674" id="Fill-380" fill="#4CD0D5"></path>
            <path d="M1595,1377.00132 C1595,1461.49924 1526.49983,1530 1442,1530 C1357.50017,1530 1289,1461.49924 1289,1377.00132 C1289,1292.50076 1357.50017,1224 1442,1224 C1526.49983,1224 1595,1292.50076 1595,1377.00132" id="Fill-381" fill="#5CE1E6"></path>
            <path d="M1598.80146,1378.00133 L1589.60293,1378.00133 C1589.59767,1417.91477 1573.60011,1453.96339 1547.68915,1480.13114 C1521.76242,1506.28032 1486.04582,1522.42925 1446.5,1522.43191 C1406.95418,1522.42925 1371.23758,1506.28032 1345.31085,1480.13114 C1319.39989,1453.96339 1303.40233,1417.91477 1303.39707,1378.00133 C1303.40233,1338.08789 1319.39989,1302.03926 1345.31085,1275.87151 C1371.23758,1249.71968 1406.95418,1233.5734 1446.5,1233.56809 C1486.04582,1233.5734 1521.76242,1249.71968 1547.68915,1275.87151 C1573.60011,1302.03926 1589.59767,1338.08789 1589.60293,1378.00133 L1608,1378.00133 C1608,1333.0188 1589.90779,1292.20878 1560.6985,1262.74122 C1531.49972,1233.26039 1491.06822,1214.9947 1446.5,1215 C1401.93178,1214.9947 1361.50028,1233.26039 1332.30413,1262.74122 C1303.09221,1292.20878 1285,1333.0188 1285,1378.00133 C1285,1422.98386 1303.09221,1463.79122 1332.30413,1493.25878 C1361.50028,1522.74226 1401.93178,1541.0053 1446.5,1541 C1491.06822,1541.0053 1531.49972,1522.74226 1560.6985,1493.25878 C1589.90779,1463.79122 1608,1422.98386 1608,1378.00133 L1598.80146,1378.00133" id="Fill-382" fill="#4CD0D5"></path>
            <path d="M1451,1347.55907 C1451,1352.22226 1447.19365,1356 1442.5014,1356 C1437.80635,1356 1434,1352.22226 1434,1347.55907 L1434,1323.44371 C1434,1318.78052 1437.80635,1315 1442.5014,1315 C1447.19365,1315 1451,1318.78052 1451,1323.44371 L1451,1347.55907" id="Fill-383" fill="#E15D5B"></path>
            <path d="M1442.99868,1309 C1441.89533,1309 1441,1307.99172 1441,1306.7462 L1441,1287.2538 C1441,1286.00828 1441.89533,1285 1442.99868,1285 C1444.10467,1285 1445,1286.00828 1445,1287.2538 L1445,1306.7462 C1445,1307.99172 1444.10467,1309 1442.99868,1309" id="Fill-384" fill="#92D2E0"></path>
            <path d="M1427.90765,1315 C1427.37009,1315 1426.83529,1314.79601 1426.42729,1314.38803 L1413.61406,1301.57532 C1412.79531,1300.75661 1412.79531,1299.43068 1413.61406,1298.61472 C1414.02205,1298.20399 1414.55686,1298 1415.09442,1298 C1415.62922,1298 1416.16402,1298.20399 1416.57478,1298.61472 L1429.38801,1311.42744 C1430.204,1312.24339 1430.204,1313.57208 1429.38801,1314.38803 C1428.97726,1314.79601 1428.44245,1315 1427.90765,1315" id="Fill-385" fill="#92D2E0"></path>
            <path d="M1460.09235,1315 C1459.55755,1315 1459.01999,1314.79601 1458.61199,1314.38803 C1457.796,1313.57208 1457.796,1312.24339 1458.61199,1311.42744 L1471.42522,1298.61472 C1471.83598,1298.20399 1472.37078,1298 1472.90558,1298 C1473.44314,1298 1473.97795,1298.20399 1474.38594,1298.61472 C1475.20469,1299.43068 1475.20469,1300.75661 1474.38594,1301.57532 L1461.57271,1314.38803 C1461.16471,1314.79601 1460.62991,1315 1460.09235,1315" id="Fill-386" fill="#92D2E0"></path>
            <polyline id="Fill-387" fill="#E02424" points="1475.44771 1422 1549 1422 1549 1392.05423 1523.91621 1382.2452 1503.14627 1352 1467 1352 1467 1422 1475.44771 1422"></polyline>
            <polyline id="Fill-388" fill="#FFFFFE" points="1479 1356 1479 1380 1512 1380 1495.5 1356 1479 1356"></polyline>
            <polygon id="Fill-389" fill="#FFFFFE" points="1354 1419 1475 1419 1475 1332 1354 1332"></polygon>
            <polygon id="Fill-390" fill="#E02424" points="1351 1423 1446.86302 1423 1475 1423 1475 1386 1351 1386"></polygon>
            <path d="M1421,1413.49865 C1421,1424.82158 1411.82158,1434 1400.50135,1434 C1389.17842,1434 1380,1424.82158 1380,1413.49865 C1380,1402.17842 1389.17842,1393 1400.50135,1393 C1411.82158,1393 1421,1402.17842 1421,1413.49865" id="Fill-391" fill="#333B3B"></path>
            <path d="M1408,1416 C1408,1421.52381 1403.52176,1426 1398.00132,1426 C1392.47824,1426 1388,1421.52381 1388,1416 C1388,1410.47619 1392.47824,1406 1398.00132,1406 C1403.52176,1406 1408,1410.47619 1408,1416" id="Fill-392" fill="#B1CECE"></path>
            <path d="M1404,1413.5 C1404,1415.43375 1402.43178,1417 1400.5,1417 C1398.56625,1417 1397,1415.43375 1397,1413.5 C1397,1411.56625 1398.56625,1410 1400.5,1410 C1402.43178,1410 1404,1411.56625 1404,1413.5" id="Fill-393" fill="#333B3B"></path>
            <path d="M1421,1359.5 C1421,1370.82103 1411.82103,1380 1400.5,1380 C1389.17608,1380 1380,1370.82103 1380,1359.5 C1380,1348.17608 1389.17608,1339 1400.5,1339 C1411.82103,1339 1421,1348.17608 1421,1359.5" id="Fill-394" fill="#E15D5B"></path>
            <polyline id="Fill-395" fill="#FFFFFE" points="1414 1357.03867 1405.95945 1357.03867 1405.95945 1349 1398.04055 1349 1398.04055 1357.03867 1390 1357.03867 1390 1364.9585 1398.04055 1364.9585 1398.04055 1373 1405.95945 1373 1405.95945 1364.9585 1414 1364.9585 1414 1357.03867"></polyline>
            <path d="M1532,1413.49865 C1532,1424.82158 1522.82158,1434 1511.49865,1434 C1500.17842,1434 1491,1424.82158 1491,1413.49865 C1491,1402.17842 1500.17842,1393 1511.49865,1393 C1522.82158,1393 1532,1402.17842 1532,1413.49865" id="Fill-396" fill="#333B3B"></path>
            <path d="M1525,1416 C1525,1421.52381 1520.52176,1426 1514.99868,1426 C1509.47824,1426 1505,1421.52381 1505,1416 C1505,1410.47619 1509.47824,1406 1514.99868,1406 C1520.52176,1406 1525,1410.47619 1525,1416" id="Fill-397" fill="#B1CECE"></path>
            <path d="M1515,1413.5 C1515,1415.43375 1513.43375,1417 1511.5,1417 C1509.56822,1417 1508,1415.43375 1508,1413.5 C1508,1411.56625 1509.56822,1410 1511.5,1410 C1513.43375,1410 1515,1411.56625 1515,1413.5" id="Fill-398" fill="#333B3B"></path>
            <polyline id="Fill-399" fill="#D7EDED" points="1478 1356 1495 1356 1478 1380 1478 1356"></polyline>
            <polygon id="Fill-400" fill="#BF504F" points="1475 1422 1479 1422 1479 1352 1475 1352"></polygon>
            <polygon id="Fill-401" fill="#BF504F" points="1354 1389 1475 1389 1475 1385 1354 1385"></polygon>
            <polyline id="Fill-423" fill="#FFFFFE" points="937.004 1890.036 936.996 1889.964 937.004 1890.036"></polyline>
            <path d="M937.226,1891.404 L937.238,1891.404 C937.038,1890.46 936.882,1889.52 936.762,1888.596 C936.882,1889.528 937.038,1890.468 937.226,1891.404" id="Fill-424" fill="#FFFFFE"></path>
            <path d="M936.086,1893 C936.594,1894.38169 937.206,1895.72193 937.914,1897 C937.194,1895.6943 936.594,1894.3506 936.098,1893 L936.086,1893" id="Fill-427" fill="#FFFFFE"></path>
        </g>
    </g>
</svg>